<svg id="icons" height="512" viewBox="0 0 60 60" width="512" xmlns="http://www.w3.org/2000/svg"><path d="m28.833 59.47a.5.5 0 0 1 -.274-.918l.322-.211-1.84 1.059a.5.5 0 0 1 -.529-.846l4.231-2.854-6.414 3.7a.5.5 0 0 1 -.53-.846l5.936-4.024-8.435 4.87a.5.5 0 0 1 -.534-.843l8.326-5.747-11.418 6.59a.5.5 0 0 1 -.527-.848l7.065-4.7-9.612 5.548a.5.5 0 0 1 -.531-.845l9.331-6.35-10.826 6.248a.5.5 0 0 1 -.522-.851l4.22-2.747-3.967 2.291a.5.5 0 0 1 -.532-.846l5.962-4.056-4.921 2.841a.5.5 0 0 1 -.547-.834l5.925-4.39-4.023 2.323a.5.5 0 0 1 -.564-.823l2.973-2.391a.5.5 0 0 1 -.141-.921l4.582-2.649a.5.5 0 0 1 .563.823l-2.3 1.853 6-3.466a.5.5 0 0 1 .548.834l-5.93 4.394 9.08-5.238a.5.5 0 0 1 .532.845l-5.963 4.055 8.491-4.9a.5.5 0 0 1 .522.851l-4.222 2.749 6.194-3.575a.5.5 0 0 1 .531.846l-9.324 6.351 11.674-6.739a.5.5 0 0 1 .526.849l-7.064 4.7 8.459-4.884a.5.5 0 0 1 .534.844l-8.328 5.748 9.706-5.6a.5.5 0 0 1 .53.847l-5.935 4.013 6.765-3.9a.5.5 0 0 1 .53.847l-4.233 2.853 4.782-2.759a.5.5 0 0 1 .524.85l-.311.209.512-.3a.5.5 0 0 1 .528.849l-.835.557.987-.57a.5.5 0 0 1 .555.829l-4.758 3.645 5.181-2.991a.5.5 0 0 1 .55.833l-2.391 1.79 2.45-1.414a.5.5 0 0 1 .56.824l-1.756 1.393 1.687-.973a.5.5 0 0 1 .615.774l-1.785 1.913 1.63-.94a.5.5 0 0 1 .657.722l-.611.862a.544.544 0 0 1 .448.25.5.5 0 0 1 -.183.683l-1.667.962a.5.5 0 0 1 -.658-.721l.531-.747-2.556 1.47a.5.5 0 0 1 -.615-.774l1.787-1.912-4.656 2.686a.5.5 0 0 1 -.56-.824l1.753-1.389-3.838 2.213a.5.5 0 0 1 -.55-.833l2.388-1.786-4.539 2.619a.5.5 0 0 1 -.555-.829l4.755-3.645-7.751 4.474a.5.5 0 0 1 -.527-.848l.831-.552-2.431 1.4a.5.5 0 0 1 -.25.07z" fill="#cd4c60"/><path d="m13.827 21a.5.5 0 0 1 -.273-.919l11.739-7.661-12.013 6.934a.5.5 0 0 1 -.516-.855l5.259-3.309-4.743 2.739a.5.5 0 0 1 -.523-.852l10.054-6.57-9.531 5.5a.5.5 0 0 1 -.527-.849l8.747-5.818-8.21 4.739a.5.5 0 0 1 -.531-.846l7.345-5-6.6 3.811a.5.5 0 0 1 -.526-.85l2.592-1.716-1.655.955a.5.5 0 0 1 -.532-.846l2.27-1.552-1 .574a.5.5 0 0 1 -.573-.809l3.546-3.087a.5.5 0 0 1 -.421-.9l4.374-2.526a.5.5 0 0 1 .578.81l-3.517 3.059 7.897-4.556a.5.5 0 0 1 .532.845l-2.269 1.547 4.151-2.392a.5.5 0 0 1 .527.849l-2.6 1.723 4.46-2.572a.5.5 0 0 1 .531.845l-7.344 5 10.12-5.845a.5.5 0 0 1 .527.848l-8.75 5.822 11.554-6.67a.5.5 0 0 1 .523.851l-10.044 6.562 11.945-6.898a.5.5 0 0 1 .517.856l-5.259 3.309 4.991-2.88a.5.5 0 0 1 .524.852l-11.748 7.665 9.144-5.279a.5.5 0 0 1 .522.852l-5.577 3.61 7.021-4.054a.5.5 0 0 1 .527.85l-7.731 5.128 8.969-5.181a.5.5 0 0 1 .523.851l-4.969 3.244 5.638-3.254a.5.5 0 0 1 .527.849l-5.119 3.388 5.609-3.237a.5.5 0 0 1 .533.844l-6.1 4.193 6.5-3.752a.5.5 0 0 1 .531.846l-3.449 2.34 3.5-2.021a.5.5 0 0 1 .553.83l-5.463 4.166 5.464-3.154a.5.5 0 0 1 .536.842l-.663.464.249-.143a.5.5 0 0 1 .547.835l-.8.586.273-.158a.5.5 0 0 1 .58.809l-1.484 1.3.912-.527a.5.5 0 0 1 .672.7l-.847 1.329.186-.108a.5.5 0 1 1 .5.865l-1.953 1.13a.5.5 0 0 1 -.672-.7l.847-1.327-3.519 2.031a.5.5 0 0 1 -.58-.808l1.484-1.3-3.662 2.114a.5.5 0 0 1 -.547-.835l.793-.584-2.462 1.421a.5.5 0 0 1 -.536-.843l.668-.469-2.272 1.31a.5.5 0 0 1 -.553-.83l5.468-4.166-8.659 5a.5.5 0 0 1 -.53-.847l3.453-2.342-5.528 3.191a.5.5 0 0 1 -.534-.845l6.091-4.189-8.724 5.037a.5.5 0 0 1 -.527-.85l5.115-3.385-7.346 4.241a.5.5 0 0 1 -.524-.852l4.976-3.248-7.106 4.1a.5.5 0 0 1 -.526-.85l7.726-5.123-10.354 5.978a.5.5 0 0 1 -.521-.853l5.584-3.608-7.732 4.463a.494.494 0 0 1 -.25.068z" fill="#684740"/><path d="m30.012 49.47a.5.5 0 0 1 -.377-.828l1.994-2.293-3.824 2.208a.5.5 0 0 1 -.592-.8l3.244-3.038-3.871 2.234a.5.5 0 0 1 -.55-.833l.941-.7-.671.387a.5.5 0 0 1 -.593-.8l2.172-2.043-1.605.926a.5.5 0 0 1 -.621-.768l.644-.712-.023.013a.5.5 0 0 1 -.726-.583l.226-.719a.5.5 0 0 1 0-.867l.5-.29a.5.5 0 0 1 .727.584l-.115.366 1.66-.958a.5.5 0 0 1 .621.768l-.643.711 2.578-1.489a.5.5 0 0 1 .593.8l-2.172 2.043 4.191-2.419a.5.5 0 0 1 .55.833l-.942.7.392-.225a.5.5 0 0 1 .592.8l-3.244 3.038 2.652-1.531a.5.5 0 0 1 .627.761l-1.993 2.291.821-.474a.5.5 0 0 1 .5.866l-3.413 1.971a.49.49 0 0 1 -.25.07z" fill="#925c4c"/><g fill="#a9725e"><path d="m43.606 28.42a.5.5 0 0 1 -.25-.933l2.494-1.439a.5.5 0 0 1 .5.865l-2.494 1.44a.5.5 0 0 1 -.25.067z"/><path d="m42.459 19.617a.5.5 0 0 1 -.25-.932l1.857-1.073a.5.5 0 1 1 .5.866l-1.857 1.072a.494.494 0 0 1 -.25.067z"/><path d="m18.047 20.7a.5.5 0 0 1 -.371-.836l1.346-1.487a.477.477 0 0 1 -.473-.248.5.5 0 0 1 .182-.683l2.444-1.411a.5.5 0 0 1 .621.769l-1.242 1.372 9.59-5.536a.5.5 0 0 1 .5.865l-12.344 7.131a.489.489 0 0 1 -.253.064z"/><path d="m29.787 41.463a.5.5 0 0 1 -.286-.91l2.816-1.962-4.475 2.583a.5.5 0 0 1 -.534-.844l5.063-3.5-6.561 3.787a.5.5 0 0 1 -.521-.852l.256-.166-.908.524a.5.5 0 0 1 -.528-.849l9.682-6.46-10.9 6.294a.5.5 0 0 1 -.527-.848l11.077-7.36-12.077 6.971a.5.5 0 0 1 -.515-.856l3.231-2.031-3.541 2.044a.5.5 0 0 1 -.514-.857l.406-.252-.54.311a.5.5 0 0 1 -.522-.852l9.631-6.221-9.98 5.764a.5.5 0 0 1 -.522-.853l6.089-3.928-6.187 3.569a.5.5 0 0 1 -.53-.847l11.234-7.6-11.374 6.564a.5.5 0 0 1 -.524-.85l7.52-4.933-7.315 4.223a.5.5 0 0 1 -.526-.85l6.915-4.581-6.539 3.774a.5.5 0 0 1 -.533-.845l7.673-5.248-9.2 5.313a.5.5 0 0 1 -.531-.846l7.507-5.113-8.23 4.751a.5.5 0 0 1 -.536-.843l8.371-5.844-8.475 4.893a.5.5 0 0 1 -.6-.788l2-1.975-1.426.823a.5.5 0 0 1 -.584-.8l.591-.53h-.007a.5.5 0 0 1 -.651-.731l.9-1.213a.506.506 0 0 1 -.5-.245.5.5 0 0 1 .183-.682l1.858-1.073a.5.5 0 0 1 .652.731l-.846 1.138 2.078-1.2a.5.5 0 0 1 .584.8l-.595.533.639-.368a.5.5 0 0 1 .6.788l-2 1.975 15.176-8.76a.5.5 0 0 1 .537.843l-8.375 5.846 9.8-5.658a.5.5 0 0 1 .532.846l-7.506 5.112 8.9-5.135a.5.5 0 0 1 .532.845l-7.679 5.251 9.317-5.379a.5.5 0 0 1 .526.85l-6.913 4.578 8.397-4.849a.5.5 0 0 1 .524.851l-7.518 4.932 8.289-4.783a.5.5 0 0 1 .53.847l-11.239 7.606 11.6-6.7a.5.5 0 0 1 .522.853l-6.1 3.932 9.866-5.695a.5.5 0 0 1 .522.853l-9.623 6.22 9.879-5.7a.5.5 0 0 1 .513.858l-.431.268a.5.5 0 0 1 .478.876l-3.239 2.029 2.718-1.569a.5.5 0 0 1 .526.849l-11.077 7.36 10.489-6.056a.5.5 0 0 1 .528.849l-9.678 6.457 5.173-2.986a.5.5 0 0 1 .52.852l-.561.363a.5.5 0 0 1 .413.894l-5.062 3.5 4.011-2.312a.5.5 0 0 1 .536.842l-2.819 1.964 1.372-.791a.5.5 0 0 1 .57.817l-3.089 2.578a.5.5 0 0 1 .224.931l-4.373 2.526a.5.5 0 0 1 -.57-.817l2.725-2.278-6.539 3.78a.5.5 0 0 1 -.25.063z"/></g><path d="m13.765 51.088c-3.992 6.315-2.947 9.66 5.077 8.476h23.691c7.056 1.039 7-3.379 4.017-8.19a14.843 14.843 0 0 0 -12.076-6.908 37.738 37.738 0 0 0 .04-3.775 14.458 14.458 0 0 0 8.891-12.146c4.072-.418 4.362-4.812 4.044-8.067 0-6.272-.592-14.175-8.156-15 4.797-4.614.331-5.753-4.155-5.078-7.394-.058-16.271-.967-20.582 6.46-2.536 4.14-2.007 8.989-2.006 13.64-.172 4.142.531 6.244 3.9 8.5.887 5.115 3.847 10.142 9.036 11.851-.006 1.217-.027 2.438 0 3.654a15.066 15.066 0 0 0 -11.721 6.583zm.3-40.718c2.914-9.87 13.785-8.956 22.023-8.77.646 0 2.94-.39 3.43 0 1.681 1.338-.876 2.988-1.779 3.906h-3.549c-.568 0-1.12.99-.38.99h3.941c7.346.108 8.693 5.968 8.774 11.783a2.821 2.821 0 0 0 -4.418.471c-.957-2.759-4.14-3.11-6.562-3.86-1.751-.673-3.533-2.308-5.42-2.466-2.833.455-5.519 2.355-8.3 3.309-1.989.674-3.241 1.441-3.874 3.1a2.838 2.838 0 0 0 -4.536-.5 24.925 24.925 0 0 1 .65-7.963zm3.385 17.63c-.013-.251-.134-.6-.444-.6-4.166 0-3.556-4.565-3.556-6.9.133-2.472 3.966-2.489 4.1-.008.018.617.776.827.882.168.5-3.531 8.426-6.171 11.563-6.175 2.7 0 11.555 2.712 11.555 6.007-.021.381.2.567.433.561.23.013.467-.168.467-.553.133-2.472 3.966-2.489 4.1-.008 0 2.852.432 6.7-3.544 6.9-.27.012-.417.281-.442.527-.764 16.032-24.286 16.192-25.114.081zm16.05 13.055c.075 2.853.565 7.4-3.368 7.4-3.948-.01-3.723-4.291-3.639-7.283a12.383 12.383 0 0 0 7.007-.117zm-7.967 4.545c.576 5.235 8.337 5.09 8.78.008a14.274 14.274 0 0 1 10.707 5.537c1.121 1.507 3.753 6.017.87 7.291-4.643.519-9.993.176-14.716 0-5.623-.093-11.379.141-16.951 0-1.379-.663-1.159-3.39-.908-4.408 1.735-5.064 7.074-8.139 12.218-8.428z" fill="#262626"/><path d="m34.482 33.1c.368-.693-.676-.746-.964-.2-1.233 2.323-5.8 2.082-7-.182-.3-.569-1.3.064-1.038.566 1.688 3.177 7.361 2.909 9.002-.184z" fill="#262626"/></svg>