<?xml version="1.0" encoding="UTF-8"?>
<svg xmlns="http://www.w3.org/2000/svg" id="Icons" viewBox="0 0 60 60" width="512" height="512"><defs><style>.cls-1{fill:#32b9b0;}.cls-2{fill:#262626;}</style></defs><path class="cls-1" d="M26.482,49.476a.5.5,0,0,1-.251-.933L58.72,29.786a.5.5,0,0,1,.524.851l-13.9,9.118L58.72,32.031a.5.5,0,0,1,.522.852l-9.52,6.188,9-5.194a.5.5,0,0,1,.523.852l-7.231,4.723,6.708-3.873a.5.5,0,0,1,.537.842l-9.209,6.464,8.672-5.007a.5.5,0,0,1,.54.84l-6.439,4.588,5.9-3.406a.5.5,0,0,1,.547.835l-4.514,3.328,3.967-2.291a.5.5,0,0,1,.574.814l-3.769,3.208,3.172-1.83a.5.5,0,0,1,.625.764L57.406,46.9l.046-.026a.5.5,0,1,1,.5.865l-2.7,1.56a.5.5,0,0,1-.625-.764l1.918-2.171L51.275,49.4a.5.5,0,0,1-.574-.813l3.768-3.208L47.5,49.4a.5.5,0,0,1-.668-.159.5.5,0,0,1,.121-.676l4.511-3.325L44.258,49.4a.5.5,0,0,1-.54-.84l6.439-4.588-9.4,5.429a.5.5,0,0,1-.537-.842L49.425,42.1,36.77,49.406a.5.5,0,0,1-.524-.851l7.233-4.725-9.66,5.577a.5.5,0,0,1-.522-.851l9.519-6.188-12.2,7.04a.5.5,0,0,1-.524-.85L44,39.438l-17.271,9.97A.489.489,0,0,1,26.482,49.476Z"/><path class="cls-1" d="M12.982,59.458a.5.5,0,0,1-.3-.9l1.576-1.172-2.736,1.579a.5.5,0,0,1-.507-.861l.755-.455-1.009.582a.5.5,0,0,1-.51-.859l10.941-6.654L10.3,57a.5.5,0,0,1-.509-.86l8.684-5.263-8.2,4.735a.5.5,0,0,1-.512-.858L28.387,43.3,10.268,53.757a.5.5,0,0,1-.514-.858L33.062,38.394l-22.8,13.165a.5.5,0,0,1-.508-.862l2.868-1.727-2.365,1.365a.5.5,0,0,1-.513-.857L30.97,36.337,8.339,49.4a.5.5,0,0,1-.51-.859L25.274,37.868,5.428,49.326a.5.5,0,0,1-.51-.86l15.59-9.472-16.8,9.7a.5.5,0,0,1-.509-.86l16.078-9.753L2.549,47.737a.5.5,0,0,1-.507-.861l1.567-.938L1.944,46.9a.5.5,0,0,1-.51-.859L22.471,33.224,1.381,45.4a.5.5,0,0,1-.508-.86L16.026,35.38,1.28,43.894a.5.5,0,0,1-.507-.862l2.783-1.665L1.28,42.681a.5.5,0,0,1-.511-.859l25.9-15.888L1.28,40.593a.5.5,0,0,1-.508-.862l5.883-3.526-5.375,3.1a.5.5,0,0,1-.512-.859L27.886,21.755,1.28,37.116a.5.5,0,0,1-.509-.86l14.3-8.65L1.28,35.57a.5.5,0,0,1-.512-.858L25.113,19.735,1.28,33.494a.5.5,0,0,1-.51-.859L17.61,22.367,1.28,31.8a.5.5,0,0,1-.514-.857l22.1-13.71L1.28,29.689a.5.5,0,0,1-.514-.857l19.77-12.308L1.28,27.642a.5.5,0,0,1-.516-.857L19.219,15.216,1.28,25.574a.5.5,0,0,1-.514-.858l12.953-8.058L1.28,23.84a.5.5,0,0,1-.511-.86l3.159-1.933L1.28,22.576a.5.5,0,0,1-.521-.853l15.368-9.89L1.28,20.405a.5.5,0,0,1-.518-.855l9.221-5.839-8.7,5.026a.5.5,0,0,1-.513-.859l.469-.29a.5.5,0,0,1-.481-.874l9.938-6.523L1.28,15.626a.5.5,0,0,1-.528-.849L9.171,9.158,1.28,13.714a.5.5,0,0,1-.529-.849L6.545,8.986,1.28,12.026a.5.5,0,0,1-.528-.849L3.817,9.13,1.28,10.6A.5.5,0,0,1,.746,9.75L3.8,7.639,1.28,9.1a.5.5,0,0,1-.541-.84L3.07,6.588,1.28,7.622A.5.5,0,0,1,.715,6.8L3.376,4.646l-2.06,1.19A.5.5,0,0,1,.7,5.064L2.442,3.169a.5.5,0,0,1-.387-.914L4.738.706a.5.5,0,0,1,.618.772L3.647,3.335,8.391.6a.5.5,0,0,1,.564.821L6.3,3.571,11.446.6a.5.5,0,0,1,.541.84L9.653,3.106,14,.6a.5.5,0,0,1,.535.844L11.48,3.551,16.6.6a.5.5,0,0,1,.528.849L14.06,3.492,19.075.6a.5.5,0,0,1,.529.848l-5.795,3.88L22,.6a.5.5,0,0,1,.527.849L14.109,7.064,25.311.6a.5.5,0,0,1,.524.851L15.9,7.973,28.67.6a.5.5,0,0,1,.514.858l-.4.245L30.7.6a.5.5,0,0,1,.517.855l-9.223,5.84L33.589.6a.5.5,0,0,1,.52.853L18.743,11.339,37.349.6a.5.5,0,0,1,.51.859L34.7,3.387,39.537.6a.5.5,0,0,1,.514.857L27.092,9.517,42.541.6a.5.5,0,0,1,.516.857L24.6,13.021,46.123.6a.5.5,0,0,1,.515.857L26.862,13.764,49.669.6a.5.5,0,0,1,.514.858l-22.1,13.709L53.317.6a.5.5,0,0,1,.511.86L36.982,11.728,55.618.968a.5.5,0,0,1,.512.859L31.8,16.8,57.287,2.08a.5.5,0,0,1,.509.86L43.475,11.6,58.091,3.162a.5.5,0,0,1,.512.859L31.48,20.717,58.688,5.009a.5.5,0,0,1,.506.862L53.311,9.4,58.72,6.276a.5.5,0,0,1,.511.859L33.344,23.014,58.72,8.363a.5.5,0,0,1,.507.862L56.443,10.89,58.72,9.576a.5.5,0,0,1,.509.861L44.075,19.6,58.72,11.14a.5.5,0,0,1,.509.86L38.185,24.822,58.72,12.965a.5.5,0,0,1,.507.863l-1.592.952,1.085-.627a.5.5,0,0,1,.509.861L43.17,24.756l15.55-8.978a.5.5,0,0,1,.509.86L43.634,26.114,58.72,17.4a.5.5,0,0,1,.51.859L41.8,28.931,58.72,19.16a.5.5,0,0,1,.512.859L38,33.159,58.72,21.2a.5.5,0,0,1,.508.862l-2.873,1.73,2.365-1.365a.5.5,0,0,1,.514.857L35.926,37.788,58.72,24.628a.5.5,0,0,1,.511.859L40.6,36.956,58.72,26.493a.5.5,0,0,1,.509.861l-8.685,5.263L58.72,27.9a.5.5,0,0,1,.509.861L48.3,35.4,58.72,29.387a.5.5,0,0,1,.508.862L21.977,52.672a.5.5,0,0,1-.2.369l-5.8,4.316a.5.5,0,0,1-.227.583l-2.513,1.451A.488.488,0,0,1,12.982,59.458Z"/><path class="cls-2" d="M6.966,49.343h2.31c-1.639,19.518,9.3,5.471,16.943,0,44.543-.084,31.51,6.426,33.506-43.539C59.638,1.951,55.951.227,52.5.657H13.613C8.52.574-.2-.471.276,7.02V32.053C.985,38.174-2.843,50.014,6.966,49.343Zm-1.25-48c14.592-.016,29.187.011,43.78,0,3.659-.458,8.809.1,8.779,4.852-.076,12.618.152,25.245,0,37.862.04,3.645-3.253,5.12-6.485,4.6H39.8c-4.557.039-9.138-.065-13.681.018-.961.162-1.844,1.2-2.559,1.787l-9.1,7.4c-1.505,1.763-3.832.084-3.739-1.9-.073-2.381.023-4.771,0-7.154,0-.154-.344-.149-.424-.149-10.695,1.58-8.391-6.593-8.575-13.934q0-12.945,0-25.889C1.724,5.858,1.514,1.458,5.716,1.343Z"/><path class="cls-2" d="M7.944,11.56h44c.848,0,1.093-1.12.112-1.12h-44C7.208,10.44,6.963,11.56,7.944,11.56Z"/><path class="cls-2" d="M37.419,19.6H8.286c-.526,0-1.545.792-.572.792h44c.526,0,1.545-.792.572-.792Z"/><path class="cls-2" d="M37.428,28.636H8.294c-.485,0-1.557.728-.588.728h44c.485,0,1.557-.728.588-.728Z"/><path class="cls-2" d="M7.534,38.31h35c.308.138,1.734-.462.932-.621h-35C8.158,37.552,6.732,38.152,7.534,38.31Z"/></svg>
