<svg id="Capa_1" enable-background="new 0 0 512 512" height="512" viewBox="0 0 512 512" width="512" xmlns="http://www.w3.org/2000/svg"><g><path d="m447.005 11.995h-381.971c-35.838 0-64.995 29.159-64.995 65v257.837c0 34.399 26.857 62.644 60.703 64.86-23.863 44.358-55.51 73.919-55.865 74.247-11.237 10.347-1.5 28.979 13.406 25.679 4.93-1.093 118.481-26.964 178.342-99.786h250.379c35.838 0 64.995-29.159 64.995-65v-257.837c.001-35.841-29.156-65-64.994-65zm34.997 322.837c0 19.299-15.7 35-34.997 35h-257.651c-4.706 0-9.138 2.208-11.973 5.965-29.474 39.061-78.844 64.237-116.025 78.707 12.644-17.109 26.329-38.812 36.988-63.782 4.215-9.878-3.038-20.89-13.795-20.89h-19.515c-19.297 0-34.997-15.701-34.997-35v-257.837c0-19.299 15.7-35 34.997-35h381.971c19.297 0 34.997 15.701 34.997 35z"/><path d="m391.509 130.497h-210.484c-8.284 0-14.999 6.716-14.999 15s6.715 15 14.999 15h210.484c8.284 0 14.999-6.716 14.999-15s-6.715-15-14.999-15z"/><path d="m329.014 250.497h-207.484c-8.284 0-14.999 6.716-14.999 15s6.715 15 14.999 15h207.484c8.284 0 14.999-6.716 14.999-15s-6.716-15-14.999-15z"/><path d="m391.509 190.497h-269.979c-8.284 0-14.999 6.716-14.999 15s6.715 15 14.999 15h269.979c8.284 0 14.999-6.716 14.999-15s-6.715-15-14.999-15z"/><circle cx="391.509" cy="265.497" r="14.999"/><circle cx="121.53" cy="146.497" r="14.999"/></g></svg>