<svg height="512pt" viewBox="0 0 512 512" width="512pt" xmlns="http://www.w3.org/2000/svg"><path d="m467 60h-46.851562c-1.4375-12.695312-4.691407-24.480469-9.519532-34.136719-8.339844-16.675781-20.636718-25.863281-34.628906-25.863281s-26.289062 9.1875-34.628906 25.863281c-4.828125 9.65625-8.082032 21.441407-9.519532 34.136719h-31.703124c-1.4375-12.695312-4.691407-24.480469-9.519532-34.136719-8.339844-16.675781-20.636718-25.863281-34.628906-25.863281s-26.289062 9.1875-34.628906 25.863281c-4.828125 9.65625-8.082032 21.441407-9.519532 34.136719h-31.703124c-1.4375-12.695312-4.691407-24.480469-9.519532-34.136719-8.339844-16.675781-20.636718-25.863281-34.628906-25.863281s-26.289062 9.1875-34.628906 25.863281c-4.828125 9.65625-8.082032 21.441407-9.519532 34.136719h-46.851562c-24.8125 0-45 20.1875-45 45v362c0 24.8125 20.1875 45 45 45h422c24.8125 0 45-20.1875 45-45v-362c0-24.8125-20.1875-45-45-45zm-98.796875-20.71875c3.835937-7.667969 7.277344-9.28125 7.796875-9.28125s3.960938 1.613281 7.796875 9.28125c2.84375 5.683594 4.929687 12.855469 6.105469 20.71875h-27.804688c1.175782-7.863281 3.265625-15.035156 6.105469-20.71875zm-120 0c3.835937-7.667969 7.277344-9.28125 7.796875-9.28125s3.960938 1.613281 7.796875 9.28125c2.839844 5.683594 4.929687 12.855469 6.105469 20.71875h-27.804688c1.175782-7.863281 3.265625-15.035156 6.105469-20.71875zm-120 0c3.835937-7.667969 7.277344-9.28125 7.796875-9.28125s3.960938 1.613281 7.796875 9.28125c2.839844 5.683594 4.929687 12.855469 6.105469 20.71875h-27.804688c1.175782-7.863281 3.265625-15.035156 6.105469-20.71875zm-83.203125 50.71875h104.902344c-1.175782 7.863281-3.265625 15.035156-6.105469 20.71875-3.835937 7.667969-7.277344 9.28125-7.796875 9.28125-8.285156 0-15 6.714844-15 15s6.714844 15 15 15c13.992188 0 26.289062-9.1875 34.628906-25.863281 4.828125-9.65625 8.082032-21.441407 9.519532-34.136719h89.753906c-1.175782 7.863281-3.265625 15.035156-6.105469 20.71875-3.835937 7.667969-7.277344 9.28125-7.796875 9.28125-8.285156 0-15 6.714844-15 15s6.714844 15 15 15c13.992188 0 26.289062-9.1875 34.628906-25.863281 4.828125-9.65625 8.082032-21.441407 9.519532-34.136719h89.753906c-1.175782 7.863281-3.265625 15.035156-6.105469 20.71875-3.835937 7.667969-7.277344 9.28125-7.796875 9.28125-8.285156 0-15 6.714844-15 15s6.714844 15 15 15c13.992188 0 26.289062-9.1875 34.628906-25.863281 4.828125-9.65625 8.082032-21.441407 9.519532-34.136719h46.851562c8.269531 0 15 6.730469 15 15v76h-452v-76c0-8.269531 6.730469-15 15-15zm422 392h-422c-8.269531 0-15-6.730469-15-15v-256h452v256c0 8.269531-6.730469 15-15 15zm0 0"/><path d="m436 241h-360c-8.285156 0-15 6.714844-15 15v181c0 8.285156 6.714844 15 15 15h360c8.285156 0 15-6.714844 15-15v-181c0-8.285156-6.714844-15-15-15zm-15 90h-60v-60h60zm-180 30v61h-60v-61zm-60-30v-60h60v60zm90 30h60v61h-60zm0-30v-60h60v60zm-120-60v60h-60v-60zm-60 90h60v61h-60zm270 61v-61h60v61zm0 0"/></svg>