<svg id="Icons" viewBox="0 0 60 60" xmlns="http://www.w3.org/2000/svg"><path d="m9.637 59.47c-.17 0-.336-.087-.43-.244-.14-.235-.065-.539.168-.682l17.567-10.781-20.161 11.64c-.237.137-.539.059-.68-.177-.14-.234-.065-.538.167-.682l23.268-14.354-26.133 15.087c-.239.138-.543.058-.681-.18-.14-.236-.062-.541.174-.682l.025-.016-.559.322c-.238.138-.542.059-.681-.18-.14-.236-.062-.541.174-.682l2.128-1.273-2.307 1.331c-.237.138-.539.059-.68-.177-.14-.234-.065-.538.168-.682l27.2-16.739-27.084 15.64c-.239.137-.541.058-.681-.178s-.063-.54.171-.683l19.499-11.844-18.989 10.965c-.239.138-.542.058-.681-.179-.14-.236-.062-.541.173-.683l12.44-7.498-11.934 6.89c-.237.137-.541.058-.68-.178-.14-.235-.064-.539.17-.682l22.076-13.457-21.565 12.452c-.237.137-.539.059-.68-.177-.14-.234-.065-.538.168-.682l27.673-17.035-27.161 15.681c-.239.138-.541.057-.681-.178-.14-.236-.062-.54.172-.683l16.639-10.08-16.13 9.313c-.237.137-.539.059-.68-.177-.14-.235-.065-.539.168-.682l23.541-14.465-23.029 13.297c-.239.138-.542.058-.681-.179-.14-.236-.062-.541.173-.683l5.292-3.185-4.784 2.762c-.239.138-.541.058-.681-.178s-.062-.54.172-.683l10.101-6.124-9.592 5.537c-.237.137-.539.058-.679-.175-.141-.234-.067-.537.164-.682l21.693-13.548-21.179 12.229c-.238.137-.54.058-.681-.179-.14-.235-.062-.54.172-.682l1.848-1.117-1.339.772c-.238.138-.538.059-.679-.176-.141-.233-.067-.537.164-.682l15.431-9.608-14.916 8.613c-.235.139-.537.059-.679-.175-.141-.234-.067-.537.164-.682l13.725-8.584-13.21 7.626c-.238.137-.541.057-.68-.177-.14-.235-.064-.54.169-.683l1.44-.88-.93.536c-.235.137-.535.061-.677-.172-.142-.231-.072-.533.155-.681l14.94-9.644-14.417 8.326c-.235.138-.536.06-.678-.174-.141-.233-.069-.536.16-.682l8.104-5.124-7.587 4.38c-.234.135-.532.061-.675-.169s-.077-.53.147-.68l12.325-8.221-11.797 6.813c-.236.138-.536.061-.678-.174-.141-.233-.069-.536.161-.682l1.78-1.125-1.264.729c-.232.137-.529.062-.673-.166-.144-.227-.082-.526.14-.679l8.929-6.146-8.395 4.847c-.232.137-.529.062-.673-.166s-.081-.527.14-.679l5.634-3.864-5.101 2.944c-.232.135-.529.062-.672-.164-.144-.227-.084-.525.136-.679l3.821-2.663-3.285 1.896c-.232.137-.53.062-.674-.167-.143-.228-.08-.528.143-.68l.379-.257c-.187.039-.389-.036-.506-.201-.149-.211-.113-.501.083-.669l3.606-3.084-3.031 1.75c-.217.126-.496.07-.649-.132-.152-.202-.129-.486.053-.661l1.68-1.616-1.083.625c-.194.114-.44.082-.601-.076s-.195-.403-.086-.6l.912-1.638c-.048-.038-.089-.085-.121-.141-.138-.239-.056-.545.184-.684l.703-.405c.195-.111.44-.081.601.077s.195.403.086.6l-.609 1.096 3.069-1.772c.216-.129.496-.072.649.132.152.202.129.486-.053.661l-1.68 1.616 4.175-2.41c.224-.13.51-.066.658.144.149.211.113.501-.083.669l-3.607 3.084 6.752-3.897c.235-.135.531-.062.674.167.143.228.08.528-.143.68l-.083.056 1.565-.903c.232-.136.528-.062.672.164s.084.525-.136.679l-3.82 2.662 6.073-3.506c.234-.136.53-.061.673.166.144.228.081.527-.14.679l-5.632 3.863 8.156-4.709c.234-.135.53-.062.673.166.144.227.082.526-.14.679l-8.931 6.147 12.114-6.993c.238-.137.537-.059.678.174s.069.536-.161.682l-1.767 1.116 3.417-1.973c.233-.137.531-.062.675.169.143.229.077.53-.147.68l-12.327 8.223 15.714-9.072c.237-.137.537-.06.678.174s.069.536-.16.682l-8.099 5.12 10.353-5.977c.235-.137.535-.061.677.172.142.231.072.533-.155.681l-14.945 9.647 18.188-10.501c.237-.139.54-.058.68.177s.064.54-.169.683l-1.441.881 3.015-1.74c.237-.136.538-.059.679.175s.067.537-.164.682l-13.726 8.585 16.355-9.442c.236-.139.537-.06.679.176.141.233.067.537-.164.682l-15.431 9.608 18.13-10.467c.237-.14.54-.059.681.179.14.235.062.54-.172.682l-1.846 1.116 3.426-1.978c.236-.139.537-.059.679.175.141.234.067.537-.164.682l-21.69 13.546 24.948-14.403c.237-.139.54-.059.681.178.14.236.062.54-.172.683l-10.076 6.109 12.074-6.971c.237-.14.541-.059.681.179.14.236.062.541-.173.683l-5.306 3.193 7.024-4.056c.237-.139.539-.06.68.177.14.235.065.539-.168.682l-23.55 14.471 25.583-14.771c.237-.139.54-.058.681.178.14.236.062.54-.172.683l-16.632 10.075 16.757-9.674c.237-.138.539-.06.68.177.14.234.065.538-.168.682l-27.674 17.036 27.245-15.729c.236-.138.54-.059.68.178.14.235.064.539-.17.682l-22.076 13.457 21.566-12.451c.237-.14.541-.059.681.179.14.236.062.541-.173.683l-12.423 7.487 11.915-6.879c.237-.139.54-.058.681.178.139.235.063.54-.171.683l-19.5 11.844 18.99-10.964c.236-.139.538-.06.68.177.14.234.065.538-.168.682l-27.214 16.748 26.702-15.416c.237-.139.541-.059.681.18.14.236.062.541-.174.682l-2.114 1.266 1.607-.928c.237-.139.541-.059.681.18.14.236.062.541-.174.682l-.43.258c.217-.084.477 0 .603.213.14.234.065.538-.167.682l-23.267 14.354 22.754-13.137c.236-.138.538-.06.68.177.14.235.065.539-.168.682l-17.567 10.781 17.056-9.847c.236-.138.538-.059.679.175s.067.537-.164.682l-21.49 13.439 20.976-12.11c.237-.139.54-.059.681.178.14.236.062.54-.171.683l-3.714 2.252 3.204-1.85c.236-.138.538-.06.68.177.14.235.064.539-.169.683l-7.622 4.665 7.111-4.105c.236-.139.538-.06.68.177.14.234.065.538-.168.682l-7.646 4.701 7.134-4.118c.236-.139.54-.059.68.178.14.235.064.539-.169.682l-.628.383.117-.067c.236-.139.538-.059.679.175s.067.537-.164.682l-9.396 5.873 8.881-5.127c.235-.138.534-.061.677.172.142.231.072.533-.155.681l-13.424 8.687 12.902-7.449c.237-.137.536-.059.677.173.142.231.071.534-.157.681l-8.841 5.666 8.321-4.804c.235-.138.534-.06.676.171s.074.532-.152.68l-8.902 5.829 8.379-4.837c.237-.136.536-.059.677.173.142.231.071.534-.157.681l-3.33 2.135 2.811-1.622c.235-.137.535-.061.677.172.142.231.072.533-.155.681l-2.266 1.463 1.744-1.007c.234-.136.53-.062.673.167.144.228.081.527-.141.679l-5.248 3.581 4.716-2.723c.229-.133.522-.062.668.157.146.222.094.518-.119.676l-5.76 4.303 5.211-3.008c.224-.131.512-.066.66.146s.109.505-.091.671l-4.197 3.489 3.628-2.094c.216-.126.493-.071.646.128s.135.481-.043.658l-2.342 2.339 1.734-1.001c.211-.124.484-.075.64.119.154.192.146.468-.021.65l-.805.883c.118.036.223.114.289.229.139.239.057.545-.183.683l-2.048 1.183c-.212.123-.484.073-.64-.119-.154-.192-.146-.468.021-.65l.457-.502-2.242 1.294c-.215.128-.493.072-.646-.128-.153-.199-.135-.481.043-.658l2.341-2.338-5.411 3.124c-.224.132-.512.066-.66-.146s-.109-.505.091-.671l4.197-3.49-7.461 4.308c-.229.133-.522.062-.668-.157-.146-.222-.094-.518.119-.676l5.761-4.304-8.898 5.137c-.233.136-.529.062-.673-.167-.144-.228-.081-.527.141-.679l5.243-3.577-7.661 4.423c-.236.137-.535.061-.677-.172-.142-.231-.072-.533.155-.681l2.273-1.468-4.02 2.32c-.235.138-.536.06-.677-.173-.142-.231-.071-.534.157-.681l3.328-2.134-5.175 2.987c-.236.137-.535.061-.676-.171-.142-.23-.074-.532.152-.68l8.901-5.828-11.569 6.679c-.236.138-.535.06-.677-.173-.142-.231-.071-.534.157-.681l8.839-5.665-11.291 6.519c-.235.137-.534.061-.677-.172-.142-.231-.072-.533.155-.681l13.426-8.688-16.524 9.54c-.238.137-.538.058-.679-.175-.141-.234-.067-.537.164-.682l9.401-5.877-11.663 6.733c-.237.137-.541.058-.68-.178-.14-.235-.064-.539.169-.682l.633-.386-2.157 1.245c-.238.137-.54.059-.68-.177-.14-.234-.065-.538.168-.682l7.639-4.697-9.623 5.556c-.238.137-.54.059-.68-.177s-.064-.539.169-.683l7.613-4.66-9.56 5.52c-.238.138-.54.057-.681-.178-.14-.236-.062-.54.171-.683l3.722-2.257-5.399 3.117c-.236.138-.538.059-.679-.175s-.067-.537.164-.682l21.488-13.438-24.759 14.294c-.079.046-.165.067-.25.067z" fill="#ebf0f2"/><path d="m4.476 15.498c-.162 0-.321-.079-.417-.224-.146-.221-.095-.517.115-.676l5.403-4.079-8.297 4.791c-.232.137-.529.062-.673-.166s-.081-.527.141-.679l2.178-1.491-1.646.949c-.229.133-.521.064-.667-.156s-.095-.517.116-.676l3.364-2.534-2.813 1.624c-.218.129-.5.07-.652-.136-.151-.205-.124-.491.062-.664l2.904-2.688-2.314 1.336c-.204.121-.464.078-.623-.1-.158-.178-.17-.44-.028-.631l1.194-1.609c-.229.111-.514.023-.644-.203-.139-.239-.057-.545.183-.683l2.049-1.183c.205-.119.466-.077.623.1.158.178.17.44.028.631l-1.192 1.605 4.087-2.358c.22-.128.5-.069.652.136.151.205.124.491-.062.664l-2.903 2.687 6.04-3.486c.226-.134.521-.064.667.156s.095.517-.116.676l-3.364 2.534 5.831-3.366c.234-.135.53-.061.673.166.144.228.081.527-.141.679l-2.18 1.493 4.05-2.338c.226-.134.521-.064.667.156.146.221.095.517-.115.676l-5.403 4.079 8.507-4.911c.235-.135.53-.061.673.166.144.227.082.526-.14.679l-2.638 1.815 4.608-2.66c.23-.135.525-.062.671.163.145.225.086.522-.132.678l-3.931 2.79 6.289-3.631c.232-.135.528-.062.672.164s.084.524-.135.678l-3.407 2.385 5.59-3.227c.228-.135.525-.063.671.162.144.225.087.522-.131.678l-4.068 2.899 6.479-3.739c.229-.134.523-.063.669.159.145.223.091.52-.123.677l-4.877 3.582 7.653-4.418c.232-.135.528-.062.672.165.144.226.084.525-.137.678l-3.093 2.15 5.185-2.993c.226-.134.52-.064.666.155s.097.516-.113.675l-5.529 4.214 8.738-5.044c.23-.135.527-.062.672.164.144.226.084.524-.135.678l-3.465 2.43 5.667-3.271c.229-.134.523-.063.669.16s.091.52-.124.676l-4.742 3.465 7.45-4.301c.227-.134.52-.064.666.155s.097.516-.113.675l-5.496 4.181 8.681-5.011c.228-.135.525-.063.671.162.144.225.087.522-.131.678l-4.032 2.872 6.431-3.712c.232-.135.527-.062.671.163.145.225.086.523-.132.678l-3.829 2.711 6.121-3.533c.226-.133.519-.065.666.154.146.22.098.515-.111.675l-5.606 4.31 7.054-4.072c.227-.135.52-.063.666.155.146.22.097.516-.113.675l-4.068 3.097 4.169-2.406c.222-.128.505-.068.656.141.149.209.117.497-.076.667l-3.428 3.019 2.882-1.663c.215-.126.489-.072.644.124.153.196.14.475-.032.654l-1.57 1.638.968-.559c.183-.104.41-.087.57.049.161.135.222.355.15.554l-.418 1.159c.157.014.305.101.39.248.139.239.057.545-.183.683l-.844.487c-.183.104-.409.087-.57-.049-.161-.135-.222-.355-.15-.554l.371-1.028-2.827 1.632c-.214.125-.489.073-.644-.124-.153-.196-.14-.475.032-.654l1.571-1.638-4.19 2.418c-.222.131-.507.067-.656-.141-.149-.209-.117-.497.076-.667l3.426-3.017-6.628 3.826c-.228.133-.521.062-.666-.155-.146-.22-.097-.516.113-.675l4.068-3.097-6.806 3.929c-.227.134-.519.064-.666-.154-.146-.22-.098-.515.111-.675l5.606-4.31-8.904 5.141c-.23.136-.528.062-.671-.163-.145-.225-.086-.523.132-.678l3.835-2.716-6.163 3.558c-.229.134-.525.063-.671-.162-.144-.225-.087-.522.131-.678l4.028-2.869-6.429 3.711c-.228.133-.521.063-.666-.155-.146-.22-.097-.516.113-.676l5.495-4.18-8.683 5.013c-.227.135-.522.064-.669-.16-.146-.223-.091-.52.124-.676l4.743-3.466-7.455 4.304c-.23.136-.526.062-.672-.164-.144-.226-.084-.524.135-.678l3.466-2.431-5.67 3.273c-.228.132-.521.062-.666-.155-.146-.22-.097-.515.113-.675l5.53-4.215-8.743 5.047c-.233.136-.528.062-.672-.165-.144-.226-.084-.525.137-.678l3.089-2.146-5.183 2.991c-.228.135-.523.063-.669-.159-.145-.223-.091-.52.123-.677l4.881-3.586-7.661 4.423c-.232.134-.526.063-.671-.162-.144-.225-.087-.522.131-.678l4.064-2.897-6.477 3.739c-.232.135-.528.062-.672-.164s-.084-.524.135-.678l3.408-2.386-5.593 3.229c-.229.136-.526.062-.671-.163s-.086-.522.132-.678l3.93-2.789-6.291 3.632c-.233.136-.529.062-.673-.166-.144-.227-.082-.526.14-.679l2.639-1.816-4.611 2.662c-.078.046-.165.067-.25.067z" fill="#e83a47"/><g fill="#465568"><path d="m14.684 11.455c-.146 0-.291-.064-.389-.186-.155-.192-.147-.468.019-.65l.146-.16-.996.574c-.216.126-.496.07-.648-.13-.152-.201-.132-.483.049-.66l.937-.919-1.253.724c-.213.126-.492.072-.646-.126-.152-.198-.137-.479.038-.656l2.115-2.159-1.774 1.024c-.217.128-.499.071-.651-.135-.151-.203-.126-.488.059-.662l1.763-1.656-1.17.675c-.214.125-.49.072-.644-.124s-.14-.475.032-.654l1.664-1.735-1.053.607c-.206.122-.468.078-.626-.104-.157-.18-.166-.445-.021-.634l.841-1.092c-.141.011-.353-.085-.448-.25-.139-.239-.057-.545.183-.683l1.858-1.072c.207-.12.469-.076.626.104s.166.445.021.634l-.745.968 1.906-1.101c.214-.125.49-.072.644.124s.14.475-.032.654l-1.664 1.735 1.863-1.075c.218-.128.499-.07.651.135.151.203.126.488-.059.662l-1.763 1.657 1.204-.695c.215-.126.493-.071.646.126.152.198.137.479-.038.656l-2.114 2.158 1.507-.87c.215-.127.495-.07.648.13.152.201.132.483-.049.66l-.938.919.338-.194c.211-.125.483-.074.639.118s.147.468-.019.65l-.596.658c.093.041.175.111.229.207.139.239.057.545-.183.683l-1.857 1.072c-.078.046-.164.067-.25.067z"/><path d="m45.112 11.439c-.149 0-.297-.067-.395-.193-.153-.197-.138-.478.037-.656l.309-.316-.916.529c-.217.126-.499.069-.649-.133-.152-.202-.129-.485.054-.661l1.083-1.038-1.236.714c-.217.126-.498.07-.65-.133-.151-.202-.128-.486.055-.661l1.814-1.734-1.337.771c-.222.129-.508.067-.657-.143-.149-.211-.114-.5.081-.669l.907-.782-.331.19c-.214.127-.493.072-.646-.128-.153-.199-.135-.481.043-.658l1.58-1.578-.977.563c-.202.119-.461.08-.619-.096-.158-.173-.175-.433-.04-.625l.994-1.411c-.216.076-.469-.015-.589-.225-.139-.239-.057-.545.183-.683l1.858-1.072c.202-.119.46-.079.619.096.158.173.175.433.04.625l-.979 1.39 2.309-1.333c.215-.125.493-.071.646.128s.135.481-.043.658l-1.582 1.58 1.623-.937c.223-.13.509-.066.657.144.149.21.114.499-.081.668l-.902.778.346-.199c.216-.128.497-.071.65.133.151.202.128.486-.055.661l-1.814 1.734 1.219-.703c.216-.128.497-.071.649.133.152.202.129.485-.054.661l-1.083 1.038.487-.281c.214-.125.49-.072.645.126.153.197.138.478-.037.656l-.51.521c.166.007.325.096.414.25.139.239.057.545-.183.683l-2.687 1.551c-.078.046-.164.067-.25.067z"/><path d="m36.373 51.47c-.156 0-.311-.073-.407-.21-.149-.209-.115-.498.079-.667l2.713-2.36-3.478 2.008c-.188.107-.422.085-.583-.06s-.212-.376-.125-.573l.622-1.42c-.208.051-.433-.042-.544-.237-.139-.239-.057-.545.183-.683l1.165-.673c.188-.108.422-.084.583.06.161.145.212.376.125.573l-.606 1.386 6.648-3.839c.222-.129.506-.069.657.143.149.209.115.498-.079.667l-2.716 2.362 2.338-1.349c.211-.124.484-.074.64.119.154.191.146.468-.02.65l-1.425 1.565 3.936-2.271c.219-.128.502-.07.652.137.151.205.124.49-.063.663l-.896.827.948-.547c.201-.118.459-.078.618.094.158.173.176.432.043.624l-.667.961.006-.003c.238-.14.546-.057.683.183.139.239.057.545-.183.683l-1.939 1.12c-.202.118-.458.078-.618-.094-.158-.173-.176-.432-.043-.624l.668-.962-2.91 1.68c-.218.129-.501.071-.652-.137-.151-.205-.124-.49.063-.663l.897-.828-2.821 1.628c-.212.123-.485.074-.64-.119-.154-.191-.146-.468.02-.65l1.425-1.565-4.046 2.335c-.078.046-.165.067-.25.067z"/><path d="m39.03 47.211c-.151 0-.3-.069-.397-.197-.152-.2-.133-.482.046-.658l1.188-1.172-.587.338c-.214.126-.49.072-.645-.125-.153-.197-.138-.478.036-.656l1.453-1.495-.845.487c-.219.129-.501.07-.653-.137-.15-.206-.123-.492.065-.664l.604-.556-.017.01c-.223.131-.507.067-.656-.142-.15-.209-.117-.497.076-.667l.357-.313c-.151.013-.33-.064-.434-.207-.149-.208-.117-.496.075-.667l.387-.342c-.163.019-.334-.046-.444-.183-.155-.191-.147-.467.018-.649l1.83-2.028-1.209.698c-.219.13-.505.068-.655-.141-.15-.208-.118-.496.074-.666l.391-.347c-.173.023-.348-.049-.458-.193-.152-.201-.132-.483.048-.659l1.137-1.116-.536.31c-.217.126-.497.071-.649-.132-.151-.201-.13-.484.052-.66l1.026-.992-.429.247c-.211.124-.48.073-.636-.115s-.151-.462.009-.646l1.966-2.25-1.339.772c-.214.125-.49.072-.644-.125-.154-.196-.14-.476.034-.655l1.47-1.521-3.524 2.034c-.224.132-.512.066-.661-.147-.147-.214-.107-.505.093-.671l1.994-1.647-2.602 1.502c-.225.132-.513.065-.661-.147-.148-.214-.107-.506.094-.671l2.896-2.383-2.738 1.58c-.217.129-.502.07-.653-.138-.151-.206-.122-.492.066-.664l4.1-3.743c-.077-.223.012-.475.223-.597l1.221-.705c.219-.127.504-.068.653.138.151.206.122.492-.066.664l-2.057 1.878 3.996-2.307c.224-.133.514-.064.661.147.148.214.107.506-.094.671l-2.896 2.384 2.537-1.465c.225-.131.513-.065.661.147.147.214.107.505-.093.671l-1.995 1.647 1.429-.824c.214-.125.49-.072.644.125.154.196.14.476-.034.655l-1.469 1.521.861-.497c.21-.123.48-.074.636.115.155.188.151.462-.009.646l-1.966 2.25 1.342-.774c.217-.129.496-.071.649.132.151.201.13.484-.052.66l-1.026.992.431-.248c.216-.128.495-.071.648.13.152.2.132.483-.048.659l-1.139 1.117.541-.312c.221-.128.506-.067.655.141.15.208.118.496-.074.666l-.39.346c.165-.025.338.044.448.182.155.191.147.467-.018.649l-1.83 2.027 1.212-.699c.221-.129.506-.068.656.141.149.208.117.496-.075.667l-.388.342c.177-.02.356.054.465.206.15.209.117.497-.076.667l-.356.312c.161-.018.327.062.431.203.15.206.123.492-.065.664l-.603.553.017-.009c.214-.125.491-.072.645.125s.138.478-.036.656l-1.455 1.497.849-.489c.216-.128.493-.071.647.13.152.2.133.482-.046.658l-1.188 1.172.589-.34c.238-.14.545-.057.683.183.139.239.057.545-.183.683l-3.967 2.29c-.078.046-.164.067-.25.067z"/><path d="m22.278 51.36c-.154 0-.306-.071-.403-.204-.15-.205-.123-.491.064-.664l3.134-2.884-6.026 3.479c-.209.122-.476.074-.634-.111-.155-.187-.155-.458.002-.644l1.313-1.556-2.576 1.486c-.213.126-.49.072-.644-.125-.153-.196-.14-.476.033-.654l.424-.439-.842.485c-.213.124-.486.073-.641-.121-.154-.193-.145-.471.024-.652l.422-.454-.668.386c-.203.12-.463.077-.622-.099-.158-.177-.171-.439-.031-.63l1.04-1.415-1.349.778c-.215.126-.489.072-.646-.126-.152-.197-.137-.478.038-.656l.358-.365-.227.13c-.195.113-.441.081-.603-.078-.16-.158-.193-.405-.082-.602l.705-1.243-.015.009c-.239.139-.546.057-.683-.183-.139-.239-.057-.545.183-.683l1.608-.929c.194-.115.441-.082.603.078.16.158.193.405.082.602l-.705 1.242 1.795-1.036c.214-.126.49-.072.646.126.152.197.137.478-.038.656l-.358.366.251-.145c.205-.119.465-.076.622.099.158.177.171.439.031.63l-1.041 1.416 1.486-.857c.212-.125.486-.074.641.121.154.193.145.471-.024.652l-.422.453 1.029-.594c.213-.126.489-.072.644.125.153.196.14.476-.033.654l-.424.439 1.983-1.145c.209-.123.477-.074.634.111.155.187.155.458-.002.644l-1.312 1.556 7.465-4.311c.22-.128.502-.069.653.137.15.205.123.491-.064.664l-3.136 2.885.966-.557c.238-.14.545-.057.683.183.139.239.057.545-.183.683l-4.88 2.817c-.078.046-.164.067-.25.067z"/><path d="m24.217 45.944c-.151 0-.3-.068-.397-.196-.152-.2-.133-.482.046-.659l1.741-1.724-.333.191c-.208.121-.475.075-.631-.109s-.159-.453-.006-.64l1.334-1.629-.992.572c-.214.125-.488.072-.643-.123-.153-.195-.142-.474.029-.653l.407-.43-.297.171c-.208.123-.476.075-.632-.11s-.157-.455-.003-.642l.634-.765-.822.475c-.215.127-.491.073-.646-.127-.153-.198-.137-.479.039-.656l2.342-2.376-3.268 1.886c-.223.131-.509.067-.658-.145-.149-.211-.113-.5.083-.668l2.906-2.482-2.193 1.267c-.224.132-.512.066-.66-.147s-.109-.505.091-.67l2.952-2.444c-.108-.024-.209-.085-.282-.177-.154-.194-.143-.472.026-.653l1.543-1.651-.68.393c-.21.124-.481.074-.637-.115s-.15-.464.011-.647l1.019-1.158-.817.472c-.209.121-.474.075-.632-.109-.156-.185-.158-.454-.005-.641l.899-1.095-1.165.673c-.215.128-.493.072-.646-.128-.152-.198-.135-.479.042-.657l.178-.179-.564.325c-.208.121-.476.076-.631-.108-.156-.185-.159-.453-.007-.641l.847-1.036-2.569 1.483c-.239.139-.546.056-.683-.183-.139-.239-.057-.545.183-.683l4.934-2.849c.207-.123.474-.076.631.108.156.185.159.453.007.641l-.848 1.037 1.45-.837c.216-.126.493-.071.646.128.152.198.135.479-.042.657l-.176.177.299-.172c.207-.122.474-.075.632.109.156.185.158.454.005.641l-.9 1.095 1.065-.614c.21-.124.481-.074.637.115s.15.464-.011.647l-1.019 1.158.956-.552c.213-.125.487-.073.642.122.154.193.143.471-.026.652l-1.542 1.649 1.27-.732c.224-.132.512-.067.66.147.148.213.109.505-.091.67l-2.345 1.941 1.763-1.018c.221-.131.508-.068.658.144.149.212.113.501-.083.669l-2.909 2.484 1.755-1.013c.216-.126.492-.072.646.127.153.198.137.479-.039.656l-2.342 2.376.036-.021c.207-.123.475-.076.632.11.156.185.157.455.003.642l-.634.766.862-.498c.214-.126.488-.073.643.123.153.195.142.474-.029.653l-.406.429.386-.223c.208-.123.474-.076.631.109.156.184.159.453.006.64l-1.334 1.629 1.313-.758c.216-.128.493-.072.647.129.152.2.133.482-.046.659l-1.742 1.726 1.393-.804c.238-.14.545-.057.683.183.139.239.057.545-.183.683l-4.745 2.739c-.078.046-.164.067-.25.067z"/><path d="m14.69 31.397c-.164 0-.324-.081-.419-.228-.146-.223-.09-.521.125-.677l2.098-1.525-2.649 1.529c-.222.132-.509.067-.658-.144s-.113-.501.083-.669l4.068-3.487-3.328 1.921c-.221.129-.509.067-.658-.144s-.113-.501.083-.669l1.813-1.554c-.096-.041-.18-.112-.235-.209-.139-.239-.057-.545.183-.683l3.398-1.963c.22-.131.508-.067.658.144.149.211.113.501-.083.669l-.984.844 3.318-1.916c.221-.131.508-.067.658.144.149.211.113.501-.083.669l-4.07 3.489 6.223-3.592c.228-.136.525-.062.669.16.146.223.09.521-.125.677l-6.973 5.068c.057.213-.034.444-.233.56l-2.628 1.518c-.078.046-.165.067-.25.067z"/></g><path d="m59.724 14.709c1.048-10.59-2.307-9.002-10.991-8.995 1.456-6.874-7.671-6.881-6.467-.11h-24.542c1.448-6.844-7.743-6.392-6.449.11-4.142.121-11.912-1.477-11 5.06.698 15.666-1.378 32.13.77 47.432 1.221 1.375 3.228 1.081 4.883 1.081h43.685c3.263 0 10.057 1.097 10.11-3.794.055-13.594-.031-27.189 0-40.784zm-15.991-11.243c-.097-2.304 2.991-2.587 3.484-.308-.311 2.201 1.301 6.577-1.568 7.308-1.077-.081-1.871-.932-1.917-2.022 0-1.658-.024-3.319 0-4.977zm-31.009-.098c-.094-2.301 2.814-2.564 3.424-.464-.146 2.264 1.33 6.711-1.364 7.691-3.284-.485-1.738-4.922-2.06-7.227zm-10.432 3.728c2.285-1.897 6.209-.38 8.984-.81-1.524 6.781 7.649 6.673 6.449.11h24.542c-1.362 6.924 7.795 6.609 6.467-.11 8.185-.27 10.294-1.017 9.542 8.276h-56.552c.246-2.454-.604-5.216.567-7.466zm55.728 50.276c-.829 1.837-2.983 1.342-4.605 1.342h-42.438c-3.217-.331-9.186 1.516-9.253-3.4-.031-13.292.018-26.584 0-39.876h56.551c-.271 13.944.513 28.082-.256 41.934z" fill="#262626"/><path d="m47.716 47.879c-.136-1.706-2.492-1.502-3.984-1.406-.925-4.123 2.203-23.965-1.859-23.974-1.704-.272-3.325.156-4.032 1.843-.863 1.542-3.094 1.577-3.812 3.113-.237 2.796 1.553 4.789 4.24 2.85v16.161c-1.377-.082-3.213-.209-3.835 1.013-.434 1.382-.539 4.054 1.498 4.021 3.559-.608 13.077 2.525 11.784-3.622zm-1.643 2.621c-1.893-.439-11.042 1.267-10.341-1.314-.567-2.473 1.634-1.517 3.196-1.684.266 0 .804-.236.804-.564v-17.76c-.789-1.687-3.056 2.21-3.859.214-.796-1.514-.322-2.455 1.296-2.992 1.443-.572 1.897-2.605 3.303-2.899 2.164-.473 1.856 1.447 1.797 2.94.62 6.685-1.208 15.274.658 21.061 2.791-.113 4.168-.32 3.146 2.998z" fill="#262626"/><path d="m29.247 33.709c3.054-8.054-7.103-14.312-13.515-9.215-6.444 4.266-1.095 10.778 2.809 3.955 4.344-3.896 9.276 3.821 1.736 8.419-.273.785.535 1.122 1.051 1.48 1.566 1.088 2.893 2.692 2.941 4.68.237 2.784-2.93 4.833-5.129 2.805-1.169-1.18-1.499-3.316-3.573-3.143-7.558 1.431 1.257 10.052 5.816 8.587 6.88-.222 11.145-8.905 6.117-14.019-.56-1.073 1.657-2.215 1.747-3.549zm-3.638 3.543c7.355 6.155-2.038 18.442-9.401 11.333-.901-.848-2.647-2.985-2.108-4.371.548-1.408 1.902-.614 2.415.34 4.917 7.891 14.343-2.588 5.5-7.141-.847-.839.411-1.344 1.024-1.821 6.755-4.73-.95-12.947-6.069-6.712-.313 1.141-1.816 2.298-2.697.978-.811-1.378.638-3.404 1.553-4.378 7.606-7.316 17.162 5.441 9.782 11.773z" fill="#262626"/></svg>