<svg id="Icons" viewBox="0 0 60 60" xmlns="http://www.w3.org/2000/svg"><path d="m28.77 59.104c-.162 0-.321-.079-.417-.223-.146-.22-.097-.516.113-.675l6.149-4.686-7.129 4.115c-.234.136-.534.06-.676-.171-.142-.229-.075-.531.152-.68l2.789-1.829-3.159 1.823c-.235.137-.535.06-.676-.172-.142-.23-.073-.532.154-.681l6.537-4.241-7.071 4.082c-.237.137-.539.058-.679-.176-.141-.233-.067-.537.165-.682l1.635-1.019-1.922 1.109c-.234.138-.536.06-.677-.173s-.071-.534.158-.681l14.63-9.357-15.456 8.923c-.236.138-.54.058-.679-.176-.14-.234-.066-.538.166-.682l9.155-5.682-9.651 5.571c-.236.137-.537.059-.677-.173-.141-.232-.071-.535.159-.682l16.71-10.646-17.594 10.157c-.236.138-.537.059-.678-.174-.141-.232-.07-.535.16-.681l16.368-10.401-17.221 9.942c-.237.137-.54.058-.68-.177s-.065-.539.168-.682l4.786-2.936-5.139 2.966c-.236.137-.538.058-.678-.175-.141-.233-.068-.537.163-.682l13.362-8.376-14.029 8.1c-.236.137-.54.058-.68-.177s-.065-.539.168-.682l5.844-3.591-6.225 3.594c-.236.137-.537.06-.678-.174-.141-.232-.07-.536.16-.682l16.116-10.203-16.936 9.777c-.237.137-.54.058-.679-.177-.14-.234-.066-.538.167-.682l8.002-4.935-8.447 4.876c-.237.138-.54.058-.679-.176-.14-.235-.066-.538.167-.683l8.893-5.494-9.367 5.407c-.236.137-.54.059-.68-.177-.14-.234-.065-.538.167-.682l7.284-4.483-7.705 4.448c-.236.138-.538.058-.678-.175-.141-.233-.068-.536.163-.682l14.19-8.897-14.886 8.594c-.236.137-.537.059-.678-.174s-.069-.536.161-.682l16.189-10.237-17.004 9.816c-.237.137-.539.059-.679-.176s-.066-.538.166-.682l9.442-5.862-9.948 5.743c-.236.137-.54.059-.679-.177-.14-.234-.066-.538.167-.682l4.896-3.017-5.259 3.036c-.237.137-.539.059-.679-.176-.14-.234-.066-.538.166-.682l6.177-3.831-6.587 3.803c-.235.137-.535.06-.676-.171-.142-.23-.074-.532.153-.681l14.722-9.604-15.669 9.046c-.234.138-.536.06-.677-.173-.142-.231-.072-.534.157-.681l10.573-6.79-11.251 6.496c-.235.136-.536.06-.676-.172-.142-.231-.073-.533.154-.681l9.924-6.426-10.607 6.124c-.235.136-.538.059-.678-.174-.141-.232-.07-.535.16-.681l4.996-3.172-5.417 3.127c-.232.137-.53.062-.673-.167-.143-.228-.081-.527.142-.679l10.938-7.449-11.393 6.592c-.235.138-.535.061-.677-.172-.142-.231-.072-.534.156-.681l3.413-2.199-2.345 1.354c-.235.137-.535.06-.676-.171-.142-.231-.074-.533.153-.681l2.6-1.694c-.2.047-.414-.035-.531-.215-.145-.224-.089-.521.126-.678l4.603-3.334-.992.572c-.219.129-.496.07-.649-.131-.152-.201-.13-.484.05-.66l3.693-3.594c-.037-.034-.069-.073-.095-.119-.138-.239-.056-.545.183-.683l1.865-1.077c.219-.127.498-.069.649.131.152.201.13.484-.05.66l-2.674 2.603 5.894-3.402c.229-.135.524-.062.669.16.145.224.089.521-.126.678l-4.604 3.335 7.228-4.173c.234-.138.534-.061.676.171.142.231.074.533-.153.681l-2.258 1.471 4.023-2.322c.236-.137.536-.06.677.172.142.231.072.534-.156.681l-3.417 2.201 5.291-3.054c.234-.136.531-.062.673.167.143.228.081.527-.142.679l-10.936 7.448 14.365-8.294c.234-.139.536-.061.678.174.141.232.07.535-.16.681l-4.999 3.174 6.977-4.028c.233-.138.535-.061.676.172.142.231.073.533-.154.681l-9.925 6.427 12.608-7.279c.235-.137.535-.06.677.173.142.231.072.534-.156.681l-10.578 6.792 13.244-7.646c.235-.137.534-.06.676.171s.074.532-.152.681l-14.722 9.604 18.11-10.455c.237-.138.537-.059.679.176.141.234.066.538-.165.682l-6.172 3.828 8.116-4.686c.237-.138.539-.06.68.177.14.234.065.538-.167.682l-4.893 3.014 6.708-3.872c.236-.138.537-.059.679.176.141.234.067.538-.165.682l-9.447 5.865 11.447-6.608c.236-.137.537-.06.678.174s.069.536-.16.682l-16.186 10.235 17.146-9.899c.237-.136.538-.058.679.175s.067.536-.163.682l-14.193 8.899 14.74-8.51c.237-.138.539-.06.68.177.14.234.065.538-.168.682l-7.275 4.478 7.581-4.376c.237-.139.539-.06.68.176.14.235.065.538-.167.683l-8.9 5.499 9.253-5.342c.236-.139.538-.06.68.177.14.234.065.538-.167.682l-8.01 4.94 8.337-4.813c.236-.137.537-.06.678.174.141.232.069.536-.16.682l-16.11 10.199 16.766-9.679c.236-.139.538-.06.68.177.14.235.065.539-.168.682l-5.858 3.599 6.13-3.538c.237-.136.538-.059.679.175s.067.537-.163.682l-13.358 8.373 13.88-8.013c.236-.139.538-.06.68.177.14.235.064.539-.168.682l-4.758 2.918 5.003-2.888c.237-.136.537-.059.678.174s.07.535-.159.681l-16.375 10.405 17.06-9.849c.237-.136.537-.059.678.173s.07.535-.159.682l-16.715 10.648 16.988-9.808c.237-.138.537-.059.679.176.141.234.067.538-.165.682l-9.152 5.681 7.343-4.239c.236-.136.536-.059.677.173.142.232.071.534-.157.681l-14.624 9.354 8.681-5.012c.236-.138.538-.059.679.176.141.233.067.537-.164.682l-3.482 2.169c.164.004.323.089.416.239.142.23.073.532-.154.681l-6.533 4.238 1.75-1.01c.235-.136.533-.06.676.171.142.229.074.531-.151.68l-3.868 2.536c.158.004.312.082.405.223.146.22.097.516-.113.675l-6.376 4.858c.195-.025.399.062.503.245.139.239.057.545-.183.683l-6.375 3.68c-.079.046-.165.067-.25.067z" fill="#355bc9"/><path d="m2.591 31.501c-.163 0-.323-.08-.418-.226-.146-.221-.093-.518.12-.676l4.784-3.561-5.219 3.013c-.231.134-.525.062-.669-.16-.145-.224-.089-.521.126-.677l4.041-2.932-.563.325c-.224.133-.511.066-.66-.146s-.11-.503.089-.67l3.775-3.158c-.159 0-.308-.065-.407-.196-.152-.2-.133-.481.045-.658l2.501-2.482c-.111-.233-.026-.517.202-.647l1.136-.656c.217-.128.496-.07.647.129.153.199.134.481-.045.658l-1 .993 1.135-.655c.226-.131.511-.066.66.146s.11.503-.089.67l-3.498 2.927 3.904-2.254c.23-.135.524-.062.669.16.145.224.089.521-.126.677l-4.043 2.933 4.331-2.5c.23-.134.523-.062.668.158.146.221.093.518-.12.676l-4.783 3.561 5.162-2.98c.229-.134.52-.063.667.156.146.22.096.515-.114.675l-3.274 2.488 3.553-2.051c.222-.129.502-.068.653.136.151.206.124.491-.063.664l-3.197 2.953 3.677-2.123c.221-.128.499-.068.65.132.152.203.129.486-.054.661l-1.568 1.506 1.798-1.038c.206-.122.47-.076.627.104.157.182.164.448.016.637l-.833 1.062.995-.574c.194-.115.44-.081.602.077.16.158.195.404.084.601l-.153.272.065-.037c.238-.14.544-.057.683.183.138.239.056.545-.183.683l-1.643.948c-.196.114-.441.081-.602-.077s-.195-.404-.084-.601l.153-.272-1.654.954c-.207.12-.47.075-.627-.104-.157-.182-.164-.448-.016-.637l.832-1.062-3.133 1.809c-.22.129-.498.069-.65-.132-.152-.202-.129-.486.054-.661l1.568-1.506-3.991 2.304c-.22.13-.5.069-.653-.136-.151-.205-.124-.491.063-.664l3.199-2.954-6.515 3.761c-.229.134-.52.063-.667-.156-.146-.22-.096-.515.114-.675l3.27-2.484-5.753 3.321c-.079.046-.165.067-.25.067z" fill="#579aea"/><path d="m28.562 58.951c-.111 0-.222-.037-.312-.109-.161-.129-.226-.344-.165-.54l.182-.581-.432.249c-.184.105-.416.085-.577-.054s-.216-.364-.138-.562l.451-1.143-.981.565c-.199.116-.45.08-.61-.086-.159-.165-.185-.418-.063-.612l.636-1.013-1.092.63c-.212.123-.481.072-.635-.114-.156-.188-.152-.461.007-.646l.483-.558-.768.442c-.208.123-.473.076-.63-.107-.157-.184-.161-.452-.009-.64l1.1-1.36-1.661.958c-.222.13-.502.068-.653-.137s-.123-.491.064-.664l.281-.258-.498.287c-.216.129-.494.071-.647-.129-.153-.199-.134-.481.044-.658l1.216-1.208-1.682.971c-.222.129-.5.07-.651-.135-.151-.203-.126-.488.059-.662l1.379-1.295-1.854 1.069c-.221.129-.5.069-.651-.134-.152-.203-.127-.488.058-.662l1.942-1.834-2.555 1.475c-.226.131-.513.064-.661-.147-.148-.214-.108-.505.092-.671l1.207-.996-1.581.912c-.225.133-.514.067-.662-.149-.148-.215-.105-.508.098-.672l1.392-1.127-1.786 1.03c-.224.13-.506.067-.656-.141s-.118-.496.074-.666l2.98-2.643-3.744 2.161c-.23.135-.524.062-.669-.16-.145-.223-.09-.521.125-.677l.024-.018-.232.134c-.224.132-.506.068-.657-.142-.149-.209-.116-.498.078-.667l3.904-3.416-4.826 2.786c-.228.135-.521.064-.667-.157s-.095-.517.117-.676l2.145-1.608-2.585 1.492c-.228.132-.517.064-.664-.151-.147-.217-.102-.511.103-.673l3.845-3.044-4.569 2.638c-.231.135-.527.062-.671-.163-.145-.225-.086-.523.132-.678l1.185-.837-1.496.863c-.228.133-.518.065-.665-.154-.146-.218-.099-.513.109-.674l4.514-3.494-5.285 3.051c-.23.133-.52.062-.666-.155-.146-.219-.097-.515.112-.675l4.925-3.765-5.72 3.302c-.229.134-.521.063-.667-.156-.146-.221-.095-.517.116-.676l3.349-2.526-3.933 2.271c-.225.132-.511.066-.66-.146-.148-.213-.109-.504.09-.67l3.138-2.62-3.841 2.217c-.22.127-.496.068-.648-.13-.152-.2-.132-.482.047-.659l2.402-2.366-3.179 1.835c-.21.125-.479.074-.634-.112-.156-.187-.155-.459.002-.644l1.348-1.588-1.974 1.14c-.201.117-.456.079-.616-.092-.159-.17-.179-.427-.049-.62l.53-.787-.878.507c-.152.088-.339.092-.493.004-.153-.085-.251-.245-.256-.42l-.026-.813c-.184.008-.36-.083-.456-.25-.139-.238-.057-.545.182-.683l.498-.288c.153-.088.34-.091.493-.005.154.086.251.245.257.421l.024.751 2.028-1.17c.201-.119.458-.079.616.092.159.17.179.427.049.62l-.529.786 2.6-1.501c.212-.123.479-.073.634.112.156.187.155.459-.002.644l-1.349 1.589 4.066-2.348c.219-.128.496-.07.648.13s.132.482-.047.659l-2.402 2.366 5.472-3.159c.227-.131.513-.066.66.146.148.213.109.504-.09.67l-3.138 2.62 5.96-3.44c.229-.134.521-.063.667.156.146.221.095.517-.116.676l-3.349 2.526 5.372-3.101c.228-.134.52-.063.666.155.146.219.097.515-.112.675l-4.924 3.765 4.984-2.877c.229-.133.519-.064.665.154s.099.513-.109.674l-4.513 3.494 4.561-2.633c.231-.135.527-.062.671.163.145.225.086.523-.132.678l-1.183.836 1.03-.595c.227-.133.516-.066.664.151.147.217.102.511-.103.673l-3.845 3.044 3.868-2.233c.23-.134.522-.063.667.157.146.221.095.517-.117.676l-2.147 1.61 2.048-1.182c.225-.13.507-.066.657.142.149.209.116.498-.078.667l-3.902 3.414 4.005-2.312c.229-.136.524-.062.669.16.145.223.09.521-.125.677l-.108.079c.205-.068.432.003.562.183.15.208.118.496-.074.666l-2.981 2.644 3.011-1.738c.227-.132.514-.065.662.149.148.215.105.508-.098.672l-1.392 1.127 1.263-.729c.225-.132.513-.065.661.147.148.214.108.505-.092.671l-1.207.996 1.067-.615c.221-.13.5-.069.651.134.152.203.127.488-.058.662l-1.942 1.834 1.897-1.095c.221-.129.5-.07.651.135.151.203.126.488-.059.662l-1.379 1.295 1.271-.733c.22-.127.495-.071.647.129.153.199.134.481-.044.658l-1.214 1.207 1.098-.634c.222-.129.502-.069.653.137.151.205.123.491-.064.664l-.282.259.061-.034c.209-.121.474-.075.63.107.157.184.161.452.009.64l-1.099 1.36 1.005-.58c.211-.126.48-.073.635.114.156.188.152.461-.007.646l-.483.558.27-.155c.198-.116.45-.08.61.086.16.165.186.418.063.612l-.637 1.014.477-.274c.185-.105.415-.085.577.054.161.139.216.364.138.562l-.45 1.142.301-.174c.178-.104.402-.086.562.042.161.129.226.344.165.54l-.188.6c.219-.071.463.021.582.228.138.239.056.545-.183.684l-1.004.579c-.078.044-.164.066-.25.066z" fill="#4b84dd"/><path d="m19.342 30.44c-.154 0-.305-.071-.403-.203-.151-.204-.125-.49.062-.663l1.888-1.754-2.155 1.244c-.229.133-.519.063-.666-.154-.146-.219-.098-.514.111-.675l2.143-1.648-2.33 1.345c-.23.136-.526.062-.671-.163-.144-.226-.085-.524.133-.679l1.658-1.167-1.768 1.021c-.232.137-.53.062-.673-.166s-.081-.527.141-.68l1.539-1.051-1.632.941c-.229.136-.521.062-.667-.157-.146-.222-.094-.518.119-.676l3.266-2.438-3.527 2.036c-.229.134-.52.064-.667-.156-.146-.22-.096-.516.115-.675l1.917-1.452-2.076 1.198c-.228.133-.518.064-.665-.152-.146-.218-.101-.512.106-.674l1.068-.837-1.161.67c-.214.126-.487.073-.641-.121-.154-.192-.144-.47.024-.651l1.654-1.786-1.97 1.137c-.19.109-.429.083-.59-.066s-.206-.387-.11-.584l.643-1.327-.898.519c-.158.092-.354.089-.509-.005-.156-.095-.249-.268-.24-.45l.019-.434c-.212.062-.451-.029-.567-.231-.138-.239-.056-.545.183-.683l.673-.389c.158-.092.353-.089.509.005.156.095.249.268.24.45l-.019.415 1.518-.876c.19-.109.429-.083.59.066s.206.387.11.584l-.643 1.327 3.425-1.978c.214-.126.487-.073.641.121.154.192.144.47-.024.651l-1.654 1.786 4.433-2.559c.228-.133.518-.064.665.152.146.218.101.512-.106.674l-1.068.837 2.881-1.663c.229-.134.521-.063.667.156s.096.516-.115.675l-1.917 1.453 3.956-2.284c.23-.133.523-.062.667.157.146.222.094.518-.119.676l-3.267 2.438 5.666-3.271c.233-.136.531-.062.673.166.143.228.081.527-.141.68l-1.538 1.051c.229-.124.515-.048.656.172.144.226.085.524-.133.679l-2.178 1.533c.175.008.335.072.436.222.146.219.098.514-.111.675l-2.471 1.901c.17-.017.326.063.428.202.151.204.125.49-.062.663l-2.6 2.415c.088.042.165.11.218.201.138.239.056.545-.183.683l-2.655 1.533c-.079.046-.165.067-.25.067z" fill="#518de5"/><path d="m39.87 31.282c-.14 0-.277-.059-.375-.169-.157-.179-.167-.443-.023-.634l.496-.653-.634.366c-.217.126-.494.071-.647-.129-.152-.199-.133-.481.045-.658l2.213-2.201-2.707 1.562c-.226.132-.516.064-.663-.151s-.104-.509.102-.672l2.613-2.084-2.97 1.714c-.228.135-.522.063-.668-.158s-.093-.519.12-.676l3.543-2.627-3.918 2.262c-.229.133-.521.063-.666-.155-.146-.22-.097-.515.112-.675l4.185-3.195-4.658 2.689c-.22.131-.507.068-.657-.143-.149-.21-.115-.499.079-.668l3.64-3.159-4.234 2.444c-.217.127-.496.071-.649-.132-.152-.201-.13-.485.052-.66l2.302-2.224-2.787 1.608c-.209.123-.479.075-.635-.113-.155-.188-.153-.46.005-.645l1.219-1.421-1.568.905c-.199.116-.45.08-.61-.086-.159-.165-.186-.418-.063-.612l.417-.663-.548.315c-.126.073-.277.086-.416.039-.137-.048-.247-.153-.3-.289l-.318-.813c-.199.037-.407-.058-.514-.244-.138-.239-.055-.545.184-.683l.346-.199c.126-.072.279-.085.415-.038.138.048.247.154.3.289l.307.782 1.789-1.032c.197-.116.45-.081.61.086.159.165.186.418.063.612l-.417.663 2.359-1.361c.209-.123.479-.075.635.113.155.188.153.46-.005.645l-1.219 1.42 3.773-2.178c.216-.128.496-.072.649.132.152.201.13.485-.052.66l-2.302 2.224 5.225-3.016c.221-.128.508-.067.657.143s.115.499-.079.668l-3.639 3.158 6.874-3.969c.227-.135.52-.063.666.155.146.22.097.515-.112.675l-4.187 3.196 4.756-2.745c.229-.134.523-.062.668.158.146.222.093.519-.12.676l-3.546 2.629 1.188-.686c.225-.134.515-.065.663.151.147.216.104.509-.102.672l-2.615 2.085.252-.145c.215-.127.494-.072.647.129.152.199.133.481-.045.658l-2.461 2.447c.125.011.245.067.333.167.157.179.167.444.023.634l-1.462 1.923c.063.216-.025.455-.229.573l-.455.264c-.079.045-.165.067-.251.067z" fill="#4878d8"/><path d="m40.68 31.47c-.165 0-.327-.083-.422-.232-.144-.227-.083-.525.137-.679l1.935-1.341-.95.548c-.229.134-.525.062-.67-.161s-.088-.521.128-.678l2.45-1.763-.327.188c-.225.132-.516.066-.662-.149-.147-.216-.105-.509.099-.673l2.921-2.355-.44.254c-.226.132-.515.065-.663-.151-.147-.216-.104-.509.102-.672l1.319-1.052c-.054-.027-.104-.065-.146-.112-.157-.178-.169-.442-.026-.632l2.176-2.901c-.103-.231-.017-.508.207-.637l.566-.327c.205-.119.466-.077.624.101.157.178.169.442.026.632l-1.334 1.778 1.993-1.15c.225-.133.515-.065.663.151.147.216.104.509-.102.672l-.112.09.221-.127c.224-.132.515-.066.662.149s.105.509-.099.673l-2.921 2.355 3.396-1.96c.229-.135.524-.062.67.161.145.224.088.521-.128.678l-2.454 1.766 2.77-1.599c.233-.135.528-.062.672.165s.083.525-.137.679l-1.93 1.338 2.181-1.259c.228-.136.525-.062.67.161.145.225.088.522-.128.678l-1.975 1.417 2.249-1.298c.227-.134.52-.065.665.154.146.218.099.513-.109.674l-2.345 1.814 2.709-1.563c.227-.134.521-.064.667.156.146.221.095.517-.116.676l-.466.352.619-.357c.22-.128.503-.068.654.138.15.207.121.494-.068.665l-1.424 1.29 1.757-1.014c.209-.123.476-.075.632.11s.157.455.003.642l-1.003 1.207 1.366-.788c.194-.115.442-.082.603.078.16.159.193.406.081.603l-.332.581.476-.274c.155-.089.348-.088.503.003s.25.258.247.438l-.007.44c.147.021.283.106.363.245.139.239.057.545-.183.683l-.441.255c-.156.091-.349.088-.503 0-.155-.092-.25-.259-.247-.439l.005-.317-1.314.758c-.195.114-.443.081-.603-.078s-.193-.406-.081-.603l.331-.581-2.186 1.262c-.209.123-.476.075-.632-.11s-.157-.455-.003-.642l1.003-1.206-3.393 1.958c-.219.129-.503.069-.654-.138-.15-.207-.121-.494.068-.665l1.424-1.29-3.626 2.093c-.228.133-.521.064-.667-.156s-.095-.517.116-.676l.468-.353-2.053 1.185c-.227.133-.519.065-.665-.154-.146-.218-.099-.513.109-.674l2.345-1.814-4.578 2.643c-.229.133-.527.062-.67-.161-.145-.225-.088-.522.128-.678l1.974-1.417-3.907 2.256c-.079.046-.165.067-.25.067z" fill="#4067d3"/><path d="m22.254 31.47c-.163 0-.323-.08-.418-.226-.146-.221-.093-.518.12-.676l4.328-3.219-5.135 2.965c-.231.136-.525.062-.669-.161-.145-.223-.089-.521.126-.677l3.781-2.732-.885.511c-.227.133-.512.065-.661-.147-.148-.214-.108-.505.092-.671l3.649-3.016-.236.136c-.226.132-.513.065-.661-.148-.148-.214-.107-.506.094-.671l1.606-1.317c-.024-.021-.047-.043-.068-.068-.155-.189-.15-.464.011-.647l1.784-2.028c-.046-.207.044-.429.238-.54l.553-.319c.211-.126.482-.074.637.115s.15.464-.011.647l-.44.501.545-.314c.228-.132.513-.065.661.148s.107.506-.094.671l-.062.051.114-.065c.224-.131.513-.066.661.147.147.214.107.505-.093.671l-3.649 3.016 4.176-2.41c.229-.135.524-.063.67.161.145.224.089.521-.127.677l-3.773 2.727 4.137-2.388c.229-.133.522-.062.668.158s.093.518-.119.676l-4.331 3.22 4.778-2.758c.224-.131.511-.065.659.145.148.212.111.503-.086.67l-4.096 3.466 4.72-2.725c.225-.131.515-.066.662.149s.105.507-.097.672l-1.891 1.533 2.172-1.254c.215-.127.494-.072.647.129.152.199.133.48-.045.658l-1.719 1.711 2.104-1.214c.2-.116.455-.08.613.09.159.168.182.424.055.618l-.9 1.366 1.267-.73c.193-.112.436-.082.597.072.16.153.199.396.097.593l-.137.259.106-.061c.238-.141.545-.057.683.183.139.239.057.545-.183.683l-1.599.923c-.192.113-.436.083-.597-.072-.16-.153-.199-.396-.097-.593l.137-.26-1.603.925c-.199.118-.453.08-.614-.09-.158-.168-.181-.424-.054-.618l.899-1.365-3.592 2.073c-.216.125-.494.071-.647-.129-.152-.199-.133-.48.045-.658l1.719-1.711-4.328 2.498c-.226.133-.514.066-.662-.149-.147-.215-.105-.507.097-.672l1.891-1.533-4.079 2.354c-.225.132-.51.065-.659-.145-.149-.212-.111-.503.086-.67l4.095-3.465-7.413 4.279c-.079.046-.165.067-.25.067z" fill="#4b84dd"/><path d="m29.771 58.771c-.129 0-.257-.05-.353-.146-.16-.16-.193-.407-.081-.604l.291-.507-.026.015c-.208.12-.47.075-.627-.104-.157-.181-.164-.447-.017-.636l.806-1.032-.66.38c-.218.129-.496.07-.648-.131s-.131-.484.049-.66l.646-.63-.46.266c-.224.132-.508.066-.657-.143-.149-.21-.115-.499.08-.668l.542-.469-.35.201c-.226.132-.512.066-.661-.147-.148-.213-.108-.505.092-.671l.93-.77-.77.444c-.226.132-.514.065-.661-.148-.148-.214-.107-.506.094-.671l1.901-1.557-1.81 1.044c-.229.134-.522.064-.667-.157-.146-.221-.094-.517.118-.676l1.004-.752-.846.488c-.228.132-.515.064-.663-.15-.147-.215-.104-.508.099-.672l4.01-3.23-4.058 2.342c-.231.136-.528.062-.671-.164-.144-.226-.085-.524.134-.678l1.007-.707-.849.489c-.229.134-.52.063-.667-.156-.146-.221-.095-.516.116-.675l5.075-3.836-5.132 2.963c-.231.136-.525.062-.67-.161-.145-.225-.088-.522.128-.678l4.794-3.444-4.793 2.768c-.231.135-.524.062-.669-.159-.145-.223-.091-.521.124-.677l7.034-5.146-7.15 4.128c-.231.133-.524.062-.669-.16-.145-.223-.09-.521.125-.677l7.529-5.476-7.661 4.423c-.229.134-.521.064-.667-.157s-.095-.517.117-.675l5.596-4.207-5.675 3.276c-.232.137-.528.062-.673-.165-.143-.228-.082-.526.139-.679l.484-.334-.308.177c-.222.131-.504.069-.654-.139-.15-.206-.121-.493.069-.665l3.574-3.23-3.672 2.12c-.215.127-.489.072-.644-.124-.153-.195-.14-.475.032-.654l1.857-1.939-1.837 1.061c-.216.126-.49.071-.642-.122-.154-.195-.142-.473.028-.653l.308-.327-.073.042c-.149.087-.333.09-.485.009s-.252-.235-.264-.407l-.071-1.036c-.161-.011-.313-.1-.399-.249-.138-.239-.056-.545.183-.684l.417-.24c.15-.085.333-.089.485-.008s.252.235.264.407l.064.941 2.333-1.347c.214-.127.488-.071.642.122.154.195.142.473-.028.653l-.309.328 1.918-1.107c.217-.125.49-.071.644.124.153.195.14.475-.032.654l-1.857 1.939 4.722-2.726c.223-.13.504-.068.654.139.15.206.121.493-.069.665l-3.574 3.229 7-4.041c.235-.135.53-.061.673.165.144.228.082.526-.139.679l-.492.34 2.058-1.188c.227-.135.521-.064.667.157s.095.517-.116.675l-5.595 4.206 8.74-5.046c.228-.135.525-.062.669.16.146.223.09.521-.125.677l-7.53 5.477 6.937-4.005c.229-.133.523-.063.669.159.145.223.091.521-.124.677l-7.031 5.144 5.48-3.164c.229-.136.526-.062.67.161.145.225.088.522-.128.678l-4.792 3.443 3.428-1.979c.227-.135.521-.064.667.156.146.221.096.516-.115.675l-5.079 3.839 3.604-2.08c.233-.136.527-.062.672.164.144.226.084.524-.135.678l-1.052.739c.211-.09.467-.017.601.181.148.215.104.508-.099.672l-4.009 3.229 2.518-1.453c.227-.135.521-.064.667.157s.095.517-.117.676l-1.062.795c.208-.071.447-.002.578.188.148.214.107.506-.095.671l-1.903 1.559.614-.354c.224-.132.513-.067.66.147.148.213.108.505-.092.671l-1.041.861c.19-.038.393.034.51.199.149.21.115.499-.08.668l-.88.762c.141.01.275.078.365.197.152.201.131.484-.05.66l-.924.9c.122.013.24.07.325.169.157.181.164.447.018.636l-1.032 1.322c.087.021.169.065.235.132.16.16.193.407.081.604l-.692 1.207c.02.023.039.05.055.077.138.239.056.545-.183.684l-.576.332c-.078.045-.165.066-.25.066z" fill="#4067d3"/><g fill="#262626"><path d="m13.254 17.519c-1.861-.203-3.242 1.041-4.229 2.472-2.106 2.47-4.212 4.94-6.317 7.411-1.418 1.635-3.583 3.67-1.607 5.743 8.867 8.698 18.008 17.23 26.978 25.813 1.976 1.363 3.753-.066 5.144-1.399 8.331-7.985 16.662-15.969 24.993-23.954.765-.626 1.547-1.654 1.439-2.545-.05-1.813-1.997-3.414-3.122-4.76-2.037-2.389-4.074-4.779-6.11-7.168-.742-.87-1.47-1.546-2.706-1.612-11.486 0-22.975 0-34.462 0zm1.898.962h13.782c-2.93 3.809-5.86 7.618-8.79 11.427-2.501-3.816-5.003-7.632-7.504-11.448.83-.115 1.778.021 2.512.021zm14.911 38.473c-3.023-8.464-6.046-16.928-9.068-25.392h18.137c-3.023 8.464-6.046 16.928-9.068 25.392zm-8.935-26.516c2.924-3.802 5.849-7.603 8.773-11.405 2.924 3.802 5.849 7.603 8.773 11.405zm-14.531-5.847c1.553-1.822 3.017-3.843 4.715-5.534 2.487 3.793 4.973 7.587 7.459 11.38h-16.935c1.121-2.204 3.216-3.93 4.76-5.847zm10.198 21.709c-4.827-5.002-10.574-9.384-14.926-14.738h17.538c3.122 8.743 6.245 17.486 9.367 26.229-3.981-3.843-7.988-7.658-11.979-11.491zm14.595 11.52c-.134.128-.275.236-.419.33 3.165-8.863 6.33-17.725 9.496-26.588h17.756c-8.104 9.287-18.098 17.386-26.833 26.258zm19.828-35.581c2.216 2.755 4.797 5.301 6.804 8.199h-16.961c2.477-3.779 4.955-7.559 7.432-11.338 1.086.831 2.009 2.3 2.724 3.14zm-4.176-3.758c.141.006.277.051.413.087-2.473 3.773-4.946 7.546-7.419 11.318-2.925-3.802-5.849-7.604-8.774-11.406 5.249.048 10.534-.217 15.779 0z"/><path d="m30.735 9.948c0-3 0-6 0-9 0-.769-1.469-.562-1.469.105v9c0 .769 1.469.562 1.469-.105z"/><path d="m22.323 13.266c.277.323 1.658-.179 1.355-.532-2-2.333-4-4.667-6-7-.277-.323-1.658.179-1.355.532 2 2.333 4 4.667 6 7z"/><path d="m37.669 12.996c2-2.333 4-4.667 6-7 .223-.26-.191-.373-.379-.373-.332 0-.737.122-.96.382-1.748 2.039-3.495 4.078-5.243 6.117-.252.294-.505.589-.757.883-.301.63 1.175.338 1.339-.009z"/></g></svg>