<svg id="Icons" height="512" viewBox="0 0 60 60" width="512" xmlns="http://www.w3.org/2000/svg"><path d="m17.925 59.47a.5.5 0 0 1 -.267-.923l13.677-8.6-16.382 9.453a.5.5 0 0 1 -.517-.854l19.17-12.17-22.559 13.024a.5.5 0 0 1 -.516-.856l19.837-12.433-22.097 12.758a.5.5 0 0 1 -.515-.856l22.659-14.2-23.597 13.618a.5.5 0 0 1 -.511-.859l15.993-9.822-15.983 9.228a.5.5 0 0 1 -.51-.86l12.505-7.629-12.032 6.948a.5.5 0 0 1 -.51-.86l14.2-8.686-13.69 7.909a.5.5 0 0 1 -.509-.86l5.759-3.487-5.25 3.03a.5.5 0 0 1 -.515-.856l19.795-12.411-19.28 11.131a.5.5 0 0 1 -.51-.86l6.7-4.1-6.19 3.578a.5.5 0 0 1 -.515-.857l14.781-9.287-14.266 8.237a.5.5 0 0 1 -.52-.853l16.325-10.52-15.805 9.125a.5.5 0 0 1 -.514-.858l5.534-3.446-5.023 2.9a.5.5 0 0 1 -.513-.857l2.7-1.679-2.184 1.262a.5.5 0 0 1 -.518-.855l6.475-4.117-5.957 3.44a.5.5 0 0 1 -.515-.857l1.438-.9-.923.532a.5.5 0 0 1 -.52-.853l4.253-2.738-3.733 2.152a.5.5 0 0 1 -.538-.842l8.658-6.094-8.12 4.684a.5.5 0 0 1 -.542-.839l6.115-4.4-5.573 3.218a.5.5 0 0 1 -.552-.831l4.481-3.4-3.929 2.268a.5.5 0 0 1 -.584-.8l3.387-3.041-2.8 1.618a.5.5 0 0 1 -.6-.785l1.345-1.356-.741.427a.5.5 0 0 1 -.738-.539l.312-1.433a.486.486 0 0 1 -.256-.218.5.5 0 0 1 .182-.682l.5-.289a.5.5 0 0 1 .739.539l-.266 1.186 3-1.732a.5.5 0 0 1 .6.785l-1.34 1.355 3.711-2.142a.5.5 0 0 1 .584.8l-3.387 3.045 6.666-3.847a.5.5 0 0 1 .552.831l-4.483 3.4 7.337-4.233a.5.5 0 0 1 .542.839l-6.109 4.394 9.07-5.236a.5.5 0 0 1 .538.842l-8.655 6.1 12.021-6.94a.5.5 0 0 1 .521.853l-4.244 2.729 6.216-3.588a.5.5 0 0 1 .516.856l-1.45.912 3.063-1.769a.5.5 0 0 1 .519.855l-6.469 4.112 8.607-4.969a.5.5 0 0 1 .513.858l-2.71 1.683 4.405-2.542a.5.5 0 0 1 .514.858l-5.548 3.451 7.467-4.311a.5.5 0 0 1 .521.853l-16.324 10.518 19.7-11.373a.5.5 0 0 1 .515.857l-14.787 9.29 17.579-10.149a.5.5 0 0 1 .511.86l-6.686 4.087 8.571-4.949a.5.5 0 0 1 .515.857l-19.8 12.41 22.983-13.269a.5.5 0 0 1 .509.861l-5.734 3.471 6.321-3.649a.5.5 0 0 1 .51.859l-14.205 8.69 13.694-7.907a.5.5 0 0 1 .51.859l-12.506 7.629 12-6.926a.5.5 0 0 1 .511.858l-16.011 9.832 15.496-8.945a.5.5 0 0 1 .515.857l-22.658 14.203 22.143-12.784a.5.5 0 0 1 .515.856l-19.835 12.436 19.32-11.157a.5.5 0 0 1 .517.855l-19.167 12.167 18.65-10.767a.5.5 0 0 1 .516.856l-13.68 8.6 13.164-7.6a.5.5 0 0 1 .512.857l-5.711 3.535 5.2-3a.5.5 0 0 1 .512.858l-3.384 2.094 2.872-1.658a.5.5 0 0 1 .521.853l-11.515 7.457 10.993-6.347a.5.5 0 0 1 .516.856l-3.25 2.044 2.734-1.579a.5.5 0 0 1 .53.847l-10.232 6.912 9.7-5.6a.5.5 0 0 1 .518.854l-.825.526.307-.176a.5.5 0 0 1 .525.849l-3.589 2.373 3.064-1.768a.5.5 0 0 1 .54.84l-5.584 3.983 5.046-2.912a.5.5 0 0 1 .553.83l-4.438 3.386 3.885-2.243a.5.5 0 0 1 .55.833l-1.461 1.092.911-.526a.5.5 0 0 1 .618.771l-2.151 2.337 1.164-.672a.5.5 0 0 1 .5.866l-3.992 2.3a.5.5 0 0 1 -.618-.77l2.153-2.343-5.394 3.119a.5.5 0 0 1 -.55-.833l1.461-1.091-3.334 1.924a.5.5 0 0 1 -.554-.83l4.44-3.385-7.303 4.215a.5.5 0 0 1 -.54-.839l5.58-3.981-8.349 4.82a.5.5 0 0 1 -.526-.849l3.594-2.376-5.588 3.225a.5.5 0 0 1 -.519-.854l.829-.528-2.4 1.382a.5.5 0 0 1 -.53-.846l10.229-6.911-13.432 7.757a.5.5 0 0 1 -.517-.855l3.255-2.045-5.027 2.9a.5.5 0 0 1 -.522-.852l11.514-7.448-14.387 8.3a.5.5 0 0 1 -.512-.857l3.373-2.087-5.1 2.944a.5.5 0 0 1 -.513-.857l5.719-3.539-7.615 4.4a.5.5 0 0 1 -.251.066z" fill="#def1ff"/><path d="m47.2 17.009a.5.5 0 0 1 -.478-.647l.4-1.3-1.207.7a.5.5 0 0 1 -.634-.753l.5-.6-.926.534a.5.5 0 0 1 -.589-.8l.069-.065-.346.2a.5.5 0 0 1 -.612-.777l1.839-1.93-2.716 1.568a.5.5 0 0 1 -.576-.812l1.708-1.473-2.345 1.353a.5.5 0 0 1 -.569-.817l2.42-2.013-2.859 1.65a.5.5 0 0 1 -.565-.82l2.486-2.023-1.92 1.11a.5.5 0 0 1 -.608-.781l2.186-2.248-1.578.91a.5.5 0 0 1 -.656-.725l.69-.961a.5.5 0 0 1 -.247-.932l1.659-.957a.5.5 0 0 1 .656.724l-.593.825 2.689-1.549a.5.5 0 0 1 .608.781l-2.186 2.246 4.243-2.449a.5.5 0 0 1 .565.82l-2.489 2.023 2.5-1.443a.5.5 0 0 1 .569.818l-2.418 2.01 1.85-1.067a.5.5 0 0 1 .576.811l-1.71 1.476 1.134-.654a.5.5 0 0 1 .612.777l-1.839 1.931 1.227-.708a.5.5 0 0 1 .589.8l-.322.3a.5.5 0 0 1 .367.821l-.526.629a.5.5 0 0 1 .62.626l-.435 1.423a.5.5 0 0 1 .207.931l-.768.443a.5.5 0 0 1 -.252.064z" fill="#2e444c"/><path d="m4.994 25.47a.5.5 0 0 1 -.262-.926l1.331-.819-2.906 1.675a.5.5 0 0 1 -.521-.852l15.3-9.872-16.56 9.562a.5.5 0 0 1 -.513-.858l4.676-2.89-4.027 2.325a.5.5 0 0 1 -.512-.856l7.79-4.872-.114.065a.5.5 0 0 1 -.52-.853l7.862-5.033a.5.5 0 0 1 -.166-.888l10.242-7.448a.5.5 0 0 1 .222-.6l2.941-1.7a.5.5 0 0 1 .544.837l-5.667 4.12 7.578-4.375a.5.5 0 0 1 .519.853l-5.189 3.328 5.781-3.337a.5.5 0 0 1 .515.856l-7.782 4.867 8.4-4.85a.5.5 0 0 1 .513.858l-4.659 2.881 5.146-2.968a.5.5 0 0 1 .522.853l-15.306 9.872 16.413-9.476a.5.5 0 0 1 .512.859l-1.347.829 1.73-1a.5.5 0 0 1 .52.853l-11.312 7.25 12.183-7.033a.5.5 0 0 1 .517.856l-6.958 4.394 7.579-4.375a.5.5 0 0 1 .524.851l-11.19 7.341 12.178-7.03a.5.5 0 0 1 .514.857l-.464.29.823-.475a.5.5 0 0 1 .526.85l-9.288 6.153 10.206-5.892a.5.5 0 0 1 .52.853l-4.433 2.855 4.989-2.88a.5.5 0 0 1 .535.843l-9.163 6.367 10.284-5.936a.5.5 0 0 1 .523.851l-2.569 1.672 3.043-1.752a.5.5 0 0 1 .537.841l-6.684 4.7 7.628-4.4a.5.5 0 0 1 .541.839l-5.71 4.1 6.621-3.832a.5.5 0 0 1 .529.848l-1.053.708 1.455-.84a.5.5 0 0 1 .533.845l-1.333.915 1.765-1.019a.5.5 0 0 1 .552.832l-3.482 2.646 4.256-2.457a.5.5 0 0 1 .562.823l-2.871 2.3 3.639-2.1a.5.5 0 0 1 .58.809l-2.332 2.042 3.115-1.8a.5.5 0 0 1 .579.81l-1.1.955 1.607-.927a.5.5 0 0 1 .634.753l-1.114 1.339 1.593-.919a.5.5 0 0 1 .658.721l-.465.66a.5.5 0 0 1 .191.929l-1.527.881a.5.5 0 0 1 -.659-.72l.33-.466-2.057 1.184a.5.5 0 0 1 -.634-.753l1.117-1.338-3.624 2.091a.5.5 0 0 1 -.579-.809l1.1-.955-3.065 1.764a.5.5 0 0 1 -.58-.808l2.329-2.042-4.935 2.85a.5.5 0 0 1 -.563-.823l2.872-2.3-5.411 3.123a.5.5 0 0 1 -.552-.831l3.482-2.645-6.023 3.476a.5.5 0 0 1 -.534-.844l1.33-.913-3.044 1.757a.5.5 0 0 1 -.53-.847l1.056-.709-2.697 1.556a.5.5 0 0 1 -.541-.839l5.709-4.094-8.546 4.933a.5.5 0 0 1 -.537-.841l6.683-4.7-9.598 5.541a.5.5 0 0 1 -.523-.851l2.582-1.681-4.387 2.532a.5.5 0 0 1 -.535-.842l9.159-6.358-12.484 7.2a.5.5 0 0 1 -.52-.852l4.438-2.855-6.429 3.707a.5.5 0 0 1 -.526-.849l9.287-6.151-12.13 7a.5.5 0 0 1 -.514-.856l.456-.285-1.978 1.141a.5.5 0 0 1 -.524-.85l11.193-7.344-14.194 8.194a.5.5 0 0 1 -.517-.855l6.959-4.4-9.096 5.255a.5.5 0 0 1 -.519-.853l11.314-7.247-14.038 8.1a.5.5 0 0 1 -.25.07z" fill="#3d93e8"/><path d="m22.59 59.5a.5.5 0 0 1 -.275-.918l1.655-1.085-2.69 1.553a.5.5 0 0 1 -.527-.849l5.061-3.375-4.534 2.614a.5.5 0 0 1 -.536-.842l8.445-5.9-7.909 4.566a.5.5 0 0 1 -.527-.849l5.013-3.341-4.486 2.589a.5.5 0 0 1 -.529-.848l5.765-3.874-5.236 3.023a.5.5 0 0 1 -.522-.852l2.026-1.312-1.5.868a.5.5 0 0 1 -.524-.85l3.14-2.062-2.62 1.509a.5.5 0 0 1 -.53-.847l6.065-4.1-5.535 3.2a.5.5 0 0 1 -.525-.85l2.969-1.968-2.444 1.41a.5.5 0 0 1 -.529-.847l3.6-2.419-3.067 1.77a.5.5 0 0 1 -.541-.839l4.469-3.2-3.932 2.272a.5.5 0 0 1 -.567-.82l4.273-3.5-3.706 2.14a.5.5 0 0 1 -.6-.786l2.516-2.514-1.913 1.1a.5.5 0 0 1 -.625-.764l.864-.977a.5.5 0 0 1 -.155-.924l2.05-1.184a.5.5 0 0 1 .625.764l-.609.689 2.554-1.471a.5.5 0 0 1 .6.786l-2.512 2.514 5.716-3.3a.5.5 0 0 1 .567.819l-4.274 3.5 7.486-4.319a.5.5 0 0 1 .541.839l-4.466 3.2 6.831-3.944a.5.5 0 0 1 .529.848l-3.591 2.415 4.386-2.536a.5.5 0 0 1 .525.849l-2.976 1.963 3.142-1.813a.5.5 0 0 1 .531.847l-6.061 4.1 5.761-3.325a.5.5 0 0 1 .524.851l-3.151 2.065 2.629-1.518a.5.5 0 0 1 .522.852l-2.017 1.307 1.5-.864a.5.5 0 0 1 .529.848l-5.759 3.87 5.232-3.02a.5.5 0 0 1 .527.848l-5.026 3.351 4.5-2.6a.5.5 0 0 1 .537.843l-8.445 5.9 7.911-4.566a.5.5 0 0 1 .528.849l-5.055 3.371 4.529-2.616a.5.5 0 0 1 .525.851l-1.662 1.086 1.132-.653a.5.5 0 0 1 .533.845l-3.008 2.057 2.481-1.432a.5.5 0 0 1 .533.846l-.739.5.208-.119a.5.5 0 0 1 .568.819l-3.5 2.867 2.935-1.694a.5.5 0 0 1 .612.777l-2.134 2.247 1.525-.88a.5.5 0 0 1 .646.738l-.5.645a.51.51 0 0 1 .538.24.5.5 0 0 1 -.183.682l-2.017 1.165a.5.5 0 0 1 -.645-.738l.462-.6-2.321 1.34a.5.5 0 0 1 -.613-.777l2.135-2.247-5.248 3.037a.5.5 0 0 1 -.567-.819l3.5-2.868-6.4 3.693a.5.5 0 0 1 -.533-.846l.73-.5-2.33 1.35a.5.5 0 0 1 -.532-.846l3.013-2.059-5.041 2.909a.494.494 0 0 1 -.25.07z" fill="#966b38"/><path d="m54.736 25.43c12.869-.248-2.839-8.753-6-11.74-.236-2.983.517-6.214-.377-9.067-2.04-1.978-9.082-2.179-9.116 1.742-6.209-5.022-9.2-8.555-15.934-1.711-2.442 3.417-34.842 21.866-18.045 20.774v28.437c-.77 5.391 4.882 6.248 9 5.694 44.59-2.699 40.873 13.213 40.472-34.129zm-12.776-20.914c7.167-1.1 5.027 2.954 5.307 8.046-2.181-1.679-4.367-3.352-6.539-5.044-.028-1.099-.243-2.965 1.232-3.002zm-38.929 20.056c-4.35-1.962 4.1-5.653 5.451-7.354 4.707-2.418 19.364-17.802 23.045-15.152 7.54 5.6 14.847 11.532 22.352 17.191 2.939 1.822 7.436 5.869.746 5.4a.9.9 0 0 0 -1.151 0c-15.65-.168-31.287-.054-46.936-.082-1.066-.211-2.358.125-3.507-.003zm20.669 10.771c21.343-1.4 12.974 2.2 14.573 23.1h-16.549c.876-4.315-2.153-22.448 1.976-23.1zm29.317 21.038c-2.59 4.053-9.21 1.334-13.293 2.059q0-10.309 0-20.62c-.361-4.411-5.786-3.045-8.825-3.163-3.683.246-10.433-1.523-10.623 3.95-.01 6.611.006 13.222 0 19.833-3.382-.043-6.778.122-10.157 0-4.121-.18-3.383-4.994-3.383-7.8v-25.212c15.509-.016 31.018.03 46.528 0-.226 10.295.444 20.725-.247 30.953z" fill="#262626"/></svg>