<svg id="Icons" height="512" viewBox="0 0 60 60" width="512" xmlns="http://www.w3.org/2000/svg"><g fill="#3f59b7"><path d="m17.939 52.185a.5.5 0 0 1 -.422-.234.5.5 0 0 1 .14-.68l4.475-3.057-.09.052a.5.5 0 0 1 -.551-.832l5.3-4a.506.506 0 0 1 -.526-.2.5.5 0 0 1 .084-.669l2.7-2.3a.5.5 0 0 1 -.322-.835l1.225-1.342-1 .575a.5.5 0 0 1 -.641-.745l1.123-1.4-1.632.941a.5.5 0 0 1 -.593-.8l.1-.093-.25.144a.5.5 0 0 1 -.648-.734l1.189-1.561-1.79 1.032a.5.5 0 0 1 -.657-.724l1.235-1.723-1.916 1.105a.5.5 0 0 1 -.6-.791l.268-.26-.457.263a.5.5 0 0 1 -.644-.74l1.131-1.447-1.7.978a.5.5 0 0 1 -.641-.745l1.083-1.352-2.249 1.3a.5.5 0 1 1 -.5-.865l4.551-2.628a.5.5 0 0 1 .64.745l-1.084 1.353 1.624-.937a.5.5 0 0 1 .644.741l-1.131 1.447 1.7-.979a.5.5 0 0 1 .6.791l-.268.261.457-.263a.5.5 0 0 1 .657.724l-1.235 1.719 1.916-1.106a.5.5 0 0 1 .649.735l-1.176 1.555 1.786-1.031a.5.5 0 0 1 .594.8l-.1.1.255-.147a.5.5 0 0 1 .641.745l-1.122 1.406 1.5-.867a.5.5 0 0 1 .619.77l-1.226 1.343 1.254-.724a.5.5 0 0 1 .574.814l-2.312 1.97 2.061-1.189a.5.5 0 0 1 .55.832l-5.174 3.9 4.441-2.563a.5.5 0 0 1 .532.845l-4.483 3.064 2.922-1.687a.5.5 0 0 1 .5.866l-14.327 8.27a.5.5 0 0 1 -.253.064z"/><path d="m12.88 59.326a.5.5 0 0 1 -.283-.912l2.627-1.8-3.7 2.136a.5.5 0 0 1 -.657-.723l1.346-1.884-2.442 1.404a.5.5 0 0 1 -.646-.738l1.14-1.476-1.725 1a.5.5 0 0 1 -.657-.723l1.236-1.733-1.919 1.105a.5.5 0 0 1 -.6-.791l.244-.236-.428.246a.5.5 0 0 1 -.594-.8l.107-.1-.26.149a.5.5 0 0 1 -.63-.758l.946-1.1-1.379.8a.5.5 0 0 1 -.658-.724l1.236-1.729-1.925 1.107a.5.5 0 0 1 -.6-.793l.209-.2-.3.173a.5.5 0 0 1 -.612-.778l.808-.85-.855.493a.5.5 0 0 1 -.6-.792l1.2-1.162-1.054.608a.5.5 0 0 1 -.555-.823l4.406-3.544-3.962 2.287a.5.5 0 0 1 -.533-.845l2.224-1.52-1.335.764a.5.5 0 0 1 -.525-.849l1.878-1.242-.251.144a.5.5 0 0 1 -.532-.846l9.889-6.724-4.349 2.512a.5.5 0 0 1 -.539-.841l5.23-3.695-.371.214a.5.5 0 0 1 -.565-.821l3.747-3.028a.5.5 0 0 1 .1-.794l3.141-1.814a.5.5 0 0 1 .564.822l-1.946 1.573 4.307-2.487a.5.5 0 0 1 .538.841l-5.23 3.7 6.643-3.835a.5.5 0 0 1 .531.845l-9.893 6.728 2.76-1.593a.5.5 0 0 1 .526.85l-3.313 2.183a.5.5 0 0 1 .216.907l-3.493 2.4a.5.5 0 0 1 .224.882l-5.076 4.078a.5.5 0 0 1 .29.187.5.5 0 0 1 -.052.66l-1.207 1.165.315-.181a.5.5 0 0 1 .612.777l-.808.851.843-.487a.5.5 0 0 1 .6.792l-.208.2.384-.222a.5.5 0 0 1 .657.724l-1.237 1.732 1.922-1.109a.5.5 0 0 1 .629.758l-.945 1.1 1.379-.8a.5.5 0 0 1 .594.8l-.107.1.26-.15a.5.5 0 0 1 .6.791l-.246.24.429-.249a.5.5 0 0 1 .658.723l-1.237 1.734 1.923-1.11a.5.5 0 0 1 .645.738l-1.138 1.474 2.242-1.294a.5.5 0 0 1 .657.723l-1.345 1.886 12.743-7.357a.5.5 0 0 1 .533.845l-3.642 2.5a.5.5 0 0 1 .255.891l-3.409 2.658a.491.491 0 0 1 .105.129.5.5 0 0 1 -.182.682l-3.759 2.17a.5.5 0 0 1 -.558-.827l1.49-1.159-3.466 2a.494.494 0 0 1 -.25.067z"/><path d="m41.659 28.465a.5.5 0 0 1 -.273-.919l3.185-2.082a.507.507 0 0 1 -.342-.23.5.5 0 0 1 .148-.679l3.145-2.1a.5.5 0 0 1 -.156-.894l3.284-2.286a.494.494 0 0 1 -.243-.185.5.5 0 0 1 .092-.671l3.868-3.2a.5.5 0 0 1 -.267-.819l1.5-1.7-1.123.648a.5.5 0 0 1 -.627-.761l.95-1.09-1.31.756a.5.5 0 0 1 -.646-.737l1.156-1.496-1.735 1a.5.5 0 0 1 -.634-.753l1.007-1.206-1.479.853a.5.5 0 0 1 -.606-.783l.495-.5-.746.43a.5.5 0 0 1 -.6-.794l.168-.161-.335.193a.5.5 0 0 1 -.639-.747l1.068-1.318-1.58.913a.5.5 0 0 1 -.606-.785l.471-.477-.741.428a.5.5 0 0 1 -.6-.791l.275-.267-1.078.621a.5.5 0 0 1 -.5-.865l4.545-2.624a.5.5 0 0 1 .6.791l-.275.267.478-.275a.5.5 0 0 1 .606.784l-.469.476.712-.411a.5.5 0 0 1 .638.747l-1.065 1.314 1.581-.912a.5.5 0 0 1 .6.794l-.169.161.335-.192a.5.5 0 0 1 .606.783l-.493.5.744-.43a.5.5 0 0 1 .634.753l-1.013 1.211 1.482-.854a.493.493 0 0 1 .626.1.5.5 0 0 1 .02.634l-1.149 1.494 1.721-.991a.5.5 0 0 1 .627.761l-.949 1.089 1.19-.686a.5.5 0 0 1 .624.765l-1.509 1.7 1.556-.9a.5.5 0 0 1 .569.819l-3.279 2.71 2.962-1.709a.5.5 0 0 1 .536.842l-1.567 1.095.869-.5a.5.5 0 0 1 .528.849l-1.257.834.154-.089a.5.5 0 0 1 .524.851l-2.21 1.445a.5.5 0 0 1 .288.931l-14.647 8.462a.5.5 0 0 1 -.25.065z"/><path d="m39.17 33.987a.5.5 0 0 1 -.286-.91l.806-.562-1.915 1.1a.5.5 0 0 1 -.525-.85l.722-.475-1.407.811a.5.5 0 0 1 -.587-.8l.68-.625-1.179.68a.5.5 0 0 1 -.593-.8l.165-.156-.355.2a.5.5 0 0 1 -.66-.718l1.26-1.81-1.984 1.158a.494.494 0 0 1 -.618-.094.5.5 0 0 1 -.042-.624l1.26-1.807-1.981 1.144a.5.5 0 0 1 -.648-.737l1.164-1.524-1.76 1.012a.5.5 0 0 1 -.61-.78l.561-.579-.831.48a.5.5 0 0 1 -.651-.732l1.2-1.6-1.814 1.046a.5.5 0 0 1 -.609-.781l.574-.594-.713.412a.5.5 0 0 1 -.6-.787l.668-.668-.627.362a.5.5 0 0 1 -.587-.8l1.6-1.457-1.4.811a.5.5 0 0 1 -.55-.833l2.4-1.8-1.93 1.11a.5.5 0 0 1 -.541-.839l5.458-3.914-4.361 2.518a.5.5 0 0 1 -.528-.848l4.369-2.927-1.65.953a.5.5 0 0 1 -.525-.851l5.44-3.576-1.155.666a.5.5 0 0 1 -.526-.85l3.132-2.073a.5.5 0 0 1 -.2-.868l5.132-4.307a.5.5 0 0 1 .038-.842l3.138-1.812a.5.5 0 0 1 .572.815l-3.861 3.237 6.887-3.974a.5.5 0 0 1 .526.85l-1.227.812 1.965-1.134a.5.5 0 0 1 .524.851l-5.611 3.689a.5.5 0 0 1 .425.893l-4.361 2.921.15-.086a.5.5 0 0 1 .541.839l-5.459 3.915.388-.224a.5.5 0 0 1 .55.833l-3.791 2.839a.491.491 0 0 1 .2.161.5.5 0 0 1 -.066.665l-1.622 1.477a.5.5 0 0 1 .573.163.5.5 0 0 1 -.043.658l-.669.669.512-.295a.5.5 0 0 1 .609.78l-.576.6.827-.478a.5.5 0 0 1 .651.732l-1.194 1.6 1.823-1.053a.5.5 0 0 1 .61.78l-.561.579.831-.479a.5.5 0 0 1 .648.736l-1.16 1.522 1.76-1.016a.5.5 0 0 1 .661.719l-1.26 1.806 1.976-1.142a.5.5 0 0 1 .66.718l-1.26 1.811 2.083-1.2a.5.5 0 0 1 .593.8l-.163.154 1.457-.841a.5.5 0 0 1 .588.8l-.681.626 12.2-7.044a.5.5 0 0 1 .525.851l-3 1.971a.5.5 0 0 1 .139.888l-3.013 2.1a.487.487 0 0 1 .2.194.5.5 0 0 1 -.182.682l-7.463 4.31a.494.494 0 0 1 -.25.067z"/></g><path d="m24.527 38.279a.5.5 0 0 1 -.318-.885l.119-.1-.9.521a.5.5 0 0 1 -.551-.832l3.792-2.852-4.133 2.386a.5.5 0 0 1 -.528-.848l2.03-1.361-1.374.793a.5.5 0 0 1 -.543-.838l7.4-5.36-2.044 1.18a.5.5 0 0 1 -.542-.839l3.33-2.394a.511.511 0 0 1 -.2-.166.5.5 0 0 1 .09-.67l2.928-2.447a.5.5 0 0 1 .2-.657l1.946-1.123a.5.5 0 0 1 .57.816l-.562.47 1.428-.824a.5.5 0 0 1 .542.839l-1.567 1.127 1.746-1.008a.5.5 0 0 1 .543.838l-7.4 5.362 5.947-3.432a.5.5 0 0 1 .528.847l-3.379 2.266a.5.5 0 0 1 .227.893l-4.517 3.4a.5.5 0 0 1 .336.209.5.5 0 0 1 -.093.671l-2.647 2.187a.5.5 0 0 1 -.2.643l-1.944 1.122a.491.491 0 0 1 -.26.066z" fill="#2f4693"/><path d="m59.553 15.487c.952-3.638-1.653-6.487-4.153-8.724-3.685-5.182-10.627-8.863-15.6-3.102-5.075 6.492-20.8 14.639-10.629 23.272l-2.215 2.215c-8.242-9.384-16.184 4.186-22.188 9.379-5.565 3.846-5.849 10.879-.15 14.76 3.7 5.156 10.622 9.071 15.611 3.189 5.144-6.5 20.763-14.711 10.63-23.416q1.093-1.125 2.2-2.227c4.232 5.461 11.307 2.737 14.75-2.1 3.743-4.474 9.516-7.766 11.744-13.246zm-27.313 21.471c2.144 4.383-1.712 7.934-4.714 10.6-3.926 3.373-6.978 8.242-11.572 10.662-3.631 1.142-5.985-1.54-8.261-3.817-3.644-3.22-8.686-8.2-4.239-12.939 6.431-4.547 14.157-20.944 22.518-11.332l-2.183 2.183c-3.149-4.5-6.836.222-9.3 2.817-3 3.224-6.485 6.077-9.312 9.433-1.918 3.269 5.431 7.948 7.522 10.21 4.588 1.032 7.078-5.232 10.428-7.53 2.5-3.148 10.111-7.114 4.552-11.012.743-.725 1.486-1.448 2.212-2.191a10.134 10.134 0 0 1 2.349 2.916zm-9.268 1.037a3.408 3.408 0 0 0 3.734-.8c1.4.993 2.327 2.769.781 4.031-4.155 4.067-8.176 8.3-12.346 12.335-2.678 1.3-6.155-4.891-8.325-6.387-2.114-3.144 5.027-6.739 6.617-9.311 2.843-1.853 6.07-9.355 9.343-4.565-1.661 1.209-1.816 3.793.196 4.697zm6.608-5.13c-1.146 1.156-2.408 2.364-3.518 3.517-2.612 2.862-4.408-1.608-1.67-3.219 3.391-3.381 6.759-6.765 10.153-10.153 1.161-1.05 2.435.329 2.537 1.549-1.42 3.36-5.182 5.466-7.502 8.306zm2.243-11.751c.433-4.641 7.132-7.81 9.861-11.639 1.5-1.211 3.44-5.039 5.473-2.7 2.375 3.077 9.934 6.764 4.461 10.446-3.694 3.686-7.376 7.4-11.068 11.078-1.229.979-2.488-.665-3.341-1.582 3.594-2.837-1.047-6.882-3.93-3.892a5.324 5.324 0 0 1 -1.456-1.711zm12.022 10.291c-2.977 3.212-7.489 1.571-9.836-1.518l2.215-2.216c4.4 6.677 14.327-9.379 18.5-12.2 2.288-2.9-5.492-8.312-7.532-10.207-4.562-.674-6.96 5.254-10.29 7.6-2.445 3.144-10.134 7.049-4.563 10.892q-1.111 1.127-2.231 2.244c-5.376-4.086-2.3-10.414 2.27-13.623 3.922-3.393 7.022-8.222 11.554-10.759 5.268-1.474 8.139 4.347 11.615 7.182 8.765 8.655-7.089 16.178-11.702 22.605z" fill="#262626"/></svg>