<svg width="202" height="85" viewBox="0 0 202 85" fill="none" xmlns="http://www.w3.org/2000/svg">
<g clip-path="url(#clip0_3_60)">
<path d="M44.868 55C44.244 55 43.548 55 42.78 55C42.036 55 41.22 55 40.332 55C39.444 55 38.484 55 37.452 55C36.372 55 35.52 54.916 34.896 54.748C34.272 54.556 33.816 54.232 33.528 53.776C33.24 53.32 33.06 52.66 32.988 51.796C32.916 50.932 32.88 49.816 32.88 48.448C32.88 46.984 32.88 45.544 32.88 44.128C32.88 42.712 32.88 41.344 32.88 40.024C32.88 38.68 32.88 37.432 32.88 36.28C32.88 35.776 32.88 35.308 32.88 34.876C32.88 34.42 32.88 33.952 32.88 33.472C32.88 32.992 32.88 32.488 32.88 31.96C32.88 31.36 33.036 30.916 33.348 30.628C33.684 30.316 34.068 30.16 34.5 30.16C34.932 30.16 35.304 30.316 35.616 30.628C35.952 30.916 36.12 31.36 36.12 31.96C36.12 32.488 36.12 32.98 36.12 33.436C36.12 33.892 36.12 34.348 36.12 34.804C36.12 35.26 36.12 35.752 36.12 36.28C36.12 37.12 36.12 37.972 36.12 38.836C36.12 39.7 36.12 40.6 36.12 41.536C36.12 42.448 36.12 43.42 36.12 44.452C36.12 45.46 36.12 46.54 36.12 47.692C36.12 48.7 36.12 49.48 36.12 50.032C36.12 50.584 36.168 50.992 36.264 51.256C36.36 51.496 36.552 51.64 36.84 51.688C37.128 51.736 37.56 51.76 38.136 51.76C38.712 51.76 39.264 51.76 39.792 51.76C40.32 51.76 40.848 51.76 41.376 51.76C41.928 51.76 42.492 51.76 43.068 51.76C43.644 51.76 44.244 51.76 44.868 51.76C45.468 51.76 45.912 51.928 46.2 52.264C46.512 52.576 46.668 52.948 46.668 53.38C46.668 53.812 46.512 54.196 46.2 54.532C45.912 54.844 45.468 55 44.868 55ZM50.4497 53.56C50.4497 53.056 50.4497 52.54 50.4497 52.012C50.4497 51.484 50.4497 50.98 50.4497 50.5C50.4497 49.996 50.4497 49.516 50.4497 49.06C50.4497 48.244 50.4497 47.536 50.4497 46.936C50.4497 46.336 50.4497 45.736 50.4497 45.136C50.4497 44.536 50.4497 43.828 50.4497 43.012C50.4497 42.556 50.4497 42.1 50.4497 41.644C50.4497 41.188 50.4497 40.708 50.4497 40.204C50.4497 39.676 50.4497 39.112 50.4497 38.512C50.4497 37.912 50.6057 37.468 50.9177 37.18C51.2537 36.868 51.6377 36.712 52.0697 36.712C52.5017 36.712 52.8737 36.868 53.1857 37.18C53.5217 37.468 53.6897 37.912 53.6897 38.512C53.6897 39.136 53.6897 39.688 53.6897 40.168C53.6897 40.624 53.6897 41.08 53.6897 41.536C53.6897 41.968 53.6897 42.46 53.6897 43.012C53.6897 43.564 53.6897 44.212 53.6897 44.956C53.6897 45.676 53.6897 46.408 53.6897 47.152C53.6897 47.872 53.6897 48.508 53.6897 49.06C53.6897 49.612 53.6897 50.128 53.6897 50.608C53.6897 51.088 53.6897 51.568 53.6897 52.048C53.6897 52.504 53.6897 53.008 53.6897 53.56C53.6897 54.16 53.5217 54.616 53.1857 54.928C52.8737 55.24 52.5017 55.396 52.0697 55.396C51.6377 55.396 51.2537 55.252 50.9177 54.964C50.6057 54.652 50.4497 54.184 50.4497 53.56ZM50.4497 32.104C50.4497 31.84 50.4497 31.624 50.4497 31.456C50.4497 31.288 50.4497 31.12 50.4497 30.952C50.4497 30.784 50.4497 30.58 50.4497 30.34C50.4497 29.788 50.6057 29.38 50.9177 29.116C51.2537 28.828 51.6377 28.684 52.0697 28.684C52.5017 28.684 52.8737 28.828 53.1857 29.116C53.5217 29.38 53.6897 29.788 53.6897 30.34C53.6897 30.58 53.6897 30.784 53.6897 30.952C53.6897 31.12 53.6897 31.288 53.6897 31.456C53.6897 31.624 53.6897 31.84 53.6897 32.104C53.6897 32.656 53.5217 33.076 53.1857 33.364C52.8737 33.628 52.5017 33.76 52.0697 33.76C51.6377 33.76 51.2537 33.628 50.9177 33.364C50.6057 33.076 50.4497 32.656 50.4497 32.104ZM60.0777 37.936C60.3657 38.68 60.6177 39.352 60.8337 39.952C61.0497 40.528 61.2657 41.092 61.4817 41.644C61.6977 42.196 61.9377 42.808 62.2017 43.48C62.4897 44.176 62.7537 44.848 62.9937 45.496C63.2337 46.144 63.4857 46.804 63.7497 47.476C64.0137 48.124 64.2897 48.82 64.5777 49.564C64.7217 49.9 64.8297 50.152 64.9017 50.32C64.9737 50.488 65.0337 50.572 65.0817 50.572C65.1297 50.572 65.1897 50.488 65.2617 50.32C65.3337 50.152 65.4297 49.912 65.5497 49.6C65.8617 48.856 66.1497 48.136 66.4137 47.44C66.7017 46.744 66.9777 46.048 67.2417 45.352C67.5297 44.632 67.8057 43.912 68.0697 43.192C68.3097 42.568 68.5377 41.992 68.7537 41.464C68.9697 40.936 69.1857 40.396 69.4017 39.844C69.6177 39.268 69.8337 38.644 70.0497 37.972C70.2417 37.396 70.5417 37.024 70.9497 36.856C71.3577 36.688 71.7657 36.676 72.1737 36.82C72.6057 36.94 72.9177 37.204 73.1097 37.612C73.3257 37.996 73.3377 38.476 73.1457 39.052C72.9057 39.748 72.6657 40.384 72.4257 40.96C72.2097 41.512 71.9937 42.064 71.7777 42.616C71.5617 43.144 71.3217 43.744 71.0577 44.416C70.8417 44.944 70.6257 45.484 70.4097 46.036C70.2177 46.564 69.9897 47.14 69.7257 47.764C69.4857 48.388 69.2097 49.096 68.8977 49.888C68.6097 50.656 68.2737 51.544 67.8897 52.552C67.5297 53.488 67.1097 54.196 66.6297 54.676C66.1737 55.132 65.6817 55.36 65.1537 55.36C64.6497 55.384 64.1577 55.168 63.6777 54.712C63.1977 54.256 62.7657 53.56 62.3817 52.624C61.8057 51.28 61.3257 50.152 60.9417 49.24C60.5817 48.304 60.2697 47.488 60.0057 46.792C59.7417 46.096 59.4657 45.4 59.1777 44.704C58.9137 44.008 58.6737 43.384 58.4577 42.832C58.2417 42.256 58.0257 41.68 57.8097 41.104C57.5937 40.504 57.3417 39.832 57.0537 39.088C56.8377 38.512 56.8257 38.032 57.0177 37.648C57.2097 37.24 57.5097 36.964 57.9177 36.82C58.3257 36.652 58.7337 36.652 59.1417 36.82C59.5497 36.988 59.8617 37.36 60.0777 37.936ZM79.6434 44.416C80.3394 44.416 81.0834 44.416 81.8754 44.416C82.6674 44.416 83.4714 44.416 84.2874 44.416C85.1274 44.416 85.9434 44.416 86.7354 44.416C87.0234 44.416 87.2754 44.428 87.4914 44.452C87.7314 44.452 87.9114 44.44 88.0314 44.416C88.1754 44.368 88.2714 44.296 88.3194 44.2C88.3914 44.104 88.4034 43.936 88.3554 43.696C88.1874 42.928 87.8874 42.268 87.4554 41.716C87.0474 41.14 86.5194 40.708 85.8714 40.42C85.2234 40.108 84.4914 39.952 83.6754 39.952C82.5954 39.952 81.6354 40.204 80.7954 40.708C79.9794 41.212 79.3314 41.932 78.8514 42.868C78.3954 43.78 78.1674 44.848 78.1674 46.072C78.1674 47.368 78.4194 48.472 78.9234 49.384C79.4274 50.296 80.1114 50.992 80.9754 51.472C81.8634 51.928 82.8714 52.156 83.9994 52.156C84.5034 52.156 85.0314 52.108 85.5834 52.012C86.1354 51.892 86.6874 51.724 87.2394 51.508C87.8154 51.292 88.3914 51.028 88.9674 50.716C89.4954 50.404 89.9634 50.32 90.3714 50.464C90.8034 50.608 91.1274 50.872 91.3434 51.256C91.5594 51.616 91.6074 52.012 91.4874 52.444C91.3914 52.876 91.0794 53.236 90.5514 53.524C89.8074 53.956 89.0634 54.316 88.3194 54.604C87.5754 54.868 86.8314 55.06 86.0874 55.18C85.3674 55.324 84.6714 55.396 83.9994 55.396C82.3194 55.396 80.7954 55.024 79.4274 54.28C78.0594 53.536 76.9674 52.468 76.1514 51.076C75.3354 49.684 74.9274 48.016 74.9274 46.072C74.9274 44.2 75.3114 42.568 76.0794 41.176C76.8474 39.76 77.8914 38.668 79.2114 37.9C80.5314 37.108 82.0194 36.712 83.6754 36.712C84.9954 36.712 86.2074 36.976 87.3114 37.504C88.4154 38.032 89.3274 38.776 90.0474 39.736C90.7914 40.672 91.2834 41.8 91.5234 43.12C91.6674 43.864 91.6914 44.524 91.5954 45.1C91.4994 45.676 91.2594 46.156 90.8754 46.54C90.4914 46.9 89.9514 47.176 89.2554 47.368C88.5834 47.56 87.7434 47.656 86.7354 47.656C85.9674 47.656 85.2594 47.656 84.6114 47.656C83.9634 47.656 83.3514 47.656 82.7754 47.656C82.2234 47.656 81.6834 47.656 81.1554 47.656C80.6514 47.656 80.1474 47.656 79.6434 47.656C79.0434 47.656 78.5874 47.5 78.2754 47.188C77.9634 46.852 77.8074 46.468 77.8074 46.036C77.8074 45.604 77.9634 45.232 78.2754 44.92C78.5874 44.584 79.0434 44.416 79.6434 44.416ZM103.968 50.932C104.736 51.292 105.42 51.556 106.02 51.724C106.644 51.868 107.22 51.94 107.748 51.94C108.516 51.94 109.164 51.772 109.692 51.436C110.22 51.1 110.616 50.62 110.88 49.996C111.168 49.348 111.312 48.568 111.312 47.656C111.312 46.696 111.312 45.712 111.312 44.704C111.312 43.696 111.312 42.652 111.312 41.572C111.312 40.492 111.312 39.376 111.312 38.224C111.312 37.504 111.312 36.808 111.312 36.136C111.312 35.44 111.312 34.756 111.312 34.084C111.312 33.412 111.312 32.704 111.312 31.96C111.312 31.36 111.468 30.916 111.78 30.628C112.116 30.316 112.5 30.16 112.932 30.16C113.364 30.16 113.736 30.316 114.048 30.628C114.384 30.916 114.552 31.36 114.552 31.96C114.552 32.512 114.552 33.028 114.552 33.508C114.552 33.988 114.552 34.468 114.552 34.948C114.552 35.428 114.552 35.944 114.552 36.496C114.552 37.024 114.552 37.6 114.552 38.224C114.552 39.184 114.552 40.12 114.552 41.032C114.552 41.92 114.552 42.892 114.552 43.948C114.552 45.004 114.552 46.24 114.552 47.656C114.552 49.24 114.264 50.596 113.688 51.724C113.112 52.828 112.308 53.68 111.276 54.28C110.244 54.88 109.068 55.18 107.748 55.18C107.004 55.18 106.212 55.084 105.372 54.892C104.556 54.7 103.692 54.388 102.78 53.956C102.228 53.692 101.88 53.344 101.736 52.912C101.592 52.48 101.604 52.072 101.772 51.688C101.964 51.28 102.252 50.992 102.636 50.824C103.02 50.656 103.464 50.692 103.968 50.932ZM135.45 38.728C135.45 39.352 135.45 39.928 135.45 40.456C135.45 40.984 135.45 41.548 135.45 42.148C135.45 42.724 135.45 43.396 135.45 44.164C135.45 44.908 135.45 45.796 135.45 46.828C135.45 48.196 135.234 49.408 134.802 50.464C134.37 51.52 133.758 52.42 132.966 53.164C132.198 53.884 131.286 54.436 130.23 54.82C129.198 55.204 128.07 55.396 126.846 55.396C125.622 55.396 124.482 55.168 123.426 54.712C122.37 54.256 121.446 53.608 120.654 52.768C119.862 51.928 119.25 50.944 118.818 49.816C118.386 48.664 118.17 47.404 118.17 46.036C118.17 44.212 118.542 42.604 119.286 41.212C120.054 39.796 121.086 38.692 122.382 37.9C123.702 37.108 125.178 36.712 126.81 36.712C128.034 36.712 129.162 36.94 130.194 37.396C131.25 37.828 132.162 38.464 132.93 39.304C133.722 40.12 134.334 41.092 134.766 42.22C135.222 43.348 135.45 44.596 135.45 45.964C135.45 46.516 135.45 47.056 135.45 47.584C135.45 48.088 135.45 48.58 135.45 49.06C135.45 49.516 135.45 49.948 135.45 50.356C135.45 51.004 135.45 51.604 135.45 52.156C135.45 52.708 135.45 53.308 135.45 53.956C135.45 54.556 135.282 55.012 134.946 55.324C134.634 55.636 134.262 55.792 133.83 55.792C133.398 55.792 133.014 55.636 132.678 55.324C132.366 55.012 132.21 54.556 132.21 53.956C132.21 53.572 132.21 53.176 132.21 52.768C132.21 52.36 132.21 51.964 132.21 51.58C132.21 51.172 132.21 50.764 132.21 50.356C132.21 50.092 132.21 49.684 132.21 49.132C132.21 48.556 132.21 47.98 132.21 47.404C132.21 46.804 132.21 46.324 132.21 45.964C132.21 44.788 131.982 43.744 131.526 42.832C131.07 41.92 130.434 41.212 129.618 40.708C128.802 40.204 127.866 39.952 126.81 39.952C126.018 39.952 125.286 40.108 124.614 40.42C123.942 40.708 123.366 41.128 122.886 41.68C122.43 42.208 122.07 42.844 121.806 43.588C121.542 44.332 121.41 45.148 121.41 46.036C121.41 46.924 121.542 47.74 121.806 48.484C122.07 49.228 122.442 49.876 122.922 50.428C123.402 50.98 123.978 51.412 124.65 51.724C125.322 52.012 126.054 52.156 126.846 52.156C127.638 52.156 128.358 52.048 129.006 51.832C129.678 51.616 130.254 51.292 130.734 50.86C131.214 50.404 131.574 49.84 131.814 49.168C132.078 48.496 132.21 47.716 132.21 46.828C132.21 46.132 132.21 45.4 132.21 44.632C132.21 43.864 132.21 43.108 132.21 42.364C132.21 41.62 132.21 40.936 132.21 40.312C132.21 39.664 132.21 39.136 132.21 38.728C132.21 38.128 132.366 37.672 132.678 37.36C133.014 37.048 133.398 36.892 133.83 36.892C134.262 36.892 134.634 37.048 134.946 37.36C135.282 37.672 135.45 38.128 135.45 38.728ZM141.029 37.072C141.749 37.072 142.481 37.072 143.225 37.072C143.969 37.072 144.701 37.072 145.421 37.072C146.141 37.072 146.813 37.072 147.437 37.072C148.061 37.072 148.601 37.072 149.057 37.072C149.537 37.072 150.005 37.072 150.461 37.072C150.941 37.072 151.481 37.072 152.081 37.072C152.441 37.072 152.753 37.132 153.017 37.252C153.281 37.372 153.485 37.54 153.629 37.756C153.797 37.972 153.893 38.224 153.917 38.512C153.965 38.776 153.929 39.064 153.809 39.376C153.713 39.688 153.533 40 153.269 40.312C152.837 40.816 152.393 41.332 151.937 41.86C151.505 42.364 151.085 42.856 150.677 43.336C150.293 43.792 149.933 44.224 149.597 44.632C149.261 45.016 148.865 45.496 148.409 46.072C147.953 46.624 147.485 47.188 147.005 47.764C146.549 48.316 146.153 48.784 145.817 49.168C145.577 49.456 145.373 49.696 145.205 49.888C145.037 50.08 144.893 50.248 144.773 50.392C144.653 50.512 144.533 50.632 144.413 50.752C144.317 50.872 144.197 51.016 144.053 51.184C143.933 51.304 143.837 51.412 143.765 51.508C143.693 51.58 143.645 51.64 143.621 51.688C143.621 51.712 143.645 51.736 143.693 51.76C143.741 51.76 143.813 51.76 143.909 51.76C144.029 51.76 144.185 51.76 144.377 51.76C144.617 51.76 144.809 51.76 144.953 51.76C145.121 51.76 145.289 51.76 145.457 51.76C145.649 51.76 145.865 51.76 146.105 51.76C146.369 51.76 146.717 51.76 147.149 51.76C147.725 51.76 148.217 51.76 148.625 51.76C149.033 51.76 149.477 51.76 149.957 51.76C150.437 51.76 151.037 51.76 151.757 51.76C152.309 51.76 152.717 51.928 152.981 52.264C153.269 52.576 153.413 52.948 153.413 53.38C153.413 53.812 153.269 54.196 152.981 54.532C152.717 54.844 152.309 55 151.757 55C151.013 55 150.341 55 149.741 55C149.165 55 148.613 55 148.085 55C147.581 55 147.077 55 146.573 55C146.189 55 145.757 55 145.277 55C144.821 55 144.341 55 143.837 55C143.333 55 142.829 55 142.325 55C141.821 55 141.341 55 140.885 55C140.525 55 140.213 54.928 139.949 54.784C139.685 54.64 139.481 54.448 139.337 54.208C139.193 53.968 139.109 53.704 139.085 53.416C139.061 53.104 139.109 52.792 139.229 52.48C139.349 52.144 139.529 51.82 139.769 51.508C140.201 51.004 140.621 50.488 141.029 49.96C141.461 49.432 141.869 48.916 142.253 48.412C142.661 47.908 143.033 47.464 143.369 47.08C143.705 46.672 144.065 46.24 144.449 45.784C144.857 45.304 145.349 44.728 145.925 44.056C146.501 43.36 147.221 42.508 148.085 41.5C148.733 40.732 149.225 40.072 149.561 39.52C149.897 38.968 150.161 38.512 150.353 38.152C150.569 37.792 150.797 37.528 151.037 37.36C151.277 37.168 151.625 37.072 152.081 37.072C152.441 37.072 152.753 37.132 153.017 37.252C153.281 37.372 153.485 37.54 153.629 37.756C153.797 37.972 153.893 38.224 153.917 38.512C153.965 38.776 153.929 39.064 153.809 39.376C153.713 39.688 153.533 40 153.269 40.312C152.933 40.696 152.585 40.924 152.225 40.996C151.889 41.044 151.505 41.008 151.073 40.888C150.641 40.768 150.137 40.648 149.561 40.528C148.985 40.384 148.313 40.312 147.545 40.312C146.513 40.312 145.649 40.312 144.953 40.312C144.257 40.312 143.609 40.312 143.009 40.312C142.409 40.312 141.749 40.312 141.029 40.312C140.501 40.312 140.093 40.156 139.805 39.844C139.541 39.508 139.409 39.124 139.409 38.692C139.409 38.26 139.541 37.888 139.805 37.576C140.093 37.24 140.501 37.072 141.029 37.072ZM158.08 37.072C158.8 37.072 159.532 37.072 160.276 37.072C161.02 37.072 161.752 37.072 162.472 37.072C163.192 37.072 163.864 37.072 164.488 37.072C165.112 37.072 165.652 37.072 166.108 37.072C166.588 37.072 167.056 37.072 167.512 37.072C167.992 37.072 168.532 37.072 169.132 37.072C169.492 37.072 169.804 37.132 170.068 37.252C170.332 37.372 170.536 37.54 170.68 37.756C170.848 37.972 170.944 38.224 170.968 38.512C171.016 38.776 170.98 39.064 170.86 39.376C170.764 39.688 170.584 40 170.32 40.312C169.888 40.816 169.444 41.332 168.988 41.86C168.556 42.364 168.136 42.856 167.728 43.336C167.344 43.792 166.984 44.224 166.648 44.632C166.312 45.016 165.916 45.496 165.46 46.072C165.004 46.624 164.536 47.188 164.056 47.764C163.6 48.316 163.204 48.784 162.868 49.168C162.628 49.456 162.424 49.696 162.256 49.888C162.088 50.08 161.944 50.248 161.824 50.392C161.704 50.512 161.584 50.632 161.464 50.752C161.368 50.872 161.248 51.016 161.104 51.184C160.984 51.304 160.888 51.412 160.816 51.508C160.744 51.58 160.696 51.64 160.672 51.688C160.672 51.712 160.696 51.736 160.744 51.76C160.792 51.76 160.864 51.76 160.96 51.76C161.08 51.76 161.236 51.76 161.428 51.76C161.668 51.76 161.86 51.76 162.004 51.76C162.172 51.76 162.34 51.76 162.508 51.76C162.7 51.76 162.916 51.76 163.156 51.76C163.42 51.76 163.768 51.76 164.2 51.76C164.776 51.76 165.268 51.76 165.676 51.76C166.084 51.76 166.528 51.76 167.008 51.76C167.488 51.76 168.088 51.76 168.808 51.76C169.36 51.76 169.768 51.928 170.032 52.264C170.32 52.576 170.464 52.948 170.464 53.38C170.464 53.812 170.32 54.196 170.032 54.532C169.768 54.844 169.36 55 168.808 55C168.064 55 167.392 55 166.792 55C166.216 55 165.664 55 165.136 55C164.632 55 164.128 55 163.624 55C163.24 55 162.808 55 162.328 55C161.872 55 161.392 55 160.888 55C160.384 55 159.88 55 159.376 55C158.872 55 158.392 55 157.936 55C157.576 55 157.264 54.928 157 54.784C156.736 54.64 156.532 54.448 156.388 54.208C156.244 53.968 156.16 53.704 156.136 53.416C156.112 53.104 156.16 52.792 156.28 52.48C156.4 52.144 156.58 51.82 156.82 51.508C157.252 51.004 157.672 50.488 158.08 49.96C158.512 49.432 158.92 48.916 159.304 48.412C159.712 47.908 160.084 47.464 160.42 47.08C160.756 46.672 161.116 46.24 161.5 45.784C161.908 45.304 162.4 44.728 162.976 44.056C163.552 43.36 164.272 42.508 165.136 41.5C165.784 40.732 166.276 40.072 166.612 39.52C166.948 38.968 167.212 38.512 167.404 38.152C167.62 37.792 167.848 37.528 168.088 37.36C168.328 37.168 168.676 37.072 169.132 37.072C169.492 37.072 169.804 37.132 170.068 37.252C170.332 37.372 170.536 37.54 170.68 37.756C170.848 37.972 170.944 38.224 170.968 38.512C171.016 38.776 170.98 39.064 170.86 39.376C170.764 39.688 170.584 40 170.32 40.312C169.984 40.696 169.636 40.924 169.276 40.996C168.94 41.044 168.556 41.008 168.124 40.888C167.692 40.768 167.188 40.648 166.612 40.528C166.036 40.384 165.364 40.312 164.596 40.312C163.564 40.312 162.7 40.312 162.004 40.312C161.308 40.312 160.66 40.312 160.06 40.312C159.46 40.312 158.8 40.312 158.08 40.312C157.552 40.312 157.144 40.156 156.856 39.844C156.592 39.508 156.46 39.124 156.46 38.692C156.46 38.26 156.592 37.888 156.856 37.576C157.144 37.24 157.552 37.072 158.08 37.072Z" fill="#FFCAD0"/>
<g filter="url(#filter0_f_3_60)">
<path d="M44.868 55C44.244 55 43.548 55 42.78 55C42.036 55 41.22 55 40.332 55C39.444 55 38.484 55 37.452 55C36.372 55 35.52 54.916 34.896 54.748C34.272 54.556 33.816 54.232 33.528 53.776C33.24 53.32 33.06 52.66 32.988 51.796C32.916 50.932 32.88 49.816 32.88 48.448C32.88 46.984 32.88 45.544 32.88 44.128C32.88 42.712 32.88 41.344 32.88 40.024C32.88 38.68 32.88 37.432 32.88 36.28C32.88 35.776 32.88 35.308 32.88 34.876C32.88 34.42 32.88 33.952 32.88 33.472C32.88 32.992 32.88 32.488 32.88 31.96C32.88 31.36 33.036 30.916 33.348 30.628C33.684 30.316 34.068 30.16 34.5 30.16C34.932 30.16 35.304 30.316 35.616 30.628C35.952 30.916 36.12 31.36 36.12 31.96C36.12 32.488 36.12 32.98 36.12 33.436C36.12 33.892 36.12 34.348 36.12 34.804C36.12 35.26 36.12 35.752 36.12 36.28C36.12 37.12 36.12 37.972 36.12 38.836C36.12 39.7 36.12 40.6 36.12 41.536C36.12 42.448 36.12 43.42 36.12 44.452C36.12 45.46 36.12 46.54 36.12 47.692C36.12 48.7 36.12 49.48 36.12 50.032C36.12 50.584 36.168 50.992 36.264 51.256C36.36 51.496 36.552 51.64 36.84 51.688C37.128 51.736 37.56 51.76 38.136 51.76C38.712 51.76 39.264 51.76 39.792 51.76C40.32 51.76 40.848 51.76 41.376 51.76C41.928 51.76 42.492 51.76 43.068 51.76C43.644 51.76 44.244 51.76 44.868 51.76C45.468 51.76 45.912 51.928 46.2 52.264C46.512 52.576 46.668 52.948 46.668 53.38C46.668 53.812 46.512 54.196 46.2 54.532C45.912 54.844 45.468 55 44.868 55ZM50.4497 53.56C50.4497 53.056 50.4497 52.54 50.4497 52.012C50.4497 51.484 50.4497 50.98 50.4497 50.5C50.4497 49.996 50.4497 49.516 50.4497 49.06C50.4497 48.244 50.4497 47.536 50.4497 46.936C50.4497 46.336 50.4497 45.736 50.4497 45.136C50.4497 44.536 50.4497 43.828 50.4497 43.012C50.4497 42.556 50.4497 42.1 50.4497 41.644C50.4497 41.188 50.4497 40.708 50.4497 40.204C50.4497 39.676 50.4497 39.112 50.4497 38.512C50.4497 37.912 50.6057 37.468 50.9177 37.18C51.2537 36.868 51.6377 36.712 52.0697 36.712C52.5017 36.712 52.8737 36.868 53.1857 37.18C53.5217 37.468 53.6897 37.912 53.6897 38.512C53.6897 39.136 53.6897 39.688 53.6897 40.168C53.6897 40.624 53.6897 41.08 53.6897 41.536C53.6897 41.968 53.6897 42.46 53.6897 43.012C53.6897 43.564 53.6897 44.212 53.6897 44.956C53.6897 45.676 53.6897 46.408 53.6897 47.152C53.6897 47.872 53.6897 48.508 53.6897 49.06C53.6897 49.612 53.6897 50.128 53.6897 50.608C53.6897 51.088 53.6897 51.568 53.6897 52.048C53.6897 52.504 53.6897 53.008 53.6897 53.56C53.6897 54.16 53.5217 54.616 53.1857 54.928C52.8737 55.24 52.5017 55.396 52.0697 55.396C51.6377 55.396 51.2537 55.252 50.9177 54.964C50.6057 54.652 50.4497 54.184 50.4497 53.56ZM50.4497 32.104C50.4497 31.84 50.4497 31.624 50.4497 31.456C50.4497 31.288 50.4497 31.12 50.4497 30.952C50.4497 30.784 50.4497 30.58 50.4497 30.34C50.4497 29.788 50.6057 29.38 50.9177 29.116C51.2537 28.828 51.6377 28.684 52.0697 28.684C52.5017 28.684 52.8737 28.828 53.1857 29.116C53.5217 29.38 53.6897 29.788 53.6897 30.34C53.6897 30.58 53.6897 30.784 53.6897 30.952C53.6897 31.12 53.6897 31.288 53.6897 31.456C53.6897 31.624 53.6897 31.84 53.6897 32.104C53.6897 32.656 53.5217 33.076 53.1857 33.364C52.8737 33.628 52.5017 33.76 52.0697 33.76C51.6377 33.76 51.2537 33.628 50.9177 33.364C50.6057 33.076 50.4497 32.656 50.4497 32.104ZM60.0777 37.936C60.3657 38.68 60.6177 39.352 60.8337 39.952C61.0497 40.528 61.2657 41.092 61.4817 41.644C61.6977 42.196 61.9377 42.808 62.2017 43.48C62.4897 44.176 62.7537 44.848 62.9937 45.496C63.2337 46.144 63.4857 46.804 63.7497 47.476C64.0137 48.124 64.2897 48.82 64.5777 49.564C64.7217 49.9 64.8297 50.152 64.9017 50.32C64.9737 50.488 65.0337 50.572 65.0817 50.572C65.1297 50.572 65.1897 50.488 65.2617 50.32C65.3337 50.152 65.4297 49.912 65.5497 49.6C65.8617 48.856 66.1497 48.136 66.4137 47.44C66.7017 46.744 66.9777 46.048 67.2417 45.352C67.5297 44.632 67.8057 43.912 68.0697 43.192C68.3097 42.568 68.5377 41.992 68.7537 41.464C68.9697 40.936 69.1857 40.396 69.4017 39.844C69.6177 39.268 69.8337 38.644 70.0497 37.972C70.2417 37.396 70.5417 37.024 70.9497 36.856C71.3577 36.688 71.7657 36.676 72.1737 36.82C72.6057 36.94 72.9177 37.204 73.1097 37.612C73.3257 37.996 73.3377 38.476 73.1457 39.052C72.9057 39.748 72.6657 40.384 72.4257 40.96C72.2097 41.512 71.9937 42.064 71.7777 42.616C71.5617 43.144 71.3217 43.744 71.0577 44.416C70.8417 44.944 70.6257 45.484 70.4097 46.036C70.2177 46.564 69.9897 47.14 69.7257 47.764C69.4857 48.388 69.2097 49.096 68.8977 49.888C68.6097 50.656 68.2737 51.544 67.8897 52.552C67.5297 53.488 67.1097 54.196 66.6297 54.676C66.1737 55.132 65.6817 55.36 65.1537 55.36C64.6497 55.384 64.1577 55.168 63.6777 54.712C63.1977 54.256 62.7657 53.56 62.3817 52.624C61.8057 51.28 61.3257 50.152 60.9417 49.24C60.5817 48.304 60.2697 47.488 60.0057 46.792C59.7417 46.096 59.4657 45.4 59.1777 44.704C58.9137 44.008 58.6737 43.384 58.4577 42.832C58.2417 42.256 58.0257 41.68 57.8097 41.104C57.5937 40.504 57.3417 39.832 57.0537 39.088C56.8377 38.512 56.8257 38.032 57.0177 37.648C57.2097 37.24 57.5097 36.964 57.9177 36.82C58.3257 36.652 58.7337 36.652 59.1417 36.82C59.5497 36.988 59.8617 37.36 60.0777 37.936ZM79.6434 44.416C80.3394 44.416 81.0834 44.416 81.8754 44.416C82.6674 44.416 83.4714 44.416 84.2874 44.416C85.1274 44.416 85.9434 44.416 86.7354 44.416C87.0234 44.416 87.2754 44.428 87.4914 44.452C87.7314 44.452 87.9114 44.44 88.0314 44.416C88.1754 44.368 88.2714 44.296 88.3194 44.2C88.3914 44.104 88.4034 43.936 88.3554 43.696C88.1874 42.928 87.8874 42.268 87.4554 41.716C87.0474 41.14 86.5194 40.708 85.8714 40.42C85.2234 40.108 84.4914 39.952 83.6754 39.952C82.5954 39.952 81.6354 40.204 80.7954 40.708C79.9794 41.212 79.3314 41.932 78.8514 42.868C78.3954 43.78 78.1674 44.848 78.1674 46.072C78.1674 47.368 78.4194 48.472 78.9234 49.384C79.4274 50.296 80.1114 50.992 80.9754 51.472C81.8634 51.928 82.8714 52.156 83.9994 52.156C84.5034 52.156 85.0314 52.108 85.5834 52.012C86.1354 51.892 86.6874 51.724 87.2394 51.508C87.8154 51.292 88.3914 51.028 88.9674 50.716C89.4954 50.404 89.9634 50.32 90.3714 50.464C90.8034 50.608 91.1274 50.872 91.3434 51.256C91.5594 51.616 91.6074 52.012 91.4874 52.444C91.3914 52.876 91.0794 53.236 90.5514 53.524C89.8074 53.956 89.0634 54.316 88.3194 54.604C87.5754 54.868 86.8314 55.06 86.0874 55.18C85.3674 55.324 84.6714 55.396 83.9994 55.396C82.3194 55.396 80.7954 55.024 79.4274 54.28C78.0594 53.536 76.9674 52.468 76.1514 51.076C75.3354 49.684 74.9274 48.016 74.9274 46.072C74.9274 44.2 75.3114 42.568 76.0794 41.176C76.8474 39.76 77.8914 38.668 79.2114 37.9C80.5314 37.108 82.0194 36.712 83.6754 36.712C84.9954 36.712 86.2074 36.976 87.3114 37.504C88.4154 38.032 89.3274 38.776 90.0474 39.736C90.7914 40.672 91.2834 41.8 91.5234 43.12C91.6674 43.864 91.6914 44.524 91.5954 45.1C91.4994 45.676 91.2594 46.156 90.8754 46.54C90.4914 46.9 89.9514 47.176 89.2554 47.368C88.5834 47.56 87.7434 47.656 86.7354 47.656C85.9674 47.656 85.2594 47.656 84.6114 47.656C83.9634 47.656 83.3514 47.656 82.7754 47.656C82.2234 47.656 81.6834 47.656 81.1554 47.656C80.6514 47.656 80.1474 47.656 79.6434 47.656C79.0434 47.656 78.5874 47.5 78.2754 47.188C77.9634 46.852 77.8074 46.468 77.8074 46.036C77.8074 45.604 77.9634 45.232 78.2754 44.92C78.5874 44.584 79.0434 44.416 79.6434 44.416ZM103.968 50.932C104.736 51.292 105.42 51.556 106.02 51.724C106.644 51.868 107.22 51.94 107.748 51.94C108.516 51.94 109.164 51.772 109.692 51.436C110.22 51.1 110.616 50.62 110.88 49.996C111.168 49.348 111.312 48.568 111.312 47.656C111.312 46.696 111.312 45.712 111.312 44.704C111.312 43.696 111.312 42.652 111.312 41.572C111.312 40.492 111.312 39.376 111.312 38.224C111.312 37.504 111.312 36.808 111.312 36.136C111.312 35.44 111.312 34.756 111.312 34.084C111.312 33.412 111.312 32.704 111.312 31.96C111.312 31.36 111.468 30.916 111.78 30.628C112.116 30.316 112.5 30.16 112.932 30.16C113.364 30.16 113.736 30.316 114.048 30.628C114.384 30.916 114.552 31.36 114.552 31.96C114.552 32.512 114.552 33.028 114.552 33.508C114.552 33.988 114.552 34.468 114.552 34.948C114.552 35.428 114.552 35.944 114.552 36.496C114.552 37.024 114.552 37.6 114.552 38.224C114.552 39.184 114.552 40.12 114.552 41.032C114.552 41.92 114.552 42.892 114.552 43.948C114.552 45.004 114.552 46.24 114.552 47.656C114.552 49.24 114.264 50.596 113.688 51.724C113.112 52.828 112.308 53.68 111.276 54.28C110.244 54.88 109.068 55.18 107.748 55.18C107.004 55.18 106.212 55.084 105.372 54.892C104.556 54.7 103.692 54.388 102.78 53.956C102.228 53.692 101.88 53.344 101.736 52.912C101.592 52.48 101.604 52.072 101.772 51.688C101.964 51.28 102.252 50.992 102.636 50.824C103.02 50.656 103.464 50.692 103.968 50.932ZM135.45 38.728C135.45 39.352 135.45 39.928 135.45 40.456C135.45 40.984 135.45 41.548 135.45 42.148C135.45 42.724 135.45 43.396 135.45 44.164C135.45 44.908 135.45 45.796 135.45 46.828C135.45 48.196 135.234 49.408 134.802 50.464C134.37 51.52 133.758 52.42 132.966 53.164C132.198 53.884 131.286 54.436 130.23 54.82C129.198 55.204 128.07 55.396 126.846 55.396C125.622 55.396 124.482 55.168 123.426 54.712C122.37 54.256 121.446 53.608 120.654 52.768C119.862 51.928 119.25 50.944 118.818 49.816C118.386 48.664 118.17 47.404 118.17 46.036C118.17 44.212 118.542 42.604 119.286 41.212C120.054 39.796 121.086 38.692 122.382 37.9C123.702 37.108 125.178 36.712 126.81 36.712C128.034 36.712 129.162 36.94 130.194 37.396C131.25 37.828 132.162 38.464 132.93 39.304C133.722 40.12 134.334 41.092 134.766 42.22C135.222 43.348 135.45 44.596 135.45 45.964C135.45 46.516 135.45 47.056 135.45 47.584C135.45 48.088 135.45 48.58 135.45 49.06C135.45 49.516 135.45 49.948 135.45 50.356C135.45 51.004 135.45 51.604 135.45 52.156C135.45 52.708 135.45 53.308 135.45 53.956C135.45 54.556 135.282 55.012 134.946 55.324C134.634 55.636 134.262 55.792 133.83 55.792C133.398 55.792 133.014 55.636 132.678 55.324C132.366 55.012 132.21 54.556 132.21 53.956C132.21 53.572 132.21 53.176 132.21 52.768C132.21 52.36 132.21 51.964 132.21 51.58C132.21 51.172 132.21 50.764 132.21 50.356C132.21 50.092 132.21 49.684 132.21 49.132C132.21 48.556 132.21 47.98 132.21 47.404C132.21 46.804 132.21 46.324 132.21 45.964C132.21 44.788 131.982 43.744 131.526 42.832C131.07 41.92 130.434 41.212 129.618 40.708C128.802 40.204 127.866 39.952 126.81 39.952C126.018 39.952 125.286 40.108 124.614 40.42C123.942 40.708 123.366 41.128 122.886 41.68C122.43 42.208 122.07 42.844 121.806 43.588C121.542 44.332 121.41 45.148 121.41 46.036C121.41 46.924 121.542 47.74 121.806 48.484C122.07 49.228 122.442 49.876 122.922 50.428C123.402 50.98 123.978 51.412 124.65 51.724C125.322 52.012 126.054 52.156 126.846 52.156C127.638 52.156 128.358 52.048 129.006 51.832C129.678 51.616 130.254 51.292 130.734 50.86C131.214 50.404 131.574 49.84 131.814 49.168C132.078 48.496 132.21 47.716 132.21 46.828C132.21 46.132 132.21 45.4 132.21 44.632C132.21 43.864 132.21 43.108 132.21 42.364C132.21 41.62 132.21 40.936 132.21 40.312C132.21 39.664 132.21 39.136 132.21 38.728C132.21 38.128 132.366 37.672 132.678 37.36C133.014 37.048 133.398 36.892 133.83 36.892C134.262 36.892 134.634 37.048 134.946 37.36C135.282 37.672 135.45 38.128 135.45 38.728ZM141.029 37.072C141.749 37.072 142.481 37.072 143.225 37.072C143.969 37.072 144.701 37.072 145.421 37.072C146.141 37.072 146.813 37.072 147.437 37.072C148.061 37.072 148.601 37.072 149.057 37.072C149.537 37.072 150.005 37.072 150.461 37.072C150.941 37.072 151.481 37.072 152.081 37.072C152.441 37.072 152.753 37.132 153.017 37.252C153.281 37.372 153.485 37.54 153.629 37.756C153.797 37.972 153.893 38.224 153.917 38.512C153.965 38.776 153.929 39.064 153.809 39.376C153.713 39.688 153.533 40 153.269 40.312C152.837 40.816 152.393 41.332 151.937 41.86C151.505 42.364 151.085 42.856 150.677 43.336C150.293 43.792 149.933 44.224 149.597 44.632C149.261 45.016 148.865 45.496 148.409 46.072C147.953 46.624 147.485 47.188 147.005 47.764C146.549 48.316 146.153 48.784 145.817 49.168C145.577 49.456 145.373 49.696 145.205 49.888C145.037 50.08 144.893 50.248 144.773 50.392C144.653 50.512 144.533 50.632 144.413 50.752C144.317 50.872 144.197 51.016 144.053 51.184C143.933 51.304 143.837 51.412 143.765 51.508C143.693 51.58 143.645 51.64 143.621 51.688C143.621 51.712 143.645 51.736 143.693 51.76C143.741 51.76 143.813 51.76 143.909 51.76C144.029 51.76 144.185 51.76 144.377 51.76C144.617 51.76 144.809 51.76 144.953 51.76C145.121 51.76 145.289 51.76 145.457 51.76C145.649 51.76 145.865 51.76 146.105 51.76C146.369 51.76 146.717 51.76 147.149 51.76C147.725 51.76 148.217 51.76 148.625 51.76C149.033 51.76 149.477 51.76 149.957 51.76C150.437 51.76 151.037 51.76 151.757 51.76C152.309 51.76 152.717 51.928 152.981 52.264C153.269 52.576 153.413 52.948 153.413 53.38C153.413 53.812 153.269 54.196 152.981 54.532C152.717 54.844 152.309 55 151.757 55C151.013 55 150.341 55 149.741 55C149.165 55 148.613 55 148.085 55C147.581 55 147.077 55 146.573 55C146.189 55 145.757 55 145.277 55C144.821 55 144.341 55 143.837 55C143.333 55 142.829 55 142.325 55C141.821 55 141.341 55 140.885 55C140.525 55 140.213 54.928 139.949 54.784C139.685 54.64 139.481 54.448 139.337 54.208C139.193 53.968 139.109 53.704 139.085 53.416C139.061 53.104 139.109 52.792 139.229 52.48C139.349 52.144 139.529 51.82 139.769 51.508C140.201 51.004 140.621 50.488 141.029 49.96C141.461 49.432 141.869 48.916 142.253 48.412C142.661 47.908 143.033 47.464 143.369 47.08C143.705 46.672 144.065 46.24 144.449 45.784C144.857 45.304 145.349 44.728 145.925 44.056C146.501 43.36 147.221 42.508 148.085 41.5C148.733 40.732 149.225 40.072 149.561 39.52C149.897 38.968 150.161 38.512 150.353 38.152C150.569 37.792 150.797 37.528 151.037 37.36C151.277 37.168 151.625 37.072 152.081 37.072C152.441 37.072 152.753 37.132 153.017 37.252C153.281 37.372 153.485 37.54 153.629 37.756C153.797 37.972 153.893 38.224 153.917 38.512C153.965 38.776 153.929 39.064 153.809 39.376C153.713 39.688 153.533 40 153.269 40.312C152.933 40.696 152.585 40.924 152.225 40.996C151.889 41.044 151.505 41.008 151.073 40.888C150.641 40.768 150.137 40.648 149.561 40.528C148.985 40.384 148.313 40.312 147.545 40.312C146.513 40.312 145.649 40.312 144.953 40.312C144.257 40.312 143.609 40.312 143.009 40.312C142.409 40.312 141.749 40.312 141.029 40.312C140.501 40.312 140.093 40.156 139.805 39.844C139.541 39.508 139.409 39.124 139.409 38.692C139.409 38.26 139.541 37.888 139.805 37.576C140.093 37.24 140.501 37.072 141.029 37.072ZM158.08 37.072C158.8 37.072 159.532 37.072 160.276 37.072C161.02 37.072 161.752 37.072 162.472 37.072C163.192 37.072 163.864 37.072 164.488 37.072C165.112 37.072 165.652 37.072 166.108 37.072C166.588 37.072 167.056 37.072 167.512 37.072C167.992 37.072 168.532 37.072 169.132 37.072C169.492 37.072 169.804 37.132 170.068 37.252C170.332 37.372 170.536 37.54 170.68 37.756C170.848 37.972 170.944 38.224 170.968 38.512C171.016 38.776 170.98 39.064 170.86 39.376C170.764 39.688 170.584 40 170.32 40.312C169.888 40.816 169.444 41.332 168.988 41.86C168.556 42.364 168.136 42.856 167.728 43.336C167.344 43.792 166.984 44.224 166.648 44.632C166.312 45.016 165.916 45.496 165.46 46.072C165.004 46.624 164.536 47.188 164.056 47.764C163.6 48.316 163.204 48.784 162.868 49.168C162.628 49.456 162.424 49.696 162.256 49.888C162.088 50.08 161.944 50.248 161.824 50.392C161.704 50.512 161.584 50.632 161.464 50.752C161.368 50.872 161.248 51.016 161.104 51.184C160.984 51.304 160.888 51.412 160.816 51.508C160.744 51.58 160.696 51.64 160.672 51.688C160.672 51.712 160.696 51.736 160.744 51.76C160.792 51.76 160.864 51.76 160.96 51.76C161.08 51.76 161.236 51.76 161.428 51.76C161.668 51.76 161.86 51.76 162.004 51.76C162.172 51.76 162.34 51.76 162.508 51.76C162.7 51.76 162.916 51.76 163.156 51.76C163.42 51.76 163.768 51.76 164.2 51.76C164.776 51.76 165.268 51.76 165.676 51.76C166.084 51.76 166.528 51.76 167.008 51.76C167.488 51.76 168.088 51.76 168.808 51.76C169.36 51.76 169.768 51.928 170.032 52.264C170.32 52.576 170.464 52.948 170.464 53.38C170.464 53.812 170.32 54.196 170.032 54.532C169.768 54.844 169.36 55 168.808 55C168.064 55 167.392 55 166.792 55C166.216 55 165.664 55 165.136 55C164.632 55 164.128 55 163.624 55C163.24 55 162.808 55 162.328 55C161.872 55 161.392 55 160.888 55C160.384 55 159.88 55 159.376 55C158.872 55 158.392 55 157.936 55C157.576 55 157.264 54.928 157 54.784C156.736 54.64 156.532 54.448 156.388 54.208C156.244 53.968 156.16 53.704 156.136 53.416C156.112 53.104 156.16 52.792 156.28 52.48C156.4 52.144 156.58 51.82 156.82 51.508C157.252 51.004 157.672 50.488 158.08 49.96C158.512 49.432 158.92 48.916 159.304 48.412C159.712 47.908 160.084 47.464 160.42 47.08C160.756 46.672 161.116 46.24 161.5 45.784C161.908 45.304 162.4 44.728 162.976 44.056C163.552 43.36 164.272 42.508 165.136 41.5C165.784 40.732 166.276 40.072 166.612 39.52C166.948 38.968 167.212 38.512 167.404 38.152C167.62 37.792 167.848 37.528 168.088 37.36C168.328 37.168 168.676 37.072 169.132 37.072C169.492 37.072 169.804 37.132 170.068 37.252C170.332 37.372 170.536 37.54 170.68 37.756C170.848 37.972 170.944 38.224 170.968 38.512C171.016 38.776 170.98 39.064 170.86 39.376C170.764 39.688 170.584 40 170.32 40.312C169.984 40.696 169.636 40.924 169.276 40.996C168.94 41.044 168.556 41.008 168.124 40.888C167.692 40.768 167.188 40.648 166.612 40.528C166.036 40.384 165.364 40.312 164.596 40.312C163.564 40.312 162.7 40.312 162.004 40.312C161.308 40.312 160.66 40.312 160.06 40.312C159.46 40.312 158.8 40.312 158.08 40.312C157.552 40.312 157.144 40.156 156.856 39.844C156.592 39.508 156.46 39.124 156.46 38.692C156.46 38.26 156.592 37.888 156.856 37.576C157.144 37.24 157.552 37.072 158.08 37.072Z" fill="#F4364C"/>
</g>
<g filter="url(#filter1_f_3_60)">
<path d="M44.868 55C44.244 55 43.548 55 42.78 55C42.036 55 41.22 55 40.332 55C39.444 55 38.484 55 37.452 55C36.372 55 35.52 54.916 34.896 54.748C34.272 54.556 33.816 54.232 33.528 53.776C33.24 53.32 33.06 52.66 32.988 51.796C32.916 50.932 32.88 49.816 32.88 48.448C32.88 46.984 32.88 45.544 32.88 44.128C32.88 42.712 32.88 41.344 32.88 40.024C32.88 38.68 32.88 37.432 32.88 36.28C32.88 35.776 32.88 35.308 32.88 34.876C32.88 34.42 32.88 33.952 32.88 33.472C32.88 32.992 32.88 32.488 32.88 31.96C32.88 31.36 33.036 30.916 33.348 30.628C33.684 30.316 34.068 30.16 34.5 30.16C34.932 30.16 35.304 30.316 35.616 30.628C35.952 30.916 36.12 31.36 36.12 31.96C36.12 32.488 36.12 32.98 36.12 33.436C36.12 33.892 36.12 34.348 36.12 34.804C36.12 35.26 36.12 35.752 36.12 36.28C36.12 37.12 36.12 37.972 36.12 38.836C36.12 39.7 36.12 40.6 36.12 41.536C36.12 42.448 36.12 43.42 36.12 44.452C36.12 45.46 36.12 46.54 36.12 47.692C36.12 48.7 36.12 49.48 36.12 50.032C36.12 50.584 36.168 50.992 36.264 51.256C36.36 51.496 36.552 51.64 36.84 51.688C37.128 51.736 37.56 51.76 38.136 51.76C38.712 51.76 39.264 51.76 39.792 51.76C40.32 51.76 40.848 51.76 41.376 51.76C41.928 51.76 42.492 51.76 43.068 51.76C43.644 51.76 44.244 51.76 44.868 51.76C45.468 51.76 45.912 51.928 46.2 52.264C46.512 52.576 46.668 52.948 46.668 53.38C46.668 53.812 46.512 54.196 46.2 54.532C45.912 54.844 45.468 55 44.868 55ZM50.4497 53.56C50.4497 53.056 50.4497 52.54 50.4497 52.012C50.4497 51.484 50.4497 50.98 50.4497 50.5C50.4497 49.996 50.4497 49.516 50.4497 49.06C50.4497 48.244 50.4497 47.536 50.4497 46.936C50.4497 46.336 50.4497 45.736 50.4497 45.136C50.4497 44.536 50.4497 43.828 50.4497 43.012C50.4497 42.556 50.4497 42.1 50.4497 41.644C50.4497 41.188 50.4497 40.708 50.4497 40.204C50.4497 39.676 50.4497 39.112 50.4497 38.512C50.4497 37.912 50.6057 37.468 50.9177 37.18C51.2537 36.868 51.6377 36.712 52.0697 36.712C52.5017 36.712 52.8737 36.868 53.1857 37.18C53.5217 37.468 53.6897 37.912 53.6897 38.512C53.6897 39.136 53.6897 39.688 53.6897 40.168C53.6897 40.624 53.6897 41.08 53.6897 41.536C53.6897 41.968 53.6897 42.46 53.6897 43.012C53.6897 43.564 53.6897 44.212 53.6897 44.956C53.6897 45.676 53.6897 46.408 53.6897 47.152C53.6897 47.872 53.6897 48.508 53.6897 49.06C53.6897 49.612 53.6897 50.128 53.6897 50.608C53.6897 51.088 53.6897 51.568 53.6897 52.048C53.6897 52.504 53.6897 53.008 53.6897 53.56C53.6897 54.16 53.5217 54.616 53.1857 54.928C52.8737 55.24 52.5017 55.396 52.0697 55.396C51.6377 55.396 51.2537 55.252 50.9177 54.964C50.6057 54.652 50.4497 54.184 50.4497 53.56ZM50.4497 32.104C50.4497 31.84 50.4497 31.624 50.4497 31.456C50.4497 31.288 50.4497 31.12 50.4497 30.952C50.4497 30.784 50.4497 30.58 50.4497 30.34C50.4497 29.788 50.6057 29.38 50.9177 29.116C51.2537 28.828 51.6377 28.684 52.0697 28.684C52.5017 28.684 52.8737 28.828 53.1857 29.116C53.5217 29.38 53.6897 29.788 53.6897 30.34C53.6897 30.58 53.6897 30.784 53.6897 30.952C53.6897 31.12 53.6897 31.288 53.6897 31.456C53.6897 31.624 53.6897 31.84 53.6897 32.104C53.6897 32.656 53.5217 33.076 53.1857 33.364C52.8737 33.628 52.5017 33.76 52.0697 33.76C51.6377 33.76 51.2537 33.628 50.9177 33.364C50.6057 33.076 50.4497 32.656 50.4497 32.104ZM60.0777 37.936C60.3657 38.68 60.6177 39.352 60.8337 39.952C61.0497 40.528 61.2657 41.092 61.4817 41.644C61.6977 42.196 61.9377 42.808 62.2017 43.48C62.4897 44.176 62.7537 44.848 62.9937 45.496C63.2337 46.144 63.4857 46.804 63.7497 47.476C64.0137 48.124 64.2897 48.82 64.5777 49.564C64.7217 49.9 64.8297 50.152 64.9017 50.32C64.9737 50.488 65.0337 50.572 65.0817 50.572C65.1297 50.572 65.1897 50.488 65.2617 50.32C65.3337 50.152 65.4297 49.912 65.5497 49.6C65.8617 48.856 66.1497 48.136 66.4137 47.44C66.7017 46.744 66.9777 46.048 67.2417 45.352C67.5297 44.632 67.8057 43.912 68.0697 43.192C68.3097 42.568 68.5377 41.992 68.7537 41.464C68.9697 40.936 69.1857 40.396 69.4017 39.844C69.6177 39.268 69.8337 38.644 70.0497 37.972C70.2417 37.396 70.5417 37.024 70.9497 36.856C71.3577 36.688 71.7657 36.676 72.1737 36.82C72.6057 36.94 72.9177 37.204 73.1097 37.612C73.3257 37.996 73.3377 38.476 73.1457 39.052C72.9057 39.748 72.6657 40.384 72.4257 40.96C72.2097 41.512 71.9937 42.064 71.7777 42.616C71.5617 43.144 71.3217 43.744 71.0577 44.416C70.8417 44.944 70.6257 45.484 70.4097 46.036C70.2177 46.564 69.9897 47.14 69.7257 47.764C69.4857 48.388 69.2097 49.096 68.8977 49.888C68.6097 50.656 68.2737 51.544 67.8897 52.552C67.5297 53.488 67.1097 54.196 66.6297 54.676C66.1737 55.132 65.6817 55.36 65.1537 55.36C64.6497 55.384 64.1577 55.168 63.6777 54.712C63.1977 54.256 62.7657 53.56 62.3817 52.624C61.8057 51.28 61.3257 50.152 60.9417 49.24C60.5817 48.304 60.2697 47.488 60.0057 46.792C59.7417 46.096 59.4657 45.4 59.1777 44.704C58.9137 44.008 58.6737 43.384 58.4577 42.832C58.2417 42.256 58.0257 41.68 57.8097 41.104C57.5937 40.504 57.3417 39.832 57.0537 39.088C56.8377 38.512 56.8257 38.032 57.0177 37.648C57.2097 37.24 57.5097 36.964 57.9177 36.82C58.3257 36.652 58.7337 36.652 59.1417 36.82C59.5497 36.988 59.8617 37.36 60.0777 37.936ZM79.6434 44.416C80.3394 44.416 81.0834 44.416 81.8754 44.416C82.6674 44.416 83.4714 44.416 84.2874 44.416C85.1274 44.416 85.9434 44.416 86.7354 44.416C87.0234 44.416 87.2754 44.428 87.4914 44.452C87.7314 44.452 87.9114 44.44 88.0314 44.416C88.1754 44.368 88.2714 44.296 88.3194 44.2C88.3914 44.104 88.4034 43.936 88.3554 43.696C88.1874 42.928 87.8874 42.268 87.4554 41.716C87.0474 41.14 86.5194 40.708 85.8714 40.42C85.2234 40.108 84.4914 39.952 83.6754 39.952C82.5954 39.952 81.6354 40.204 80.7954 40.708C79.9794 41.212 79.3314 41.932 78.8514 42.868C78.3954 43.78 78.1674 44.848 78.1674 46.072C78.1674 47.368 78.4194 48.472 78.9234 49.384C79.4274 50.296 80.1114 50.992 80.9754 51.472C81.8634 51.928 82.8714 52.156 83.9994 52.156C84.5034 52.156 85.0314 52.108 85.5834 52.012C86.1354 51.892 86.6874 51.724 87.2394 51.508C87.8154 51.292 88.3914 51.028 88.9674 50.716C89.4954 50.404 89.9634 50.32 90.3714 50.464C90.8034 50.608 91.1274 50.872 91.3434 51.256C91.5594 51.616 91.6074 52.012 91.4874 52.444C91.3914 52.876 91.0794 53.236 90.5514 53.524C89.8074 53.956 89.0634 54.316 88.3194 54.604C87.5754 54.868 86.8314 55.06 86.0874 55.18C85.3674 55.324 84.6714 55.396 83.9994 55.396C82.3194 55.396 80.7954 55.024 79.4274 54.28C78.0594 53.536 76.9674 52.468 76.1514 51.076C75.3354 49.684 74.9274 48.016 74.9274 46.072C74.9274 44.2 75.3114 42.568 76.0794 41.176C76.8474 39.76 77.8914 38.668 79.2114 37.9C80.5314 37.108 82.0194 36.712 83.6754 36.712C84.9954 36.712 86.2074 36.976 87.3114 37.504C88.4154 38.032 89.3274 38.776 90.0474 39.736C90.7914 40.672 91.2834 41.8 91.5234 43.12C91.6674 43.864 91.6914 44.524 91.5954 45.1C91.4994 45.676 91.2594 46.156 90.8754 46.54C90.4914 46.9 89.9514 47.176 89.2554 47.368C88.5834 47.56 87.7434 47.656 86.7354 47.656C85.9674 47.656 85.2594 47.656 84.6114 47.656C83.9634 47.656 83.3514 47.656 82.7754 47.656C82.2234 47.656 81.6834 47.656 81.1554 47.656C80.6514 47.656 80.1474 47.656 79.6434 47.656C79.0434 47.656 78.5874 47.5 78.2754 47.188C77.9634 46.852 77.8074 46.468 77.8074 46.036C77.8074 45.604 77.9634 45.232 78.2754 44.92C78.5874 44.584 79.0434 44.416 79.6434 44.416ZM103.968 50.932C104.736 51.292 105.42 51.556 106.02 51.724C106.644 51.868 107.22 51.94 107.748 51.94C108.516 51.94 109.164 51.772 109.692 51.436C110.22 51.1 110.616 50.62 110.88 49.996C111.168 49.348 111.312 48.568 111.312 47.656C111.312 46.696 111.312 45.712 111.312 44.704C111.312 43.696 111.312 42.652 111.312 41.572C111.312 40.492 111.312 39.376 111.312 38.224C111.312 37.504 111.312 36.808 111.312 36.136C111.312 35.44 111.312 34.756 111.312 34.084C111.312 33.412 111.312 32.704 111.312 31.96C111.312 31.36 111.468 30.916 111.78 30.628C112.116 30.316 112.5 30.16 112.932 30.16C113.364 30.16 113.736 30.316 114.048 30.628C114.384 30.916 114.552 31.36 114.552 31.96C114.552 32.512 114.552 33.028 114.552 33.508C114.552 33.988 114.552 34.468 114.552 34.948C114.552 35.428 114.552 35.944 114.552 36.496C114.552 37.024 114.552 37.6 114.552 38.224C114.552 39.184 114.552 40.12 114.552 41.032C114.552 41.92 114.552 42.892 114.552 43.948C114.552 45.004 114.552 46.24 114.552 47.656C114.552 49.24 114.264 50.596 113.688 51.724C113.112 52.828 112.308 53.68 111.276 54.28C110.244 54.88 109.068 55.18 107.748 55.18C107.004 55.18 106.212 55.084 105.372 54.892C104.556 54.7 103.692 54.388 102.78 53.956C102.228 53.692 101.88 53.344 101.736 52.912C101.592 52.48 101.604 52.072 101.772 51.688C101.964 51.28 102.252 50.992 102.636 50.824C103.02 50.656 103.464 50.692 103.968 50.932ZM135.45 38.728C135.45 39.352 135.45 39.928 135.45 40.456C135.45 40.984 135.45 41.548 135.45 42.148C135.45 42.724 135.45 43.396 135.45 44.164C135.45 44.908 135.45 45.796 135.45 46.828C135.45 48.196 135.234 49.408 134.802 50.464C134.37 51.52 133.758 52.42 132.966 53.164C132.198 53.884 131.286 54.436 130.23 54.82C129.198 55.204 128.07 55.396 126.846 55.396C125.622 55.396 124.482 55.168 123.426 54.712C122.37 54.256 121.446 53.608 120.654 52.768C119.862 51.928 119.25 50.944 118.818 49.816C118.386 48.664 118.17 47.404 118.17 46.036C118.17 44.212 118.542 42.604 119.286 41.212C120.054 39.796 121.086 38.692 122.382 37.9C123.702 37.108 125.178 36.712 126.81 36.712C128.034 36.712 129.162 36.94 130.194 37.396C131.25 37.828 132.162 38.464 132.93 39.304C133.722 40.12 134.334 41.092 134.766 42.22C135.222 43.348 135.45 44.596 135.45 45.964C135.45 46.516 135.45 47.056 135.45 47.584C135.45 48.088 135.45 48.58 135.45 49.06C135.45 49.516 135.45 49.948 135.45 50.356C135.45 51.004 135.45 51.604 135.45 52.156C135.45 52.708 135.45 53.308 135.45 53.956C135.45 54.556 135.282 55.012 134.946 55.324C134.634 55.636 134.262 55.792 133.83 55.792C133.398 55.792 133.014 55.636 132.678 55.324C132.366 55.012 132.21 54.556 132.21 53.956C132.21 53.572 132.21 53.176 132.21 52.768C132.21 52.36 132.21 51.964 132.21 51.58C132.21 51.172 132.21 50.764 132.21 50.356C132.21 50.092 132.21 49.684 132.21 49.132C132.21 48.556 132.21 47.98 132.21 47.404C132.21 46.804 132.21 46.324 132.21 45.964C132.21 44.788 131.982 43.744 131.526 42.832C131.07 41.92 130.434 41.212 129.618 40.708C128.802 40.204 127.866 39.952 126.81 39.952C126.018 39.952 125.286 40.108 124.614 40.42C123.942 40.708 123.366 41.128 122.886 41.68C122.43 42.208 122.07 42.844 121.806 43.588C121.542 44.332 121.41 45.148 121.41 46.036C121.41 46.924 121.542 47.74 121.806 48.484C122.07 49.228 122.442 49.876 122.922 50.428C123.402 50.98 123.978 51.412 124.65 51.724C125.322 52.012 126.054 52.156 126.846 52.156C127.638 52.156 128.358 52.048 129.006 51.832C129.678 51.616 130.254 51.292 130.734 50.86C131.214 50.404 131.574 49.84 131.814 49.168C132.078 48.496 132.21 47.716 132.21 46.828C132.21 46.132 132.21 45.4 132.21 44.632C132.21 43.864 132.21 43.108 132.21 42.364C132.21 41.62 132.21 40.936 132.21 40.312C132.21 39.664 132.21 39.136 132.21 38.728C132.21 38.128 132.366 37.672 132.678 37.36C133.014 37.048 133.398 36.892 133.83 36.892C134.262 36.892 134.634 37.048 134.946 37.36C135.282 37.672 135.45 38.128 135.45 38.728ZM141.029 37.072C141.749 37.072 142.481 37.072 143.225 37.072C143.969 37.072 144.701 37.072 145.421 37.072C146.141 37.072 146.813 37.072 147.437 37.072C148.061 37.072 148.601 37.072 149.057 37.072C149.537 37.072 150.005 37.072 150.461 37.072C150.941 37.072 151.481 37.072 152.081 37.072C152.441 37.072 152.753 37.132 153.017 37.252C153.281 37.372 153.485 37.54 153.629 37.756C153.797 37.972 153.893 38.224 153.917 38.512C153.965 38.776 153.929 39.064 153.809 39.376C153.713 39.688 153.533 40 153.269 40.312C152.837 40.816 152.393 41.332 151.937 41.86C151.505 42.364 151.085 42.856 150.677 43.336C150.293 43.792 149.933 44.224 149.597 44.632C149.261 45.016 148.865 45.496 148.409 46.072C147.953 46.624 147.485 47.188 147.005 47.764C146.549 48.316 146.153 48.784 145.817 49.168C145.577 49.456 145.373 49.696 145.205 49.888C145.037 50.08 144.893 50.248 144.773 50.392C144.653 50.512 144.533 50.632 144.413 50.752C144.317 50.872 144.197 51.016 144.053 51.184C143.933 51.304 143.837 51.412 143.765 51.508C143.693 51.58 143.645 51.64 143.621 51.688C143.621 51.712 143.645 51.736 143.693 51.76C143.741 51.76 143.813 51.76 143.909 51.76C144.029 51.76 144.185 51.76 144.377 51.76C144.617 51.76 144.809 51.76 144.953 51.76C145.121 51.76 145.289 51.76 145.457 51.76C145.649 51.76 145.865 51.76 146.105 51.76C146.369 51.76 146.717 51.76 147.149 51.76C147.725 51.76 148.217 51.76 148.625 51.76C149.033 51.76 149.477 51.76 149.957 51.76C150.437 51.76 151.037 51.76 151.757 51.76C152.309 51.76 152.717 51.928 152.981 52.264C153.269 52.576 153.413 52.948 153.413 53.38C153.413 53.812 153.269 54.196 152.981 54.532C152.717 54.844 152.309 55 151.757 55C151.013 55 150.341 55 149.741 55C149.165 55 148.613 55 148.085 55C147.581 55 147.077 55 146.573 55C146.189 55 145.757 55 145.277 55C144.821 55 144.341 55 143.837 55C143.333 55 142.829 55 142.325 55C141.821 55 141.341 55 140.885 55C140.525 55 140.213 54.928 139.949 54.784C139.685 54.64 139.481 54.448 139.337 54.208C139.193 53.968 139.109 53.704 139.085 53.416C139.061 53.104 139.109 52.792 139.229 52.48C139.349 52.144 139.529 51.82 139.769 51.508C140.201 51.004 140.621 50.488 141.029 49.96C141.461 49.432 141.869 48.916 142.253 48.412C142.661 47.908 143.033 47.464 143.369 47.08C143.705 46.672 144.065 46.24 144.449 45.784C144.857 45.304 145.349 44.728 145.925 44.056C146.501 43.36 147.221 42.508 148.085 41.5C148.733 40.732 149.225 40.072 149.561 39.52C149.897 38.968 150.161 38.512 150.353 38.152C150.569 37.792 150.797 37.528 151.037 37.36C151.277 37.168 151.625 37.072 152.081 37.072C152.441 37.072 152.753 37.132 153.017 37.252C153.281 37.372 153.485 37.54 153.629 37.756C153.797 37.972 153.893 38.224 153.917 38.512C153.965 38.776 153.929 39.064 153.809 39.376C153.713 39.688 153.533 40 153.269 40.312C152.933 40.696 152.585 40.924 152.225 40.996C151.889 41.044 151.505 41.008 151.073 40.888C150.641 40.768 150.137 40.648 149.561 40.528C148.985 40.384 148.313 40.312 147.545 40.312C146.513 40.312 145.649 40.312 144.953 40.312C144.257 40.312 143.609 40.312 143.009 40.312C142.409 40.312 141.749 40.312 141.029 40.312C140.501 40.312 140.093 40.156 139.805 39.844C139.541 39.508 139.409 39.124 139.409 38.692C139.409 38.26 139.541 37.888 139.805 37.576C140.093 37.24 140.501 37.072 141.029 37.072ZM158.08 37.072C158.8 37.072 159.532 37.072 160.276 37.072C161.02 37.072 161.752 37.072 162.472 37.072C163.192 37.072 163.864 37.072 164.488 37.072C165.112 37.072 165.652 37.072 166.108 37.072C166.588 37.072 167.056 37.072 167.512 37.072C167.992 37.072 168.532 37.072 169.132 37.072C169.492 37.072 169.804 37.132 170.068 37.252C170.332 37.372 170.536 37.54 170.68 37.756C170.848 37.972 170.944 38.224 170.968 38.512C171.016 38.776 170.98 39.064 170.86 39.376C170.764 39.688 170.584 40 170.32 40.312C169.888 40.816 169.444 41.332 168.988 41.86C168.556 42.364 168.136 42.856 167.728 43.336C167.344 43.792 166.984 44.224 166.648 44.632C166.312 45.016 165.916 45.496 165.46 46.072C165.004 46.624 164.536 47.188 164.056 47.764C163.6 48.316 163.204 48.784 162.868 49.168C162.628 49.456 162.424 49.696 162.256 49.888C162.088 50.08 161.944 50.248 161.824 50.392C161.704 50.512 161.584 50.632 161.464 50.752C161.368 50.872 161.248 51.016 161.104 51.184C160.984 51.304 160.888 51.412 160.816 51.508C160.744 51.58 160.696 51.64 160.672 51.688C160.672 51.712 160.696 51.736 160.744 51.76C160.792 51.76 160.864 51.76 160.96 51.76C161.08 51.76 161.236 51.76 161.428 51.76C161.668 51.76 161.86 51.76 162.004 51.76C162.172 51.76 162.34 51.76 162.508 51.76C162.7 51.76 162.916 51.76 163.156 51.76C163.42 51.76 163.768 51.76 164.2 51.76C164.776 51.76 165.268 51.76 165.676 51.76C166.084 51.76 166.528 51.76 167.008 51.76C167.488 51.76 168.088 51.76 168.808 51.76C169.36 51.76 169.768 51.928 170.032 52.264C170.32 52.576 170.464 52.948 170.464 53.38C170.464 53.812 170.32 54.196 170.032 54.532C169.768 54.844 169.36 55 168.808 55C168.064 55 167.392 55 166.792 55C166.216 55 165.664 55 165.136 55C164.632 55 164.128 55 163.624 55C163.24 55 162.808 55 162.328 55C161.872 55 161.392 55 160.888 55C160.384 55 159.88 55 159.376 55C158.872 55 158.392 55 157.936 55C157.576 55 157.264 54.928 157 54.784C156.736 54.64 156.532 54.448 156.388 54.208C156.244 53.968 156.16 53.704 156.136 53.416C156.112 53.104 156.16 52.792 156.28 52.48C156.4 52.144 156.58 51.82 156.82 51.508C157.252 51.004 157.672 50.488 158.08 49.96C158.512 49.432 158.92 48.916 159.304 48.412C159.712 47.908 160.084 47.464 160.42 47.08C160.756 46.672 161.116 46.24 161.5 45.784C161.908 45.304 162.4 44.728 162.976 44.056C163.552 43.36 164.272 42.508 165.136 41.5C165.784 40.732 166.276 40.072 166.612 39.52C166.948 38.968 167.212 38.512 167.404 38.152C167.62 37.792 167.848 37.528 168.088 37.36C168.328 37.168 168.676 37.072 169.132 37.072C169.492 37.072 169.804 37.132 170.068 37.252C170.332 37.372 170.536 37.54 170.68 37.756C170.848 37.972 170.944 38.224 170.968 38.512C171.016 38.776 170.98 39.064 170.86 39.376C170.764 39.688 170.584 40 170.32 40.312C169.984 40.696 169.636 40.924 169.276 40.996C168.94 41.044 168.556 41.008 168.124 40.888C167.692 40.768 167.188 40.648 166.612 40.528C166.036 40.384 165.364 40.312 164.596 40.312C163.564 40.312 162.7 40.312 162.004 40.312C161.308 40.312 160.66 40.312 160.06 40.312C159.46 40.312 158.8 40.312 158.08 40.312C157.552 40.312 157.144 40.156 156.856 39.844C156.592 39.508 156.46 39.124 156.46 38.692C156.46 38.26 156.592 37.888 156.856 37.576C157.144 37.24 157.552 37.072 158.08 37.072Z" fill="#F4364C"/>
</g>
<g filter="url(#filter2_f_3_60)">
<path d="M44.868 55C44.244 55 43.548 55 42.78 55C42.036 55 41.22 55 40.332 55C39.444 55 38.484 55 37.452 55C36.372 55 35.52 54.916 34.896 54.748C34.272 54.556 33.816 54.232 33.528 53.776C33.24 53.32 33.06 52.66 32.988 51.796C32.916 50.932 32.88 49.816 32.88 48.448C32.88 46.984 32.88 45.544 32.88 44.128C32.88 42.712 32.88 41.344 32.88 40.024C32.88 38.68 32.88 37.432 32.88 36.28C32.88 35.776 32.88 35.308 32.88 34.876C32.88 34.42 32.88 33.952 32.88 33.472C32.88 32.992 32.88 32.488 32.88 31.96C32.88 31.36 33.036 30.916 33.348 30.628C33.684 30.316 34.068 30.16 34.5 30.16C34.932 30.16 35.304 30.316 35.616 30.628C35.952 30.916 36.12 31.36 36.12 31.96C36.12 32.488 36.12 32.98 36.12 33.436C36.12 33.892 36.12 34.348 36.12 34.804C36.12 35.26 36.12 35.752 36.12 36.28C36.12 37.12 36.12 37.972 36.12 38.836C36.12 39.7 36.12 40.6 36.12 41.536C36.12 42.448 36.12 43.42 36.12 44.452C36.12 45.46 36.12 46.54 36.12 47.692C36.12 48.7 36.12 49.48 36.12 50.032C36.12 50.584 36.168 50.992 36.264 51.256C36.36 51.496 36.552 51.64 36.84 51.688C37.128 51.736 37.56 51.76 38.136 51.76C38.712 51.76 39.264 51.76 39.792 51.76C40.32 51.76 40.848 51.76 41.376 51.76C41.928 51.76 42.492 51.76 43.068 51.76C43.644 51.76 44.244 51.76 44.868 51.76C45.468 51.76 45.912 51.928 46.2 52.264C46.512 52.576 46.668 52.948 46.668 53.38C46.668 53.812 46.512 54.196 46.2 54.532C45.912 54.844 45.468 55 44.868 55ZM50.4497 53.56C50.4497 53.056 50.4497 52.54 50.4497 52.012C50.4497 51.484 50.4497 50.98 50.4497 50.5C50.4497 49.996 50.4497 49.516 50.4497 49.06C50.4497 48.244 50.4497 47.536 50.4497 46.936C50.4497 46.336 50.4497 45.736 50.4497 45.136C50.4497 44.536 50.4497 43.828 50.4497 43.012C50.4497 42.556 50.4497 42.1 50.4497 41.644C50.4497 41.188 50.4497 40.708 50.4497 40.204C50.4497 39.676 50.4497 39.112 50.4497 38.512C50.4497 37.912 50.6057 37.468 50.9177 37.18C51.2537 36.868 51.6377 36.712 52.0697 36.712C52.5017 36.712 52.8737 36.868 53.1857 37.18C53.5217 37.468 53.6897 37.912 53.6897 38.512C53.6897 39.136 53.6897 39.688 53.6897 40.168C53.6897 40.624 53.6897 41.08 53.6897 41.536C53.6897 41.968 53.6897 42.46 53.6897 43.012C53.6897 43.564 53.6897 44.212 53.6897 44.956C53.6897 45.676 53.6897 46.408 53.6897 47.152C53.6897 47.872 53.6897 48.508 53.6897 49.06C53.6897 49.612 53.6897 50.128 53.6897 50.608C53.6897 51.088 53.6897 51.568 53.6897 52.048C53.6897 52.504 53.6897 53.008 53.6897 53.56C53.6897 54.16 53.5217 54.616 53.1857 54.928C52.8737 55.24 52.5017 55.396 52.0697 55.396C51.6377 55.396 51.2537 55.252 50.9177 54.964C50.6057 54.652 50.4497 54.184 50.4497 53.56ZM50.4497 32.104C50.4497 31.84 50.4497 31.624 50.4497 31.456C50.4497 31.288 50.4497 31.12 50.4497 30.952C50.4497 30.784 50.4497 30.58 50.4497 30.34C50.4497 29.788 50.6057 29.38 50.9177 29.116C51.2537 28.828 51.6377 28.684 52.0697 28.684C52.5017 28.684 52.8737 28.828 53.1857 29.116C53.5217 29.38 53.6897 29.788 53.6897 30.34C53.6897 30.58 53.6897 30.784 53.6897 30.952C53.6897 31.12 53.6897 31.288 53.6897 31.456C53.6897 31.624 53.6897 31.84 53.6897 32.104C53.6897 32.656 53.5217 33.076 53.1857 33.364C52.8737 33.628 52.5017 33.76 52.0697 33.76C51.6377 33.76 51.2537 33.628 50.9177 33.364C50.6057 33.076 50.4497 32.656 50.4497 32.104ZM60.0777 37.936C60.3657 38.68 60.6177 39.352 60.8337 39.952C61.0497 40.528 61.2657 41.092 61.4817 41.644C61.6977 42.196 61.9377 42.808 62.2017 43.48C62.4897 44.176 62.7537 44.848 62.9937 45.496C63.2337 46.144 63.4857 46.804 63.7497 47.476C64.0137 48.124 64.2897 48.82 64.5777 49.564C64.7217 49.9 64.8297 50.152 64.9017 50.32C64.9737 50.488 65.0337 50.572 65.0817 50.572C65.1297 50.572 65.1897 50.488 65.2617 50.32C65.3337 50.152 65.4297 49.912 65.5497 49.6C65.8617 48.856 66.1497 48.136 66.4137 47.44C66.7017 46.744 66.9777 46.048 67.2417 45.352C67.5297 44.632 67.8057 43.912 68.0697 43.192C68.3097 42.568 68.5377 41.992 68.7537 41.464C68.9697 40.936 69.1857 40.396 69.4017 39.844C69.6177 39.268 69.8337 38.644 70.0497 37.972C70.2417 37.396 70.5417 37.024 70.9497 36.856C71.3577 36.688 71.7657 36.676 72.1737 36.82C72.6057 36.94 72.9177 37.204 73.1097 37.612C73.3257 37.996 73.3377 38.476 73.1457 39.052C72.9057 39.748 72.6657 40.384 72.4257 40.96C72.2097 41.512 71.9937 42.064 71.7777 42.616C71.5617 43.144 71.3217 43.744 71.0577 44.416C70.8417 44.944 70.6257 45.484 70.4097 46.036C70.2177 46.564 69.9897 47.14 69.7257 47.764C69.4857 48.388 69.2097 49.096 68.8977 49.888C68.6097 50.656 68.2737 51.544 67.8897 52.552C67.5297 53.488 67.1097 54.196 66.6297 54.676C66.1737 55.132 65.6817 55.36 65.1537 55.36C64.6497 55.384 64.1577 55.168 63.6777 54.712C63.1977 54.256 62.7657 53.56 62.3817 52.624C61.8057 51.28 61.3257 50.152 60.9417 49.24C60.5817 48.304 60.2697 47.488 60.0057 46.792C59.7417 46.096 59.4657 45.4 59.1777 44.704C58.9137 44.008 58.6737 43.384 58.4577 42.832C58.2417 42.256 58.0257 41.68 57.8097 41.104C57.5937 40.504 57.3417 39.832 57.0537 39.088C56.8377 38.512 56.8257 38.032 57.0177 37.648C57.2097 37.24 57.5097 36.964 57.9177 36.82C58.3257 36.652 58.7337 36.652 59.1417 36.82C59.5497 36.988 59.8617 37.36 60.0777 37.936ZM79.6434 44.416C80.3394 44.416 81.0834 44.416 81.8754 44.416C82.6674 44.416 83.4714 44.416 84.2874 44.416C85.1274 44.416 85.9434 44.416 86.7354 44.416C87.0234 44.416 87.2754 44.428 87.4914 44.452C87.7314 44.452 87.9114 44.44 88.0314 44.416C88.1754 44.368 88.2714 44.296 88.3194 44.2C88.3914 44.104 88.4034 43.936 88.3554 43.696C88.1874 42.928 87.8874 42.268 87.4554 41.716C87.0474 41.14 86.5194 40.708 85.8714 40.42C85.2234 40.108 84.4914 39.952 83.6754 39.952C82.5954 39.952 81.6354 40.204 80.7954 40.708C79.9794 41.212 79.3314 41.932 78.8514 42.868C78.3954 43.78 78.1674 44.848 78.1674 46.072C78.1674 47.368 78.4194 48.472 78.9234 49.384C79.4274 50.296 80.1114 50.992 80.9754 51.472C81.8634 51.928 82.8714 52.156 83.9994 52.156C84.5034 52.156 85.0314 52.108 85.5834 52.012C86.1354 51.892 86.6874 51.724 87.2394 51.508C87.8154 51.292 88.3914 51.028 88.9674 50.716C89.4954 50.404 89.9634 50.32 90.3714 50.464C90.8034 50.608 91.1274 50.872 91.3434 51.256C91.5594 51.616 91.6074 52.012 91.4874 52.444C91.3914 52.876 91.0794 53.236 90.5514 53.524C89.8074 53.956 89.0634 54.316 88.3194 54.604C87.5754 54.868 86.8314 55.06 86.0874 55.18C85.3674 55.324 84.6714 55.396 83.9994 55.396C82.3194 55.396 80.7954 55.024 79.4274 54.28C78.0594 53.536 76.9674 52.468 76.1514 51.076C75.3354 49.684 74.9274 48.016 74.9274 46.072C74.9274 44.2 75.3114 42.568 76.0794 41.176C76.8474 39.76 77.8914 38.668 79.2114 37.9C80.5314 37.108 82.0194 36.712 83.6754 36.712C84.9954 36.712 86.2074 36.976 87.3114 37.504C88.4154 38.032 89.3274 38.776 90.0474 39.736C90.7914 40.672 91.2834 41.8 91.5234 43.12C91.6674 43.864 91.6914 44.524 91.5954 45.1C91.4994 45.676 91.2594 46.156 90.8754 46.54C90.4914 46.9 89.9514 47.176 89.2554 47.368C88.5834 47.56 87.7434 47.656 86.7354 47.656C85.9674 47.656 85.2594 47.656 84.6114 47.656C83.9634 47.656 83.3514 47.656 82.7754 47.656C82.2234 47.656 81.6834 47.656 81.1554 47.656C80.6514 47.656 80.1474 47.656 79.6434 47.656C79.0434 47.656 78.5874 47.5 78.2754 47.188C77.9634 46.852 77.8074 46.468 77.8074 46.036C77.8074 45.604 77.9634 45.232 78.2754 44.92C78.5874 44.584 79.0434 44.416 79.6434 44.416ZM103.968 50.932C104.736 51.292 105.42 51.556 106.02 51.724C106.644 51.868 107.22 51.94 107.748 51.94C108.516 51.94 109.164 51.772 109.692 51.436C110.22 51.1 110.616 50.62 110.88 49.996C111.168 49.348 111.312 48.568 111.312 47.656C111.312 46.696 111.312 45.712 111.312 44.704C111.312 43.696 111.312 42.652 111.312 41.572C111.312 40.492 111.312 39.376 111.312 38.224C111.312 37.504 111.312 36.808 111.312 36.136C111.312 35.44 111.312 34.756 111.312 34.084C111.312 33.412 111.312 32.704 111.312 31.96C111.312 31.36 111.468 30.916 111.78 30.628C112.116 30.316 112.5 30.16 112.932 30.16C113.364 30.16 113.736 30.316 114.048 30.628C114.384 30.916 114.552 31.36 114.552 31.96C114.552 32.512 114.552 33.028 114.552 33.508C114.552 33.988 114.552 34.468 114.552 34.948C114.552 35.428 114.552 35.944 114.552 36.496C114.552 37.024 114.552 37.6 114.552 38.224C114.552 39.184 114.552 40.12 114.552 41.032C114.552 41.92 114.552 42.892 114.552 43.948C114.552 45.004 114.552 46.24 114.552 47.656C114.552 49.24 114.264 50.596 113.688 51.724C113.112 52.828 112.308 53.68 111.276 54.28C110.244 54.88 109.068 55.18 107.748 55.18C107.004 55.18 106.212 55.084 105.372 54.892C104.556 54.7 103.692 54.388 102.78 53.956C102.228 53.692 101.88 53.344 101.736 52.912C101.592 52.48 101.604 52.072 101.772 51.688C101.964 51.28 102.252 50.992 102.636 50.824C103.02 50.656 103.464 50.692 103.968 50.932ZM135.45 38.728C135.45 39.352 135.45 39.928 135.45 40.456C135.45 40.984 135.45 41.548 135.45 42.148C135.45 42.724 135.45 43.396 135.45 44.164C135.45 44.908 135.45 45.796 135.45 46.828C135.45 48.196 135.234 49.408 134.802 50.464C134.37 51.52 133.758 52.42 132.966 53.164C132.198 53.884 131.286 54.436 130.23 54.82C129.198 55.204 128.07 55.396 126.846 55.396C125.622 55.396 124.482 55.168 123.426 54.712C122.37 54.256 121.446 53.608 120.654 52.768C119.862 51.928 119.25 50.944 118.818 49.816C118.386 48.664 118.17 47.404 118.17 46.036C118.17 44.212 118.542 42.604 119.286 41.212C120.054 39.796 121.086 38.692 122.382 37.9C123.702 37.108 125.178 36.712 126.81 36.712C128.034 36.712 129.162 36.94 130.194 37.396C131.25 37.828 132.162 38.464 132.93 39.304C133.722 40.12 134.334 41.092 134.766 42.22C135.222 43.348 135.45 44.596 135.45 45.964C135.45 46.516 135.45 47.056 135.45 47.584C135.45 48.088 135.45 48.58 135.45 49.06C135.45 49.516 135.45 49.948 135.45 50.356C135.45 51.004 135.45 51.604 135.45 52.156C135.45 52.708 135.45 53.308 135.45 53.956C135.45 54.556 135.282 55.012 134.946 55.324C134.634 55.636 134.262 55.792 133.83 55.792C133.398 55.792 133.014 55.636 132.678 55.324C132.366 55.012 132.21 54.556 132.21 53.956C132.21 53.572 132.21 53.176 132.21 52.768C132.21 52.36 132.21 51.964 132.21 51.58C132.21 51.172 132.21 50.764 132.21 50.356C132.21 50.092 132.21 49.684 132.21 49.132C132.21 48.556 132.21 47.98 132.21 47.404C132.21 46.804 132.21 46.324 132.21 45.964C132.21 44.788 131.982 43.744 131.526 42.832C131.07 41.92 130.434 41.212 129.618 40.708C128.802 40.204 127.866 39.952 126.81 39.952C126.018 39.952 125.286 40.108 124.614 40.42C123.942 40.708 123.366 41.128 122.886 41.68C122.43 42.208 122.07 42.844 121.806 43.588C121.542 44.332 121.41 45.148 121.41 46.036C121.41 46.924 121.542 47.74 121.806 48.484C122.07 49.228 122.442 49.876 122.922 50.428C123.402 50.98 123.978 51.412 124.65 51.724C125.322 52.012 126.054 52.156 126.846 52.156C127.638 52.156 128.358 52.048 129.006 51.832C129.678 51.616 130.254 51.292 130.734 50.86C131.214 50.404 131.574 49.84 131.814 49.168C132.078 48.496 132.21 47.716 132.21 46.828C132.21 46.132 132.21 45.4 132.21 44.632C132.21 43.864 132.21 43.108 132.21 42.364C132.21 41.62 132.21 40.936 132.21 40.312C132.21 39.664 132.21 39.136 132.21 38.728C132.21 38.128 132.366 37.672 132.678 37.36C133.014 37.048 133.398 36.892 133.83 36.892C134.262 36.892 134.634 37.048 134.946 37.36C135.282 37.672 135.45 38.128 135.45 38.728ZM141.029 37.072C141.749 37.072 142.481 37.072 143.225 37.072C143.969 37.072 144.701 37.072 145.421 37.072C146.141 37.072 146.813 37.072 147.437 37.072C148.061 37.072 148.601 37.072 149.057 37.072C149.537 37.072 150.005 37.072 150.461 37.072C150.941 37.072 151.481 37.072 152.081 37.072C152.441 37.072 152.753 37.132 153.017 37.252C153.281 37.372 153.485 37.54 153.629 37.756C153.797 37.972 153.893 38.224 153.917 38.512C153.965 38.776 153.929 39.064 153.809 39.376C153.713 39.688 153.533 40 153.269 40.312C152.837 40.816 152.393 41.332 151.937 41.86C151.505 42.364 151.085 42.856 150.677 43.336C150.293 43.792 149.933 44.224 149.597 44.632C149.261 45.016 148.865 45.496 148.409 46.072C147.953 46.624 147.485 47.188 147.005 47.764C146.549 48.316 146.153 48.784 145.817 49.168C145.577 49.456 145.373 49.696 145.205 49.888C145.037 50.08 144.893 50.248 144.773 50.392C144.653 50.512 144.533 50.632 144.413 50.752C144.317 50.872 144.197 51.016 144.053 51.184C143.933 51.304 143.837 51.412 143.765 51.508C143.693 51.58 143.645 51.64 143.621 51.688C143.621 51.712 143.645 51.736 143.693 51.76C143.741 51.76 143.813 51.76 143.909 51.76C144.029 51.76 144.185 51.76 144.377 51.76C144.617 51.76 144.809 51.76 144.953 51.76C145.121 51.76 145.289 51.76 145.457 51.76C145.649 51.76 145.865 51.76 146.105 51.76C146.369 51.76 146.717 51.76 147.149 51.76C147.725 51.76 148.217 51.76 148.625 51.76C149.033 51.76 149.477 51.76 149.957 51.76C150.437 51.76 151.037 51.76 151.757 51.76C152.309 51.76 152.717 51.928 152.981 52.264C153.269 52.576 153.413 52.948 153.413 53.38C153.413 53.812 153.269 54.196 152.981 54.532C152.717 54.844 152.309 55 151.757 55C151.013 55 150.341 55 149.741 55C149.165 55 148.613 55 148.085 55C147.581 55 147.077 55 146.573 55C146.189 55 145.757 55 145.277 55C144.821 55 144.341 55 143.837 55C143.333 55 142.829 55 142.325 55C141.821 55 141.341 55 140.885 55C140.525 55 140.213 54.928 139.949 54.784C139.685 54.64 139.481 54.448 139.337 54.208C139.193 53.968 139.109 53.704 139.085 53.416C139.061 53.104 139.109 52.792 139.229 52.48C139.349 52.144 139.529 51.82 139.769 51.508C140.201 51.004 140.621 50.488 141.029 49.96C141.461 49.432 141.869 48.916 142.253 48.412C142.661 47.908 143.033 47.464 143.369 47.08C143.705 46.672 144.065 46.24 144.449 45.784C144.857 45.304 145.349 44.728 145.925 44.056C146.501 43.36 147.221 42.508 148.085 41.5C148.733 40.732 149.225 40.072 149.561 39.52C149.897 38.968 150.161 38.512 150.353 38.152C150.569 37.792 150.797 37.528 151.037 37.36C151.277 37.168 151.625 37.072 152.081 37.072C152.441 37.072 152.753 37.132 153.017 37.252C153.281 37.372 153.485 37.54 153.629 37.756C153.797 37.972 153.893 38.224 153.917 38.512C153.965 38.776 153.929 39.064 153.809 39.376C153.713 39.688 153.533 40 153.269 40.312C152.933 40.696 152.585 40.924 152.225 40.996C151.889 41.044 151.505 41.008 151.073 40.888C150.641 40.768 150.137 40.648 149.561 40.528C148.985 40.384 148.313 40.312 147.545 40.312C146.513 40.312 145.649 40.312 144.953 40.312C144.257 40.312 143.609 40.312 143.009 40.312C142.409 40.312 141.749 40.312 141.029 40.312C140.501 40.312 140.093 40.156 139.805 39.844C139.541 39.508 139.409 39.124 139.409 38.692C139.409 38.26 139.541 37.888 139.805 37.576C140.093 37.24 140.501 37.072 141.029 37.072ZM158.08 37.072C158.8 37.072 159.532 37.072 160.276 37.072C161.02 37.072 161.752 37.072 162.472 37.072C163.192 37.072 163.864 37.072 164.488 37.072C165.112 37.072 165.652 37.072 166.108 37.072C166.588 37.072 167.056 37.072 167.512 37.072C167.992 37.072 168.532 37.072 169.132 37.072C169.492 37.072 169.804 37.132 170.068 37.252C170.332 37.372 170.536 37.54 170.68 37.756C170.848 37.972 170.944 38.224 170.968 38.512C171.016 38.776 170.98 39.064 170.86 39.376C170.764 39.688 170.584 40 170.32 40.312C169.888 40.816 169.444 41.332 168.988 41.86C168.556 42.364 168.136 42.856 167.728 43.336C167.344 43.792 166.984 44.224 166.648 44.632C166.312 45.016 165.916 45.496 165.46 46.072C165.004 46.624 164.536 47.188 164.056 47.764C163.6 48.316 163.204 48.784 162.868 49.168C162.628 49.456 162.424 49.696 162.256 49.888C162.088 50.08 161.944 50.248 161.824 50.392C161.704 50.512 161.584 50.632 161.464 50.752C161.368 50.872 161.248 51.016 161.104 51.184C160.984 51.304 160.888 51.412 160.816 51.508C160.744 51.58 160.696 51.64 160.672 51.688C160.672 51.712 160.696 51.736 160.744 51.76C160.792 51.76 160.864 51.76 160.96 51.76C161.08 51.76 161.236 51.76 161.428 51.76C161.668 51.76 161.86 51.76 162.004 51.76C162.172 51.76 162.34 51.76 162.508 51.76C162.7 51.76 162.916 51.76 163.156 51.76C163.42 51.76 163.768 51.76 164.2 51.76C164.776 51.76 165.268 51.76 165.676 51.76C166.084 51.76 166.528 51.76 167.008 51.76C167.488 51.76 168.088 51.76 168.808 51.76C169.36 51.76 169.768 51.928 170.032 52.264C170.32 52.576 170.464 52.948 170.464 53.38C170.464 53.812 170.32 54.196 170.032 54.532C169.768 54.844 169.36 55 168.808 55C168.064 55 167.392 55 166.792 55C166.216 55 165.664 55 165.136 55C164.632 55 164.128 55 163.624 55C163.24 55 162.808 55 162.328 55C161.872 55 161.392 55 160.888 55C160.384 55 159.88 55 159.376 55C158.872 55 158.392 55 157.936 55C157.576 55 157.264 54.928 157 54.784C156.736 54.64 156.532 54.448 156.388 54.208C156.244 53.968 156.16 53.704 156.136 53.416C156.112 53.104 156.16 52.792 156.28 52.48C156.4 52.144 156.58 51.82 156.82 51.508C157.252 51.004 157.672 50.488 158.08 49.96C158.512 49.432 158.92 48.916 159.304 48.412C159.712 47.908 160.084 47.464 160.42 47.08C160.756 46.672 161.116 46.24 161.5 45.784C161.908 45.304 162.4 44.728 162.976 44.056C163.552 43.36 164.272 42.508 165.136 41.5C165.784 40.732 166.276 40.072 166.612 39.52C166.948 38.968 167.212 38.512 167.404 38.152C167.62 37.792 167.848 37.528 168.088 37.36C168.328 37.168 168.676 37.072 169.132 37.072C169.492 37.072 169.804 37.132 170.068 37.252C170.332 37.372 170.536 37.54 170.68 37.756C170.848 37.972 170.944 38.224 170.968 38.512C171.016 38.776 170.98 39.064 170.86 39.376C170.764 39.688 170.584 40 170.32 40.312C169.984 40.696 169.636 40.924 169.276 40.996C168.94 41.044 168.556 41.008 168.124 40.888C167.692 40.768 167.188 40.648 166.612 40.528C166.036 40.384 165.364 40.312 164.596 40.312C163.564 40.312 162.7 40.312 162.004 40.312C161.308 40.312 160.66 40.312 160.06 40.312C159.46 40.312 158.8 40.312 158.08 40.312C157.552 40.312 157.144 40.156 156.856 39.844C156.592 39.508 156.46 39.124 156.46 38.692C156.46 38.26 156.592 37.888 156.856 37.576C157.144 37.24 157.552 37.072 158.08 37.072Z" fill="#F4364C"/>
</g>
<g filter="url(#filter3_f_3_60)">
<path d="M44.868 55C44.244 55 43.548 55 42.78 55C42.036 55 41.22 55 40.332 55C39.444 55 38.484 55 37.452 55C36.372 55 35.52 54.916 34.896 54.748C34.272 54.556 33.816 54.232 33.528 53.776C33.24 53.32 33.06 52.66 32.988 51.796C32.916 50.932 32.88 49.816 32.88 48.448C32.88 46.984 32.88 45.544 32.88 44.128C32.88 42.712 32.88 41.344 32.88 40.024C32.88 38.68 32.88 37.432 32.88 36.28C32.88 35.776 32.88 35.308 32.88 34.876C32.88 34.42 32.88 33.952 32.88 33.472C32.88 32.992 32.88 32.488 32.88 31.96C32.88 31.36 33.036 30.916 33.348 30.628C33.684 30.316 34.068 30.16 34.5 30.16C34.932 30.16 35.304 30.316 35.616 30.628C35.952 30.916 36.12 31.36 36.12 31.96C36.12 32.488 36.12 32.98 36.12 33.436C36.12 33.892 36.12 34.348 36.12 34.804C36.12 35.26 36.12 35.752 36.12 36.28C36.12 37.12 36.12 37.972 36.12 38.836C36.12 39.7 36.12 40.6 36.12 41.536C36.12 42.448 36.12 43.42 36.12 44.452C36.12 45.46 36.12 46.54 36.12 47.692C36.12 48.7 36.12 49.48 36.12 50.032C36.12 50.584 36.168 50.992 36.264 51.256C36.36 51.496 36.552 51.64 36.84 51.688C37.128 51.736 37.56 51.76 38.136 51.76C38.712 51.76 39.264 51.76 39.792 51.76C40.32 51.76 40.848 51.76 41.376 51.76C41.928 51.76 42.492 51.76 43.068 51.76C43.644 51.76 44.244 51.76 44.868 51.76C45.468 51.76 45.912 51.928 46.2 52.264C46.512 52.576 46.668 52.948 46.668 53.38C46.668 53.812 46.512 54.196 46.2 54.532C45.912 54.844 45.468 55 44.868 55ZM50.4497 53.56C50.4497 53.056 50.4497 52.54 50.4497 52.012C50.4497 51.484 50.4497 50.98 50.4497 50.5C50.4497 49.996 50.4497 49.516 50.4497 49.06C50.4497 48.244 50.4497 47.536 50.4497 46.936C50.4497 46.336 50.4497 45.736 50.4497 45.136C50.4497 44.536 50.4497 43.828 50.4497 43.012C50.4497 42.556 50.4497 42.1 50.4497 41.644C50.4497 41.188 50.4497 40.708 50.4497 40.204C50.4497 39.676 50.4497 39.112 50.4497 38.512C50.4497 37.912 50.6057 37.468 50.9177 37.18C51.2537 36.868 51.6377 36.712 52.0697 36.712C52.5017 36.712 52.8737 36.868 53.1857 37.18C53.5217 37.468 53.6897 37.912 53.6897 38.512C53.6897 39.136 53.6897 39.688 53.6897 40.168C53.6897 40.624 53.6897 41.08 53.6897 41.536C53.6897 41.968 53.6897 42.46 53.6897 43.012C53.6897 43.564 53.6897 44.212 53.6897 44.956C53.6897 45.676 53.6897 46.408 53.6897 47.152C53.6897 47.872 53.6897 48.508 53.6897 49.06C53.6897 49.612 53.6897 50.128 53.6897 50.608C53.6897 51.088 53.6897 51.568 53.6897 52.048C53.6897 52.504 53.6897 53.008 53.6897 53.56C53.6897 54.16 53.5217 54.616 53.1857 54.928C52.8737 55.24 52.5017 55.396 52.0697 55.396C51.6377 55.396 51.2537 55.252 50.9177 54.964C50.6057 54.652 50.4497 54.184 50.4497 53.56ZM50.4497 32.104C50.4497 31.84 50.4497 31.624 50.4497 31.456C50.4497 31.288 50.4497 31.12 50.4497 30.952C50.4497 30.784 50.4497 30.58 50.4497 30.34C50.4497 29.788 50.6057 29.38 50.9177 29.116C51.2537 28.828 51.6377 28.684 52.0697 28.684C52.5017 28.684 52.8737 28.828 53.1857 29.116C53.5217 29.38 53.6897 29.788 53.6897 30.34C53.6897 30.58 53.6897 30.784 53.6897 30.952C53.6897 31.12 53.6897 31.288 53.6897 31.456C53.6897 31.624 53.6897 31.84 53.6897 32.104C53.6897 32.656 53.5217 33.076 53.1857 33.364C52.8737 33.628 52.5017 33.76 52.0697 33.76C51.6377 33.76 51.2537 33.628 50.9177 33.364C50.6057 33.076 50.4497 32.656 50.4497 32.104ZM60.0777 37.936C60.3657 38.68 60.6177 39.352 60.8337 39.952C61.0497 40.528 61.2657 41.092 61.4817 41.644C61.6977 42.196 61.9377 42.808 62.2017 43.48C62.4897 44.176 62.7537 44.848 62.9937 45.496C63.2337 46.144 63.4857 46.804 63.7497 47.476C64.0137 48.124 64.2897 48.82 64.5777 49.564C64.7217 49.9 64.8297 50.152 64.9017 50.32C64.9737 50.488 65.0337 50.572 65.0817 50.572C65.1297 50.572 65.1897 50.488 65.2617 50.32C65.3337 50.152 65.4297 49.912 65.5497 49.6C65.8617 48.856 66.1497 48.136 66.4137 47.44C66.7017 46.744 66.9777 46.048 67.2417 45.352C67.5297 44.632 67.8057 43.912 68.0697 43.192C68.3097 42.568 68.5377 41.992 68.7537 41.464C68.9697 40.936 69.1857 40.396 69.4017 39.844C69.6177 39.268 69.8337 38.644 70.0497 37.972C70.2417 37.396 70.5417 37.024 70.9497 36.856C71.3577 36.688 71.7657 36.676 72.1737 36.82C72.6057 36.94 72.9177 37.204 73.1097 37.612C73.3257 37.996 73.3377 38.476 73.1457 39.052C72.9057 39.748 72.6657 40.384 72.4257 40.96C72.2097 41.512 71.9937 42.064 71.7777 42.616C71.5617 43.144 71.3217 43.744 71.0577 44.416C70.8417 44.944 70.6257 45.484 70.4097 46.036C70.2177 46.564 69.9897 47.14 69.7257 47.764C69.4857 48.388 69.2097 49.096 68.8977 49.888C68.6097 50.656 68.2737 51.544 67.8897 52.552C67.5297 53.488 67.1097 54.196 66.6297 54.676C66.1737 55.132 65.6817 55.36 65.1537 55.36C64.6497 55.384 64.1577 55.168 63.6777 54.712C63.1977 54.256 62.7657 53.56 62.3817 52.624C61.8057 51.28 61.3257 50.152 60.9417 49.24C60.5817 48.304 60.2697 47.488 60.0057 46.792C59.7417 46.096 59.4657 45.4 59.1777 44.704C58.9137 44.008 58.6737 43.384 58.4577 42.832C58.2417 42.256 58.0257 41.68 57.8097 41.104C57.5937 40.504 57.3417 39.832 57.0537 39.088C56.8377 38.512 56.8257 38.032 57.0177 37.648C57.2097 37.24 57.5097 36.964 57.9177 36.82C58.3257 36.652 58.7337 36.652 59.1417 36.82C59.5497 36.988 59.8617 37.36 60.0777 37.936ZM79.6434 44.416C80.3394 44.416 81.0834 44.416 81.8754 44.416C82.6674 44.416 83.4714 44.416 84.2874 44.416C85.1274 44.416 85.9434 44.416 86.7354 44.416C87.0234 44.416 87.2754 44.428 87.4914 44.452C87.7314 44.452 87.9114 44.44 88.0314 44.416C88.1754 44.368 88.2714 44.296 88.3194 44.2C88.3914 44.104 88.4034 43.936 88.3554 43.696C88.1874 42.928 87.8874 42.268 87.4554 41.716C87.0474 41.14 86.5194 40.708 85.8714 40.42C85.2234 40.108 84.4914 39.952 83.6754 39.952C82.5954 39.952 81.6354 40.204 80.7954 40.708C79.9794 41.212 79.3314 41.932 78.8514 42.868C78.3954 43.78 78.1674 44.848 78.1674 46.072C78.1674 47.368 78.4194 48.472 78.9234 49.384C79.4274 50.296 80.1114 50.992 80.9754 51.472C81.8634 51.928 82.8714 52.156 83.9994 52.156C84.5034 52.156 85.0314 52.108 85.5834 52.012C86.1354 51.892 86.6874 51.724 87.2394 51.508C87.8154 51.292 88.3914 51.028 88.9674 50.716C89.4954 50.404 89.9634 50.32 90.3714 50.464C90.8034 50.608 91.1274 50.872 91.3434 51.256C91.5594 51.616 91.6074 52.012 91.4874 52.444C91.3914 52.876 91.0794 53.236 90.5514 53.524C89.8074 53.956 89.0634 54.316 88.3194 54.604C87.5754 54.868 86.8314 55.06 86.0874 55.18C85.3674 55.324 84.6714 55.396 83.9994 55.396C82.3194 55.396 80.7954 55.024 79.4274 54.28C78.0594 53.536 76.9674 52.468 76.1514 51.076C75.3354 49.684 74.9274 48.016 74.9274 46.072C74.9274 44.2 75.3114 42.568 76.0794 41.176C76.8474 39.76 77.8914 38.668 79.2114 37.9C80.5314 37.108 82.0194 36.712 83.6754 36.712C84.9954 36.712 86.2074 36.976 87.3114 37.504C88.4154 38.032 89.3274 38.776 90.0474 39.736C90.7914 40.672 91.2834 41.8 91.5234 43.12C91.6674 43.864 91.6914 44.524 91.5954 45.1C91.4994 45.676 91.2594 46.156 90.8754 46.54C90.4914 46.9 89.9514 47.176 89.2554 47.368C88.5834 47.56 87.7434 47.656 86.7354 47.656C85.9674 47.656 85.2594 47.656 84.6114 47.656C83.9634 47.656 83.3514 47.656 82.7754 47.656C82.2234 47.656 81.6834 47.656 81.1554 47.656C80.6514 47.656 80.1474 47.656 79.6434 47.656C79.0434 47.656 78.5874 47.5 78.2754 47.188C77.9634 46.852 77.8074 46.468 77.8074 46.036C77.8074 45.604 77.9634 45.232 78.2754 44.92C78.5874 44.584 79.0434 44.416 79.6434 44.416ZM103.968 50.932C104.736 51.292 105.42 51.556 106.02 51.724C106.644 51.868 107.22 51.94 107.748 51.94C108.516 51.94 109.164 51.772 109.692 51.436C110.22 51.1 110.616 50.62 110.88 49.996C111.168 49.348 111.312 48.568 111.312 47.656C111.312 46.696 111.312 45.712 111.312 44.704C111.312 43.696 111.312 42.652 111.312 41.572C111.312 40.492 111.312 39.376 111.312 38.224C111.312 37.504 111.312 36.808 111.312 36.136C111.312 35.44 111.312 34.756 111.312 34.084C111.312 33.412 111.312 32.704 111.312 31.96C111.312 31.36 111.468 30.916 111.78 30.628C112.116 30.316 112.5 30.16 112.932 30.16C113.364 30.16 113.736 30.316 114.048 30.628C114.384 30.916 114.552 31.36 114.552 31.96C114.552 32.512 114.552 33.028 114.552 33.508C114.552 33.988 114.552 34.468 114.552 34.948C114.552 35.428 114.552 35.944 114.552 36.496C114.552 37.024 114.552 37.6 114.552 38.224C114.552 39.184 114.552 40.12 114.552 41.032C114.552 41.92 114.552 42.892 114.552 43.948C114.552 45.004 114.552 46.24 114.552 47.656C114.552 49.24 114.264 50.596 113.688 51.724C113.112 52.828 112.308 53.68 111.276 54.28C110.244 54.88 109.068 55.18 107.748 55.18C107.004 55.18 106.212 55.084 105.372 54.892C104.556 54.7 103.692 54.388 102.78 53.956C102.228 53.692 101.88 53.344 101.736 52.912C101.592 52.48 101.604 52.072 101.772 51.688C101.964 51.28 102.252 50.992 102.636 50.824C103.02 50.656 103.464 50.692 103.968 50.932ZM135.45 38.728C135.45 39.352 135.45 39.928 135.45 40.456C135.45 40.984 135.45 41.548 135.45 42.148C135.45 42.724 135.45 43.396 135.45 44.164C135.45 44.908 135.45 45.796 135.45 46.828C135.45 48.196 135.234 49.408 134.802 50.464C134.37 51.52 133.758 52.42 132.966 53.164C132.198 53.884 131.286 54.436 130.23 54.82C129.198 55.204 128.07 55.396 126.846 55.396C125.622 55.396 124.482 55.168 123.426 54.712C122.37 54.256 121.446 53.608 120.654 52.768C119.862 51.928 119.25 50.944 118.818 49.816C118.386 48.664 118.17 47.404 118.17 46.036C118.17 44.212 118.542 42.604 119.286 41.212C120.054 39.796 121.086 38.692 122.382 37.9C123.702 37.108 125.178 36.712 126.81 36.712C128.034 36.712 129.162 36.94 130.194 37.396C131.25 37.828 132.162 38.464 132.93 39.304C133.722 40.12 134.334 41.092 134.766 42.22C135.222 43.348 135.45 44.596 135.45 45.964C135.45 46.516 135.45 47.056 135.45 47.584C135.45 48.088 135.45 48.58 135.45 49.06C135.45 49.516 135.45 49.948 135.45 50.356C135.45 51.004 135.45 51.604 135.45 52.156C135.45 52.708 135.45 53.308 135.45 53.956C135.45 54.556 135.282 55.012 134.946 55.324C134.634 55.636 134.262 55.792 133.83 55.792C133.398 55.792 133.014 55.636 132.678 55.324C132.366 55.012 132.21 54.556 132.21 53.956C132.21 53.572 132.21 53.176 132.21 52.768C132.21 52.36 132.21 51.964 132.21 51.58C132.21 51.172 132.21 50.764 132.21 50.356C132.21 50.092 132.21 49.684 132.21 49.132C132.21 48.556 132.21 47.98 132.21 47.404C132.21 46.804 132.21 46.324 132.21 45.964C132.21 44.788 131.982 43.744 131.526 42.832C131.07 41.92 130.434 41.212 129.618 40.708C128.802 40.204 127.866 39.952 126.81 39.952C126.018 39.952 125.286 40.108 124.614 40.42C123.942 40.708 123.366 41.128 122.886 41.68C122.43 42.208 122.07 42.844 121.806 43.588C121.542 44.332 121.41 45.148 121.41 46.036C121.41 46.924 121.542 47.74 121.806 48.484C122.07 49.228 122.442 49.876 122.922 50.428C123.402 50.98 123.978 51.412 124.65 51.724C125.322 52.012 126.054 52.156 126.846 52.156C127.638 52.156 128.358 52.048 129.006 51.832C129.678 51.616 130.254 51.292 130.734 50.86C131.214 50.404 131.574 49.84 131.814 49.168C132.078 48.496 132.21 47.716 132.21 46.828C132.21 46.132 132.21 45.4 132.21 44.632C132.21 43.864 132.21 43.108 132.21 42.364C132.21 41.62 132.21 40.936 132.21 40.312C132.21 39.664 132.21 39.136 132.21 38.728C132.21 38.128 132.366 37.672 132.678 37.36C133.014 37.048 133.398 36.892 133.83 36.892C134.262 36.892 134.634 37.048 134.946 37.36C135.282 37.672 135.45 38.128 135.45 38.728ZM141.029 37.072C141.749 37.072 142.481 37.072 143.225 37.072C143.969 37.072 144.701 37.072 145.421 37.072C146.141 37.072 146.813 37.072 147.437 37.072C148.061 37.072 148.601 37.072 149.057 37.072C149.537 37.072 150.005 37.072 150.461 37.072C150.941 37.072 151.481 37.072 152.081 37.072C152.441 37.072 152.753 37.132 153.017 37.252C153.281 37.372 153.485 37.54 153.629 37.756C153.797 37.972 153.893 38.224 153.917 38.512C153.965 38.776 153.929 39.064 153.809 39.376C153.713 39.688 153.533 40 153.269 40.312C152.837 40.816 152.393 41.332 151.937 41.86C151.505 42.364 151.085 42.856 150.677 43.336C150.293 43.792 149.933 44.224 149.597 44.632C149.261 45.016 148.865 45.496 148.409 46.072C147.953 46.624 147.485 47.188 147.005 47.764C146.549 48.316 146.153 48.784 145.817 49.168C145.577 49.456 145.373 49.696 145.205 49.888C145.037 50.08 144.893 50.248 144.773 50.392C144.653 50.512 144.533 50.632 144.413 50.752C144.317 50.872 144.197 51.016 144.053 51.184C143.933 51.304 143.837 51.412 143.765 51.508C143.693 51.58 143.645 51.64 143.621 51.688C143.621 51.712 143.645 51.736 143.693 51.76C143.741 51.76 143.813 51.76 143.909 51.76C144.029 51.76 144.185 51.76 144.377 51.76C144.617 51.76 144.809 51.76 144.953 51.76C145.121 51.76 145.289 51.76 145.457 51.76C145.649 51.76 145.865 51.76 146.105 51.76C146.369 51.76 146.717 51.76 147.149 51.76C147.725 51.76 148.217 51.76 148.625 51.76C149.033 51.76 149.477 51.76 149.957 51.76C150.437 51.76 151.037 51.76 151.757 51.76C152.309 51.76 152.717 51.928 152.981 52.264C153.269 52.576 153.413 52.948 153.413 53.38C153.413 53.812 153.269 54.196 152.981 54.532C152.717 54.844 152.309 55 151.757 55C151.013 55 150.341 55 149.741 55C149.165 55 148.613 55 148.085 55C147.581 55 147.077 55 146.573 55C146.189 55 145.757 55 145.277 55C144.821 55 144.341 55 143.837 55C143.333 55 142.829 55 142.325 55C141.821 55 141.341 55 140.885 55C140.525 55 140.213 54.928 139.949 54.784C139.685 54.64 139.481 54.448 139.337 54.208C139.193 53.968 139.109 53.704 139.085 53.416C139.061 53.104 139.109 52.792 139.229 52.48C139.349 52.144 139.529 51.82 139.769 51.508C140.201 51.004 140.621 50.488 141.029 49.96C141.461 49.432 141.869 48.916 142.253 48.412C142.661 47.908 143.033 47.464 143.369 47.08C143.705 46.672 144.065 46.24 144.449 45.784C144.857 45.304 145.349 44.728 145.925 44.056C146.501 43.36 147.221 42.508 148.085 41.5C148.733 40.732 149.225 40.072 149.561 39.52C149.897 38.968 150.161 38.512 150.353 38.152C150.569 37.792 150.797 37.528 151.037 37.36C151.277 37.168 151.625 37.072 152.081 37.072C152.441 37.072 152.753 37.132 153.017 37.252C153.281 37.372 153.485 37.54 153.629 37.756C153.797 37.972 153.893 38.224 153.917 38.512C153.965 38.776 153.929 39.064 153.809 39.376C153.713 39.688 153.533 40 153.269 40.312C152.933 40.696 152.585 40.924 152.225 40.996C151.889 41.044 151.505 41.008 151.073 40.888C150.641 40.768 150.137 40.648 149.561 40.528C148.985 40.384 148.313 40.312 147.545 40.312C146.513 40.312 145.649 40.312 144.953 40.312C144.257 40.312 143.609 40.312 143.009 40.312C142.409 40.312 141.749 40.312 141.029 40.312C140.501 40.312 140.093 40.156 139.805 39.844C139.541 39.508 139.409 39.124 139.409 38.692C139.409 38.26 139.541 37.888 139.805 37.576C140.093 37.24 140.501 37.072 141.029 37.072ZM158.08 37.072C158.8 37.072 159.532 37.072 160.276 37.072C161.02 37.072 161.752 37.072 162.472 37.072C163.192 37.072 163.864 37.072 164.488 37.072C165.112 37.072 165.652 37.072 166.108 37.072C166.588 37.072 167.056 37.072 167.512 37.072C167.992 37.072 168.532 37.072 169.132 37.072C169.492 37.072 169.804 37.132 170.068 37.252C170.332 37.372 170.536 37.54 170.68 37.756C170.848 37.972 170.944 38.224 170.968 38.512C171.016 38.776 170.98 39.064 170.86 39.376C170.764 39.688 170.584 40 170.32 40.312C169.888 40.816 169.444 41.332 168.988 41.86C168.556 42.364 168.136 42.856 167.728 43.336C167.344 43.792 166.984 44.224 166.648 44.632C166.312 45.016 165.916 45.496 165.46 46.072C165.004 46.624 164.536 47.188 164.056 47.764C163.6 48.316 163.204 48.784 162.868 49.168C162.628 49.456 162.424 49.696 162.256 49.888C162.088 50.08 161.944 50.248 161.824 50.392C161.704 50.512 161.584 50.632 161.464 50.752C161.368 50.872 161.248 51.016 161.104 51.184C160.984 51.304 160.888 51.412 160.816 51.508C160.744 51.58 160.696 51.64 160.672 51.688C160.672 51.712 160.696 51.736 160.744 51.76C160.792 51.76 160.864 51.76 160.96 51.76C161.08 51.76 161.236 51.76 161.428 51.76C161.668 51.76 161.86 51.76 162.004 51.76C162.172 51.76 162.34 51.76 162.508 51.76C162.7 51.76 162.916 51.76 163.156 51.76C163.42 51.76 163.768 51.76 164.2 51.76C164.776 51.76 165.268 51.76 165.676 51.76C166.084 51.76 166.528 51.76 167.008 51.76C167.488 51.76 168.088 51.76 168.808 51.76C169.36 51.76 169.768 51.928 170.032 52.264C170.32 52.576 170.464 52.948 170.464 53.38C170.464 53.812 170.32 54.196 170.032 54.532C169.768 54.844 169.36 55 168.808 55C168.064 55 167.392 55 166.792 55C166.216 55 165.664 55 165.136 55C164.632 55 164.128 55 163.624 55C163.24 55 162.808 55 162.328 55C161.872 55 161.392 55 160.888 55C160.384 55 159.88 55 159.376 55C158.872 55 158.392 55 157.936 55C157.576 55 157.264 54.928 157 54.784C156.736 54.64 156.532 54.448 156.388 54.208C156.244 53.968 156.16 53.704 156.136 53.416C156.112 53.104 156.16 52.792 156.28 52.48C156.4 52.144 156.58 51.82 156.82 51.508C157.252 51.004 157.672 50.488 158.08 49.96C158.512 49.432 158.92 48.916 159.304 48.412C159.712 47.908 160.084 47.464 160.42 47.08C160.756 46.672 161.116 46.24 161.5 45.784C161.908 45.304 162.4 44.728 162.976 44.056C163.552 43.36 164.272 42.508 165.136 41.5C165.784 40.732 166.276 40.072 166.612 39.52C166.948 38.968 167.212 38.512 167.404 38.152C167.62 37.792 167.848 37.528 168.088 37.36C168.328 37.168 168.676 37.072 169.132 37.072C169.492 37.072 169.804 37.132 170.068 37.252C170.332 37.372 170.536 37.54 170.68 37.756C170.848 37.972 170.944 38.224 170.968 38.512C171.016 38.776 170.98 39.064 170.86 39.376C170.764 39.688 170.584 40 170.32 40.312C169.984 40.696 169.636 40.924 169.276 40.996C168.94 41.044 168.556 41.008 168.124 40.888C167.692 40.768 167.188 40.648 166.612 40.528C166.036 40.384 165.364 40.312 164.596 40.312C163.564 40.312 162.7 40.312 162.004 40.312C161.308 40.312 160.66 40.312 160.06 40.312C159.46 40.312 158.8 40.312 158.08 40.312C157.552 40.312 157.144 40.156 156.856 39.844C156.592 39.508 156.46 39.124 156.46 38.692C156.46 38.26 156.592 37.888 156.856 37.576C157.144 37.24 157.552 37.072 158.08 37.072Z" fill="#F4364C"/>
</g>
</g>
<defs>
<filter id="filter0_f_3_60" x="22.88" y="18.684" width="158.16" height="47.108" filterUnits="userSpaceOnUse" color-interpolation-filters="sRGB">
<feFlood flood-opacity="0" result="BackgroundImageFix"/>
<feBlend mode="normal" in="SourceGraphic" in2="BackgroundImageFix" result="shape"/>
<feGaussianBlur stdDeviation="5" result="effect1_foregroundBlur_3_60"/>
</filter>
<filter id="filter1_f_3_60" x="17.88" y="13.684" width="168.16" height="57.108" filterUnits="userSpaceOnUse" color-interpolation-filters="sRGB">
<feFlood flood-opacity="0" result="BackgroundImageFix"/>
<feBlend mode="normal" in="SourceGraphic" in2="BackgroundImageFix" result="shape"/>
<feGaussianBlur stdDeviation="7.5" result="effect1_foregroundBlur_3_60"/>
</filter>
<filter id="filter2_f_3_60" x="7.88" y="3.684" width="188.16" height="77.108" filterUnits="userSpaceOnUse" color-interpolation-filters="sRGB">
<feFlood flood-opacity="0" result="BackgroundImageFix"/>
<feBlend mode="normal" in="SourceGraphic" in2="BackgroundImageFix" result="shape"/>
<feGaussianBlur stdDeviation="12.5" result="effect1_foregroundBlur_3_60"/>
</filter>
<filter id="filter3_f_3_60" x="-7.12" y="-11.316" width="218.16" height="107.108" filterUnits="userSpaceOnUse" color-interpolation-filters="sRGB">
<feFlood flood-opacity="0" result="BackgroundImageFix"/>
<feBlend mode="normal" in="SourceGraphic" in2="BackgroundImageFix" result="shape"/>
<feGaussianBlur stdDeviation="20" result="effect1_foregroundBlur_3_60"/>
</filter>
<clipPath id="clip0_3_60">
<rect width="202" height="85" fill="white"/>
</clipPath>
</defs>
</svg>
