<svg width="400" height="100" viewBox="0 0 400 100" fill="none" xmlns="http://www.w3.org/2000/svg">
<path d="M68.927 32.133C68.137 27.43 64.348 25.532 61.019 26.093C58.096 26.582 55.284 29.098 56.014 33.467L57.81 44.207C53.743 47.701 49.988 51.542 50.82 56.492C51.528 60.729 54.995 63.291 59.723 63.291C60.137 63.291 60.562 63.266 60.994 63.226L62.048 69.515C62.237 70.659 61.457 71.748 60.315 71.942L59.885 72.012C58.749 72.206 57.647 71.428 57.454 70.269C57.434 70.158 57.432 70.046 57.432 69.936C57.432 68.899 58.168 68.025 59.216 67.853L59.41 67.814C59.952 67.707 60.305 67.18 60.196 66.638C60.09 66.096 59.562 65.742 59.021 65.852L58.859 65.885C56.873 66.211 55.431 67.915 55.431 69.936C55.431 70.167 55.444 70.398 55.484 70.613C55.817 72.616 57.563 74.042 59.535 74.042C59.758 74.042 59.982 74.024 60.209 73.986L60.643 73.915C62.874 73.537 64.39 71.416 64.021 69.186L62.964 62.875C64.594 62.399 66.508 61.341 67.829 59.501C69.089 57.749 69.549 55.599 69.161 53.285C68.741 50.776 67.104 49.05 64.787 48.67C63.272 48.413 61.666 48.811 60.603 49.705C59.795 50.385 59.348 51.308 59.344 52.303C59.337 53.872 59.988 54.786 60.535 55.278C61.914 56.513 63.904 56.328 64.127 56.303C64.674 56.241 65.065 55.749 65.005 55.201C64.945 54.654 64.455 54.256 63.905 54.315C63.54 54.353 62.467 54.329 61.865 53.784C61.511 53.464 61.341 52.982 61.344 52.312C61.346 51.902 61.53 51.54 61.891 51.236C62.507 50.717 63.518 50.484 64.458 50.643C65.148 50.756 66.796 51.273 67.187 53.616C67.49 55.418 67.159 57.006 66.204 58.335C65.239 59.678 63.83 60.491 62.63 60.888L62.064 57.512C61.973 56.968 61.457 56.601 60.913 56.69C60.369 56.781 60.001 57.296 60.092 57.841L60.662 61.243C57.061 61.504 53.449 60.088 52.792 56.161C52.186 52.556 54.942 49.42 58.199 46.522L58.516 48.406C58.607 48.95 59.122 49.317 59.668 49.226C60.213 49.134 60.58 48.618 60.488 48.074L59.969 44.995C60.27 44.742 60.572 44.489 60.873 44.236C65.217 40.601 69.708 36.842 68.925 32.132L68.927 32.133ZM59.592 42.703C59.592 42.703 59.589 42.706 59.587 42.707L57.986 33.137C57.479 30.108 59.31 28.408 61.348 28.066C61.614 28.022 61.885 27.999 62.159 27.999C64.235 27.999 66.426 29.313 66.954 32.463C67.55 36.044 63.683 39.279 59.592 42.704V42.703Z" fill="#FA5D6F"/>
<path d="M89 34.333H73.444C72.891 34.333 72.444 34.781 72.444 35.333C72.444 35.885 72.891 36.333 73.444 36.333H89C89.553 36.333 90 35.885 90 35.333C90 34.781 89.553 34.333 89 34.333Z" fill="#FA5D6F"/>
<path d="M89 41.963H67.723C67.17 41.963 66.723 42.411 66.723 42.963C66.723 43.515 67.17 43.963 67.723 43.963H89C89.553 43.963 90 43.515 90 42.963C90 42.411 89.553 41.963 89 41.963Z" fill="#FA5D6F"/>
<path d="M89 49.593H73.444C72.891 49.593 72.444 50.041 72.444 50.593C72.444 51.145 72.891 51.593 73.444 51.593H89C89.553 51.593 90 51.145 90 50.593C90 50.041 89.553 49.593 89 49.593Z" fill="#FA5D6F"/>
<path d="M89 57.222H73.444C72.891 57.222 72.444 57.67 72.444 58.222C72.444 58.774 72.891 59.222 73.444 59.222H89C89.553 59.222 90 58.774 90 58.222C90 57.67 89.553 57.222 89 57.222Z" fill="#FA5D6F"/>
<path d="M31 36.333H51.111C51.664 36.333 52.111 35.885 52.111 35.333C52.111 34.781 51.664 34.333 51.111 34.333H31C30.447 34.333 30 34.781 30 35.333C30 35.885 30.447 36.333 31 36.333Z" fill="#FA5D6F"/>
<path d="M31 43.963H51.111C51.664 43.963 52.111 43.515 52.111 42.963C52.111 42.411 51.664 41.963 51.111 41.963H31C30.447 41.963 30 42.411 30 42.963C30 43.515 30.447 43.963 31 43.963Z" fill="#FA5D6F"/>
<path d="M31 51.593H46.556C47.109 51.593 47.556 51.145 47.556 50.593C47.556 50.041 47.109 49.593 46.556 49.593H31C30.447 49.593 30 50.041 30 50.593C30 51.145 30.447 51.593 31 51.593Z" fill="#FA5D6F"/>
<path d="M31 59.222H46.556C47.109 59.222 47.556 58.774 47.556 58.222C47.556 57.67 47.109 57.222 46.556 57.222H31C30.447 57.222 30 57.67 30 58.222C30 58.774 30.447 59.222 31 59.222Z" fill="#FA5D6F"/>
<path d="M119.868 59C119.244 59 118.548 59 117.78 59C117.036 59 116.22 59 115.332 59C114.444 59 113.484 59 112.452 59C111.372 59 110.52 58.916 109.896 58.748C109.272 58.556 108.816 58.232 108.528 57.776C108.24 57.32 108.06 56.66 107.988 55.796C107.916 54.932 107.88 53.816 107.88 52.448C107.88 50.984 107.88 49.544 107.88 48.128C107.88 46.712 107.88 45.344 107.88 44.024C107.88 42.68 107.88 41.432 107.88 40.28C107.88 39.776 107.88 39.308 107.88 38.876C107.88 38.42 107.88 37.952 107.88 37.472C107.88 36.992 107.88 36.488 107.88 35.96C107.88 35.36 108.036 34.916 108.348 34.628C108.684 34.316 109.068 34.16 109.5 34.16C109.932 34.16 110.304 34.316 110.616 34.628C110.952 34.916 111.12 35.36 111.12 35.96C111.12 36.488 111.12 36.98 111.12 37.436C111.12 37.892 111.12 38.348 111.12 38.804C111.12 39.26 111.12 39.752 111.12 40.28C111.12 41.12 111.12 41.972 111.12 42.836C111.12 43.7 111.12 44.6 111.12 45.536C111.12 46.448 111.12 47.42 111.12 48.452C111.12 49.46 111.12 50.54 111.12 51.692C111.12 52.7 111.12 53.48 111.12 54.032C111.12 54.584 111.168 54.992 111.264 55.256C111.36 55.496 111.552 55.64 111.84 55.688C112.128 55.736 112.56 55.76 113.136 55.76C113.712 55.76 114.264 55.76 114.792 55.76C115.32 55.76 115.848 55.76 116.376 55.76C116.928 55.76 117.492 55.76 118.068 55.76C118.644 55.76 119.244 55.76 119.868 55.76C120.468 55.76 120.912 55.928 121.2 56.264C121.512 56.576 121.668 56.948 121.668 57.38C121.668 57.812 121.512 58.196 121.2 58.532C120.912 58.844 120.468 59 119.868 59ZM125.45 57.56C125.45 57.056 125.45 56.54 125.45 56.012C125.45 55.484 125.45 54.98 125.45 54.5C125.45 53.996 125.45 53.516 125.45 53.06C125.45 52.244 125.45 51.536 125.45 50.936C125.45 50.336 125.45 49.736 125.45 49.136C125.45 48.536 125.45 47.828 125.45 47.012C125.45 46.556 125.45 46.1 125.45 45.644C125.45 45.188 125.45 44.708 125.45 44.204C125.45 43.676 125.45 43.112 125.45 42.512C125.45 41.912 125.606 41.468 125.918 41.18C126.254 40.868 126.638 40.712 127.07 40.712C127.502 40.712 127.874 40.868 128.186 41.18C128.522 41.468 128.69 41.912 128.69 42.512C128.69 43.136 128.69 43.688 128.69 44.168C128.69 44.624 128.69 45.08 128.69 45.536C128.69 45.968 128.69 46.46 128.69 47.012C128.69 47.564 128.69 48.212 128.69 48.956C128.69 49.676 128.69 50.408 128.69 51.152C128.69 51.872 128.69 52.508 128.69 53.06C128.69 53.612 128.69 54.128 128.69 54.608C128.69 55.088 128.69 55.568 128.69 56.048C128.69 56.504 128.69 57.008 128.69 57.56C128.69 58.16 128.522 58.616 128.186 58.928C127.874 59.24 127.502 59.396 127.07 59.396C126.638 59.396 126.254 59.252 125.918 58.964C125.606 58.652 125.45 58.184 125.45 57.56ZM125.45 36.104C125.45 35.84 125.45 35.624 125.45 35.456C125.45 35.288 125.45 35.12 125.45 34.952C125.45 34.784 125.45 34.58 125.45 34.34C125.45 33.788 125.606 33.38 125.918 33.116C126.254 32.828 126.638 32.684 127.07 32.684C127.502 32.684 127.874 32.828 128.186 33.116C128.522 33.38 128.69 33.788 128.69 34.34C128.69 34.58 128.69 34.784 128.69 34.952C128.69 35.12 128.69 35.288 128.69 35.456C128.69 35.624 128.69 35.84 128.69 36.104C128.69 36.656 128.522 37.076 128.186 37.364C127.874 37.628 127.502 37.76 127.07 37.76C126.638 37.76 126.254 37.628 125.918 37.364C125.606 37.076 125.45 36.656 125.45 36.104ZM135.078 41.936C135.366 42.68 135.618 43.352 135.834 43.952C136.05 44.528 136.266 45.092 136.482 45.644C136.698 46.196 136.938 46.808 137.202 47.48C137.49 48.176 137.754 48.848 137.994 49.496C138.234 50.144 138.486 50.804 138.75 51.476C139.014 52.124 139.29 52.82 139.578 53.564C139.722 53.9 139.83 54.152 139.902 54.32C139.974 54.488 140.034 54.572 140.082 54.572C140.13 54.572 140.19 54.488 140.262 54.32C140.334 54.152 140.43 53.912 140.55 53.6C140.862 52.856 141.15 52.136 141.414 51.44C141.702 50.744 141.978 50.048 142.242 49.352C142.53 48.632 142.806 47.912 143.07 47.192C143.31 46.568 143.538 45.992 143.754 45.464C143.97 44.936 144.186 44.396 144.402 43.844C144.618 43.268 144.834 42.644 145.05 41.972C145.242 41.396 145.542 41.024 145.95 40.856C146.358 40.688 146.766 40.676 147.174 40.82C147.606 40.94 147.918 41.204 148.11 41.612C148.326 41.996 148.338 42.476 148.146 43.052C147.906 43.748 147.666 44.384 147.426 44.96C147.21 45.512 146.994 46.064 146.778 46.616C146.562 47.144 146.322 47.744 146.058 48.416C145.842 48.944 145.626 49.484 145.41 50.036C145.218 50.564 144.99 51.14 144.726 51.764C144.486 52.388 144.21 53.096 143.898 53.888C143.61 54.656 143.274 55.544 142.89 56.552C142.53 57.488 142.11 58.196 141.63 58.676C141.174 59.132 140.682 59.36 140.154 59.36C139.65 59.384 139.158 59.168 138.678 58.712C138.198 58.256 137.766 57.56 137.382 56.624C136.806 55.28 136.326 54.152 135.942 53.24C135.582 52.304 135.27 51.488 135.006 50.792C134.742 50.096 134.466 49.4 134.178 48.704C133.914 48.008 133.674 47.384 133.458 46.832C133.242 46.256 133.026 45.68 132.81 45.104C132.594 44.504 132.342 43.832 132.054 43.088C131.838 42.512 131.826 42.032 132.018 41.648C132.21 41.24 132.51 40.964 132.918 40.82C133.326 40.652 133.734 40.652 134.142 40.82C134.55 40.988 134.862 41.36 135.078 41.936ZM154.643 48.416C155.339 48.416 156.083 48.416 156.875 48.416C157.667 48.416 158.471 48.416 159.287 48.416C160.127 48.416 160.943 48.416 161.735 48.416C162.023 48.416 162.275 48.428 162.491 48.452C162.731 48.452 162.911 48.44 163.031 48.416C163.175 48.368 163.271 48.296 163.319 48.2C163.391 48.104 163.403 47.936 163.355 47.696C163.187 46.928 162.887 46.268 162.455 45.716C162.047 45.14 161.519 44.708 160.871 44.42C160.223 44.108 159.491 43.952 158.675 43.952C157.595 43.952 156.635 44.204 155.795 44.708C154.979 45.212 154.331 45.932 153.851 46.868C153.395 47.78 153.167 48.848 153.167 50.072C153.167 51.368 153.419 52.472 153.923 53.384C154.427 54.296 155.111 54.992 155.975 55.472C156.863 55.928 157.871 56.156 158.999 56.156C159.503 56.156 160.031 56.108 160.583 56.012C161.135 55.892 161.687 55.724 162.239 55.508C162.815 55.292 163.391 55.028 163.967 54.716C164.495 54.404 164.963 54.32 165.371 54.464C165.803 54.608 166.127 54.872 166.343 55.256C166.559 55.616 166.607 56.012 166.487 56.444C166.391 56.876 166.079 57.236 165.551 57.524C164.807 57.956 164.063 58.316 163.319 58.604C162.575 58.868 161.831 59.06 161.087 59.18C160.367 59.324 159.671 59.396 158.999 59.396C157.319 59.396 155.795 59.024 154.427 58.28C153.059 57.536 151.967 56.468 151.151 55.076C150.335 53.684 149.927 52.016 149.927 50.072C149.927 48.2 150.311 46.568 151.079 45.176C151.847 43.76 152.891 42.668 154.211 41.9C155.531 41.108 157.019 40.712 158.675 40.712C159.995 40.712 161.207 40.976 162.311 41.504C163.415 42.032 164.327 42.776 165.047 43.736C165.791 44.672 166.283 45.8 166.523 47.12C166.667 47.864 166.691 48.524 166.595 49.1C166.499 49.676 166.259 50.156 165.875 50.54C165.491 50.9 164.951 51.176 164.255 51.368C163.583 51.56 162.743 51.656 161.735 51.656C160.967 51.656 160.259 51.656 159.611 51.656C158.963 51.656 158.351 51.656 157.775 51.656C157.223 51.656 156.683 51.656 156.155 51.656C155.651 51.656 155.147 51.656 154.643 51.656C154.043 51.656 153.587 51.5 153.275 51.188C152.963 50.852 152.807 50.468 152.807 50.036C152.807 49.604 152.963 49.232 153.275 48.92C153.587 48.584 154.043 48.416 154.643 48.416ZM178.968 54.932C179.736 55.292 180.42 55.556 181.02 55.724C181.644 55.868 182.22 55.94 182.748 55.94C183.516 55.94 184.164 55.772 184.692 55.436C185.22 55.1 185.616 54.62 185.88 53.996C186.168 53.348 186.312 52.568 186.312 51.656C186.312 50.696 186.312 49.712 186.312 48.704C186.312 47.696 186.312 46.652 186.312 45.572C186.312 44.492 186.312 43.376 186.312 42.224C186.312 41.504 186.312 40.808 186.312 40.136C186.312 39.44 186.312 38.756 186.312 38.084C186.312 37.412 186.312 36.704 186.312 35.96C186.312 35.36 186.468 34.916 186.78 34.628C187.116 34.316 187.5 34.16 187.932 34.16C188.364 34.16 188.736 34.316 189.048 34.628C189.384 34.916 189.552 35.36 189.552 35.96C189.552 36.512 189.552 37.028 189.552 37.508C189.552 37.988 189.552 38.468 189.552 38.948C189.552 39.428 189.552 39.944 189.552 40.496C189.552 41.024 189.552 41.6 189.552 42.224C189.552 43.184 189.552 44.12 189.552 45.032C189.552 45.92 189.552 46.892 189.552 47.948C189.552 49.004 189.552 50.24 189.552 51.656C189.552 53.24 189.264 54.596 188.688 55.724C188.112 56.828 187.308 57.68 186.276 58.28C185.244 58.88 184.068 59.18 182.748 59.18C182.004 59.18 181.212 59.084 180.372 58.892C179.556 58.7 178.692 58.388 177.78 57.956C177.228 57.692 176.88 57.344 176.736 56.912C176.592 56.48 176.604 56.072 176.772 55.688C176.964 55.28 177.252 54.992 177.636 54.824C178.02 54.656 178.464 54.692 178.968 54.932ZM210.45 42.728C210.45 43.352 210.45 43.928 210.45 44.456C210.45 44.984 210.45 45.548 210.45 46.148C210.45 46.724 210.45 47.396 210.45 48.164C210.45 48.908 210.45 49.796 210.45 50.828C210.45 52.196 210.234 53.408 209.802 54.464C209.37 55.52 208.758 56.42 207.966 57.164C207.198 57.884 206.286 58.436 205.23 58.82C204.198 59.204 203.07 59.396 201.846 59.396C200.622 59.396 199.482 59.168 198.426 58.712C197.37 58.256 196.446 57.608 195.654 56.768C194.862 55.928 194.25 54.944 193.818 53.816C193.386 52.664 193.17 51.404 193.17 50.036C193.17 48.212 193.542 46.604 194.286 45.212C195.054 43.796 196.086 42.692 197.382 41.9C198.702 41.108 200.178 40.712 201.81 40.712C203.034 40.712 204.162 40.94 205.194 41.396C206.25 41.828 207.162 42.464 207.93 43.304C208.722 44.12 209.334 45.092 209.766 46.22C210.222 47.348 210.45 48.596 210.45 49.964C210.45 50.516 210.45 51.056 210.45 51.584C210.45 52.088 210.45 52.58 210.45 53.06C210.45 53.516 210.45 53.948 210.45 54.356C210.45 55.004 210.45 55.604 210.45 56.156C210.45 56.708 210.45 57.308 210.45 57.956C210.45 58.556 210.282 59.012 209.946 59.324C209.634 59.636 209.262 59.792 208.83 59.792C208.398 59.792 208.014 59.636 207.678 59.324C207.366 59.012 207.21 58.556 207.21 57.956C207.21 57.572 207.21 57.176 207.21 56.768C207.21 56.36 207.21 55.964 207.21 55.58C207.21 55.172 207.21 54.764 207.21 54.356C207.21 54.092 207.21 53.684 207.21 53.132C207.21 52.556 207.21 51.98 207.21 51.404C207.21 50.804 207.21 50.324 207.21 49.964C207.21 48.788 206.982 47.744 206.526 46.832C206.07 45.92 205.434 45.212 204.618 44.708C203.802 44.204 202.866 43.952 201.81 43.952C201.018 43.952 200.286 44.108 199.614 44.42C198.942 44.708 198.366 45.128 197.886 45.68C197.43 46.208 197.07 46.844 196.806 47.588C196.542 48.332 196.41 49.148 196.41 50.036C196.41 50.924 196.542 51.74 196.806 52.484C197.07 53.228 197.442 53.876 197.922 54.428C198.402 54.98 198.978 55.412 199.65 55.724C200.322 56.012 201.054 56.156 201.846 56.156C202.638 56.156 203.358 56.048 204.006 55.832C204.678 55.616 205.254 55.292 205.734 54.86C206.214 54.404 206.574 53.84 206.814 53.168C207.078 52.496 207.21 51.716 207.21 50.828C207.21 50.132 207.21 49.4 207.21 48.632C207.21 47.864 207.21 47.108 207.21 46.364C207.21 45.62 207.21 44.936 207.21 44.312C207.21 43.664 207.21 43.136 207.21 42.728C207.21 42.128 207.366 41.672 207.678 41.36C208.014 41.048 208.398 40.892 208.83 40.892C209.262 40.892 209.634 41.048 209.946 41.36C210.282 41.672 210.45 42.128 210.45 42.728ZM216.029 41.072C216.749 41.072 217.481 41.072 218.225 41.072C218.969 41.072 219.701 41.072 220.421 41.072C221.141 41.072 221.813 41.072 222.437 41.072C223.061 41.072 223.601 41.072 224.057 41.072C224.537 41.072 225.005 41.072 225.461 41.072C225.941 41.072 226.481 41.072 227.081 41.072C227.441 41.072 227.753 41.132 228.017 41.252C228.281 41.372 228.485 41.54 228.629 41.756C228.797 41.972 228.893 42.224 228.917 42.512C228.965 42.776 228.929 43.064 228.809 43.376C228.713 43.688 228.533 44 228.269 44.312C227.837 44.816 227.393 45.332 226.937 45.86C226.505 46.364 226.085 46.856 225.677 47.336C225.293 47.792 224.933 48.224 224.597 48.632C224.261 49.016 223.865 49.496 223.409 50.072C222.953 50.624 222.485 51.188 222.005 51.764C221.549 52.316 221.153 52.784 220.817 53.168C220.577 53.456 220.373 53.696 220.205 53.888C220.037 54.08 219.893 54.248 219.773 54.392C219.653 54.512 219.533 54.632 219.413 54.752C219.317 54.872 219.197 55.016 219.053 55.184C218.933 55.304 218.837 55.412 218.765 55.508C218.693 55.58 218.645 55.64 218.621 55.688C218.621 55.712 218.645 55.736 218.693 55.76C218.741 55.76 218.813 55.76 218.909 55.76C219.029 55.76 219.185 55.76 219.377 55.76C219.617 55.76 219.809 55.76 219.953 55.76C220.121 55.76 220.289 55.76 220.457 55.76C220.649 55.76 220.865 55.76 221.105 55.76C221.369 55.76 221.717 55.76 222.149 55.76C222.725 55.76 223.217 55.76 223.625 55.76C224.033 55.76 224.477 55.76 224.957 55.76C225.437 55.76 226.037 55.76 226.757 55.76C227.309 55.76 227.717 55.928 227.981 56.264C228.269 56.576 228.413 56.948 228.413 57.38C228.413 57.812 228.269 58.196 227.981 58.532C227.717 58.844 227.309 59 226.757 59C226.013 59 225.341 59 224.741 59C224.165 59 223.613 59 223.085 59C222.581 59 222.077 59 221.573 59C221.189 59 220.757 59 220.277 59C219.821 59 219.341 59 218.837 59C218.333 59 217.829 59 217.325 59C216.821 59 216.341 59 215.885 59C215.525 59 215.213 58.928 214.949 58.784C214.685 58.64 214.481 58.448 214.337 58.208C214.193 57.968 214.109 57.704 214.085 57.416C214.061 57.104 214.109 56.792 214.229 56.48C214.349 56.144 214.529 55.82 214.769 55.508C215.201 55.004 215.621 54.488 216.029 53.96C216.461 53.432 216.869 52.916 217.253 52.412C217.661 51.908 218.033 51.464 218.369 51.08C218.705 50.672 219.065 50.24 219.449 49.784C219.857 49.304 220.349 48.728 220.925 48.056C221.501 47.36 222.221 46.508 223.085 45.5C223.733 44.732 224.225 44.072 224.561 43.52C224.897 42.968 225.161 42.512 225.353 42.152C225.569 41.792 225.797 41.528 226.037 41.36C226.277 41.168 226.625 41.072 227.081 41.072C227.441 41.072 227.753 41.132 228.017 41.252C228.281 41.372 228.485 41.54 228.629 41.756C228.797 41.972 228.893 42.224 228.917 42.512C228.965 42.776 228.929 43.064 228.809 43.376C228.713 43.688 228.533 44 228.269 44.312C227.933 44.696 227.585 44.924 227.225 44.996C226.889 45.044 226.505 45.008 226.073 44.888C225.641 44.768 225.137 44.648 224.561 44.528C223.985 44.384 223.313 44.312 222.545 44.312C221.513 44.312 220.649 44.312 219.953 44.312C219.257 44.312 218.609 44.312 218.009 44.312C217.409 44.312 216.749 44.312 216.029 44.312C215.501 44.312 215.093 44.156 214.805 43.844C214.541 43.508 214.409 43.124 214.409 42.692C214.409 42.26 214.541 41.888 214.805 41.576C215.093 41.24 215.501 41.072 216.029 41.072ZM233.08 41.072C233.8 41.072 234.532 41.072 235.276 41.072C236.02 41.072 236.752 41.072 237.472 41.072C238.192 41.072 238.864 41.072 239.488 41.072C240.112 41.072 240.652 41.072 241.108 41.072C241.588 41.072 242.056 41.072 242.512 41.072C242.992 41.072 243.532 41.072 244.132 41.072C244.492 41.072 244.804 41.132 245.068 41.252C245.332 41.372 245.536 41.54 245.68 41.756C245.848 41.972 245.944 42.224 245.968 42.512C246.016 42.776 245.98 43.064 245.86 43.376C245.764 43.688 245.584 44 245.32 44.312C244.888 44.816 244.444 45.332 243.988 45.86C243.556 46.364 243.136 46.856 242.728 47.336C242.344 47.792 241.984 48.224 241.648 48.632C241.312 49.016 240.916 49.496 240.46 50.072C240.004 50.624 239.536 51.188 239.056 51.764C238.6 52.316 238.204 52.784 237.868 53.168C237.628 53.456 237.424 53.696 237.256 53.888C237.088 54.08 236.944 54.248 236.824 54.392C236.704 54.512 236.584 54.632 236.464 54.752C236.368 54.872 236.248 55.016 236.104 55.184C235.984 55.304 235.888 55.412 235.816 55.508C235.744 55.58 235.696 55.64 235.672 55.688C235.672 55.712 235.696 55.736 235.744 55.76C235.792 55.76 235.864 55.76 235.96 55.76C236.08 55.76 236.236 55.76 236.428 55.76C236.668 55.76 236.86 55.76 237.004 55.76C237.172 55.76 237.34 55.76 237.508 55.76C237.7 55.76 237.916 55.76 238.156 55.76C238.42 55.76 238.768 55.76 239.2 55.76C239.776 55.76 240.268 55.76 240.676 55.76C241.084 55.76 241.528 55.76 242.008 55.76C242.488 55.76 243.088 55.76 243.808 55.76C244.36 55.76 244.768 55.928 245.032 56.264C245.32 56.576 245.464 56.948 245.464 57.38C245.464 57.812 245.32 58.196 245.032 58.532C244.768 58.844 244.36 59 243.808 59C243.064 59 242.392 59 241.792 59C241.216 59 240.664 59 240.136 59C239.632 59 239.128 59 238.624 59C238.24 59 237.808 59 237.328 59C236.872 59 236.392 59 235.888 59C235.384 59 234.88 59 234.376 59C233.872 59 233.392 59 232.936 59C232.576 59 232.264 58.928 232 58.784C231.736 58.64 231.532 58.448 231.388 58.208C231.244 57.968 231.16 57.704 231.136 57.416C231.112 57.104 231.16 56.792 231.28 56.48C231.4 56.144 231.58 55.82 231.82 55.508C232.252 55.004 232.672 54.488 233.08 53.96C233.512 53.432 233.92 52.916 234.304 52.412C234.712 51.908 235.084 51.464 235.42 51.08C235.756 50.672 236.116 50.24 236.5 49.784C236.908 49.304 237.4 48.728 237.976 48.056C238.552 47.36 239.272 46.508 240.136 45.5C240.784 44.732 241.276 44.072 241.612 43.52C241.948 42.968 242.212 42.512 242.404 42.152C242.62 41.792 242.848 41.528 243.088 41.36C243.328 41.168 243.676 41.072 244.132 41.072C244.492 41.072 244.804 41.132 245.068 41.252C245.332 41.372 245.536 41.54 245.68 41.756C245.848 41.972 245.944 42.224 245.968 42.512C246.016 42.776 245.98 43.064 245.86 43.376C245.764 43.688 245.584 44 245.32 44.312C244.984 44.696 244.636 44.924 244.276 44.996C243.94 45.044 243.556 45.008 243.124 44.888C242.692 44.768 242.188 44.648 241.612 44.528C241.036 44.384 240.364 44.312 239.596 44.312C238.564 44.312 237.7 44.312 237.004 44.312C236.308 44.312 235.66 44.312 235.06 44.312C234.46 44.312 233.8 44.312 233.08 44.312C232.552 44.312 232.144 44.156 231.856 43.844C231.592 43.508 231.46 43.124 231.46 42.692C231.46 42.26 231.592 41.888 231.856 41.576C232.144 41.24 232.552 41.072 233.08 41.072ZM257.505 57.236C257.505 56.9 257.505 56.528 257.505 56.12C257.505 55.688 257.505 55.148 257.505 54.5C257.505 53.828 257.505 52.964 257.505 51.908C257.505 51.164 257.505 50.396 257.505 49.604C257.505 48.788 257.505 47.948 257.505 47.084C257.505 46.196 257.505 45.26 257.505 44.276C257.505 43.292 257.505 42.248 257.505 41.144C257.505 39.728 257.541 38.588 257.613 37.724C257.709 36.86 257.877 36.2 258.117 35.744C258.357 35.264 258.693 34.94 259.125 34.772C259.581 34.604 260.157 34.52 260.853 34.52C261.237 34.52 261.585 34.52 261.897 34.52C262.233 34.52 262.569 34.52 262.905 34.52C263.241 34.52 263.637 34.52 264.093 34.52C264.573 34.52 265.161 34.52 265.857 34.52C267.273 34.52 268.557 34.724 269.709 35.132C270.861 35.516 271.869 36.068 272.733 36.788C273.621 37.508 274.365 38.372 274.965 39.38C275.565 40.388 276.009 41.516 276.297 42.764C276.609 43.988 276.765 45.308 276.765 46.724C276.765 48.5 276.489 50.144 275.937 51.656C275.409 53.144 274.641 54.44 273.633 55.544C272.649 56.648 271.473 57.5 270.105 58.1C268.737 58.7 267.213 59 265.533 59C265.053 59 264.573 59 264.093 59C263.637 59 263.181 59 262.725 59C262.125 59 261.669 58.844 261.357 58.532C261.045 58.196 260.889 57.812 260.889 57.38C260.889 56.948 261.045 56.576 261.357 56.264C261.669 55.928 262.125 55.76 262.725 55.76C263.229 55.76 263.697 55.76 264.129 55.76C264.561 55.76 265.029 55.76 265.533 55.76C266.781 55.76 267.897 55.544 268.881 55.112C269.865 54.656 270.693 54.032 271.365 53.24C272.061 52.424 272.589 51.464 272.949 50.36C273.333 49.256 273.525 48.044 273.525 46.724C273.525 45.404 273.369 44.204 273.057 43.124C272.745 42.02 272.277 41.072 271.653 40.28C271.029 39.488 270.237 38.876 269.277 38.444C268.317 37.988 267.177 37.76 265.857 37.76C265.161 37.76 264.573 37.76 264.093 37.76C263.613 37.76 263.157 37.76 262.725 37.76C262.317 37.76 261.825 37.76 261.249 37.76C261.105 37.76 260.985 37.82 260.889 37.94C260.817 38.036 260.769 38.192 260.745 38.408C260.721 38.6 260.709 38.84 260.709 39.128C260.709 39.416 260.709 39.728 260.709 40.064C260.733 40.4 260.745 40.76 260.745 41.144C260.745 42.128 260.745 43.172 260.745 44.276C260.745 45.38 260.745 46.568 260.745 47.84C260.745 49.088 260.745 50.444 260.745 51.908C260.745 53.084 260.745 53.984 260.745 54.608C260.745 55.232 260.745 55.736 260.745 56.12C260.745 56.48 260.745 56.852 260.745 57.236C260.745 57.836 260.577 58.292 260.241 58.604C259.929 58.916 259.557 59.072 259.125 59.072C258.693 59.072 258.309 58.916 257.973 58.604C257.661 58.292 257.505 57.836 257.505 57.236ZM296.899 42.728C296.899 43.352 296.899 43.928 296.899 44.456C296.899 44.984 296.899 45.548 296.899 46.148C296.899 46.724 296.899 47.396 296.899 48.164C296.899 48.908 296.899 49.796 296.899 50.828C296.899 52.196 296.683 53.408 296.251 54.464C295.819 55.52 295.207 56.42 294.415 57.164C293.647 57.884 292.735 58.436 291.679 58.82C290.647 59.204 289.519 59.396 288.295 59.396C287.071 59.396 285.931 59.168 284.875 58.712C283.819 58.256 282.895 57.608 282.103 56.768C281.311 55.928 280.699 54.944 280.267 53.816C279.835 52.664 279.619 51.404 279.619 50.036C279.619 48.212 279.991 46.604 280.735 45.212C281.503 43.796 282.535 42.692 283.831 41.9C285.151 41.108 286.627 40.712 288.259 40.712C289.483 40.712 290.611 40.94 291.643 41.396C292.699 41.828 293.611 42.464 294.379 43.304C295.171 44.12 295.783 45.092 296.215 46.22C296.671 47.348 296.899 48.596 296.899 49.964C296.899 50.516 296.899 51.056 296.899 51.584C296.899 52.088 296.899 52.58 296.899 53.06C296.899 53.516 296.899 53.948 296.899 54.356C296.899 55.004 296.899 55.604 296.899 56.156C296.899 56.708 296.899 57.308 296.899 57.956C296.899 58.556 296.731 59.012 296.395 59.324C296.083 59.636 295.711 59.792 295.279 59.792C294.847 59.792 294.463 59.636 294.127 59.324C293.815 59.012 293.659 58.556 293.659 57.956C293.659 57.572 293.659 57.176 293.659 56.768C293.659 56.36 293.659 55.964 293.659 55.58C293.659 55.172 293.659 54.764 293.659 54.356C293.659 54.092 293.659 53.684 293.659 53.132C293.659 52.556 293.659 51.98 293.659 51.404C293.659 50.804 293.659 50.324 293.659 49.964C293.659 48.788 293.431 47.744 292.975 46.832C292.519 45.92 291.883 45.212 291.067 44.708C290.251 44.204 289.315 43.952 288.259 43.952C287.467 43.952 286.735 44.108 286.063 44.42C285.391 44.708 284.815 45.128 284.335 45.68C283.879 46.208 283.519 46.844 283.255 47.588C282.991 48.332 282.859 49.148 282.859 50.036C282.859 50.924 282.991 51.74 283.255 52.484C283.519 53.228 283.891 53.876 284.371 54.428C284.851 54.98 285.427 55.412 286.099 55.724C286.771 56.012 287.503 56.156 288.295 56.156C289.087 56.156 289.807 56.048 290.455 55.832C291.127 55.616 291.703 55.292 292.183 54.86C292.663 54.404 293.023 53.84 293.263 53.168C293.527 52.496 293.659 51.716 293.659 50.828C293.659 50.132 293.659 49.4 293.659 48.632C293.659 47.864 293.659 47.108 293.659 46.364C293.659 45.62 293.659 44.936 293.659 44.312C293.659 43.664 293.659 43.136 293.659 42.728C293.659 42.128 293.815 41.672 294.127 41.36C294.463 41.048 294.847 40.892 295.279 40.892C295.711 40.892 296.083 41.048 296.395 41.36C296.731 41.672 296.899 42.128 296.899 42.728ZM303.63 62.816C303.75 62.552 303.87 62.276 303.99 61.988C304.134 61.7 304.266 61.412 304.386 61.124C304.53 60.836 304.662 60.548 304.782 60.26C304.926 59.996 305.058 59.72 305.178 59.432C305.274 59.192 305.37 58.964 305.466 58.748C305.562 58.532 305.658 58.328 305.754 58.136C305.85 57.92 305.934 57.716 306.006 57.524C306.174 57.164 306.234 56.804 306.186 56.444C306.138 56.06 306.018 55.652 305.826 55.22C305.634 54.788 305.394 54.308 305.106 53.78C304.818 53.252 304.518 52.664 304.206 52.016C303.966 51.512 303.678 50.912 303.342 50.216C303.006 49.496 302.646 48.74 302.262 47.948C301.902 47.132 301.53 46.316 301.146 45.5C300.762 44.684 300.402 43.916 300.066 43.196C299.826 42.644 299.79 42.164 299.958 41.756C300.126 41.348 300.402 41.06 300.786 40.892C301.17 40.7 301.566 40.676 301.974 40.82C302.406 40.94 302.754 41.276 303.018 41.828C303.354 42.572 303.702 43.352 304.062 44.168C304.446 44.96 304.818 45.752 305.178 46.544C305.562 47.336 305.91 48.08 306.222 48.776C306.558 49.472 306.846 50.072 307.086 50.576C307.662 51.752 308.13 52.736 308.49 53.528C308.874 54.296 309.138 54.968 309.282 55.544C309.45 56.096 309.498 56.624 309.426 57.128C309.378 57.632 309.21 58.208 308.922 58.856C308.85 59.024 308.754 59.216 308.634 59.432C308.538 59.648 308.442 59.876 308.346 60.116C308.25 60.356 308.154 60.584 308.058 60.8C307.938 61.088 307.818 61.376 307.698 61.664C307.578 61.952 307.446 62.24 307.302 62.528C307.182 62.816 307.062 63.092 306.942 63.356C306.822 63.644 306.702 63.92 306.582 64.184C306.366 64.616 306.09 64.916 305.754 65.084C305.442 65.276 305.118 65.348 304.782 65.3C304.47 65.252 304.182 65.108 303.918 64.868C303.678 64.652 303.522 64.364 303.45 64.004C303.378 63.644 303.438 63.248 303.63 62.816ZM316.014 43.16C315.822 43.592 315.618 44.036 315.402 44.492C315.21 44.948 315.006 45.404 314.79 45.86C314.598 46.316 314.406 46.748 314.214 47.156C314.046 47.564 313.89 47.924 313.746 48.236C313.242 49.388 312.678 50.636 312.054 51.98C311.454 53.324 310.878 54.608 310.326 55.832C309.774 57.056 309.318 58.064 308.958 58.856C308.862 59.072 308.766 59.288 308.67 59.504C308.574 59.744 308.466 59.972 308.346 60.188C308.25 60.404 308.154 60.632 308.058 60.872C307.938 61.16 307.818 61.436 307.698 61.7C307.578 61.988 307.458 62.264 307.338 62.528C307.218 62.816 307.086 63.092 306.942 63.356C306.822 63.644 306.702 63.92 306.582 64.184C306.366 64.616 306.09 64.916 305.754 65.084C305.442 65.276 305.118 65.348 304.782 65.3C304.47 65.252 304.182 65.108 303.918 64.868C303.678 64.652 303.522 64.364 303.45 64.004C303.378 63.644 303.438 63.248 303.63 62.816C303.75 62.552 303.87 62.276 303.99 61.988C304.134 61.7 304.278 61.412 304.422 61.124C304.566 60.836 304.698 60.548 304.818 60.26C304.962 59.972 305.094 59.696 305.214 59.432C305.31 59.192 305.394 58.976 305.466 58.784C305.562 58.592 305.646 58.4 305.718 58.208C305.814 58.016 305.91 57.8 306.006 57.56C306.246 57.008 306.558 56.324 306.942 55.508C307.326 54.668 307.734 53.756 308.166 52.772C308.622 51.788 309.078 50.792 309.534 49.784C309.99 48.776 310.41 47.828 310.794 46.94C310.986 46.532 311.202 46.04 311.442 45.464C311.706 44.888 311.982 44.288 312.27 43.664C312.558 43.016 312.822 42.416 313.062 41.864C313.302 41.312 313.626 40.964 314.034 40.82C314.466 40.676 314.874 40.688 315.258 40.856C315.666 41.024 315.954 41.312 316.122 41.72C316.314 42.128 316.278 42.608 316.014 43.16ZM321.24 57.56C321.24 56.984 321.24 56.468 321.24 56.012C321.24 55.556 321.24 55.1 321.24 54.644C321.24 54.188 321.24 53.66 321.24 53.06C321.24 52.268 321.24 51.512 321.24 50.792C321.24 50.048 321.24 49.28 321.24 48.488C321.24 47.672 321.24 46.772 321.24 45.788C321.24 44.804 321.24 43.652 321.24 42.332C321.24 41.828 321.24 41.3 321.24 40.748C321.24 40.196 321.24 39.668 321.24 39.164C321.24 38.636 321.24 38.192 321.24 37.832C321.24 37.232 321.396 36.776 321.708 36.464C322.044 36.152 322.428 35.996 322.86 35.996C323.292 35.996 323.664 36.152 323.976 36.464C324.312 36.776 324.48 37.232 324.48 37.832C324.48 38.24 324.48 38.6 324.48 38.912C324.48 39.224 324.48 39.536 324.48 39.848C324.48 40.16 324.48 40.52 324.48 40.928C324.48 41.312 324.48 41.78 324.48 42.332C324.48 43.22 324.48 44.06 324.48 44.852C324.48 45.62 324.48 46.412 324.48 47.228C324.48 48.044 324.48 48.92 324.48 49.856C324.48 50.792 324.48 51.86 324.48 53.06C324.48 53.708 324.48 54.248 324.48 54.68C324.48 55.112 324.48 55.544 324.48 55.976C324.48 56.384 324.48 56.912 324.48 57.56C324.48 58.16 324.312 58.616 323.976 58.928C323.664 59.24 323.292 59.396 322.86 59.396C322.428 59.396 322.044 59.252 321.708 58.964C321.396 58.652 321.24 58.184 321.24 57.56ZM327.036 44.312C326.676 44.312 326.328 44.312 325.992 44.312C325.656 44.312 325.32 44.312 324.984 44.312C324.264 44.312 323.592 44.312 322.968 44.312C322.368 44.312 321.708 44.312 320.988 44.312C320.772 44.312 320.568 44.312 320.376 44.312C320.184 44.312 319.968 44.312 319.728 44.312C319.512 44.312 319.284 44.312 319.044 44.312C318.444 44.312 317.988 44.156 317.676 43.844C317.364 43.508 317.208 43.124 317.208 42.692C317.208 42.26 317.364 41.888 317.676 41.576C317.988 41.24 318.444 41.072 319.044 41.072C319.356 41.072 319.608 41.072 319.8 41.072C319.992 41.072 320.172 41.072 320.34 41.072C320.532 41.072 320.748 41.072 320.988 41.072C321.66 41.072 322.32 41.072 322.968 41.072C323.64 41.072 324.312 41.072 324.984 41.072C325.368 41.072 325.704 41.072 325.992 41.072C326.304 41.072 326.652 41.072 327.036 41.072C327.636 41.072 328.092 41.24 328.404 41.576C328.716 41.888 328.872 42.26 328.872 42.692C328.872 43.124 328.716 43.508 328.404 43.844C328.092 44.156 327.636 44.312 327.036 44.312ZM336.578 59.036C335.57 58.676 334.682 58.232 333.914 57.704C333.17 57.152 332.51 56.444 331.934 55.58C331.43 54.836 331.034 53.996 330.746 53.06C330.458 52.124 330.314 51.116 330.314 50.036C330.314 48.236 330.698 46.64 331.466 45.248C332.258 43.832 333.326 42.728 334.67 41.936C336.038 41.12 337.574 40.712 339.278 40.712C341.006 40.712 342.542 41.12 343.886 41.936C345.254 42.728 346.322 43.832 347.09 45.248C347.882 46.64 348.278 48.236 348.278 50.036C348.278 51.092 348.134 52.088 347.846 53.024C347.582 53.936 347.186 54.776 346.658 55.544C346.082 56.432 345.422 57.14 344.678 57.668C343.934 58.196 343.022 58.652 341.942 59.036C341.39 59.228 340.91 59.216 340.502 59C340.118 58.784 339.854 58.472 339.71 58.064C339.566 57.656 339.59 57.26 339.782 56.876C339.974 56.468 340.358 56.156 340.934 55.94C341.654 55.7 342.242 55.424 342.698 55.112C343.154 54.776 343.586 54.32 343.994 53.744C344.33 53.24 344.582 52.676 344.75 52.052C344.942 51.428 345.038 50.756 345.038 50.036C345.038 48.86 344.786 47.816 344.282 46.904C343.802 45.968 343.13 45.248 342.266 44.744C341.402 44.216 340.406 43.952 339.278 43.952C338.15 43.952 337.154 44.216 336.29 44.744C335.426 45.248 334.754 45.968 334.274 46.904C333.794 47.816 333.554 48.86 333.554 50.036C333.554 50.756 333.638 51.44 333.806 52.088C333.998 52.712 334.262 53.276 334.598 53.78C334.862 54.164 335.138 54.488 335.426 54.752C335.738 55.016 336.074 55.244 336.434 55.436C336.794 55.628 337.19 55.796 337.622 55.94C338.198 56.156 338.582 56.468 338.774 56.876C338.966 57.26 338.99 57.656 338.846 58.064C338.702 58.472 338.426 58.784 338.018 59C337.634 59.216 337.154 59.228 336.578 59.036ZM364.844 57.56C364.844 57.056 364.844 56.528 364.844 55.976C364.844 55.4 364.844 54.836 364.844 54.284C364.844 53.708 364.844 53.18 364.844 52.7C364.844 52.124 364.844 51.488 364.844 50.792C364.844 50.072 364.844 49.292 364.844 48.452C364.844 47.444 364.676 46.616 364.34 45.968C364.028 45.296 363.56 44.792 362.936 44.456C362.312 44.12 361.544 43.952 360.632 43.952C359.84 43.952 359.12 44.084 358.472 44.348C357.824 44.588 357.26 44.948 356.78 45.428C356.324 45.908 355.964 46.508 355.7 47.228C355.436 47.948 355.304 48.776 355.304 49.712C355.304 50.12 355.304 50.66 355.304 51.332C355.304 51.98 355.304 52.676 355.304 53.42C355.304 54.164 355.304 54.908 355.304 55.652C355.304 56.372 355.304 57.008 355.304 57.56C355.304 58.04 355.196 58.436 354.979 58.748C354.764 59.036 354.488 59.228 354.152 59.324C353.84 59.42 353.516 59.42 353.18 59.324C352.868 59.228 352.604 59.036 352.388 58.748C352.172 58.436 352.063 58.04 352.063 57.56C352.063 57.104 352.063 56.492 352.063 55.724C352.063 54.932 352.063 54.08 352.063 53.168C352.063 52.232 352.063 51.332 352.063 50.468C352.063 49.58 352.063 48.812 352.063 48.164C352.063 47.516 352.063 47.072 352.063 46.832C352.063 46.352 352.063 45.872 352.063 45.392C352.063 44.912 352.063 44.432 352.063 43.952C352.063 43.472 352.063 42.992 352.063 42.512C352.063 41.912 352.22 41.456 352.532 41.144C352.868 40.832 353.252 40.676 353.684 40.676C354.116 40.676 354.488 40.832 354.8 41.144C355.136 41.456 355.304 41.912 355.304 42.512C355.304 43.04 355.304 43.532 355.304 43.988C355.304 44.444 355.304 44.9 355.304 45.356C355.304 45.812 355.304 46.304 355.304 46.832C355.304 46.976 355.304 47.372 355.304 48.02C355.304 48.644 355.304 49.412 355.304 50.324C355.304 51.212 355.304 52.136 355.304 53.096C355.304 54.032 355.304 54.908 355.304 55.724C355.304 56.516 355.304 57.128 355.304 57.56C355.304 58.04 355.196 58.436 354.979 58.748C354.764 59.036 354.488 59.228 354.152 59.324C353.84 59.42 353.516 59.42 353.18 59.324C352.868 59.228 352.604 59.036 352.388 58.748C352.172 58.436 352.063 58.04 352.063 57.56C352.063 57.008 352.063 56.432 352.063 55.832C352.063 55.208 352.063 54.572 352.063 53.924C352.063 53.276 352.063 52.628 352.063 51.98C352.063 51.308 352.063 50.672 352.063 50.072C352.063 48.848 352.28 47.672 352.712 46.544C353.168 45.416 353.792 44.42 354.584 43.556C355.376 42.668 356.312 41.972 357.392 41.468C358.472 40.964 359.636 40.712 360.884 40.712C361.916 40.712 362.864 40.88 363.728 41.216C364.616 41.552 365.384 42.056 366.032 42.728C366.68 43.376 367.184 44.18 367.544 45.14C367.904 46.1 368.084 47.204 368.084 48.452C368.084 49.004 368.084 49.64 368.084 50.36C368.084 51.056 368.084 51.836 368.084 52.7C368.084 53.3 368.084 53.864 368.084 54.392C368.084 54.896 368.084 55.4 368.084 55.904C368.084 56.408 368.084 56.96 368.084 57.56C368.084 58.16 367.916 58.616 367.58 58.928C367.268 59.24 366.896 59.396 366.464 59.396C366.032 59.396 365.648 59.24 365.312 58.928C365 58.616 364.844 58.16 364.844 57.56Z" fill="#FA5D6F"/>
</svg>
