<svg enable-background="new 0 0 32 32" height="300" viewBox="0 0 32 32" width="300" xmlns="http://www.w3.org/2000/svg" version="1.1" xmlns:xlink="http://www.w3.org/1999/xlink" xmlns:svgjs="http://svgjs.dev/svgjs"><g width="100%" height="100%" transform="matrix(-1,1.2246467991473532e-16,-1.2246467991473532e-16,-1,32.003968715667725,31.999895095825195)"><g id="Layer_1"><g><path d="m2.6436 30.4697c-.8063-.7441-.8574-2.0199-.1133-2.8262l10.748-11.6435-10.748-11.6436c-.7441-.8063-.693-2.082.1133-2.8262s2.082-.693 2.8262.1133l12 13c.707.7661.707 1.9468 0 2.7129l-12 13c-.7442.8063-2.02.8575-2.8262.1133z" fill="#000000" fill-opacity="1" data-original-color="#000000ff" stroke="none" stroke-opacity="1"/></g><g><path d="m14.6436 30.4697c-.8063-.7441-.8574-2.0199-.1133-2.8262l10.748-11.6435-10.748-11.6436c-.7441-.8063-.693-2.082.1133-2.8262s2.082-.693 2.8262.1133l12 13c.707.7661.707 1.9468 0 2.7129l-12 13c-.7442.8063-2.02.8575-2.8262.1133z" fill="#000000" fill-opacity="1" data-original-color="#000000ff" stroke="none" stroke-opacity="1"/></g></g></g></svg>