<?xml version="1.0"?>
<svg xmlns="http://www.w3.org/2000/svg" viewBox="0 0 32 32" width="512" height="512"><g id="_17-idea" data-name="17-idea"><path d="M26,11.57C26,5.74,21.51,1,16,1S6,5.74,6,11.57c0,3.93,2.46,8.34,5,10.85V27c0,1.38,1,4,5,4s5-2.62,5-4V22.42C23.54,19.91,26,15.5,26,11.57Zm-18,0C8,6.84,11.59,3,16,3s8,3.84,8,8.57c0,2.95-1.87,6.93-4.4,9.43H19V12a1,1,0,0,0-1-1H14a1,1,0,0,0-1,1v9h-.6C9.87,18.51,8,14.52,8,11.57ZM13,23h6v3H13Zm4-2H15V13h2Zm-1,8a3,3,0,0,1-2.64-1h5.28A3.07,3.07,0,0,1,16,29ZM4,13H2a1,1,0,0,1,0-2H4a1,1,0,0,1,0,2Zm27-1a1,1,0,0,1-1,1H28a1,1,0,0,1,0-2h2A1,1,0,0,1,31,12ZM2.11,2.55a1,1,0,0,1,1.34-.44l2,1a1,1,0,0,1,.44,1.34A1,1,0,0,1,5,5a.93.93,0,0,1-.45-.11l-2-1A1,1,0,0,1,2.11,2.55Zm24,1.9a1,1,0,0,1,.44-1.34l2-1a1,1,0,1,1,.9,1.78l-2,1A.93.93,0,0,1,27,5,1,1,0,0,1,26.11,4.45ZM6.89,19.55a1,1,0,0,1-.44,1.34l-2,1A.93.93,0,0,1,4,22a1,1,0,0,1-.89-.55,1,1,0,0,1,.44-1.34l2-1A1,1,0,0,1,6.89,19.55Zm22,1.9A1,1,0,0,1,28,22a.93.93,0,0,1-.45-.11l-2-1a1,1,0,1,1,.9-1.78l2,1A1,1,0,0,1,28.89,21.45Z"/></g></svg>
