<svg width="180" height="110" viewBox="0 0 180 110" fill="none" xmlns="http://www.w3.org/2000/svg">
<g clip-path="url(#clip0_8_2)">
<path d="M56.228 45.76C55.868 45.76 55.28 45.76 54.464 45.76C53.672 45.76 52.748 45.76 51.692 45.76C50.66 45.76 49.616 45.76 48.56 45.76C47.528 45.76 46.568 45.76 45.68 45.76C44.816 45.76 44.156 45.76 43.7 45.76C43.22 45.76 42.824 45.652 42.512 45.436C42.224 45.22 42.032 44.956 41.936 44.644C41.84 44.308 41.84 43.984 41.936 43.672C42.032 43.336 42.224 43.06 42.512 42.844C42.824 42.628 43.22 42.52 43.7 42.52C44.444 42.52 45.188 42.592 45.932 42.736C46.7 42.856 47.42 43.072 48.092 43.384C48.764 43.672 49.364 44.056 49.892 44.536C50.42 45.016 50.828 45.592 51.116 46.264C51.428 46.936 51.584 47.728 51.584 48.64C51.584 49.6 51.584 50.656 51.584 51.808C51.584 52.936 51.584 54.052 51.584 55.156C51.584 56.236 51.584 57.22 51.584 58.108C51.584 58.996 51.584 59.668 51.584 60.124C51.584 60.7 51.584 61.312 51.584 61.96C51.584 62.608 51.584 63.244 51.584 63.868C51.584 64.468 51.584 65.032 51.584 65.56C51.584 66.16 51.416 66.616 51.08 66.928C50.768 67.24 50.396 67.396 49.964 67.396C49.532 67.396 49.148 67.24 48.812 66.928C48.5 66.616 48.344 66.16 48.344 65.56C48.344 65.032 48.344 64.468 48.344 63.868C48.344 63.244 48.344 62.608 48.344 61.96C48.344 61.312 48.344 60.7 48.344 60.124C48.344 59.668 48.344 58.972 48.344 58.036C48.344 57.076 48.344 56.02 48.344 54.868C48.344 53.692 48.344 52.552 48.344 51.448C48.344 50.344 48.344 49.408 48.344 48.64C48.344 47.896 48.212 47.332 47.948 46.948C47.684 46.54 47.324 46.252 46.868 46.084C46.436 45.916 45.944 45.82 45.392 45.796C44.84 45.772 44.276 45.76 43.7 45.76C43.22 45.76 42.824 45.652 42.512 45.436C42.224 45.22 42.032 44.956 41.936 44.644C41.84 44.308 41.84 43.984 41.936 43.672C42.032 43.336 42.224 43.06 42.512 42.844C42.824 42.628 43.22 42.52 43.7 42.52C44.444 42.52 45.308 42.52 46.292 42.52C47.3 42.52 48.32 42.52 49.352 42.52C50.408 42.52 51.416 42.52 52.376 42.52C53.336 42.52 54.152 42.52 54.824 42.52C55.52 42.52 55.988 42.52 56.228 42.52C56.852 42.52 57.308 42.688 57.596 43.024C57.908 43.336 58.064 43.708 58.064 44.14C58.064 44.572 57.908 44.956 57.596 45.292C57.308 45.604 56.852 45.76 56.228 45.76ZM64.4532 67.036C63.4452 66.676 62.5572 66.232 61.7892 65.704C61.0452 65.152 60.3852 64.444 59.8092 63.58C59.3052 62.836 58.9092 61.996 58.6212 61.06C58.3332 60.124 58.1892 59.116 58.1892 58.036C58.1892 56.236 58.5732 54.64 59.3412 53.248C60.1332 51.832 61.2012 50.728 62.5452 49.936C63.9132 49.12 65.4492 48.712 67.1532 48.712C68.8812 48.712 70.4172 49.12 71.7612 49.936C73.1292 50.728 74.1972 51.832 74.9652 53.248C75.7572 54.64 76.1532 56.236 76.1532 58.036C76.1532 59.092 76.0092 60.088 75.7212 61.024C75.4572 61.936 75.0612 62.776 74.5332 63.544C73.9572 64.432 73.2972 65.14 72.5532 65.668C71.8092 66.196 70.8972 66.652 69.8172 67.036C69.2652 67.228 68.7852 67.216 68.3772 67C67.9932 66.784 67.7292 66.472 67.5852 66.064C67.4412 65.656 67.4652 65.26 67.6572 64.876C67.8492 64.468 68.2332 64.156 68.8092 63.94C69.5292 63.7 70.1172 63.424 70.5732 63.112C71.0292 62.776 71.4612 62.32 71.8692 61.744C72.2052 61.24 72.4572 60.676 72.6252 60.052C72.8172 59.428 72.9132 58.756 72.9132 58.036C72.9132 56.86 72.6612 55.816 72.1572 54.904C71.6772 53.968 71.0052 53.248 70.1412 52.744C69.2772 52.216 68.2812 51.952 67.1532 51.952C66.0252 51.952 65.0292 52.216 64.1652 52.744C63.3012 53.248 62.6292 53.968 62.1492 54.904C61.6692 55.816 61.4292 56.86 61.4292 58.036C61.4292 58.756 61.5132 59.44 61.6812 60.088C61.8732 60.712 62.1372 61.276 62.4732 61.78C62.7372 62.164 63.0132 62.488 63.3012 62.752C63.6132 63.016 63.9492 63.244 64.3092 63.436C64.6692 63.628 65.0652 63.796 65.4972 63.94C66.0732 64.156 66.4572 64.468 66.6492 64.876C66.8412 65.26 66.8652 65.656 66.7212 66.064C66.5772 66.472 66.3012 66.784 65.8932 67C65.5092 67.216 65.0292 67.228 64.4532 67.036ZM96.2465 41.944C96.2465 42.448 96.2465 42.892 96.2465 43.276C96.2465 43.66 96.2465 44.056 96.2465 44.464C96.2465 44.872 96.2465 45.376 96.2465 45.976C96.2465 47.344 96.2465 48.52 96.2465 49.504C96.2465 50.464 96.2465 51.376 96.2465 52.24C96.2465 53.08 96.2465 53.992 96.2465 54.976C96.2465 55.936 96.2465 57.1 96.2465 58.468C96.2465 59.836 96.0305 61.072 95.5985 62.176C95.1665 63.256 94.5545 64.192 93.7625 64.984C92.9945 65.752 92.0825 66.352 91.0265 66.784C89.9945 67.192 88.8665 67.396 87.6425 67.396C86.4185 67.396 85.2785 67.168 84.2225 66.712C83.1665 66.256 82.2425 65.608 81.4505 64.768C80.6585 63.928 80.0465 62.944 79.6145 61.816C79.1825 60.664 78.9665 59.404 78.9665 58.036C78.9665 56.212 79.3385 54.604 80.0825 53.212C80.8505 51.796 81.8825 50.692 83.1785 49.9C84.4985 49.108 85.9745 48.712 87.6065 48.712C88.8305 48.712 89.9585 48.94 90.9905 49.396C92.0465 49.828 92.9585 50.464 93.7265 51.304C94.5185 52.12 95.1305 53.092 95.5625 54.22C96.0185 55.348 96.2465 56.596 96.2465 57.964C96.2465 58.78 96.2465 59.56 96.2465 60.304C96.2465 61.048 96.2465 61.732 96.2465 62.356C96.2465 63.004 96.2465 63.604 96.2465 64.156C96.2465 64.708 96.2465 65.308 96.2465 65.956C96.2465 66.556 96.0785 67.012 95.7425 67.324C95.4305 67.636 95.0585 67.792 94.6265 67.792C94.1945 67.792 93.8105 67.636 93.4745 67.324C93.1625 67.036 93.0065 66.58 93.0065 65.956C93.0065 65.26 93.0065 64.624 93.0065 64.048C93.0065 63.448 93.0065 62.884 93.0065 62.356C93.0065 62.092 93.0065 61.684 93.0065 61.132C93.0065 60.556 93.0065 59.98 93.0065 59.404C93.0065 58.804 93.0065 58.324 93.0065 57.964C93.0065 56.788 92.7785 55.744 92.3225 54.832C91.8665 53.92 91.2305 53.212 90.4145 52.708C89.5985 52.204 88.6625 51.952 87.6065 51.952C86.8145 51.952 86.0825 52.108 85.4105 52.42C84.7385 52.708 84.1625 53.128 83.6825 53.68C83.2265 54.208 82.8665 54.844 82.6025 55.588C82.3385 56.332 82.2065 57.148 82.2065 58.036C82.2065 59.212 82.4345 60.268 82.8905 61.204C83.3465 62.116 83.9825 62.836 84.7985 63.364C85.6145 63.892 86.5625 64.156 87.6425 64.156C88.4345 64.156 89.1545 64.036 89.8025 63.796C90.4745 63.532 91.0505 63.16 91.5305 62.68C92.0105 62.176 92.3705 61.576 92.6105 60.88C92.8745 60.16 93.0065 59.356 93.0065 58.468C93.0065 57.196 93.0065 56.092 93.0065 55.156C93.0065 54.22 93.0065 53.38 93.0065 52.636C93.0065 51.892 93.0065 51.196 93.0065 50.548C93.0065 49.876 93.0065 49.18 93.0065 48.46C93.0065 47.74 93.0065 46.912 93.0065 45.976C93.0065 45.544 93.0065 45.124 93.0065 44.716C93.0065 44.284 93.0065 43.852 93.0065 43.42C93.0065 42.964 93.0065 42.472 93.0065 41.944C93.0065 41.344 93.1625 40.9 93.4745 40.612C93.8105 40.3 94.1945 40.144 94.6265 40.144C95.0585 40.144 95.4305 40.3 95.7425 40.612C96.0785 40.9 96.2465 41.344 96.2465 41.944ZM117.27 50.728C117.27 51.352 117.27 51.928 117.27 52.456C117.27 52.984 117.27 53.548 117.27 54.148C117.27 54.724 117.27 55.396 117.27 56.164C117.27 56.908 117.27 57.796 117.27 58.828C117.27 60.196 117.054 61.408 116.622 62.464C116.19 63.52 115.578 64.42 114.786 65.164C114.018 65.884 113.106 66.436 112.05 66.82C111.018 67.204 109.89 67.396 108.666 67.396C107.442 67.396 106.302 67.168 105.246 66.712C104.19 66.256 103.266 65.608 102.474 64.768C101.682 63.928 101.07 62.944 100.638 61.816C100.206 60.664 99.9899 59.404 99.9899 58.036C99.9899 56.212 100.362 54.604 101.106 53.212C101.874 51.796 102.906 50.692 104.202 49.9C105.522 49.108 106.998 48.712 108.63 48.712C109.854 48.712 110.982 48.94 112.014 49.396C113.07 49.828 113.982 50.464 114.75 51.304C115.542 52.12 116.154 53.092 116.586 54.22C117.042 55.348 117.27 56.596 117.27 57.964C117.27 58.516 117.27 59.056 117.27 59.584C117.27 60.088 117.27 60.58 117.27 61.06C117.27 61.516 117.27 61.948 117.27 62.356C117.27 63.004 117.27 63.604 117.27 64.156C117.27 64.708 117.27 65.308 117.27 65.956C117.27 66.556 117.102 67.012 116.766 67.324C116.454 67.636 116.082 67.792 115.65 67.792C115.218 67.792 114.834 67.636 114.498 67.324C114.186 67.012 114.03 66.556 114.03 65.956C114.03 65.572 114.03 65.176 114.03 64.768C114.03 64.36 114.03 63.964 114.03 63.58C114.03 63.172 114.03 62.764 114.03 62.356C114.03 62.092 114.03 61.684 114.03 61.132C114.03 60.556 114.03 59.98 114.03 59.404C114.03 58.804 114.03 58.324 114.03 57.964C114.03 56.788 113.802 55.744 113.346 54.832C112.89 53.92 112.254 53.212 111.438 52.708C110.622 52.204 109.686 51.952 108.63 51.952C107.838 51.952 107.106 52.108 106.434 52.42C105.762 52.708 105.186 53.128 104.706 53.68C104.25 54.208 103.89 54.844 103.626 55.588C103.362 56.332 103.23 57.148 103.23 58.036C103.23 58.924 103.362 59.74 103.626 60.484C103.89 61.228 104.262 61.876 104.742 62.428C105.222 62.98 105.798 63.412 106.47 63.724C107.142 64.012 107.874 64.156 108.666 64.156C109.458 64.156 110.178 64.048 110.826 63.832C111.498 63.616 112.074 63.292 112.554 62.86C113.034 62.404 113.394 61.84 113.634 61.168C113.898 60.496 114.03 59.716 114.03 58.828C114.03 58.132 114.03 57.4 114.03 56.632C114.03 55.864 114.03 55.108 114.03 54.364C114.03 53.62 114.03 52.936 114.03 52.312C114.03 51.664 114.03 51.136 114.03 50.728C114.03 50.128 114.186 49.672 114.498 49.36C114.834 49.048 115.218 48.892 115.65 48.892C116.082 48.892 116.454 49.048 116.766 49.36C117.102 49.672 117.27 50.128 117.27 50.728ZM124.001 70.816C124.121 70.552 124.241 70.276 124.361 69.988C124.505 69.7 124.637 69.412 124.757 69.124C124.901 68.836 125.033 68.548 125.153 68.26C125.297 67.996 125.429 67.72 125.549 67.432C125.645 67.192 125.741 66.964 125.837 66.748C125.933 66.532 126.029 66.328 126.125 66.136C126.221 65.92 126.305 65.716 126.377 65.524C126.545 65.164 126.605 64.804 126.557 64.444C126.509 64.06 126.389 63.652 126.197 63.22C126.005 62.788 125.765 62.308 125.477 61.78C125.189 61.252 124.889 60.664 124.577 60.016C124.337 59.512 124.049 58.912 123.713 58.216C123.377 57.496 123.017 56.74 122.633 55.948C122.273 55.132 121.901 54.316 121.517 53.5C121.133 52.684 120.773 51.916 120.437 51.196C120.197 50.644 120.161 50.164 120.329 49.756C120.497 49.348 120.773 49.06 121.157 48.892C121.541 48.7 121.937 48.676 122.345 48.82C122.777 48.94 123.125 49.276 123.389 49.828C123.725 50.572 124.073 51.352 124.433 52.168C124.817 52.96 125.189 53.752 125.549 54.544C125.933 55.336 126.281 56.08 126.593 56.776C126.929 57.472 127.217 58.072 127.457 58.576C128.033 59.752 128.501 60.736 128.861 61.528C129.245 62.296 129.509 62.968 129.653 63.544C129.821 64.096 129.869 64.624 129.797 65.128C129.749 65.632 129.581 66.208 129.293 66.856C129.221 67.024 129.125 67.216 129.005 67.432C128.909 67.648 128.813 67.876 128.717 68.116C128.621 68.356 128.525 68.584 128.429 68.8C128.309 69.088 128.189 69.376 128.069 69.664C127.949 69.952 127.817 70.24 127.673 70.528C127.553 70.816 127.433 71.092 127.313 71.356C127.193 71.644 127.073 71.92 126.953 72.184C126.737 72.616 126.461 72.916 126.125 73.084C125.813 73.276 125.489 73.348 125.153 73.3C124.841 73.252 124.553 73.108 124.289 72.868C124.049 72.652 123.893 72.364 123.821 72.004C123.749 71.644 123.809 71.248 124.001 70.816ZM136.385 51.16C136.193 51.592 135.989 52.036 135.773 52.492C135.581 52.948 135.377 53.404 135.161 53.86C134.969 54.316 134.777 54.748 134.585 55.156C134.417 55.564 134.261 55.924 134.117 56.236C133.613 57.388 133.049 58.636 132.425 59.98C131.825 61.324 131.249 62.608 130.697 63.832C130.145 65.056 129.689 66.064 129.329 66.856C129.233 67.072 129.137 67.288 129.041 67.504C128.945 67.744 128.837 67.972 128.717 68.188C128.621 68.404 128.525 68.632 128.429 68.872C128.309 69.16 128.189 69.436 128.069 69.7C127.949 69.988 127.829 70.264 127.709 70.528C127.589 70.816 127.457 71.092 127.313 71.356C127.193 71.644 127.073 71.92 126.953 72.184C126.737 72.616 126.461 72.916 126.125 73.084C125.813 73.276 125.489 73.348 125.153 73.3C124.841 73.252 124.553 73.108 124.289 72.868C124.049 72.652 123.893 72.364 123.821 72.004C123.749 71.644 123.809 71.248 124.001 70.816C124.121 70.552 124.241 70.276 124.361 69.988C124.505 69.7 124.649 69.412 124.793 69.124C124.937 68.836 125.069 68.548 125.189 68.26C125.333 67.972 125.465 67.696 125.585 67.432C125.681 67.192 125.765 66.976 125.837 66.784C125.933 66.592 126.017 66.4 126.089 66.208C126.185 66.016 126.281 65.8 126.377 65.56C126.617 65.008 126.929 64.324 127.313 63.508C127.697 62.668 128.105 61.756 128.537 60.772C128.993 59.788 129.449 58.792 129.905 57.784C130.361 56.776 130.781 55.828 131.165 54.94C131.357 54.532 131.573 54.04 131.813 53.464C132.077 52.888 132.353 52.288 132.641 51.664C132.929 51.016 133.193 50.416 133.433 49.864C133.673 49.312 133.997 48.964 134.405 48.82C134.837 48.676 135.245 48.688 135.629 48.856C136.037 49.024 136.325 49.312 136.493 49.72C136.685 50.128 136.649 50.608 136.385 51.16Z" fill="#FFCAD0"/>
<g filter="url(#filter0_f_8_2)">
<path d="M56.228 45.76C55.868 45.76 55.28 45.76 54.464 45.76C53.672 45.76 52.748 45.76 51.692 45.76C50.66 45.76 49.616 45.76 48.56 45.76C47.528 45.76 46.568 45.76 45.68 45.76C44.816 45.76 44.156 45.76 43.7 45.76C43.22 45.76 42.824 45.652 42.512 45.436C42.224 45.22 42.032 44.956 41.936 44.644C41.84 44.308 41.84 43.984 41.936 43.672C42.032 43.336 42.224 43.06 42.512 42.844C42.824 42.628 43.22 42.52 43.7 42.52C44.444 42.52 45.188 42.592 45.932 42.736C46.7 42.856 47.42 43.072 48.092 43.384C48.764 43.672 49.364 44.056 49.892 44.536C50.42 45.016 50.828 45.592 51.116 46.264C51.428 46.936 51.584 47.728 51.584 48.64C51.584 49.6 51.584 50.656 51.584 51.808C51.584 52.936 51.584 54.052 51.584 55.156C51.584 56.236 51.584 57.22 51.584 58.108C51.584 58.996 51.584 59.668 51.584 60.124C51.584 60.7 51.584 61.312 51.584 61.96C51.584 62.608 51.584 63.244 51.584 63.868C51.584 64.468 51.584 65.032 51.584 65.56C51.584 66.16 51.416 66.616 51.08 66.928C50.768 67.24 50.396 67.396 49.964 67.396C49.532 67.396 49.148 67.24 48.812 66.928C48.5 66.616 48.344 66.16 48.344 65.56C48.344 65.032 48.344 64.468 48.344 63.868C48.344 63.244 48.344 62.608 48.344 61.96C48.344 61.312 48.344 60.7 48.344 60.124C48.344 59.668 48.344 58.972 48.344 58.036C48.344 57.076 48.344 56.02 48.344 54.868C48.344 53.692 48.344 52.552 48.344 51.448C48.344 50.344 48.344 49.408 48.344 48.64C48.344 47.896 48.212 47.332 47.948 46.948C47.684 46.54 47.324 46.252 46.868 46.084C46.436 45.916 45.944 45.82 45.392 45.796C44.84 45.772 44.276 45.76 43.7 45.76C43.22 45.76 42.824 45.652 42.512 45.436C42.224 45.22 42.032 44.956 41.936 44.644C41.84 44.308 41.84 43.984 41.936 43.672C42.032 43.336 42.224 43.06 42.512 42.844C42.824 42.628 43.22 42.52 43.7 42.52C44.444 42.52 45.308 42.52 46.292 42.52C47.3 42.52 48.32 42.52 49.352 42.52C50.408 42.52 51.416 42.52 52.376 42.52C53.336 42.52 54.152 42.52 54.824 42.52C55.52 42.52 55.988 42.52 56.228 42.52C56.852 42.52 57.308 42.688 57.596 43.024C57.908 43.336 58.064 43.708 58.064 44.14C58.064 44.572 57.908 44.956 57.596 45.292C57.308 45.604 56.852 45.76 56.228 45.76ZM64.4532 67.036C63.4452 66.676 62.5572 66.232 61.7892 65.704C61.0452 65.152 60.3852 64.444 59.8092 63.58C59.3052 62.836 58.9092 61.996 58.6212 61.06C58.3332 60.124 58.1892 59.116 58.1892 58.036C58.1892 56.236 58.5732 54.64 59.3412 53.248C60.1332 51.832 61.2012 50.728 62.5452 49.936C63.9132 49.12 65.4492 48.712 67.1532 48.712C68.8812 48.712 70.4172 49.12 71.7612 49.936C73.1292 50.728 74.1972 51.832 74.9652 53.248C75.7572 54.64 76.1532 56.236 76.1532 58.036C76.1532 59.092 76.0092 60.088 75.7212 61.024C75.4572 61.936 75.0612 62.776 74.5332 63.544C73.9572 64.432 73.2972 65.14 72.5532 65.668C71.8092 66.196 70.8972 66.652 69.8172 67.036C69.2652 67.228 68.7852 67.216 68.3772 67C67.9932 66.784 67.7292 66.472 67.5852 66.064C67.4412 65.656 67.4652 65.26 67.6572 64.876C67.8492 64.468 68.2332 64.156 68.8092 63.94C69.5292 63.7 70.1172 63.424 70.5732 63.112C71.0292 62.776 71.4612 62.32 71.8692 61.744C72.2052 61.24 72.4572 60.676 72.6252 60.052C72.8172 59.428 72.9132 58.756 72.9132 58.036C72.9132 56.86 72.6612 55.816 72.1572 54.904C71.6772 53.968 71.0052 53.248 70.1412 52.744C69.2772 52.216 68.2812 51.952 67.1532 51.952C66.0252 51.952 65.0292 52.216 64.1652 52.744C63.3012 53.248 62.6292 53.968 62.1492 54.904C61.6692 55.816 61.4292 56.86 61.4292 58.036C61.4292 58.756 61.5132 59.44 61.6812 60.088C61.8732 60.712 62.1372 61.276 62.4732 61.78C62.7372 62.164 63.0132 62.488 63.3012 62.752C63.6132 63.016 63.9492 63.244 64.3092 63.436C64.6692 63.628 65.0652 63.796 65.4972 63.94C66.0732 64.156 66.4572 64.468 66.6492 64.876C66.8412 65.26 66.8652 65.656 66.7212 66.064C66.5772 66.472 66.3012 66.784 65.8932 67C65.5092 67.216 65.0292 67.228 64.4532 67.036ZM96.2465 41.944C96.2465 42.448 96.2465 42.892 96.2465 43.276C96.2465 43.66 96.2465 44.056 96.2465 44.464C96.2465 44.872 96.2465 45.376 96.2465 45.976C96.2465 47.344 96.2465 48.52 96.2465 49.504C96.2465 50.464 96.2465 51.376 96.2465 52.24C96.2465 53.08 96.2465 53.992 96.2465 54.976C96.2465 55.936 96.2465 57.1 96.2465 58.468C96.2465 59.836 96.0305 61.072 95.5985 62.176C95.1665 63.256 94.5545 64.192 93.7625 64.984C92.9945 65.752 92.0825 66.352 91.0265 66.784C89.9945 67.192 88.8665 67.396 87.6425 67.396C86.4185 67.396 85.2785 67.168 84.2225 66.712C83.1665 66.256 82.2425 65.608 81.4505 64.768C80.6585 63.928 80.0465 62.944 79.6145 61.816C79.1825 60.664 78.9665 59.404 78.9665 58.036C78.9665 56.212 79.3385 54.604 80.0825 53.212C80.8505 51.796 81.8825 50.692 83.1785 49.9C84.4985 49.108 85.9745 48.712 87.6065 48.712C88.8305 48.712 89.9585 48.94 90.9905 49.396C92.0465 49.828 92.9585 50.464 93.7265 51.304C94.5185 52.12 95.1305 53.092 95.5625 54.22C96.0185 55.348 96.2465 56.596 96.2465 57.964C96.2465 58.78 96.2465 59.56 96.2465 60.304C96.2465 61.048 96.2465 61.732 96.2465 62.356C96.2465 63.004 96.2465 63.604 96.2465 64.156C96.2465 64.708 96.2465 65.308 96.2465 65.956C96.2465 66.556 96.0785 67.012 95.7425 67.324C95.4305 67.636 95.0585 67.792 94.6265 67.792C94.1945 67.792 93.8105 67.636 93.4745 67.324C93.1625 67.036 93.0065 66.58 93.0065 65.956C93.0065 65.26 93.0065 64.624 93.0065 64.048C93.0065 63.448 93.0065 62.884 93.0065 62.356C93.0065 62.092 93.0065 61.684 93.0065 61.132C93.0065 60.556 93.0065 59.98 93.0065 59.404C93.0065 58.804 93.0065 58.324 93.0065 57.964C93.0065 56.788 92.7785 55.744 92.3225 54.832C91.8665 53.92 91.2305 53.212 90.4145 52.708C89.5985 52.204 88.6625 51.952 87.6065 51.952C86.8145 51.952 86.0825 52.108 85.4105 52.42C84.7385 52.708 84.1625 53.128 83.6825 53.68C83.2265 54.208 82.8665 54.844 82.6025 55.588C82.3385 56.332 82.2065 57.148 82.2065 58.036C82.2065 59.212 82.4345 60.268 82.8905 61.204C83.3465 62.116 83.9825 62.836 84.7985 63.364C85.6145 63.892 86.5625 64.156 87.6425 64.156C88.4345 64.156 89.1545 64.036 89.8025 63.796C90.4745 63.532 91.0505 63.16 91.5305 62.68C92.0105 62.176 92.3705 61.576 92.6105 60.88C92.8745 60.16 93.0065 59.356 93.0065 58.468C93.0065 57.196 93.0065 56.092 93.0065 55.156C93.0065 54.22 93.0065 53.38 93.0065 52.636C93.0065 51.892 93.0065 51.196 93.0065 50.548C93.0065 49.876 93.0065 49.18 93.0065 48.46C93.0065 47.74 93.0065 46.912 93.0065 45.976C93.0065 45.544 93.0065 45.124 93.0065 44.716C93.0065 44.284 93.0065 43.852 93.0065 43.42C93.0065 42.964 93.0065 42.472 93.0065 41.944C93.0065 41.344 93.1625 40.9 93.4745 40.612C93.8105 40.3 94.1945 40.144 94.6265 40.144C95.0585 40.144 95.4305 40.3 95.7425 40.612C96.0785 40.9 96.2465 41.344 96.2465 41.944ZM117.27 50.728C117.27 51.352 117.27 51.928 117.27 52.456C117.27 52.984 117.27 53.548 117.27 54.148C117.27 54.724 117.27 55.396 117.27 56.164C117.27 56.908 117.27 57.796 117.27 58.828C117.27 60.196 117.054 61.408 116.622 62.464C116.19 63.52 115.578 64.42 114.786 65.164C114.018 65.884 113.106 66.436 112.05 66.82C111.018 67.204 109.89 67.396 108.666 67.396C107.442 67.396 106.302 67.168 105.246 66.712C104.19 66.256 103.266 65.608 102.474 64.768C101.682 63.928 101.07 62.944 100.638 61.816C100.206 60.664 99.9899 59.404 99.9899 58.036C99.9899 56.212 100.362 54.604 101.106 53.212C101.874 51.796 102.906 50.692 104.202 49.9C105.522 49.108 106.998 48.712 108.63 48.712C109.854 48.712 110.982 48.94 112.014 49.396C113.07 49.828 113.982 50.464 114.75 51.304C115.542 52.12 116.154 53.092 116.586 54.22C117.042 55.348 117.27 56.596 117.27 57.964C117.27 58.516 117.27 59.056 117.27 59.584C117.27 60.088 117.27 60.58 117.27 61.06C117.27 61.516 117.27 61.948 117.27 62.356C117.27 63.004 117.27 63.604 117.27 64.156C117.27 64.708 117.27 65.308 117.27 65.956C117.27 66.556 117.102 67.012 116.766 67.324C116.454 67.636 116.082 67.792 115.65 67.792C115.218 67.792 114.834 67.636 114.498 67.324C114.186 67.012 114.03 66.556 114.03 65.956C114.03 65.572 114.03 65.176 114.03 64.768C114.03 64.36 114.03 63.964 114.03 63.58C114.03 63.172 114.03 62.764 114.03 62.356C114.03 62.092 114.03 61.684 114.03 61.132C114.03 60.556 114.03 59.98 114.03 59.404C114.03 58.804 114.03 58.324 114.03 57.964C114.03 56.788 113.802 55.744 113.346 54.832C112.89 53.92 112.254 53.212 111.438 52.708C110.622 52.204 109.686 51.952 108.63 51.952C107.838 51.952 107.106 52.108 106.434 52.42C105.762 52.708 105.186 53.128 104.706 53.68C104.25 54.208 103.89 54.844 103.626 55.588C103.362 56.332 103.23 57.148 103.23 58.036C103.23 58.924 103.362 59.74 103.626 60.484C103.89 61.228 104.262 61.876 104.742 62.428C105.222 62.98 105.798 63.412 106.47 63.724C107.142 64.012 107.874 64.156 108.666 64.156C109.458 64.156 110.178 64.048 110.826 63.832C111.498 63.616 112.074 63.292 112.554 62.86C113.034 62.404 113.394 61.84 113.634 61.168C113.898 60.496 114.03 59.716 114.03 58.828C114.03 58.132 114.03 57.4 114.03 56.632C114.03 55.864 114.03 55.108 114.03 54.364C114.03 53.62 114.03 52.936 114.03 52.312C114.03 51.664 114.03 51.136 114.03 50.728C114.03 50.128 114.186 49.672 114.498 49.36C114.834 49.048 115.218 48.892 115.65 48.892C116.082 48.892 116.454 49.048 116.766 49.36C117.102 49.672 117.27 50.128 117.27 50.728ZM124.001 70.816C124.121 70.552 124.241 70.276 124.361 69.988C124.505 69.7 124.637 69.412 124.757 69.124C124.901 68.836 125.033 68.548 125.153 68.26C125.297 67.996 125.429 67.72 125.549 67.432C125.645 67.192 125.741 66.964 125.837 66.748C125.933 66.532 126.029 66.328 126.125 66.136C126.221 65.92 126.305 65.716 126.377 65.524C126.545 65.164 126.605 64.804 126.557 64.444C126.509 64.06 126.389 63.652 126.197 63.22C126.005 62.788 125.765 62.308 125.477 61.78C125.189 61.252 124.889 60.664 124.577 60.016C124.337 59.512 124.049 58.912 123.713 58.216C123.377 57.496 123.017 56.74 122.633 55.948C122.273 55.132 121.901 54.316 121.517 53.5C121.133 52.684 120.773 51.916 120.437 51.196C120.197 50.644 120.161 50.164 120.329 49.756C120.497 49.348 120.773 49.06 121.157 48.892C121.541 48.7 121.937 48.676 122.345 48.82C122.777 48.94 123.125 49.276 123.389 49.828C123.725 50.572 124.073 51.352 124.433 52.168C124.817 52.96 125.189 53.752 125.549 54.544C125.933 55.336 126.281 56.08 126.593 56.776C126.929 57.472 127.217 58.072 127.457 58.576C128.033 59.752 128.501 60.736 128.861 61.528C129.245 62.296 129.509 62.968 129.653 63.544C129.821 64.096 129.869 64.624 129.797 65.128C129.749 65.632 129.581 66.208 129.293 66.856C129.221 67.024 129.125 67.216 129.005 67.432C128.909 67.648 128.813 67.876 128.717 68.116C128.621 68.356 128.525 68.584 128.429 68.8C128.309 69.088 128.189 69.376 128.069 69.664C127.949 69.952 127.817 70.24 127.673 70.528C127.553 70.816 127.433 71.092 127.313 71.356C127.193 71.644 127.073 71.92 126.953 72.184C126.737 72.616 126.461 72.916 126.125 73.084C125.813 73.276 125.489 73.348 125.153 73.3C124.841 73.252 124.553 73.108 124.289 72.868C124.049 72.652 123.893 72.364 123.821 72.004C123.749 71.644 123.809 71.248 124.001 70.816ZM136.385 51.16C136.193 51.592 135.989 52.036 135.773 52.492C135.581 52.948 135.377 53.404 135.161 53.86C134.969 54.316 134.777 54.748 134.585 55.156C134.417 55.564 134.261 55.924 134.117 56.236C133.613 57.388 133.049 58.636 132.425 59.98C131.825 61.324 131.249 62.608 130.697 63.832C130.145 65.056 129.689 66.064 129.329 66.856C129.233 67.072 129.137 67.288 129.041 67.504C128.945 67.744 128.837 67.972 128.717 68.188C128.621 68.404 128.525 68.632 128.429 68.872C128.309 69.16 128.189 69.436 128.069 69.7C127.949 69.988 127.829 70.264 127.709 70.528C127.589 70.816 127.457 71.092 127.313 71.356C127.193 71.644 127.073 71.92 126.953 72.184C126.737 72.616 126.461 72.916 126.125 73.084C125.813 73.276 125.489 73.348 125.153 73.3C124.841 73.252 124.553 73.108 124.289 72.868C124.049 72.652 123.893 72.364 123.821 72.004C123.749 71.644 123.809 71.248 124.001 70.816C124.121 70.552 124.241 70.276 124.361 69.988C124.505 69.7 124.649 69.412 124.793 69.124C124.937 68.836 125.069 68.548 125.189 68.26C125.333 67.972 125.465 67.696 125.585 67.432C125.681 67.192 125.765 66.976 125.837 66.784C125.933 66.592 126.017 66.4 126.089 66.208C126.185 66.016 126.281 65.8 126.377 65.56C126.617 65.008 126.929 64.324 127.313 63.508C127.697 62.668 128.105 61.756 128.537 60.772C128.993 59.788 129.449 58.792 129.905 57.784C130.361 56.776 130.781 55.828 131.165 54.94C131.357 54.532 131.573 54.04 131.813 53.464C132.077 52.888 132.353 52.288 132.641 51.664C132.929 51.016 133.193 50.416 133.433 49.864C133.673 49.312 133.997 48.964 134.405 48.82C134.837 48.676 135.245 48.688 135.629 48.856C136.037 49.024 136.325 49.312 136.493 49.72C136.685 50.128 136.649 50.608 136.385 51.16Z" fill="#F4364C"/>
</g>
<g filter="url(#filter1_f_8_2)">
<path d="M56.228 45.76C55.868 45.76 55.28 45.76 54.464 45.76C53.672 45.76 52.748 45.76 51.692 45.76C50.66 45.76 49.616 45.76 48.56 45.76C47.528 45.76 46.568 45.76 45.68 45.76C44.816 45.76 44.156 45.76 43.7 45.76C43.22 45.76 42.824 45.652 42.512 45.436C42.224 45.22 42.032 44.956 41.936 44.644C41.84 44.308 41.84 43.984 41.936 43.672C42.032 43.336 42.224 43.06 42.512 42.844C42.824 42.628 43.22 42.52 43.7 42.52C44.444 42.52 45.188 42.592 45.932 42.736C46.7 42.856 47.42 43.072 48.092 43.384C48.764 43.672 49.364 44.056 49.892 44.536C50.42 45.016 50.828 45.592 51.116 46.264C51.428 46.936 51.584 47.728 51.584 48.64C51.584 49.6 51.584 50.656 51.584 51.808C51.584 52.936 51.584 54.052 51.584 55.156C51.584 56.236 51.584 57.22 51.584 58.108C51.584 58.996 51.584 59.668 51.584 60.124C51.584 60.7 51.584 61.312 51.584 61.96C51.584 62.608 51.584 63.244 51.584 63.868C51.584 64.468 51.584 65.032 51.584 65.56C51.584 66.16 51.416 66.616 51.08 66.928C50.768 67.24 50.396 67.396 49.964 67.396C49.532 67.396 49.148 67.24 48.812 66.928C48.5 66.616 48.344 66.16 48.344 65.56C48.344 65.032 48.344 64.468 48.344 63.868C48.344 63.244 48.344 62.608 48.344 61.96C48.344 61.312 48.344 60.7 48.344 60.124C48.344 59.668 48.344 58.972 48.344 58.036C48.344 57.076 48.344 56.02 48.344 54.868C48.344 53.692 48.344 52.552 48.344 51.448C48.344 50.344 48.344 49.408 48.344 48.64C48.344 47.896 48.212 47.332 47.948 46.948C47.684 46.54 47.324 46.252 46.868 46.084C46.436 45.916 45.944 45.82 45.392 45.796C44.84 45.772 44.276 45.76 43.7 45.76C43.22 45.76 42.824 45.652 42.512 45.436C42.224 45.22 42.032 44.956 41.936 44.644C41.84 44.308 41.84 43.984 41.936 43.672C42.032 43.336 42.224 43.06 42.512 42.844C42.824 42.628 43.22 42.52 43.7 42.52C44.444 42.52 45.308 42.52 46.292 42.52C47.3 42.52 48.32 42.52 49.352 42.52C50.408 42.52 51.416 42.52 52.376 42.52C53.336 42.52 54.152 42.52 54.824 42.52C55.52 42.52 55.988 42.52 56.228 42.52C56.852 42.52 57.308 42.688 57.596 43.024C57.908 43.336 58.064 43.708 58.064 44.14C58.064 44.572 57.908 44.956 57.596 45.292C57.308 45.604 56.852 45.76 56.228 45.76ZM64.4532 67.036C63.4452 66.676 62.5572 66.232 61.7892 65.704C61.0452 65.152 60.3852 64.444 59.8092 63.58C59.3052 62.836 58.9092 61.996 58.6212 61.06C58.3332 60.124 58.1892 59.116 58.1892 58.036C58.1892 56.236 58.5732 54.64 59.3412 53.248C60.1332 51.832 61.2012 50.728 62.5452 49.936C63.9132 49.12 65.4492 48.712 67.1532 48.712C68.8812 48.712 70.4172 49.12 71.7612 49.936C73.1292 50.728 74.1972 51.832 74.9652 53.248C75.7572 54.64 76.1532 56.236 76.1532 58.036C76.1532 59.092 76.0092 60.088 75.7212 61.024C75.4572 61.936 75.0612 62.776 74.5332 63.544C73.9572 64.432 73.2972 65.14 72.5532 65.668C71.8092 66.196 70.8972 66.652 69.8172 67.036C69.2652 67.228 68.7852 67.216 68.3772 67C67.9932 66.784 67.7292 66.472 67.5852 66.064C67.4412 65.656 67.4652 65.26 67.6572 64.876C67.8492 64.468 68.2332 64.156 68.8092 63.94C69.5292 63.7 70.1172 63.424 70.5732 63.112C71.0292 62.776 71.4612 62.32 71.8692 61.744C72.2052 61.24 72.4572 60.676 72.6252 60.052C72.8172 59.428 72.9132 58.756 72.9132 58.036C72.9132 56.86 72.6612 55.816 72.1572 54.904C71.6772 53.968 71.0052 53.248 70.1412 52.744C69.2772 52.216 68.2812 51.952 67.1532 51.952C66.0252 51.952 65.0292 52.216 64.1652 52.744C63.3012 53.248 62.6292 53.968 62.1492 54.904C61.6692 55.816 61.4292 56.86 61.4292 58.036C61.4292 58.756 61.5132 59.44 61.6812 60.088C61.8732 60.712 62.1372 61.276 62.4732 61.78C62.7372 62.164 63.0132 62.488 63.3012 62.752C63.6132 63.016 63.9492 63.244 64.3092 63.436C64.6692 63.628 65.0652 63.796 65.4972 63.94C66.0732 64.156 66.4572 64.468 66.6492 64.876C66.8412 65.26 66.8652 65.656 66.7212 66.064C66.5772 66.472 66.3012 66.784 65.8932 67C65.5092 67.216 65.0292 67.228 64.4532 67.036ZM96.2465 41.944C96.2465 42.448 96.2465 42.892 96.2465 43.276C96.2465 43.66 96.2465 44.056 96.2465 44.464C96.2465 44.872 96.2465 45.376 96.2465 45.976C96.2465 47.344 96.2465 48.52 96.2465 49.504C96.2465 50.464 96.2465 51.376 96.2465 52.24C96.2465 53.08 96.2465 53.992 96.2465 54.976C96.2465 55.936 96.2465 57.1 96.2465 58.468C96.2465 59.836 96.0305 61.072 95.5985 62.176C95.1665 63.256 94.5545 64.192 93.7625 64.984C92.9945 65.752 92.0825 66.352 91.0265 66.784C89.9945 67.192 88.8665 67.396 87.6425 67.396C86.4185 67.396 85.2785 67.168 84.2225 66.712C83.1665 66.256 82.2425 65.608 81.4505 64.768C80.6585 63.928 80.0465 62.944 79.6145 61.816C79.1825 60.664 78.9665 59.404 78.9665 58.036C78.9665 56.212 79.3385 54.604 80.0825 53.212C80.8505 51.796 81.8825 50.692 83.1785 49.9C84.4985 49.108 85.9745 48.712 87.6065 48.712C88.8305 48.712 89.9585 48.94 90.9905 49.396C92.0465 49.828 92.9585 50.464 93.7265 51.304C94.5185 52.12 95.1305 53.092 95.5625 54.22C96.0185 55.348 96.2465 56.596 96.2465 57.964C96.2465 58.78 96.2465 59.56 96.2465 60.304C96.2465 61.048 96.2465 61.732 96.2465 62.356C96.2465 63.004 96.2465 63.604 96.2465 64.156C96.2465 64.708 96.2465 65.308 96.2465 65.956C96.2465 66.556 96.0785 67.012 95.7425 67.324C95.4305 67.636 95.0585 67.792 94.6265 67.792C94.1945 67.792 93.8105 67.636 93.4745 67.324C93.1625 67.036 93.0065 66.58 93.0065 65.956C93.0065 65.26 93.0065 64.624 93.0065 64.048C93.0065 63.448 93.0065 62.884 93.0065 62.356C93.0065 62.092 93.0065 61.684 93.0065 61.132C93.0065 60.556 93.0065 59.98 93.0065 59.404C93.0065 58.804 93.0065 58.324 93.0065 57.964C93.0065 56.788 92.7785 55.744 92.3225 54.832C91.8665 53.92 91.2305 53.212 90.4145 52.708C89.5985 52.204 88.6625 51.952 87.6065 51.952C86.8145 51.952 86.0825 52.108 85.4105 52.42C84.7385 52.708 84.1625 53.128 83.6825 53.68C83.2265 54.208 82.8665 54.844 82.6025 55.588C82.3385 56.332 82.2065 57.148 82.2065 58.036C82.2065 59.212 82.4345 60.268 82.8905 61.204C83.3465 62.116 83.9825 62.836 84.7985 63.364C85.6145 63.892 86.5625 64.156 87.6425 64.156C88.4345 64.156 89.1545 64.036 89.8025 63.796C90.4745 63.532 91.0505 63.16 91.5305 62.68C92.0105 62.176 92.3705 61.576 92.6105 60.88C92.8745 60.16 93.0065 59.356 93.0065 58.468C93.0065 57.196 93.0065 56.092 93.0065 55.156C93.0065 54.22 93.0065 53.38 93.0065 52.636C93.0065 51.892 93.0065 51.196 93.0065 50.548C93.0065 49.876 93.0065 49.18 93.0065 48.46C93.0065 47.74 93.0065 46.912 93.0065 45.976C93.0065 45.544 93.0065 45.124 93.0065 44.716C93.0065 44.284 93.0065 43.852 93.0065 43.42C93.0065 42.964 93.0065 42.472 93.0065 41.944C93.0065 41.344 93.1625 40.9 93.4745 40.612C93.8105 40.3 94.1945 40.144 94.6265 40.144C95.0585 40.144 95.4305 40.3 95.7425 40.612C96.0785 40.9 96.2465 41.344 96.2465 41.944ZM117.27 50.728C117.27 51.352 117.27 51.928 117.27 52.456C117.27 52.984 117.27 53.548 117.27 54.148C117.27 54.724 117.27 55.396 117.27 56.164C117.27 56.908 117.27 57.796 117.27 58.828C117.27 60.196 117.054 61.408 116.622 62.464C116.19 63.52 115.578 64.42 114.786 65.164C114.018 65.884 113.106 66.436 112.05 66.82C111.018 67.204 109.89 67.396 108.666 67.396C107.442 67.396 106.302 67.168 105.246 66.712C104.19 66.256 103.266 65.608 102.474 64.768C101.682 63.928 101.07 62.944 100.638 61.816C100.206 60.664 99.9899 59.404 99.9899 58.036C99.9899 56.212 100.362 54.604 101.106 53.212C101.874 51.796 102.906 50.692 104.202 49.9C105.522 49.108 106.998 48.712 108.63 48.712C109.854 48.712 110.982 48.94 112.014 49.396C113.07 49.828 113.982 50.464 114.75 51.304C115.542 52.12 116.154 53.092 116.586 54.22C117.042 55.348 117.27 56.596 117.27 57.964C117.27 58.516 117.27 59.056 117.27 59.584C117.27 60.088 117.27 60.58 117.27 61.06C117.27 61.516 117.27 61.948 117.27 62.356C117.27 63.004 117.27 63.604 117.27 64.156C117.27 64.708 117.27 65.308 117.27 65.956C117.27 66.556 117.102 67.012 116.766 67.324C116.454 67.636 116.082 67.792 115.65 67.792C115.218 67.792 114.834 67.636 114.498 67.324C114.186 67.012 114.03 66.556 114.03 65.956C114.03 65.572 114.03 65.176 114.03 64.768C114.03 64.36 114.03 63.964 114.03 63.58C114.03 63.172 114.03 62.764 114.03 62.356C114.03 62.092 114.03 61.684 114.03 61.132C114.03 60.556 114.03 59.98 114.03 59.404C114.03 58.804 114.03 58.324 114.03 57.964C114.03 56.788 113.802 55.744 113.346 54.832C112.89 53.92 112.254 53.212 111.438 52.708C110.622 52.204 109.686 51.952 108.63 51.952C107.838 51.952 107.106 52.108 106.434 52.42C105.762 52.708 105.186 53.128 104.706 53.68C104.25 54.208 103.89 54.844 103.626 55.588C103.362 56.332 103.23 57.148 103.23 58.036C103.23 58.924 103.362 59.74 103.626 60.484C103.89 61.228 104.262 61.876 104.742 62.428C105.222 62.98 105.798 63.412 106.47 63.724C107.142 64.012 107.874 64.156 108.666 64.156C109.458 64.156 110.178 64.048 110.826 63.832C111.498 63.616 112.074 63.292 112.554 62.86C113.034 62.404 113.394 61.84 113.634 61.168C113.898 60.496 114.03 59.716 114.03 58.828C114.03 58.132 114.03 57.4 114.03 56.632C114.03 55.864 114.03 55.108 114.03 54.364C114.03 53.62 114.03 52.936 114.03 52.312C114.03 51.664 114.03 51.136 114.03 50.728C114.03 50.128 114.186 49.672 114.498 49.36C114.834 49.048 115.218 48.892 115.65 48.892C116.082 48.892 116.454 49.048 116.766 49.36C117.102 49.672 117.27 50.128 117.27 50.728ZM124.001 70.816C124.121 70.552 124.241 70.276 124.361 69.988C124.505 69.7 124.637 69.412 124.757 69.124C124.901 68.836 125.033 68.548 125.153 68.26C125.297 67.996 125.429 67.72 125.549 67.432C125.645 67.192 125.741 66.964 125.837 66.748C125.933 66.532 126.029 66.328 126.125 66.136C126.221 65.92 126.305 65.716 126.377 65.524C126.545 65.164 126.605 64.804 126.557 64.444C126.509 64.06 126.389 63.652 126.197 63.22C126.005 62.788 125.765 62.308 125.477 61.78C125.189 61.252 124.889 60.664 124.577 60.016C124.337 59.512 124.049 58.912 123.713 58.216C123.377 57.496 123.017 56.74 122.633 55.948C122.273 55.132 121.901 54.316 121.517 53.5C121.133 52.684 120.773 51.916 120.437 51.196C120.197 50.644 120.161 50.164 120.329 49.756C120.497 49.348 120.773 49.06 121.157 48.892C121.541 48.7 121.937 48.676 122.345 48.82C122.777 48.94 123.125 49.276 123.389 49.828C123.725 50.572 124.073 51.352 124.433 52.168C124.817 52.96 125.189 53.752 125.549 54.544C125.933 55.336 126.281 56.08 126.593 56.776C126.929 57.472 127.217 58.072 127.457 58.576C128.033 59.752 128.501 60.736 128.861 61.528C129.245 62.296 129.509 62.968 129.653 63.544C129.821 64.096 129.869 64.624 129.797 65.128C129.749 65.632 129.581 66.208 129.293 66.856C129.221 67.024 129.125 67.216 129.005 67.432C128.909 67.648 128.813 67.876 128.717 68.116C128.621 68.356 128.525 68.584 128.429 68.8C128.309 69.088 128.189 69.376 128.069 69.664C127.949 69.952 127.817 70.24 127.673 70.528C127.553 70.816 127.433 71.092 127.313 71.356C127.193 71.644 127.073 71.92 126.953 72.184C126.737 72.616 126.461 72.916 126.125 73.084C125.813 73.276 125.489 73.348 125.153 73.3C124.841 73.252 124.553 73.108 124.289 72.868C124.049 72.652 123.893 72.364 123.821 72.004C123.749 71.644 123.809 71.248 124.001 70.816ZM136.385 51.16C136.193 51.592 135.989 52.036 135.773 52.492C135.581 52.948 135.377 53.404 135.161 53.86C134.969 54.316 134.777 54.748 134.585 55.156C134.417 55.564 134.261 55.924 134.117 56.236C133.613 57.388 133.049 58.636 132.425 59.98C131.825 61.324 131.249 62.608 130.697 63.832C130.145 65.056 129.689 66.064 129.329 66.856C129.233 67.072 129.137 67.288 129.041 67.504C128.945 67.744 128.837 67.972 128.717 68.188C128.621 68.404 128.525 68.632 128.429 68.872C128.309 69.16 128.189 69.436 128.069 69.7C127.949 69.988 127.829 70.264 127.709 70.528C127.589 70.816 127.457 71.092 127.313 71.356C127.193 71.644 127.073 71.92 126.953 72.184C126.737 72.616 126.461 72.916 126.125 73.084C125.813 73.276 125.489 73.348 125.153 73.3C124.841 73.252 124.553 73.108 124.289 72.868C124.049 72.652 123.893 72.364 123.821 72.004C123.749 71.644 123.809 71.248 124.001 70.816C124.121 70.552 124.241 70.276 124.361 69.988C124.505 69.7 124.649 69.412 124.793 69.124C124.937 68.836 125.069 68.548 125.189 68.26C125.333 67.972 125.465 67.696 125.585 67.432C125.681 67.192 125.765 66.976 125.837 66.784C125.933 66.592 126.017 66.4 126.089 66.208C126.185 66.016 126.281 65.8 126.377 65.56C126.617 65.008 126.929 64.324 127.313 63.508C127.697 62.668 128.105 61.756 128.537 60.772C128.993 59.788 129.449 58.792 129.905 57.784C130.361 56.776 130.781 55.828 131.165 54.94C131.357 54.532 131.573 54.04 131.813 53.464C132.077 52.888 132.353 52.288 132.641 51.664C132.929 51.016 133.193 50.416 133.433 49.864C133.673 49.312 133.997 48.964 134.405 48.82C134.837 48.676 135.245 48.688 135.629 48.856C136.037 49.024 136.325 49.312 136.493 49.72C136.685 50.128 136.649 50.608 136.385 51.16Z" fill="#F4364C"/>
</g>
<g filter="url(#filter2_f_8_2)">
<path d="M56.228 45.76C55.868 45.76 55.28 45.76 54.464 45.76C53.672 45.76 52.748 45.76 51.692 45.76C50.66 45.76 49.616 45.76 48.56 45.76C47.528 45.76 46.568 45.76 45.68 45.76C44.816 45.76 44.156 45.76 43.7 45.76C43.22 45.76 42.824 45.652 42.512 45.436C42.224 45.22 42.032 44.956 41.936 44.644C41.84 44.308 41.84 43.984 41.936 43.672C42.032 43.336 42.224 43.06 42.512 42.844C42.824 42.628 43.22 42.52 43.7 42.52C44.444 42.52 45.188 42.592 45.932 42.736C46.7 42.856 47.42 43.072 48.092 43.384C48.764 43.672 49.364 44.056 49.892 44.536C50.42 45.016 50.828 45.592 51.116 46.264C51.428 46.936 51.584 47.728 51.584 48.64C51.584 49.6 51.584 50.656 51.584 51.808C51.584 52.936 51.584 54.052 51.584 55.156C51.584 56.236 51.584 57.22 51.584 58.108C51.584 58.996 51.584 59.668 51.584 60.124C51.584 60.7 51.584 61.312 51.584 61.96C51.584 62.608 51.584 63.244 51.584 63.868C51.584 64.468 51.584 65.032 51.584 65.56C51.584 66.16 51.416 66.616 51.08 66.928C50.768 67.24 50.396 67.396 49.964 67.396C49.532 67.396 49.148 67.24 48.812 66.928C48.5 66.616 48.344 66.16 48.344 65.56C48.344 65.032 48.344 64.468 48.344 63.868C48.344 63.244 48.344 62.608 48.344 61.96C48.344 61.312 48.344 60.7 48.344 60.124C48.344 59.668 48.344 58.972 48.344 58.036C48.344 57.076 48.344 56.02 48.344 54.868C48.344 53.692 48.344 52.552 48.344 51.448C48.344 50.344 48.344 49.408 48.344 48.64C48.344 47.896 48.212 47.332 47.948 46.948C47.684 46.54 47.324 46.252 46.868 46.084C46.436 45.916 45.944 45.82 45.392 45.796C44.84 45.772 44.276 45.76 43.7 45.76C43.22 45.76 42.824 45.652 42.512 45.436C42.224 45.22 42.032 44.956 41.936 44.644C41.84 44.308 41.84 43.984 41.936 43.672C42.032 43.336 42.224 43.06 42.512 42.844C42.824 42.628 43.22 42.52 43.7 42.52C44.444 42.52 45.308 42.52 46.292 42.52C47.3 42.52 48.32 42.52 49.352 42.52C50.408 42.52 51.416 42.52 52.376 42.52C53.336 42.52 54.152 42.52 54.824 42.52C55.52 42.52 55.988 42.52 56.228 42.52C56.852 42.52 57.308 42.688 57.596 43.024C57.908 43.336 58.064 43.708 58.064 44.14C58.064 44.572 57.908 44.956 57.596 45.292C57.308 45.604 56.852 45.76 56.228 45.76ZM64.4532 67.036C63.4452 66.676 62.5572 66.232 61.7892 65.704C61.0452 65.152 60.3852 64.444 59.8092 63.58C59.3052 62.836 58.9092 61.996 58.6212 61.06C58.3332 60.124 58.1892 59.116 58.1892 58.036C58.1892 56.236 58.5732 54.64 59.3412 53.248C60.1332 51.832 61.2012 50.728 62.5452 49.936C63.9132 49.12 65.4492 48.712 67.1532 48.712C68.8812 48.712 70.4172 49.12 71.7612 49.936C73.1292 50.728 74.1972 51.832 74.9652 53.248C75.7572 54.64 76.1532 56.236 76.1532 58.036C76.1532 59.092 76.0092 60.088 75.7212 61.024C75.4572 61.936 75.0612 62.776 74.5332 63.544C73.9572 64.432 73.2972 65.14 72.5532 65.668C71.8092 66.196 70.8972 66.652 69.8172 67.036C69.2652 67.228 68.7852 67.216 68.3772 67C67.9932 66.784 67.7292 66.472 67.5852 66.064C67.4412 65.656 67.4652 65.26 67.6572 64.876C67.8492 64.468 68.2332 64.156 68.8092 63.94C69.5292 63.7 70.1172 63.424 70.5732 63.112C71.0292 62.776 71.4612 62.32 71.8692 61.744C72.2052 61.24 72.4572 60.676 72.6252 60.052C72.8172 59.428 72.9132 58.756 72.9132 58.036C72.9132 56.86 72.6612 55.816 72.1572 54.904C71.6772 53.968 71.0052 53.248 70.1412 52.744C69.2772 52.216 68.2812 51.952 67.1532 51.952C66.0252 51.952 65.0292 52.216 64.1652 52.744C63.3012 53.248 62.6292 53.968 62.1492 54.904C61.6692 55.816 61.4292 56.86 61.4292 58.036C61.4292 58.756 61.5132 59.44 61.6812 60.088C61.8732 60.712 62.1372 61.276 62.4732 61.78C62.7372 62.164 63.0132 62.488 63.3012 62.752C63.6132 63.016 63.9492 63.244 64.3092 63.436C64.6692 63.628 65.0652 63.796 65.4972 63.94C66.0732 64.156 66.4572 64.468 66.6492 64.876C66.8412 65.26 66.8652 65.656 66.7212 66.064C66.5772 66.472 66.3012 66.784 65.8932 67C65.5092 67.216 65.0292 67.228 64.4532 67.036ZM96.2465 41.944C96.2465 42.448 96.2465 42.892 96.2465 43.276C96.2465 43.66 96.2465 44.056 96.2465 44.464C96.2465 44.872 96.2465 45.376 96.2465 45.976C96.2465 47.344 96.2465 48.52 96.2465 49.504C96.2465 50.464 96.2465 51.376 96.2465 52.24C96.2465 53.08 96.2465 53.992 96.2465 54.976C96.2465 55.936 96.2465 57.1 96.2465 58.468C96.2465 59.836 96.0305 61.072 95.5985 62.176C95.1665 63.256 94.5545 64.192 93.7625 64.984C92.9945 65.752 92.0825 66.352 91.0265 66.784C89.9945 67.192 88.8665 67.396 87.6425 67.396C86.4185 67.396 85.2785 67.168 84.2225 66.712C83.1665 66.256 82.2425 65.608 81.4505 64.768C80.6585 63.928 80.0465 62.944 79.6145 61.816C79.1825 60.664 78.9665 59.404 78.9665 58.036C78.9665 56.212 79.3385 54.604 80.0825 53.212C80.8505 51.796 81.8825 50.692 83.1785 49.9C84.4985 49.108 85.9745 48.712 87.6065 48.712C88.8305 48.712 89.9585 48.94 90.9905 49.396C92.0465 49.828 92.9585 50.464 93.7265 51.304C94.5185 52.12 95.1305 53.092 95.5625 54.22C96.0185 55.348 96.2465 56.596 96.2465 57.964C96.2465 58.78 96.2465 59.56 96.2465 60.304C96.2465 61.048 96.2465 61.732 96.2465 62.356C96.2465 63.004 96.2465 63.604 96.2465 64.156C96.2465 64.708 96.2465 65.308 96.2465 65.956C96.2465 66.556 96.0785 67.012 95.7425 67.324C95.4305 67.636 95.0585 67.792 94.6265 67.792C94.1945 67.792 93.8105 67.636 93.4745 67.324C93.1625 67.036 93.0065 66.58 93.0065 65.956C93.0065 65.26 93.0065 64.624 93.0065 64.048C93.0065 63.448 93.0065 62.884 93.0065 62.356C93.0065 62.092 93.0065 61.684 93.0065 61.132C93.0065 60.556 93.0065 59.98 93.0065 59.404C93.0065 58.804 93.0065 58.324 93.0065 57.964C93.0065 56.788 92.7785 55.744 92.3225 54.832C91.8665 53.92 91.2305 53.212 90.4145 52.708C89.5985 52.204 88.6625 51.952 87.6065 51.952C86.8145 51.952 86.0825 52.108 85.4105 52.42C84.7385 52.708 84.1625 53.128 83.6825 53.68C83.2265 54.208 82.8665 54.844 82.6025 55.588C82.3385 56.332 82.2065 57.148 82.2065 58.036C82.2065 59.212 82.4345 60.268 82.8905 61.204C83.3465 62.116 83.9825 62.836 84.7985 63.364C85.6145 63.892 86.5625 64.156 87.6425 64.156C88.4345 64.156 89.1545 64.036 89.8025 63.796C90.4745 63.532 91.0505 63.16 91.5305 62.68C92.0105 62.176 92.3705 61.576 92.6105 60.88C92.8745 60.16 93.0065 59.356 93.0065 58.468C93.0065 57.196 93.0065 56.092 93.0065 55.156C93.0065 54.22 93.0065 53.38 93.0065 52.636C93.0065 51.892 93.0065 51.196 93.0065 50.548C93.0065 49.876 93.0065 49.18 93.0065 48.46C93.0065 47.74 93.0065 46.912 93.0065 45.976C93.0065 45.544 93.0065 45.124 93.0065 44.716C93.0065 44.284 93.0065 43.852 93.0065 43.42C93.0065 42.964 93.0065 42.472 93.0065 41.944C93.0065 41.344 93.1625 40.9 93.4745 40.612C93.8105 40.3 94.1945 40.144 94.6265 40.144C95.0585 40.144 95.4305 40.3 95.7425 40.612C96.0785 40.9 96.2465 41.344 96.2465 41.944ZM117.27 50.728C117.27 51.352 117.27 51.928 117.27 52.456C117.27 52.984 117.27 53.548 117.27 54.148C117.27 54.724 117.27 55.396 117.27 56.164C117.27 56.908 117.27 57.796 117.27 58.828C117.27 60.196 117.054 61.408 116.622 62.464C116.19 63.52 115.578 64.42 114.786 65.164C114.018 65.884 113.106 66.436 112.05 66.82C111.018 67.204 109.89 67.396 108.666 67.396C107.442 67.396 106.302 67.168 105.246 66.712C104.19 66.256 103.266 65.608 102.474 64.768C101.682 63.928 101.07 62.944 100.638 61.816C100.206 60.664 99.9899 59.404 99.9899 58.036C99.9899 56.212 100.362 54.604 101.106 53.212C101.874 51.796 102.906 50.692 104.202 49.9C105.522 49.108 106.998 48.712 108.63 48.712C109.854 48.712 110.982 48.94 112.014 49.396C113.07 49.828 113.982 50.464 114.75 51.304C115.542 52.12 116.154 53.092 116.586 54.22C117.042 55.348 117.27 56.596 117.27 57.964C117.27 58.516 117.27 59.056 117.27 59.584C117.27 60.088 117.27 60.58 117.27 61.06C117.27 61.516 117.27 61.948 117.27 62.356C117.27 63.004 117.27 63.604 117.27 64.156C117.27 64.708 117.27 65.308 117.27 65.956C117.27 66.556 117.102 67.012 116.766 67.324C116.454 67.636 116.082 67.792 115.65 67.792C115.218 67.792 114.834 67.636 114.498 67.324C114.186 67.012 114.03 66.556 114.03 65.956C114.03 65.572 114.03 65.176 114.03 64.768C114.03 64.36 114.03 63.964 114.03 63.58C114.03 63.172 114.03 62.764 114.03 62.356C114.03 62.092 114.03 61.684 114.03 61.132C114.03 60.556 114.03 59.98 114.03 59.404C114.03 58.804 114.03 58.324 114.03 57.964C114.03 56.788 113.802 55.744 113.346 54.832C112.89 53.92 112.254 53.212 111.438 52.708C110.622 52.204 109.686 51.952 108.63 51.952C107.838 51.952 107.106 52.108 106.434 52.42C105.762 52.708 105.186 53.128 104.706 53.68C104.25 54.208 103.89 54.844 103.626 55.588C103.362 56.332 103.23 57.148 103.23 58.036C103.23 58.924 103.362 59.74 103.626 60.484C103.89 61.228 104.262 61.876 104.742 62.428C105.222 62.98 105.798 63.412 106.47 63.724C107.142 64.012 107.874 64.156 108.666 64.156C109.458 64.156 110.178 64.048 110.826 63.832C111.498 63.616 112.074 63.292 112.554 62.86C113.034 62.404 113.394 61.84 113.634 61.168C113.898 60.496 114.03 59.716 114.03 58.828C114.03 58.132 114.03 57.4 114.03 56.632C114.03 55.864 114.03 55.108 114.03 54.364C114.03 53.62 114.03 52.936 114.03 52.312C114.03 51.664 114.03 51.136 114.03 50.728C114.03 50.128 114.186 49.672 114.498 49.36C114.834 49.048 115.218 48.892 115.65 48.892C116.082 48.892 116.454 49.048 116.766 49.36C117.102 49.672 117.27 50.128 117.27 50.728ZM124.001 70.816C124.121 70.552 124.241 70.276 124.361 69.988C124.505 69.7 124.637 69.412 124.757 69.124C124.901 68.836 125.033 68.548 125.153 68.26C125.297 67.996 125.429 67.72 125.549 67.432C125.645 67.192 125.741 66.964 125.837 66.748C125.933 66.532 126.029 66.328 126.125 66.136C126.221 65.92 126.305 65.716 126.377 65.524C126.545 65.164 126.605 64.804 126.557 64.444C126.509 64.06 126.389 63.652 126.197 63.22C126.005 62.788 125.765 62.308 125.477 61.78C125.189 61.252 124.889 60.664 124.577 60.016C124.337 59.512 124.049 58.912 123.713 58.216C123.377 57.496 123.017 56.74 122.633 55.948C122.273 55.132 121.901 54.316 121.517 53.5C121.133 52.684 120.773 51.916 120.437 51.196C120.197 50.644 120.161 50.164 120.329 49.756C120.497 49.348 120.773 49.06 121.157 48.892C121.541 48.7 121.937 48.676 122.345 48.82C122.777 48.94 123.125 49.276 123.389 49.828C123.725 50.572 124.073 51.352 124.433 52.168C124.817 52.96 125.189 53.752 125.549 54.544C125.933 55.336 126.281 56.08 126.593 56.776C126.929 57.472 127.217 58.072 127.457 58.576C128.033 59.752 128.501 60.736 128.861 61.528C129.245 62.296 129.509 62.968 129.653 63.544C129.821 64.096 129.869 64.624 129.797 65.128C129.749 65.632 129.581 66.208 129.293 66.856C129.221 67.024 129.125 67.216 129.005 67.432C128.909 67.648 128.813 67.876 128.717 68.116C128.621 68.356 128.525 68.584 128.429 68.8C128.309 69.088 128.189 69.376 128.069 69.664C127.949 69.952 127.817 70.24 127.673 70.528C127.553 70.816 127.433 71.092 127.313 71.356C127.193 71.644 127.073 71.92 126.953 72.184C126.737 72.616 126.461 72.916 126.125 73.084C125.813 73.276 125.489 73.348 125.153 73.3C124.841 73.252 124.553 73.108 124.289 72.868C124.049 72.652 123.893 72.364 123.821 72.004C123.749 71.644 123.809 71.248 124.001 70.816ZM136.385 51.16C136.193 51.592 135.989 52.036 135.773 52.492C135.581 52.948 135.377 53.404 135.161 53.86C134.969 54.316 134.777 54.748 134.585 55.156C134.417 55.564 134.261 55.924 134.117 56.236C133.613 57.388 133.049 58.636 132.425 59.98C131.825 61.324 131.249 62.608 130.697 63.832C130.145 65.056 129.689 66.064 129.329 66.856C129.233 67.072 129.137 67.288 129.041 67.504C128.945 67.744 128.837 67.972 128.717 68.188C128.621 68.404 128.525 68.632 128.429 68.872C128.309 69.16 128.189 69.436 128.069 69.7C127.949 69.988 127.829 70.264 127.709 70.528C127.589 70.816 127.457 71.092 127.313 71.356C127.193 71.644 127.073 71.92 126.953 72.184C126.737 72.616 126.461 72.916 126.125 73.084C125.813 73.276 125.489 73.348 125.153 73.3C124.841 73.252 124.553 73.108 124.289 72.868C124.049 72.652 123.893 72.364 123.821 72.004C123.749 71.644 123.809 71.248 124.001 70.816C124.121 70.552 124.241 70.276 124.361 69.988C124.505 69.7 124.649 69.412 124.793 69.124C124.937 68.836 125.069 68.548 125.189 68.26C125.333 67.972 125.465 67.696 125.585 67.432C125.681 67.192 125.765 66.976 125.837 66.784C125.933 66.592 126.017 66.4 126.089 66.208C126.185 66.016 126.281 65.8 126.377 65.56C126.617 65.008 126.929 64.324 127.313 63.508C127.697 62.668 128.105 61.756 128.537 60.772C128.993 59.788 129.449 58.792 129.905 57.784C130.361 56.776 130.781 55.828 131.165 54.94C131.357 54.532 131.573 54.04 131.813 53.464C132.077 52.888 132.353 52.288 132.641 51.664C132.929 51.016 133.193 50.416 133.433 49.864C133.673 49.312 133.997 48.964 134.405 48.82C134.837 48.676 135.245 48.688 135.629 48.856C136.037 49.024 136.325 49.312 136.493 49.72C136.685 50.128 136.649 50.608 136.385 51.16Z" fill="#F4364C"/>
</g>
<g filter="url(#filter3_f_8_2)">
<path d="M56.228 45.76C55.868 45.76 55.28 45.76 54.464 45.76C53.672 45.76 52.748 45.76 51.692 45.76C50.66 45.76 49.616 45.76 48.56 45.76C47.528 45.76 46.568 45.76 45.68 45.76C44.816 45.76 44.156 45.76 43.7 45.76C43.22 45.76 42.824 45.652 42.512 45.436C42.224 45.22 42.032 44.956 41.936 44.644C41.84 44.308 41.84 43.984 41.936 43.672C42.032 43.336 42.224 43.06 42.512 42.844C42.824 42.628 43.22 42.52 43.7 42.52C44.444 42.52 45.188 42.592 45.932 42.736C46.7 42.856 47.42 43.072 48.092 43.384C48.764 43.672 49.364 44.056 49.892 44.536C50.42 45.016 50.828 45.592 51.116 46.264C51.428 46.936 51.584 47.728 51.584 48.64C51.584 49.6 51.584 50.656 51.584 51.808C51.584 52.936 51.584 54.052 51.584 55.156C51.584 56.236 51.584 57.22 51.584 58.108C51.584 58.996 51.584 59.668 51.584 60.124C51.584 60.7 51.584 61.312 51.584 61.96C51.584 62.608 51.584 63.244 51.584 63.868C51.584 64.468 51.584 65.032 51.584 65.56C51.584 66.16 51.416 66.616 51.08 66.928C50.768 67.24 50.396 67.396 49.964 67.396C49.532 67.396 49.148 67.24 48.812 66.928C48.5 66.616 48.344 66.16 48.344 65.56C48.344 65.032 48.344 64.468 48.344 63.868C48.344 63.244 48.344 62.608 48.344 61.96C48.344 61.312 48.344 60.7 48.344 60.124C48.344 59.668 48.344 58.972 48.344 58.036C48.344 57.076 48.344 56.02 48.344 54.868C48.344 53.692 48.344 52.552 48.344 51.448C48.344 50.344 48.344 49.408 48.344 48.64C48.344 47.896 48.212 47.332 47.948 46.948C47.684 46.54 47.324 46.252 46.868 46.084C46.436 45.916 45.944 45.82 45.392 45.796C44.84 45.772 44.276 45.76 43.7 45.76C43.22 45.76 42.824 45.652 42.512 45.436C42.224 45.22 42.032 44.956 41.936 44.644C41.84 44.308 41.84 43.984 41.936 43.672C42.032 43.336 42.224 43.06 42.512 42.844C42.824 42.628 43.22 42.52 43.7 42.52C44.444 42.52 45.308 42.52 46.292 42.52C47.3 42.52 48.32 42.52 49.352 42.52C50.408 42.52 51.416 42.52 52.376 42.52C53.336 42.52 54.152 42.52 54.824 42.52C55.52 42.52 55.988 42.52 56.228 42.52C56.852 42.52 57.308 42.688 57.596 43.024C57.908 43.336 58.064 43.708 58.064 44.14C58.064 44.572 57.908 44.956 57.596 45.292C57.308 45.604 56.852 45.76 56.228 45.76ZM64.4532 67.036C63.4452 66.676 62.5572 66.232 61.7892 65.704C61.0452 65.152 60.3852 64.444 59.8092 63.58C59.3052 62.836 58.9092 61.996 58.6212 61.06C58.3332 60.124 58.1892 59.116 58.1892 58.036C58.1892 56.236 58.5732 54.64 59.3412 53.248C60.1332 51.832 61.2012 50.728 62.5452 49.936C63.9132 49.12 65.4492 48.712 67.1532 48.712C68.8812 48.712 70.4172 49.12 71.7612 49.936C73.1292 50.728 74.1972 51.832 74.9652 53.248C75.7572 54.64 76.1532 56.236 76.1532 58.036C76.1532 59.092 76.0092 60.088 75.7212 61.024C75.4572 61.936 75.0612 62.776 74.5332 63.544C73.9572 64.432 73.2972 65.14 72.5532 65.668C71.8092 66.196 70.8972 66.652 69.8172 67.036C69.2652 67.228 68.7852 67.216 68.3772 67C67.9932 66.784 67.7292 66.472 67.5852 66.064C67.4412 65.656 67.4652 65.26 67.6572 64.876C67.8492 64.468 68.2332 64.156 68.8092 63.94C69.5292 63.7 70.1172 63.424 70.5732 63.112C71.0292 62.776 71.4612 62.32 71.8692 61.744C72.2052 61.24 72.4572 60.676 72.6252 60.052C72.8172 59.428 72.9132 58.756 72.9132 58.036C72.9132 56.86 72.6612 55.816 72.1572 54.904C71.6772 53.968 71.0052 53.248 70.1412 52.744C69.2772 52.216 68.2812 51.952 67.1532 51.952C66.0252 51.952 65.0292 52.216 64.1652 52.744C63.3012 53.248 62.6292 53.968 62.1492 54.904C61.6692 55.816 61.4292 56.86 61.4292 58.036C61.4292 58.756 61.5132 59.44 61.6812 60.088C61.8732 60.712 62.1372 61.276 62.4732 61.78C62.7372 62.164 63.0132 62.488 63.3012 62.752C63.6132 63.016 63.9492 63.244 64.3092 63.436C64.6692 63.628 65.0652 63.796 65.4972 63.94C66.0732 64.156 66.4572 64.468 66.6492 64.876C66.8412 65.26 66.8652 65.656 66.7212 66.064C66.5772 66.472 66.3012 66.784 65.8932 67C65.5092 67.216 65.0292 67.228 64.4532 67.036ZM96.2465 41.944C96.2465 42.448 96.2465 42.892 96.2465 43.276C96.2465 43.66 96.2465 44.056 96.2465 44.464C96.2465 44.872 96.2465 45.376 96.2465 45.976C96.2465 47.344 96.2465 48.52 96.2465 49.504C96.2465 50.464 96.2465 51.376 96.2465 52.24C96.2465 53.08 96.2465 53.992 96.2465 54.976C96.2465 55.936 96.2465 57.1 96.2465 58.468C96.2465 59.836 96.0305 61.072 95.5985 62.176C95.1665 63.256 94.5545 64.192 93.7625 64.984C92.9945 65.752 92.0825 66.352 91.0265 66.784C89.9945 67.192 88.8665 67.396 87.6425 67.396C86.4185 67.396 85.2785 67.168 84.2225 66.712C83.1665 66.256 82.2425 65.608 81.4505 64.768C80.6585 63.928 80.0465 62.944 79.6145 61.816C79.1825 60.664 78.9665 59.404 78.9665 58.036C78.9665 56.212 79.3385 54.604 80.0825 53.212C80.8505 51.796 81.8825 50.692 83.1785 49.9C84.4985 49.108 85.9745 48.712 87.6065 48.712C88.8305 48.712 89.9585 48.94 90.9905 49.396C92.0465 49.828 92.9585 50.464 93.7265 51.304C94.5185 52.12 95.1305 53.092 95.5625 54.22C96.0185 55.348 96.2465 56.596 96.2465 57.964C96.2465 58.78 96.2465 59.56 96.2465 60.304C96.2465 61.048 96.2465 61.732 96.2465 62.356C96.2465 63.004 96.2465 63.604 96.2465 64.156C96.2465 64.708 96.2465 65.308 96.2465 65.956C96.2465 66.556 96.0785 67.012 95.7425 67.324C95.4305 67.636 95.0585 67.792 94.6265 67.792C94.1945 67.792 93.8105 67.636 93.4745 67.324C93.1625 67.036 93.0065 66.58 93.0065 65.956C93.0065 65.26 93.0065 64.624 93.0065 64.048C93.0065 63.448 93.0065 62.884 93.0065 62.356C93.0065 62.092 93.0065 61.684 93.0065 61.132C93.0065 60.556 93.0065 59.98 93.0065 59.404C93.0065 58.804 93.0065 58.324 93.0065 57.964C93.0065 56.788 92.7785 55.744 92.3225 54.832C91.8665 53.92 91.2305 53.212 90.4145 52.708C89.5985 52.204 88.6625 51.952 87.6065 51.952C86.8145 51.952 86.0825 52.108 85.4105 52.42C84.7385 52.708 84.1625 53.128 83.6825 53.68C83.2265 54.208 82.8665 54.844 82.6025 55.588C82.3385 56.332 82.2065 57.148 82.2065 58.036C82.2065 59.212 82.4345 60.268 82.8905 61.204C83.3465 62.116 83.9825 62.836 84.7985 63.364C85.6145 63.892 86.5625 64.156 87.6425 64.156C88.4345 64.156 89.1545 64.036 89.8025 63.796C90.4745 63.532 91.0505 63.16 91.5305 62.68C92.0105 62.176 92.3705 61.576 92.6105 60.88C92.8745 60.16 93.0065 59.356 93.0065 58.468C93.0065 57.196 93.0065 56.092 93.0065 55.156C93.0065 54.22 93.0065 53.38 93.0065 52.636C93.0065 51.892 93.0065 51.196 93.0065 50.548C93.0065 49.876 93.0065 49.18 93.0065 48.46C93.0065 47.74 93.0065 46.912 93.0065 45.976C93.0065 45.544 93.0065 45.124 93.0065 44.716C93.0065 44.284 93.0065 43.852 93.0065 43.42C93.0065 42.964 93.0065 42.472 93.0065 41.944C93.0065 41.344 93.1625 40.9 93.4745 40.612C93.8105 40.3 94.1945 40.144 94.6265 40.144C95.0585 40.144 95.4305 40.3 95.7425 40.612C96.0785 40.9 96.2465 41.344 96.2465 41.944ZM117.27 50.728C117.27 51.352 117.27 51.928 117.27 52.456C117.27 52.984 117.27 53.548 117.27 54.148C117.27 54.724 117.27 55.396 117.27 56.164C117.27 56.908 117.27 57.796 117.27 58.828C117.27 60.196 117.054 61.408 116.622 62.464C116.19 63.52 115.578 64.42 114.786 65.164C114.018 65.884 113.106 66.436 112.05 66.82C111.018 67.204 109.89 67.396 108.666 67.396C107.442 67.396 106.302 67.168 105.246 66.712C104.19 66.256 103.266 65.608 102.474 64.768C101.682 63.928 101.07 62.944 100.638 61.816C100.206 60.664 99.9899 59.404 99.9899 58.036C99.9899 56.212 100.362 54.604 101.106 53.212C101.874 51.796 102.906 50.692 104.202 49.9C105.522 49.108 106.998 48.712 108.63 48.712C109.854 48.712 110.982 48.94 112.014 49.396C113.07 49.828 113.982 50.464 114.75 51.304C115.542 52.12 116.154 53.092 116.586 54.22C117.042 55.348 117.27 56.596 117.27 57.964C117.27 58.516 117.27 59.056 117.27 59.584C117.27 60.088 117.27 60.58 117.27 61.06C117.27 61.516 117.27 61.948 117.27 62.356C117.27 63.004 117.27 63.604 117.27 64.156C117.27 64.708 117.27 65.308 117.27 65.956C117.27 66.556 117.102 67.012 116.766 67.324C116.454 67.636 116.082 67.792 115.65 67.792C115.218 67.792 114.834 67.636 114.498 67.324C114.186 67.012 114.03 66.556 114.03 65.956C114.03 65.572 114.03 65.176 114.03 64.768C114.03 64.36 114.03 63.964 114.03 63.58C114.03 63.172 114.03 62.764 114.03 62.356C114.03 62.092 114.03 61.684 114.03 61.132C114.03 60.556 114.03 59.98 114.03 59.404C114.03 58.804 114.03 58.324 114.03 57.964C114.03 56.788 113.802 55.744 113.346 54.832C112.89 53.92 112.254 53.212 111.438 52.708C110.622 52.204 109.686 51.952 108.63 51.952C107.838 51.952 107.106 52.108 106.434 52.42C105.762 52.708 105.186 53.128 104.706 53.68C104.25 54.208 103.89 54.844 103.626 55.588C103.362 56.332 103.23 57.148 103.23 58.036C103.23 58.924 103.362 59.74 103.626 60.484C103.89 61.228 104.262 61.876 104.742 62.428C105.222 62.98 105.798 63.412 106.47 63.724C107.142 64.012 107.874 64.156 108.666 64.156C109.458 64.156 110.178 64.048 110.826 63.832C111.498 63.616 112.074 63.292 112.554 62.86C113.034 62.404 113.394 61.84 113.634 61.168C113.898 60.496 114.03 59.716 114.03 58.828C114.03 58.132 114.03 57.4 114.03 56.632C114.03 55.864 114.03 55.108 114.03 54.364C114.03 53.62 114.03 52.936 114.03 52.312C114.03 51.664 114.03 51.136 114.03 50.728C114.03 50.128 114.186 49.672 114.498 49.36C114.834 49.048 115.218 48.892 115.65 48.892C116.082 48.892 116.454 49.048 116.766 49.36C117.102 49.672 117.27 50.128 117.27 50.728ZM124.001 70.816C124.121 70.552 124.241 70.276 124.361 69.988C124.505 69.7 124.637 69.412 124.757 69.124C124.901 68.836 125.033 68.548 125.153 68.26C125.297 67.996 125.429 67.72 125.549 67.432C125.645 67.192 125.741 66.964 125.837 66.748C125.933 66.532 126.029 66.328 126.125 66.136C126.221 65.92 126.305 65.716 126.377 65.524C126.545 65.164 126.605 64.804 126.557 64.444C126.509 64.06 126.389 63.652 126.197 63.22C126.005 62.788 125.765 62.308 125.477 61.78C125.189 61.252 124.889 60.664 124.577 60.016C124.337 59.512 124.049 58.912 123.713 58.216C123.377 57.496 123.017 56.74 122.633 55.948C122.273 55.132 121.901 54.316 121.517 53.5C121.133 52.684 120.773 51.916 120.437 51.196C120.197 50.644 120.161 50.164 120.329 49.756C120.497 49.348 120.773 49.06 121.157 48.892C121.541 48.7 121.937 48.676 122.345 48.82C122.777 48.94 123.125 49.276 123.389 49.828C123.725 50.572 124.073 51.352 124.433 52.168C124.817 52.96 125.189 53.752 125.549 54.544C125.933 55.336 126.281 56.08 126.593 56.776C126.929 57.472 127.217 58.072 127.457 58.576C128.033 59.752 128.501 60.736 128.861 61.528C129.245 62.296 129.509 62.968 129.653 63.544C129.821 64.096 129.869 64.624 129.797 65.128C129.749 65.632 129.581 66.208 129.293 66.856C129.221 67.024 129.125 67.216 129.005 67.432C128.909 67.648 128.813 67.876 128.717 68.116C128.621 68.356 128.525 68.584 128.429 68.8C128.309 69.088 128.189 69.376 128.069 69.664C127.949 69.952 127.817 70.24 127.673 70.528C127.553 70.816 127.433 71.092 127.313 71.356C127.193 71.644 127.073 71.92 126.953 72.184C126.737 72.616 126.461 72.916 126.125 73.084C125.813 73.276 125.489 73.348 125.153 73.3C124.841 73.252 124.553 73.108 124.289 72.868C124.049 72.652 123.893 72.364 123.821 72.004C123.749 71.644 123.809 71.248 124.001 70.816ZM136.385 51.16C136.193 51.592 135.989 52.036 135.773 52.492C135.581 52.948 135.377 53.404 135.161 53.86C134.969 54.316 134.777 54.748 134.585 55.156C134.417 55.564 134.261 55.924 134.117 56.236C133.613 57.388 133.049 58.636 132.425 59.98C131.825 61.324 131.249 62.608 130.697 63.832C130.145 65.056 129.689 66.064 129.329 66.856C129.233 67.072 129.137 67.288 129.041 67.504C128.945 67.744 128.837 67.972 128.717 68.188C128.621 68.404 128.525 68.632 128.429 68.872C128.309 69.16 128.189 69.436 128.069 69.7C127.949 69.988 127.829 70.264 127.709 70.528C127.589 70.816 127.457 71.092 127.313 71.356C127.193 71.644 127.073 71.92 126.953 72.184C126.737 72.616 126.461 72.916 126.125 73.084C125.813 73.276 125.489 73.348 125.153 73.3C124.841 73.252 124.553 73.108 124.289 72.868C124.049 72.652 123.893 72.364 123.821 72.004C123.749 71.644 123.809 71.248 124.001 70.816C124.121 70.552 124.241 70.276 124.361 69.988C124.505 69.7 124.649 69.412 124.793 69.124C124.937 68.836 125.069 68.548 125.189 68.26C125.333 67.972 125.465 67.696 125.585 67.432C125.681 67.192 125.765 66.976 125.837 66.784C125.933 66.592 126.017 66.4 126.089 66.208C126.185 66.016 126.281 65.8 126.377 65.56C126.617 65.008 126.929 64.324 127.313 63.508C127.697 62.668 128.105 61.756 128.537 60.772C128.993 59.788 129.449 58.792 129.905 57.784C130.361 56.776 130.781 55.828 131.165 54.94C131.357 54.532 131.573 54.04 131.813 53.464C132.077 52.888 132.353 52.288 132.641 51.664C132.929 51.016 133.193 50.416 133.433 49.864C133.673 49.312 133.997 48.964 134.405 48.82C134.837 48.676 135.245 48.688 135.629 48.856C136.037 49.024 136.325 49.312 136.493 49.72C136.685 50.128 136.649 50.608 136.385 51.16Z" fill="#F4364C"/>
</g>
<rect x="31.5" y="31.5" width="117" height="47" rx="8.5" stroke="#FFCAD0" stroke-width="3"/>
<g filter="url(#filter4_f_8_2)">
<rect x="31.5" y="31.5" width="117" height="47" rx="8.5" stroke="#F4364C" stroke-width="3"/>
</g>
<g filter="url(#filter5_f_8_2)">
<rect x="31.5" y="31.5" width="117" height="47" rx="8.5" stroke="#F4364C" stroke-width="3"/>
</g>
<g filter="url(#filter6_f_8_2)">
<rect x="31.5" y="31.5" width="117" height="47" rx="8.5" stroke="#F4364C" stroke-width="3"/>
</g>
<g filter="url(#filter7_f_8_2)">
<rect x="31.5" y="31.5" width="117" height="47" rx="8.5" stroke="#F4364C" stroke-width="3"/>
</g>
</g>
<defs>
<filter id="filter0_f_8_2" x="31.792" y="30.144" width="114.989" height="53.228" filterUnits="userSpaceOnUse" color-interpolation-filters="sRGB">
<feFlood flood-opacity="0" result="BackgroundImageFix"/>
<feBlend mode="normal" in="SourceGraphic" in2="BackgroundImageFix" result="shape"/>
<feGaussianBlur stdDeviation="5" result="effect1_foregroundBlur_8_2"/>
</filter>
<filter id="filter1_f_8_2" x="26.792" y="25.144" width="124.989" height="63.228" filterUnits="userSpaceOnUse" color-interpolation-filters="sRGB">
<feFlood flood-opacity="0" result="BackgroundImageFix"/>
<feBlend mode="normal" in="SourceGraphic" in2="BackgroundImageFix" result="shape"/>
<feGaussianBlur stdDeviation="7.5" result="effect1_foregroundBlur_8_2"/>
</filter>
<filter id="filter2_f_8_2" x="16.792" y="15.144" width="144.989" height="83.228" filterUnits="userSpaceOnUse" color-interpolation-filters="sRGB">
<feFlood flood-opacity="0" result="BackgroundImageFix"/>
<feBlend mode="normal" in="SourceGraphic" in2="BackgroundImageFix" result="shape"/>
<feGaussianBlur stdDeviation="12.5" result="effect1_foregroundBlur_8_2"/>
</filter>
<filter id="filter3_f_8_2" x="1.79199" y="0.143997" width="174.989" height="113.228" filterUnits="userSpaceOnUse" color-interpolation-filters="sRGB">
<feFlood flood-opacity="0" result="BackgroundImageFix"/>
<feBlend mode="normal" in="SourceGraphic" in2="BackgroundImageFix" result="shape"/>
<feGaussianBlur stdDeviation="20" result="effect1_foregroundBlur_8_2"/>
</filter>
<filter id="filter4_f_8_2" x="20" y="20" width="140" height="70" filterUnits="userSpaceOnUse" color-interpolation-filters="sRGB">
<feFlood flood-opacity="0" result="BackgroundImageFix"/>
<feBlend mode="normal" in="SourceGraphic" in2="BackgroundImageFix" result="shape"/>
<feGaussianBlur stdDeviation="5" result="effect1_foregroundBlur_8_2"/>
</filter>
<filter id="filter5_f_8_2" x="15" y="15" width="150" height="80" filterUnits="userSpaceOnUse" color-interpolation-filters="sRGB">
<feFlood flood-opacity="0" result="BackgroundImageFix"/>
<feBlend mode="normal" in="SourceGraphic" in2="BackgroundImageFix" result="shape"/>
<feGaussianBlur stdDeviation="7.5" result="effect1_foregroundBlur_8_2"/>
</filter>
<filter id="filter6_f_8_2" x="5" y="5" width="170" height="100" filterUnits="userSpaceOnUse" color-interpolation-filters="sRGB">
<feFlood flood-opacity="0" result="BackgroundImageFix"/>
<feBlend mode="normal" in="SourceGraphic" in2="BackgroundImageFix" result="shape"/>
<feGaussianBlur stdDeviation="12.5" result="effect1_foregroundBlur_8_2"/>
</filter>
<filter id="filter7_f_8_2" x="-10" y="-10" width="200" height="130" filterUnits="userSpaceOnUse" color-interpolation-filters="sRGB">
<feFlood flood-opacity="0" result="BackgroundImageFix"/>
<feBlend mode="normal" in="SourceGraphic" in2="BackgroundImageFix" result="shape"/>
<feGaussianBlur stdDeviation="20" result="effect1_foregroundBlur_8_2"/>
</filter>
<clipPath id="clip0_8_2">
<rect width="180" height="110" fill="white"/>
</clipPath>
</defs>
</svg>
