<svg width="74" height="74" viewBox="0 0 74 74" fill="none" xmlns="http://www.w3.org/2000/svg">
<g clip-path="url(#clip0_17_66)">
<path d="M45.927 19.133C45.137 14.43 41.348 12.532 38.019 13.093C35.096 13.582 32.284 16.098 33.014 20.467L34.81 31.207C30.743 34.701 26.988 38.542 27.82 43.492C28.528 47.729 31.995 50.291 36.723 50.291C37.137 50.291 37.562 50.266 37.994 50.226L39.048 56.515C39.237 57.659 38.457 58.748 37.315 58.942L36.885 59.012C35.749 59.206 34.647 58.428 34.454 57.269C34.434 57.158 34.432 57.046 34.432 56.936C34.432 55.899 35.168 55.025 36.216 54.853L36.41 54.814C36.952 54.707 37.305 54.18 37.196 53.638C37.09 53.096 36.562 52.742 36.021 52.852L35.859 52.885C33.873 53.211 32.431 54.915 32.431 56.936C32.431 57.167 32.444 57.398 32.484 57.613C32.817 59.616 34.563 61.042 36.535 61.042C36.758 61.042 36.982 61.024 37.209 60.986L37.643 60.915C39.874 60.537 41.39 58.416 41.021 56.186L39.964 49.875C41.594 49.399 43.508 48.341 44.829 46.501C46.089 44.749 46.549 42.599 46.161 40.285C45.741 37.776 44.104 36.05 41.787 35.67C40.272 35.413 38.666 35.811 37.603 36.705C36.795 37.385 36.348 38.308 36.344 39.303C36.337 40.872 36.988 41.786 37.535 42.278C38.914 43.513 40.904 43.328 41.127 43.303C41.674 43.241 42.065 42.749 42.005 42.201C41.945 41.654 41.455 41.256 40.905 41.315C40.54 41.353 39.467 41.329 38.865 40.784C38.511 40.464 38.341 39.982 38.344 39.312C38.346 38.902 38.53 38.54 38.891 38.236C39.507 37.717 40.518 37.484 41.458 37.643C42.148 37.756 43.796 38.273 44.187 40.616C44.49 42.418 44.159 44.006 43.204 45.335C42.239 46.678 40.83 47.491 39.63 47.888L39.064 44.512C38.973 43.968 38.457 43.601 37.913 43.69C37.369 43.781 37.001 44.296 37.092 44.841L37.662 48.243C34.061 48.504 30.449 47.088 29.792 43.161C29.186 39.556 31.942 36.42 35.199 33.522L35.516 35.406C35.607 35.95 36.122 36.317 36.668 36.226C37.213 36.134 37.58 35.618 37.488 35.074L36.969 31.995C37.27 31.742 37.572 31.489 37.873 31.236C42.217 27.601 46.708 23.842 45.925 19.132L45.927 19.133ZM36.592 29.703C36.592 29.703 36.589 29.706 36.587 29.707L34.986 20.137C34.479 17.108 36.31 15.408 38.348 15.066C38.614 15.022 38.885 14.999 39.159 14.999C41.235 14.999 43.426 16.313 43.954 19.463C44.55 23.044 40.683 26.279 36.592 29.704V29.703Z" fill="#FFCAD0"/>
<g filter="url(#filter0_f_17_66)">
<path d="M45.927 19.133C45.137 14.43 41.348 12.532 38.019 13.093C35.096 13.582 32.284 16.098 33.014 20.467L34.81 31.207C30.743 34.701 26.988 38.542 27.82 43.492C28.528 47.729 31.995 50.291 36.723 50.291C37.137 50.291 37.562 50.266 37.994 50.226L39.048 56.515C39.237 57.659 38.457 58.748 37.315 58.942L36.885 59.012C35.749 59.206 34.647 58.428 34.454 57.269C34.434 57.158 34.432 57.046 34.432 56.936C34.432 55.899 35.168 55.025 36.216 54.853L36.41 54.814C36.952 54.707 37.305 54.18 37.196 53.638C37.09 53.096 36.562 52.742 36.021 52.852L35.859 52.885C33.873 53.211 32.431 54.915 32.431 56.936C32.431 57.167 32.444 57.398 32.484 57.613C32.817 59.616 34.563 61.042 36.535 61.042C36.758 61.042 36.982 61.024 37.209 60.986L37.643 60.915C39.874 60.537 41.39 58.416 41.021 56.186L39.964 49.875C41.594 49.399 43.508 48.341 44.829 46.501C46.089 44.749 46.549 42.599 46.161 40.285C45.741 37.776 44.104 36.05 41.787 35.67C40.272 35.413 38.666 35.811 37.603 36.705C36.795 37.385 36.348 38.308 36.344 39.303C36.337 40.872 36.988 41.786 37.535 42.278C38.914 43.513 40.904 43.328 41.127 43.303C41.674 43.241 42.065 42.749 42.005 42.201C41.945 41.654 41.455 41.256 40.905 41.315C40.54 41.353 39.467 41.329 38.865 40.784C38.511 40.464 38.341 39.982 38.344 39.312C38.346 38.902 38.53 38.54 38.891 38.236C39.507 37.717 40.518 37.484 41.458 37.643C42.148 37.756 43.796 38.273 44.187 40.616C44.49 42.418 44.159 44.006 43.204 45.335C42.239 46.678 40.83 47.491 39.63 47.888L39.064 44.512C38.973 43.968 38.457 43.601 37.913 43.69C37.369 43.781 37.001 44.296 37.092 44.841L37.662 48.243C34.061 48.504 30.449 47.088 29.792 43.161C29.186 39.556 31.942 36.42 35.199 33.522L35.516 35.406C35.607 35.95 36.122 36.317 36.668 36.226C37.213 36.134 37.58 35.618 37.488 35.074L36.969 31.995C37.27 31.742 37.572 31.489 37.873 31.236C42.217 27.601 46.708 23.842 45.925 19.132L45.927 19.133ZM36.592 29.703C36.592 29.703 36.589 29.706 36.587 29.707L34.986 20.137C34.479 17.108 36.31 15.408 38.348 15.066C38.614 15.022 38.885 14.999 39.159 14.999C41.235 14.999 43.426 16.313 43.954 19.463C44.55 23.044 40.683 26.279 36.592 29.704V29.703Z" fill="#F4364C"/>
</g>
<g filter="url(#filter1_f_17_66)">
<path d="M45.927 19.133C45.137 14.43 41.348 12.532 38.019 13.093C35.096 13.582 32.284 16.098 33.014 20.467L34.81 31.207C30.743 34.701 26.988 38.542 27.82 43.492C28.528 47.729 31.995 50.291 36.723 50.291C37.137 50.291 37.562 50.266 37.994 50.226L39.048 56.515C39.237 57.659 38.457 58.748 37.315 58.942L36.885 59.012C35.749 59.206 34.647 58.428 34.454 57.269C34.434 57.158 34.432 57.046 34.432 56.936C34.432 55.899 35.168 55.025 36.216 54.853L36.41 54.814C36.952 54.707 37.305 54.18 37.196 53.638C37.09 53.096 36.562 52.742 36.021 52.852L35.859 52.885C33.873 53.211 32.431 54.915 32.431 56.936C32.431 57.167 32.444 57.398 32.484 57.613C32.817 59.616 34.563 61.042 36.535 61.042C36.758 61.042 36.982 61.024 37.209 60.986L37.643 60.915C39.874 60.537 41.39 58.416 41.021 56.186L39.964 49.875C41.594 49.399 43.508 48.341 44.829 46.501C46.089 44.749 46.549 42.599 46.161 40.285C45.741 37.776 44.104 36.05 41.787 35.67C40.272 35.413 38.666 35.811 37.603 36.705C36.795 37.385 36.348 38.308 36.344 39.303C36.337 40.872 36.988 41.786 37.535 42.278C38.914 43.513 40.904 43.328 41.127 43.303C41.674 43.241 42.065 42.749 42.005 42.201C41.945 41.654 41.455 41.256 40.905 41.315C40.54 41.353 39.467 41.329 38.865 40.784C38.511 40.464 38.341 39.982 38.344 39.312C38.346 38.902 38.53 38.54 38.891 38.236C39.507 37.717 40.518 37.484 41.458 37.643C42.148 37.756 43.796 38.273 44.187 40.616C44.49 42.418 44.159 44.006 43.204 45.335C42.239 46.678 40.83 47.491 39.63 47.888L39.064 44.512C38.973 43.968 38.457 43.601 37.913 43.69C37.369 43.781 37.001 44.296 37.092 44.841L37.662 48.243C34.061 48.504 30.449 47.088 29.792 43.161C29.186 39.556 31.942 36.42 35.199 33.522L35.516 35.406C35.607 35.95 36.122 36.317 36.668 36.226C37.213 36.134 37.58 35.618 37.488 35.074L36.969 31.995C37.27 31.742 37.572 31.489 37.873 31.236C42.217 27.601 46.708 23.842 45.925 19.132L45.927 19.133ZM36.592 29.703C36.592 29.703 36.589 29.706 36.587 29.707L34.986 20.137C34.479 17.108 36.31 15.408 38.348 15.066C38.614 15.022 38.885 14.999 39.159 14.999C41.235 14.999 43.426 16.313 43.954 19.463C44.55 23.044 40.683 26.279 36.592 29.704V29.703Z" fill="#F4364C"/>
</g>
<g filter="url(#filter2_f_17_66)">
<path d="M45.927 19.133C45.137 14.43 41.348 12.532 38.019 13.093C35.096 13.582 32.284 16.098 33.014 20.467L34.81 31.207C30.743 34.701 26.988 38.542 27.82 43.492C28.528 47.729 31.995 50.291 36.723 50.291C37.137 50.291 37.562 50.266 37.994 50.226L39.048 56.515C39.237 57.659 38.457 58.748 37.315 58.942L36.885 59.012C35.749 59.206 34.647 58.428 34.454 57.269C34.434 57.158 34.432 57.046 34.432 56.936C34.432 55.899 35.168 55.025 36.216 54.853L36.41 54.814C36.952 54.707 37.305 54.18 37.196 53.638C37.09 53.096 36.562 52.742 36.021 52.852L35.859 52.885C33.873 53.211 32.431 54.915 32.431 56.936C32.431 57.167 32.444 57.398 32.484 57.613C32.817 59.616 34.563 61.042 36.535 61.042C36.758 61.042 36.982 61.024 37.209 60.986L37.643 60.915C39.874 60.537 41.39 58.416 41.021 56.186L39.964 49.875C41.594 49.399 43.508 48.341 44.829 46.501C46.089 44.749 46.549 42.599 46.161 40.285C45.741 37.776 44.104 36.05 41.787 35.67C40.272 35.413 38.666 35.811 37.603 36.705C36.795 37.385 36.348 38.308 36.344 39.303C36.337 40.872 36.988 41.786 37.535 42.278C38.914 43.513 40.904 43.328 41.127 43.303C41.674 43.241 42.065 42.749 42.005 42.201C41.945 41.654 41.455 41.256 40.905 41.315C40.54 41.353 39.467 41.329 38.865 40.784C38.511 40.464 38.341 39.982 38.344 39.312C38.346 38.902 38.53 38.54 38.891 38.236C39.507 37.717 40.518 37.484 41.458 37.643C42.148 37.756 43.796 38.273 44.187 40.616C44.49 42.418 44.159 44.006 43.204 45.335C42.239 46.678 40.83 47.491 39.63 47.888L39.064 44.512C38.973 43.968 38.457 43.601 37.913 43.69C37.369 43.781 37.001 44.296 37.092 44.841L37.662 48.243C34.061 48.504 30.449 47.088 29.792 43.161C29.186 39.556 31.942 36.42 35.199 33.522L35.516 35.406C35.607 35.95 36.122 36.317 36.668 36.226C37.213 36.134 37.58 35.618 37.488 35.074L36.969 31.995C37.27 31.742 37.572 31.489 37.873 31.236C42.217 27.601 46.708 23.842 45.925 19.132L45.927 19.133ZM36.592 29.703C36.592 29.703 36.589 29.706 36.587 29.707L34.986 20.137C34.479 17.108 36.31 15.408 38.348 15.066C38.614 15.022 38.885 14.999 39.159 14.999C41.235 14.999 43.426 16.313 43.954 19.463C44.55 23.044 40.683 26.279 36.592 29.704V29.703Z" fill="#F4364C"/>
</g>
</g>
<defs>
<filter id="filter0_f_17_66" x="-5" y="-5" width="84" height="84" filterUnits="userSpaceOnUse" color-interpolation-filters="sRGB">
<feFlood flood-opacity="0" result="BackgroundImageFix"/>
<feBlend mode="normal" in="SourceGraphic" in2="BackgroundImageFix" result="shape"/>
<feGaussianBlur stdDeviation="5" result="effect1_foregroundBlur_17_66"/>
</filter>
<filter id="filter1_f_17_66" x="-10" y="-10" width="94" height="94" filterUnits="userSpaceOnUse" color-interpolation-filters="sRGB">
<feFlood flood-opacity="0" result="BackgroundImageFix"/>
<feBlend mode="normal" in="SourceGraphic" in2="BackgroundImageFix" result="shape"/>
<feGaussianBlur stdDeviation="7.5" result="effect1_foregroundBlur_17_66"/>
</filter>
<filter id="filter2_f_17_66" x="-10" y="-10" width="94" height="94" filterUnits="userSpaceOnUse" color-interpolation-filters="sRGB">
<feFlood flood-opacity="0" result="BackgroundImageFix"/>
<feBlend mode="normal" in="SourceGraphic" in2="BackgroundImageFix" result="shape"/>
<feGaussianBlur stdDeviation="7.5" result="effect1_foregroundBlur_17_66"/>
</filter>
<clipPath id="clip0_17_66">
<rect width="74" height="74" fill="white"/>
</clipPath>
</defs>
</svg>
