<?xml version="1.0" encoding="utf-8"?>
<!-- Generator: Adobe Illustrator 27.5.0, SVG Export Plug-In . SVG Version: 6.00 Build 0)  -->
<svg version="1.1" id="Layer_1" xmlns="http://www.w3.org/2000/svg" xmlns:xlink="http://www.w3.org/1999/xlink" x="0px" y="0px"
	 viewBox="0 0 750 750" style="enable-background:new 0 0 750 750;" xml:space="preserve">
<g>
	<polygon points="557.411,196.899 556.713,195.503 551.48,194.457 551.48,193.759 549.736,193.759 549.387,194.108 547.643,194.457 
		544.853,192.713 544.155,195.503 542.062,195.503 540.667,194.457 537.178,192.713 536.829,193.061 536.132,195.154 
		534.387,195.852 534.039,196.899 535.434,198.294 540.667,198.294 545.55,197.945 549.039,197.596 551.132,197.247 
		557.062,197.247 	"/>
	<polygon points="648.457,253.759 647.759,253.061 643.224,252.364 642.527,252.015 636.596,251.666 635.201,251.317 
		633.108,251.317 632.41,251.666 630.317,251.317 626.131,251.317 626.131,252.015 627.876,253.41 631.015,253.061 634.852,253.061 
		635.899,254.457 648.108,254.108 	"/>
	<polygon points="541.015,179.108 539.271,179.457 538.573,180.154 539.271,181.201 542.411,181.201 543.457,181.899 
		543.457,185.387 545.55,186.085 545.899,187.131 545.201,187.131 544.853,187.48 544.853,189.224 543.457,189.922 544.504,191.317 
		547.992,191.317 550.783,190.968 554.62,190.271 554.62,188.875 551.829,188.178 550.783,187.48 549.039,186.782 548.573,187.247 
		548.341,187.131 548.341,187.48 547.992,187.829 546.597,188.178 546.946,186.085 547.992,183.992 549.736,183.643 
		551.132,182.596 550.783,181.55 549.387,181.899 546.946,182.247 546.248,181.55 548.341,180.852 550.085,181.201 551.48,180.852 
		554.62,179.806 558.806,179.806 558.806,178.41 556.364,178.41 550.085,178.759 549.387,179.108 547.294,178.759 	"/>
	<polygon points="513.806,178.759 512.76,180.503 509.62,180.852 509.62,182.247 514.155,182.247 520.783,181.55 522.178,180.852 
		522.178,180.154 521.132,179.457 519.039,179.457 518.997,179.582 515.201,179.806 515.201,179.108 	"/>
	<polygon points="477.876,195.154 476.481,193.41 475.085,193.061 473.69,194.108 471.248,194.457 470.55,193.759 467.062,195.503 
		467.062,196.201 467.76,196.55 470.899,196.55 477.527,196.201 	"/>
	<polygon points="631.713,212.945 632.41,213.643 642.178,213.643 644.62,213.294 644.62,212.596 637.992,211.55 632.41,211.55 
		631.713,211.899 	"/>
	<polygon points="635.899,209.108 640.085,209.806 644.969,209.108 644.969,208.061 642.527,207.364 641.829,206.317 
		640.085,205.968 638.341,207.364 635.55,208.41 	"/>
	<polygon points="498.457,185.387 498.457,186.782 499.504,187.48 500.202,188.875 501.946,189.922 504.039,188.178 
		504.039,186.434 502.643,185.038 499.155,185.038 	"/>
	<polygon points="626.829,204.922 628.922,205.62 631.713,206.317 632.41,207.364 635.899,207.364 636.596,207.015 636.596,205.62 
		635.201,204.922 627.178,203.875 	"/>
	<polygon points="540.318,191.317 541.015,190.62 540.667,188.527 539.271,187.131 536.829,186.782 536.829,189.573 536.48,189.922 
		537.178,191.317 	"/>
	<polygon points="572.759,179.108 575.899,178.061 575.55,177.364 569.62,177.364 566.829,177.713 564.387,178.41 564.387,179.108 
		565.434,179.457 	"/>
	<polygon points="324.039,189.573 326.132,189.573 326.83,189.224 328.574,186.085 328.574,183.643 328.225,182.945 
		325.783,181.899 321.946,181.899 320.551,182.945 320.202,184.689 321.248,187.829 	"/>
	<polygon points="404.969,167.945 406.365,167.596 407.062,165.852 405.667,163.759 403.574,163.759 402.876,165.155 
		403.225,166.55 	"/>
	<polygon points="619.504,211.899 617.411,212.596 617.411,213.643 623.69,213.643 625.085,212.596 624.387,211.899 621.945,211.55 
			"/>
	<polygon points="89.621,506.665 88.923,507.363 88.575,509.805 89.272,510.502 91.365,510.502 92.063,509.456 92.063,507.363 
		91.365,506.665 	"/>
	<polygon points="626.48,208.759 618.457,208.41 617.411,208.759 617.062,210.154 622.294,210.154 626.131,209.457 	"/>
	<polygon points="558.806,181.201 557.759,182.247 558.108,183.294 559.852,183.294 563.341,182.596 563.341,181.201 
		561.248,180.852 	"/>
	<polygon points="583.922,200.038 584.969,200.736 586.713,200.387 589.852,200.038 590.899,198.992 590.55,198.294 
		588.457,198.294 587.759,198.643 584.271,198.643 	"/>
	<polygon points="594.038,194.806 594.387,193.759 593.69,193.41 589.504,193.41 588.806,194.457 590.55,195.503 	"/>
	<polygon points="579.039,189.224 579.387,188.875 580.085,187.48 579.039,186.434 577.294,186.434 576.597,187.131 
		576.597,188.875 576.945,189.224 	"/>
	<polygon points="630.317,202.48 630.666,201.434 629.969,201.085 626.131,201.085 625.783,202.131 626.829,202.829 	"/>
	<polygon points="459.736,189.922 459.388,190.968 461.132,191.317 463.225,190.62 463.225,189.224 461.481,188.875 	"/>
	<polygon points="529.504,194.108 531.946,194.457 533.69,194.108 532.992,192.713 529.504,192.713 	"/>
	<polygon points="536.829,259.689 536.48,260.736 537.178,261.085 541.015,260.736 541.015,259.34 538.922,259.34 	"/>
	<polygon points="601.364,209.457 602.062,210.503 603.806,210.852 605.201,210.154 604.852,208.759 602.411,208.759 	"/>
	<polygon points="561.597,194.457 561.597,195.503 563.341,196.201 565.085,195.852 565.085,194.806 564.039,194.108 
		561.945,194.108 	"/>
	<polygon points="556.713,153.294 556.713,151.55 556.364,151.201 554.62,150.852 554.271,152.596 555.318,153.643 	"/>
	<polygon points="562.294,188.527 558.457,188.178 558.457,189.224 559.852,189.922 562.294,189.573 	"/>
	<polygon points="543.806,188.178 543.806,187.131 542.76,185.038 541.364,185.038 541.364,186.434 542.062,187.829 	"/>
	<polygon points="523.922,285.852 523.922,284.805 521.829,284.108 521.481,284.457 520.783,285.852 521.481,286.201 	"/>
	<polygon points="473.69,263.875 475.434,263.526 475.434,261.782 474.039,261.433 472.992,262.131 	"/>
	<polygon points="191.83,201.782 191.83,200.038 190.435,199.34 189.737,199.689 189.737,201.434 190.784,202.131 	"/>
	<polygon points="559.155,254.457 562.294,254.805 562.294,253.759 559.852,253.061 559.155,253.41 	"/>
	<polygon points="586.015,195.503 586.364,194.108 583.573,194.108 583.922,195.503 	"/>
	<polygon points="629.271,212.596 628.922,211.55 626.829,211.55 625.783,212.247 627.178,212.945 	"/>
	<polygon points="200.551,188.875 200.551,187.131 199.505,186.782 198.807,187.829 199.156,189.224 	"/>
	<polygon points="581.48,181.55 581.48,180.154 580.085,179.806 579.736,181.201 	"/>
	<polygon points="588.457,252.712 586.713,252.015 586.364,252.364 586.713,253.759 588.457,253.41 	"/>
	<polygon points="562.643,177.015 562.643,175.968 561.248,175.62 560.55,175.968 561.248,177.364 	"/>
	<polygon points="569.271,253.759 571.015,254.108 571.364,253.061 569.62,252.712 	"/>
	<polygon points="553.922,201.434 554.271,200.387 552.527,200.038 552.178,201.085 	"/>
	<polygon points="509.969,194.457 509.62,195.852 511.015,196.201 511.364,195.154 	"/>
	<polygon points="609.736,249.922 612.178,249.922 612.178,249.224 609.736,248.875 	"/>
	<polygon points="556.015,172.48 556.015,173.178 557.759,173.527 558.108,172.48 557.062,172.131 	"/>
	<polygon points="566.132,254.457 566.132,253.41 564.736,253.061 564.387,254.108 	"/>
	<polygon points="531.248,256.898 532.643,256.898 532.992,256.201 531.597,255.503 	"/>
	<polygon points="581.48,198.643 579.736,198.294 579.387,198.992 581.132,199.34 	"/>
	<polygon points="635.201,208.759 632.062,208.759 632.062,209.457 635.201,209.108 	"/>
	<polygon points="602.759,198.294 601.015,198.294 601.015,199.34 602.759,198.992 	"/>
	<polygon points="578.69,190.62 577.992,191.317 579.387,192.015 579.736,190.968 	"/>
	<polygon points="551.829,173.875 551.829,173.178 550.434,172.829 549.736,173.178 550.085,173.875 	"/>
	<polygon points="579.736,177.364 578.341,177.015 577.992,177.713 579.387,178.061 	"/>
	<polygon points="557.411,176.317 558.806,176.666 558.806,175.62 557.759,175.62 	"/>
	<polygon points="556.015,170.387 557.411,170.387 557.411,169.689 556.364,169.341 	"/>
	<rect x="495.667" y="283.061" width="1.047" height="1.047"/>
	<rect x="628.922" y="198.992" width="1.395" height="0.698"/>
	<polygon points="606.945,194.108 606.945,194.806 608.341,194.457 	"/>
	<polygon points="497.411,252.712 498.457,253.061 498.457,252.364 497.411,252.015 	"/>
	<polygon points="619.155,251.666 619.504,253.061 619.852,252.015 	"/>
	<polygon points="514.504,250.619 515.55,250.968 515.55,250.271 514.853,249.922 	"/>
	<polygon points="478.225,197.596 477.527,197.596 477.178,197.945 478.225,198.294 	"/>
	<polygon points="567.876,181.899 566.829,181.55 566.829,181.899 	"/>
	<polygon points="527.062,267.364 527.76,267.015 527.062,266.666 	"/>
	<polygon points="602.411,193.759 601.713,193.759 602.062,194.457 	"/>
	<polygon points="572.411,181.201 571.713,181.201 572.062,181.899 	"/>
	<polygon points="589.914,285.544 589.216,284.149 583.984,283.102 583.984,282.404 582.24,282.404 581.891,282.753 
		580.146,283.102 577.356,281.358 576.658,284.149 574.565,284.149 573.17,283.102 569.681,281.358 569.333,281.707 568.635,283.8 
		566.891,284.497 566.542,285.544 567.937,286.939 573.17,286.939 578.053,286.59 581.542,286.242 583.635,285.893 589.565,285.893 
			"/>
	<polygon points="484.217,529.729 483.17,530.776 483.17,533.218 482.124,533.915 480.728,536.008 478.984,537.753 477.24,538.799 
		477.24,539.497 480.03,539.497 481.426,538.45 484.565,538.101 487.705,536.706 487.705,532.171 485.961,529.729 	"/>
	<polygon points="541.077,500.078 540.379,499.032 538.635,499.032 538.286,499.381 538.286,502.171 536.891,503.915 
		535.147,504.613 531.658,505.311 529.565,506.706 527.123,509.497 526.775,511.241 527.821,512.636 530.961,514.032 
		534.449,514.032 536.193,512.985 536.542,512.636 537.588,511.939 537.647,511.532 537.937,511.241 537.937,506.706 
		540.03,504.613 	"/>
	<polygon points="523.984,524.148 523.984,521.357 523.286,521.008 522.589,521.357 521.542,523.101 520.495,524.497 
		520.844,526.241 520.495,530.078 521.542,530.776 523.635,530.427 524.333,528.683 525.728,529.38 527.472,530.078 
		527.472,527.287 523.635,525.194 	"/>
	<path d="M705.03,456.823l-1.047-2.093l-1.047-1.047l-1.744-0.698v-6.279l1.047-1.047l-1.047-2.093l-0.349-2.093l-1.047-0.698
		l-3.837-0.349l-0.698-0.349l0.349-1.744l-0.349-1.395l2.093-0.698v0.698h1.395l-0.349-1.395l-0.349-1.744l-1.047-0.349
		l-2.093-0.349l-1.395-0.349v0.698h0.698l-0.349,0.698l-1.395,0.349l0.349-1.395l-0.035-0.174l0.035-0.174l-0.116-0.233
		l-0.224-1.118l2.433,0.304l0.698-1.395l2.093-2.442l0.349-2.093l-1.047-1.047l0.698-1.744l-0.349-1.395l-3.14-1.744l-4.535-0.349
		l-0.977-0.209l-0.07-0.14l-3.837-0.698l-1.395-2.791h-1.047h-1.395l-1.395-0.698l-0.349-1.047l-1.744-1.047l-0.349-0.698
		l2.442-0.349v-0.698l-2.093-0.698h-6.628h-0.349v-1.395l6.279,0.349l0.349-1.047l-1.047-0.698h-10.465l-1.744-0.698h-3.837v-0.698
		l-1.142-1.427l-0.084-0.335l6.458-0.68l2.093-0.698l2.093,0.349h3.14l2.093-0.349l0.349-1.047l-0.698-0.349l-0.303,0.015
		l-0.045-0.015l-1.047,0.07l-5.581,0.279l-2.791-1.395h6.628l5.233-0.349l3.488-0.698v-0.698l-2.442-1.047l-3.14-0.273v-0.076
		l-4.884-0.349l0.349-2.442l-3.488-0.349l-2.442-1.047v-0.698l2.442-0.698l0.349-1.047l-3.14-1.744l-6.279-0.698l-8.372-1.047
		l-3.488-0.698h-5.581l-0.698-0.349l0.349-0.349l14.302-0.349l1.047-0.349v-0.698l-6.977-1.395l-9.419-1.395h-5.93l-0.653-0.435
		l2.336-1.001l-0.301-2.105l6.929-1.732h6.279l1.395,0.349v1.395l-6.279,1.395v1.047l1.047,1.047l1.395-0.349l7.674-1.744
		l3.14-1.395l2.093-1.047h3.837l0.349,1.744h1.047l0.349-1.047l-1.395-1.744l-4.535-0.349v-1.395l2.093-1.047l7.326-3.488
		l1.395-1.395l2.442-0.349l0.698,1.744h3.488v-1.047l-2.093-0.698l-1.047-2.093l-1.047-1.047l-1.744-0.698v-6.279l1.047-1.047
		l-1.047-2.093l-0.349-2.093l-1.047-0.698l-3.837-0.349l-0.698-0.349l0.349-1.744l-0.349-1.395l2.093-0.698v0.698h1.395
		l-0.349-1.395l-0.349-1.744l-1.047-0.349l-2.093-0.349l-1.395-0.349v0.698h0.698l-0.349,0.698l-1.395,0.349l0.349-1.395
		l-0.035-0.174l0.035-0.174l-0.116-0.233l-0.224-1.118l2.433,0.304l0.652-1.304l0.456-0.051h3.837l1.047,1.395l12.209-0.349
		l0.349-0.349l-0.698-0.698l-4.535-0.698l-0.698-0.349l-5.93-0.349l-1.395-0.349h-2.093l-0.698,0.349l-0.564-0.094l0.851-0.993
		l0.187-1.123l1.967-0.231l8.721-0.349l3.837-1.047v-1.047l-0.282-0.081l-0.067-0.268h-0.872l-1.221-0.349l-6.279,0.349
		l-1.744,1.046l-3.488-0.349l-1.384,0.126l0.274-0.684l1.808-0.139l0.698-0.349l0.349-1.395l1.744-0.349h4.186h3.14l3.488-0.349
		l2.093-0.698v-1.047h-6.977h-2.791v-0.698l3.488-0.349l3.837-1.047l0.698-1.395l1.395-0.698l0.698-1.395l-1.047,0.349l-4.884,0.349
		l-1.047,1.047l-0.698-0.698l0.349-1.395l4.535-0.698h3.14l0.349-0.698l-0.349-1.047l-5.233-0.349l-1.395-0.698l-2.442-0.349
		l0.349-1.047l3.488,0.349v-1.744l0.698-0.349l1.047-1.744l1.395-0.349l1.395,0.698l1.744-0.349l1.395-1.395l-2.093-1.395
		l-1.744-1.744l-0.349-0.698v-0.814l0.698-0.233h3.14l0.349-0.349l-0.349-1.395l-3.14-1.047v-2.442l-0.698-0.698l-7.326-0.698
		l-2.442,0.349v0.139l-1.047,0.209h-2.791h-2.093l-2.791,0.698h-0.698l-0.698,0.349l-0.698,2.093l-2.093,0.349l-0.349-1.047
		l-1.744-1.047h-3.14l-0.698,0.349h-2.093l-1.744,0.349l-0.349,1.047l-2.093,0.349l0.349-0.698v-1.395l-2.442-0.349l-0.267-0.021
		l-4.966-0.677l0.349-1.047l1.047-0.698l3.837-0.349l1.047-0.349v-0.698l-2.791-1.395l-0.698,0.349l-8.372,0.349l-1.047,0.349
		h-0.127l-1.329-0.739l-3.467-0.385l1.086-0.272l3.488-0.349l0.349-0.349l0.698-1.395l-2.048-1.365l4.141,0.319l2.442-0.349h2.791
		l0.698,0.349l-0.349,1.395l0.349,1.047l1.744,0.698l3.14-1.047v-1.047l-2.442-0.698v-0.698l0.543-0.078l7.132-0.62l0.028-0.056
		l0.01-0.001l-0.038,0.057l3.837-0.349l2.093-0.698l0.349-0.698l-0.698-1.047l-2.442-0.349l-4.535,0.349v0.155l-1.744,0.194h-5.93
		l-0.698,0.349h-5.93l-2.791-0.349h-4.884h-0.698l-2.093-0.349l0.349-0.698l3.837-0.349h12.558l4.884-0.349h4.186l2.442-0.349h3.14
		v-1.047l-3.837-0.698l-3.488,0.349l-6.977-0.349l-0.349-1.047l0.698-0.349l5.581-1.395v-0.698l-0.698-0.349h-2.442l-3.837-0.349
		h-3.837l-0.698,0.349l-0.698,1.744l0.698,0.349l3.14-0.349v1.395l-0.698,0.698l-8.721,0.349l-3.14,0.698l-12.558,0.349
		l-10.465-0.349l-5.581,0.349l-3.8,0.585l-0.949-0.422l-0.484-1.209l-0.698-0.698h-4.186l-0.487,1.461l-2.365,0.591l-0.909,0.39
		h-3.564l0.349-2.442l-0.698-0.349l-0.61,0.087l-0.436-0.087l-0.785,0.262l-0.61,0.087l-6.279-0.349l-0.698,0.349h-6.279
		l-0.698,0.349h-2.442l-1.744-0.698v-1.047h0.698l3.488-1.744l-1.395-1.395l-3.837-1.047l-0.349-2.791l1.047-0.698l3.488,0.349
		l4.884-1.047v-1.395l-1.744-0.698l-0.698,1.395h-1.395l0.698-1.744l-0.698-1.395l-1.395-0.349l-1.395,2.093l-1.744,0.349
		l-1.395-0.698l0.349-2.442h2.442l3.488-0.698l0.698-0.698l4.186,0.698l0.349-1.744l-0.698-0.698h-2.093l-1.047,0.349l-0.174,0.262
		l-0.174,0.087l-2.442-0.698l-2.442-0.349v-1.395l8.721-0.349l-1.744-1.744h-2.093l-3.488,0.349l-4.535,1.047v0.698l0.698,0.349
		l0.349,1.744l-5.581,0.698v1.395l1.744,0.698l-0.349,1.744v2.791h-8.372l-0.698-0.349l-0.698-1.395l-1.395-0.698l-1.395,2.093
		l-2.442,0.349l-0.698-0.698l-1.395-0.349l-1.047,2.442h-2.093l-1.395-1.395l-1.047-0.349l-2.093,1.047v-1.744v-1.047l-0.285-0.095
		l-0.063-0.254l-0.399,0.1l-0.012-0.004v-0.137l-1.395-0.349v1.047l0.41,0.103v0.985l0.698,1.744h0.698l-1.047,1.395v0.349
		l-0.349,0.698l1.047,0.698l2.093-0.349h2.791l3.488-1.047l1.047-1.047l1.744,1.395h2.791l0.698-0.698h1.744l1.047,1.047
		l1.744,0.349l1.047-1.047l3.837-0.698h3.14l0.349,0.698l0.349,2.442l-3.14,1.744h-2.791l-0.698-0.349l-1.744-0.349l-1.047,0.698
		h-2.093l-1.744,0.349l-5.581-0.349l-0.698,0.698l-1.744,0.349l-1.047-0.698l-3.488,0.349l-1.047-1.744l-0.149-0.05l-0.199-0.299
		l-0.399,0.1l-0.299-0.1l-0.698,0.349v3.14l-0.698,0.349l-1.395-0.698l-0.063-0.951l0.063-0.095l-0.349-4.186l-2.093-2.791
		l-3.488-1.395l-1.744-0.349l-1.744,1.047l-0.581,0.349h-0.465l-0.698,0.698l-0.698,1.744l-1.395,1.047l0.349,1.395h1.744h2.791
		l1.047-0.349v-2.791l1.047,0.349l0.698,1.395l3.14,1.047l1.047,3.837l-0.698,0.349h-3.14v-0.698l-1.744-1.395l-0.308,0.103
		l0.246-0.492l-1.744-0.698h-4.186h-0.698l-3.837,0.349l-4.186,1.047l-1.744,0.349l-1.047-0.698l-1.744,0.349l-2.267,1.134
		l-0.174-0.087l-1.047,0.698l-4.186,0.349l-1.395,1.047l0.431,0.144l-0.369,0.246h-1.806v-0.739h-0.657l-0.677-1.354l-0.32-0.767
		l0.258,0.029l1.047-0.349l0.349-1.395h-2.093l-0.249,0.062l-0.736-1.766l-1.047-1.047h-3.14v-1.744h3.14v-1.395l-0.698-1.047
		l3.488-0.698l6.628-1.047v-0.698l-3.837-0.349l0.349-0.698l4.473-0.235v0.543h1.744l0.161-0.644l0.249-0.013l1.395,1.395h5.93
		l1.047-0.349l1.047-1.395h2.093l0.698,1.395l1.744,0.349l1.744-1.047h3.837l1.047,0.698l1.744-0.349l4.186-1.047l1.744-1.395
		l4.884-0.698l5.93-0.698l0.837-0.279l0.558-0.07l0.174-0.174l0.523-0.174l-0.209-0.14l0.209-0.209l-0.837-0.209l-0.209-0.139
		l-0.698-0.087l-1.047-0.262h-1.047l-2.791-0.349l-1.395-0.698v-0.698l2.093-0.349l1.744-0.698l4.535-0.698l2.093,0.349l2.442-0.349
		l3.14-0.349h10.465l6.977-0.349l1.744-0.349l8.721-1.047l0.349-0.349l4.535-0.349l0.349-1.395h-3.488l-0.698,0.349l-12.558-0.349
		l-1.047,0.349l-5.93,0.349l-11.512,0.349l-3.837,0.349h-4.535l-1.395,0.349l-9.07,0.349l-12.558,0.698l-3.488,0.349l-9.767,0.349
		l-8.721,0.698l-5.93,0.698h-0.698l-5.233,0.698l-9.419,0.698l-5.93,0.698l-6.977,1.047l-0.061,0.005v-0.394l-1.395-0.698v1.199
		l-6.776,0.521l-0.899-0.674v-1.744l2.442-1.047h4.535l1.744-0.349l2.093-1.395l-0.698-1.047l-0.407-0.058l-0.291-0.291h-2.442
		l-1.744-0.349v-1.744l0.349-0.349l3.488-0.349l3.488-0.349l5.581-0.698h2.791l3.663-0.333l3.663,0.333l1.047,2.791l1.047,0.349
		l1.744-0.349h3.488l1.744,0.349l1.395-2.093l-1.395-2.442l1.744-0.698h3.488l1.047,0.698l1.047-0.349l0.174-0.349l1.221-0.698
		h3.837l0.698,0.349h2.442l-4.884,1.744h-4.535l-1.395,1.047v0.698l1.395,0.698h2.442h2.093l4.884,0.349l1.744,0.698l1.047-1.744
		l1.395-0.698l1.047-1.047l1.395-0.349v0.698l-1.047,0.698v0.698h1.395l2.791-1.047l4.186-1.395l3.14-0.349l0.698-0.349l8.372-0.349
		l2.093-0.698l-0.349-0.698h-10.116l-1.744,1.047h-6.279h-2.442l0.349-1.047l3.488-0.698l2.442-1.047l3.14-0.349l3.14,0.349
		l1.395,0.349l1.744-1.047h4.884l2.442,1.047l1.744-0.698l6.977-0.349l3.14-0.349l3.837-0.349l-0.349,0.698l-1.744,1.047
		l-3.488,0.698v0.698l4.186,0.349h4.186l1.744-0.349l1.047-0.698l3.14-0.698l0.349-0.698l-3.14-0.698l-0.349-1.047h2.442
		l0.029-0.057l12.529-0.291l1.744-0.349l1.047-0.698l2.093-0.698v1.047l1.047,0.698l1.744-0.349h4.884l-0.349,1.047l0.349,1.047
		h3.488l0.349-0.349l-0.349-1.744l4.186-0.349l3.14-0.419v0.07l2.093-0.349h4.186l1.047-0.349v-1.047h-4.884v-1.395h1.047
		l3.488-1.744l0.349,1.047h3.488l2.442-0.349l3.488-0.349l2.093-0.349h4.535l8.372,1.047v0.349h-2.093l-3.837,0.349l-1.395,0.698
		v1.395l10.465,0.349l2.791-0.349l5.93-0.698l8.721-0.349l3.837-1.047v-1.047l-0.282-0.08l-0.067-0.268h-0.872l-1.221-0.349
		l-6.279,0.349l-1.744,1.047l-3.488-0.349l-3.837,0.349v-0.698l4.535-0.349l0.698-0.349l0.349-1.395l1.744-0.349h4.186h3.14
		l3.488-0.349l2.093-0.698v-1.047h-6.977h-2.791v-0.698l3.488-0.349l3.837-1.047l0.698-1.395l1.395-0.698l0.698-1.395l-1.047,0.349
		l-4.884,0.349l-1.047,1.047l-0.698-0.698l0.349-1.395l4.535-0.698h3.14l0.349-0.698l-0.349-1.047l-5.233-0.349l-1.395-0.698
		l-2.442-0.349l0.349-1.047l3.488,0.349v-1.744l0.698-0.349l1.047-1.744l1.395-0.349l1.395,0.698l1.744-0.349l1.395-1.395
		l-2.093-1.395l-1.744-1.744l-0.349-0.698v-0.814l0.698-0.233h3.14l0.349-0.349l-0.349-1.395l-3.14-1.047v-2.442l-0.698-0.698
		l-7.326-0.698l-2.442,0.349v0.14l-1.047,0.209h-2.791h-2.093l-2.791,0.698h-0.698l-0.698,0.349l-0.698,2.093l-2.093,0.349
		l-0.349-1.047l-1.744-1.047h-3.14l-0.698,0.349h-2.093l-1.744,0.349l-0.349,1.047l-2.093,0.349l0.349-0.698v-1.395l-2.442-0.349
		l-0.267-0.021l-4.966-0.677l0.349-1.047l1.047-0.698l3.837-0.349l1.047-0.349v-0.698l-2.791-1.395l-0.698,0.349l-8.372,0.349
		l-1.047,0.349h-2.791l-1.744-0.698l-1.395,0.349l-4.186,0.349l-1.047,0.349l-2.093-0.349h-3.488v-1.395l3.837,0.349l2.791,0.349
		l1.744-0.349v-0.15l0.698-0.199h2.093l0.349,0.349l1.395-0.349l3.488-0.349l0.349-0.349l0.698-1.395l-2.048-1.365l4.141,0.319
		l2.442-0.349h2.791l0.698,0.349l-0.349,1.395l0.349,1.047l1.744,0.698l3.14-1.047v-1.047l-2.442-0.698v-0.698l0.543-0.077
		l7.132-0.62l0.028-0.056l0.01-0.001l-0.038,0.057l3.837-0.349l2.093-0.698l0.349-0.698l-0.698-1.047l-2.442-0.349l-4.535,0.349
		v0.155l-1.744,0.194h-5.93l-0.698,0.349h-5.93l-2.791-0.349h-4.884h-0.698l-2.093-0.349l0.349-0.698l3.837-0.349h12.558
		l4.884-0.349h4.186l2.442-0.349h3.14v-1.047l-3.837-0.698l-3.488,0.349l-6.977-0.349l-0.349-1.047l0.698-0.349l5.581-1.395v-0.698
		l-0.698-0.349h-2.442l-3.837-0.349h-3.837l-0.698,0.349l-0.698,1.744l0.698,0.349l3.14-0.349v1.395l-0.698,0.698l-8.721,0.349
		l-3.14,0.698l-12.558,0.349l-10.465-0.349l-5.581,0.349l-4.535,0.698l-0.698-1.744l-0.698-0.698h-4.186l-0.698,2.093l-2.267,0.349
		h-4.36l0.349-2.442l-0.698-0.349l-0.61,0.087l-0.436-0.087l-0.785,0.262l-0.61,0.087l-6.279-0.349l-0.698,0.349h-6.279
		l-0.698,0.349h-2.442l-1.744-0.698v-1.047h0.698l3.488-1.744l-1.395-1.395l-3.837-1.047l-0.349-2.791l1.047-0.698l3.488,0.349
		l4.884-1.047v-1.395l-1.744-0.698l-0.698,1.395h-1.395l0.698-1.744l-0.698-1.395l-1.395-0.349l-1.395,2.093l-1.744,0.349
		l-1.395-0.698l0.349-2.442h2.442l3.488-0.698l0.698-0.698l4.186,0.698l0.349-1.744l-0.698-0.698h-2.093l-1.047,0.349l-0.174,0.262
		l-0.174,0.087l-2.442-0.698l-2.442-0.349v-1.395l8.721-0.349l-1.744-1.744h-2.093l-3.488,0.349l-4.535,1.047v0.698l0.698,0.349
		l0.349,1.744l-5.581,0.698v1.395l1.744,0.698l-0.349,1.744v2.791h-8.372l-0.698-0.349l-0.698-1.395l-1.395-0.698l-1.395,2.093
		l-2.442,0.349l-0.698-0.698l-1.395-0.349l-1.047,2.442h-2.093l-1.395-1.395l-1.047-0.349l-2.093,1.047v-1.744v-1.047l-0.285-0.095
		l-0.063-0.254l-0.399,0.1l-0.299-0.1l-0.698,0.349v1.395l0.698,1.744h0.698l-1.047,1.395v0.349l-0.349,0.698l1.047,0.698
		l2.093-0.349h2.791l3.488-1.047l1.047-1.047l1.744,1.395h2.791l0.698-0.698h1.744l1.047,1.047l1.744,0.349l1.047-1.047l3.837-0.698
		h3.14l0.349,0.698l0.349,2.442l-3.14,1.744h-2.791l-0.698-0.349l-1.744-0.349l-1.047,0.698h-2.093l-1.744,0.349l-5.581-0.349
		l-0.698,0.698l-1.744,0.349l-1.047-0.698l-3.488,0.349l-1.047-1.744l-0.15-0.05l-0.199-0.299l-0.399,0.1l-0.299-0.1l-0.698,0.349
		v3.14l-0.698,0.349l-1.395-0.698l-0.063-0.951l0.063-0.095l-0.349-4.186l-2.093-2.791l-3.488-1.395l-1.744-0.349l-1.744,1.047
		l-0.581,0.349h-0.465l-0.698,0.698l-0.698,1.744l-1.395,1.047l0.349,1.395h1.744h2.791l1.047-0.349v-2.791l1.047,0.349l0.698,1.395
		l3.14,1.047l1.047,3.837l-0.698,0.349h-3.14v-0.698l-1.744-1.395l-1.047,0.349v2.093l-2.442-0.698l-4.535,1.744h-2.093l0.349-2.442
		h-3.488l-0.349,0.349v2.093h-0.698h-2.442l-1.047-1.744l-1.047-0.349l-0.407,0.058l-0.291-0.058l-1.744,0.349v0.698l1.047,0.349
		l-0.698,1.744l0.698,1.395h7.326h1.395l-0.349,1.395l-12.558,0.698l-0.698,0.349h-3.488l-0.698-0.349v-1.047l2.791-1.395
		l0.349-1.395l-1.047-1.047l-1.047,0.698h-2.093l-1.047-2.093l-1.744-4.186l-1.047-1.047h-3.14v-1.744h3.14v-1.395l-0.698-1.047
		l3.488-0.698l6.628-1.047v-0.698l-3.837-0.349l0.349-0.698l6.628-0.349l1.395,1.395h5.93l1.047-0.349l1.047-1.395h2.093
		l0.698,1.395l1.744,0.349l1.744-1.047h3.837l1.047,0.698l1.744-0.349l4.186-1.047l1.744-1.395l4.884-0.698l5.93-0.698l0.837-0.279
		l0.558-0.07l0.174-0.174l0.523-0.174l-0.209-0.14l0.209-0.209l-0.837-0.209l-0.209-0.14l-0.698-0.087l-1.047-0.262h-1.047
		l-2.791-0.349l-1.395-0.698v-0.698l2.093-0.349l1.744-0.698l4.535-0.698l2.093,0.349l2.442-0.349l3.14-0.349h10.465l6.977-0.349
		l1.744-0.349l8.721-1.047l0.349-0.349l4.535-0.349l0.349-1.395h-3.488l-0.698,0.349l-12.558-0.349l-1.047,0.349l-5.93,0.349
		l-11.512,0.349l-3.837,0.349h-4.535l-1.395,0.349l-9.07,0.349l-12.558,0.698l-3.488,0.349l-9.767,0.349l-8.721,0.698l-5.93,0.698
		h-0.698l-5.233,0.698l-9.419,0.698l-5.93,0.698l-6.977,1.047l-9.07,0.698l-7.326,0.698l-2.442-0.349l-1.744-0.349l-1.047,0.698
		h-3.488l-1.395-0.698l-0.698,1.395l-10.465,1.047l-2.791,0.698l-10.465,1.047l-6.628,0.698h-2.791l-1.744-0.349h-0.174
		l-0.872-0.349l-0.872,0.523l-1.57,0.523h-1.744l-0.291,0.291l-2.849,0.407l-7.326,1.047l-4.884,0.349l-8.023,1.047l-17.791,2.093
		l-15.349,1.047h-4.535l-1.047-0.349l-4.186,0.698l-2.442-0.698h-2.791l-3.837,1.395l-5.581,1.047l-1.535,0.698h-0.209l-2.093,1.047
		l0.349,1.395h-0.698v0.127l-1.322,0.24l-0.073-0.018l-1.744,0.349h-3.837l-1.047,0.698l-4.186,0.698l-2.442,0.698l-6.628,0.349
		l-4.535,1.047h-2.791l-1.395-0.349h-3.14l-1.526,2.137l-1.962,0.654l-1.503,0.537l-0.59,0.161l-0.127,0.095l-2.664,0.951h-4.186
		l-4.186,1.047l-1.395,1.047l-0.349,1.395l2.442,0.349l5.93-1.744l7.326-0.349l2.442-1.047h3.488l-0.698,1.395l-3.837,0.349
		l-0.349,0.349l-3.14,0.698l-5.93,1.047l-5.93,0.698l-4.884,1.047l-4.535,0.698l-4.884,1.047l-4.186,0.698l-0.698,0.349
		l-5.233,0.698l-4.535-0.349l-3.14,1.395h-2.442l-2.791,0.698l-2.093,1.047l-3.488,0.698l-1.744,0.698h-4.535l-5.233,1.744
		l-3.837,1.395l-4.535,1.047l-2.442,1.047l-3.14,0.698l-12.907,3.488h-3.488v-1.395l-1.744-0.349l-4.884,1.395l-0.076,0.114
		l-3.063,0.932l-1.744,1.744l-0.951,0.381l-0.095-0.032l-4.186,1.744l-4.186,0.698l-1.744,1.744l-5.93,1.744l-4.884,1.744
		l-3.488,0.698l-5.93,1.395l-2.791,1.395l-6.279,2.093l-5.581,2.791l-3.488,0.698l-1.047,1.047l-2.442,1.395h-1.744H69.04v-1.047
		h2.791l0.698-0.698l3.488-1.047l3.14-1.744l0.349-1.395h-0.698l-2.093,0.698l-1.047,0.349l-4.535,1.744l-3.837,1.744l-1.744,1.744
		l-2.442,0.349l-3.488,2.093l-3.837,3.14l-5.581,5.233l-2.093,3.837l-3.14,2.791l-0.349,3.14l-1.744,2.093v1.744l0.349,0.349h1.744
		l2.442-2.093l1.744-0.349l1.047,1.047l2.442,2.791l3.14,3.14l2.442,0.698v1.744l1.744,0.698l1.744,1.744l0.349,1.395l-3.14,2.093
		l-1.047,2.093l0.349,3.14l1.744,2.442l2.791,7.674l1.395,4.535l1.047,3.14l1.744,2.791l2.442,4.535l3.14,10.465l1.744,4.186
		l1.744,1.047l2.093,1.744l2.442,2.791l3.14,2.093l3.14,0.698l2.093,1.047l0.945,0.84l-1.581,1.294l-5.581,5.233l-2.093,3.837
		l-3.14,2.791l-0.349,3.14l-1.744,2.093v1.744l0.349,0.349h1.744l2.442-2.093l1.744-0.349l1.047,1.047l2.442,2.791l1.789,1.789
		l-5.687,1.659l-6.279,2.093l-4.535,2.791l-3.488,3.837l-2.442,2.442l-0.305,0.61l-0.392,0.436l-0.116,0.581l-0.581,1.163
		l-1.047,1.047l-3.837,1.047l-1.047,1.744l-2.093,2.442l-0.698,1.395l3.14-0.349l1.395-1.395l1.744-0.698v0.698l-1.395,1.395
		l-0.698,0.698l-0.349,3.488l0.698,3.488l0.349,2.442l-3.488,1.395l-3.837,1.744l-0.349,1.395h1.744l4.186-1.047h4.186l0.698,0.349
		l2.093,2.791l1.744,0.698l-0.259,1.553l-1.485,1.238l0.349,1.744h4.535l3.14-1.047l-0.349,1.395l-2.093,1.744l-1.047,3.14h-0.698
		l-1.047,1.047v2.791l-1.395,1.395l0.349,1.744l2.791,1.047l0.349,2.791l1.047,1.395l1.744,0.698l1.395-1.047l2.442,0.349
		l-0.349,1.744h-3.488l-1.395,1.744l-0.07,0.14l-0.977,1.256v3.837l-0.698,1.047l-0.349,3.14l0.698,1.047l0.698,2.442v2.442
		l1.047,1.047h4.535l0.698,0.349l2.093-0.349h2.093l-0.349,2.093l1.395,0.698v1.395l-1.047,0.349l-2.442,1.047h-3.488l-0.698,0.698
		l-0.698,4.186l1.047,2.093l5.93,1.047l3.14,1.047l1.047,1.744l4.186,2.442h6.977l-0.349,1.047l-1.744,1.395l-3.14,1.047
		l-1.744,2.093l-2.442,0.349l-0.698-1.047l-1.744-0.698l-1.395,1.395l0.349,1.047l2.791,0.349v0.698l3.14,0.349l-0.157,0.47
		l-0.828,0.967l-0.698,1.395l1.334-0.148v1.503l-0.698,1.047l-0.349,1.744l1.395,0.349l2.338,0.26l0.514,2.572l0.349,2.442
		l-3.488,1.395l-3.837,1.744l-0.349,1.395h1.744l4.186-1.047h4.186l0.698,0.349l2.093,2.791l1.744,0.698l-0.259,1.553l-1.485,1.238
		l0.349,1.744h4.535l3.14-1.047l-0.349,1.395l-2.093,1.744l-1.047,3.14h-0.698l-1.047,1.047v2.791l-1.395,1.395l0.349,1.744
		l2.791,1.047l0.349,2.791l1.047,1.395l1.744,0.698l1.395-1.047l2.442,0.349l-0.349,1.744h-3.488l-1.395,1.744l-0.07,0.14
		l-0.977,1.256v3.837l-0.698,1.047l-0.349,3.14l0.698,1.047l0.698,2.442v2.442l1.047,1.047h4.535l0.698,0.349l2.093-0.349h2.093
		l-0.349,2.093l1.395,0.698v1.395l-1.047,0.349l-2.442,1.047h-3.488l-0.698,0.698l-0.698,4.186l1.047,2.093l5.93,1.047l3.14,1.047
		l1.047,1.744l4.186,2.442h6.977l-0.349,1.047l-1.744,1.395l-3.14,1.047l-1.744,2.093l-2.442,0.349l-0.698-1.047l-1.744-0.698
		l-1.395,1.395l0.349,1.047l2.791,0.349v0.698l3.14,0.349l-0.349,1.047v3.14l-0.698,1.047l-0.349,1.744l1.395,0.349l3.14,0.349
		l2.442,1.395l3.14,3.14l2.791,3.14l1.395,0.349l0.698-1.047l4.186-1.047l2.093,0.349h2.442l0.349-0.349l1.744-1.047l1.744,0.349
		v1.744l-1.047,2.791l0.349,1.744l1.744,0.698l1.744,1.047l1.395-0.349l-0.349-2.791l2.442,0.349l0.349,1.047l2.442,0.349
		l1.744-1.744l2.442-1.047l2.442-2.093l6.977-1.395l6.279-1.047l2.442-0.698l2.791-1.047l3.14-0.698l5.581-1.047l-0.349,0.698
		l-1.744,1.395l-0.698,1.395l0.698,0.349l4.535,0.349l1.047,0.349h4.884l2.791-0.349l0.537-0.429l0.161,0.081l0.698-0.698
		l2.093-0.93l2.442-0.814h3.837l3.837-0.349h5.581l2.791-1.744l1.047-2.093l1.395-1.047l5.93-1.744l10.116-2.442h3.14l1.744,0.349
		h2.442l3.488-1.395l4.535-0.698l1.744-0.698l3.837-0.349l1.047-0.698l2.442,0.349l1.395,0.349l2.791-3.14l2.442-0.698l6.628-1.744
		l6.977-1.047l0.698-0.349l8.023-1.744l12.907-0.698l1.395-0.349l8.721-0.349l1.047,1.047h1.744l1.047-0.698l0.199-0.299
		l0.498-0.399l0.233-0.698l0.465-0.698l2.093-0.349l2.791-1.047l6.279-0.349l0.698,0.349l1.744,0.349l2.093-1.047h4.535l1.744,0.698
		l2.442,0.349l1.246-0.747l2.591-0.648l3.488,0.349h5.581l0.698-0.349v-1.047l-0.698-0.698l-2.791-1.395l-2.791-2.093h-2.093
		l-5.581,1.047l0.698-1.744h5.93l3.837-1.395l4.884-1.395l5.233-0.349l0.698-0.349l4.535-0.698l6.279-1.047l1.744-0.698l4.884-1.395
		l6.628-1.744h4.186l2.093-1.047l-0.349-1.395h-3.14l-2.442,0.698l-2.442,1.047l-4.186,0.349l-3.488,1.047h-2.442v-0.698
		l1.744-0.349l1.744-0.698l3.721-1.163l3.017-0.71l3.029-0.337l4.186-0.233l0.698,0.349l1.395,0.349l0.349,1.395h2.093l0.349-1.047
		l-2.38-0.595l0.287-1.149l5.233-1.047l-0.698,1.395l0.349,1.744l-1.047,1.744v4.186l1.395,2.093l2.093,1.395h2.442l0.698-0.349
		v-0.05l1.744-0.997l1.395-1.744l0.698-1.744v-2.442l-0.698-2.442l-3.488-0.349l2.442-0.698h4.884l4.535-0.698l4.535-1.047
		l3.837-1.047h3.14l1.395,0.349l0.698-0.698l0.349-1.395l-1.395-0.698l-1.395,0.349l-5.581,0.698l-4.186,0.698h-5.233l-0.698-1.047
		l-6.977-0.698v-0.698h4.884l4.535-0.349l9.767-0.349l5.581-0.349l4.884-1.047l1.047-1.047l3.14-1.047h3.14l0.698,0.349h4.884h1.744
		l1.993-0.249l1.495-0.1v-0.087l2.093-0.262l3.488-0.698l6.628-0.698l3.488-0.349l6.628-0.698h4.535l0.698,0.698h2.791l0.698-1.047
		l1.395-0.698l9.767-0.349l1.395-0.698l0.041-0.164l0.308-0.185l-0.131-0.523l0.131-0.523l-0.698-0.698l-1.116-0.279l-0.977-0.419
		h-0.698l-1.395-0.349h-6.279l-1.047,0.349l-3.14,0.698l-7.326,0.698h-3.837l-1.047,0.349l-4.709,0.349h-0.872l-0.939,0.134
		l-2.898,0.215l-2.791,0.698l-6.628,1.047l-9.419,1.047l-6.628,1.047l-6.628,0.698l0.349-1.395l1.744-0.698l4.535-0.349l0.698,0.349
		l1.744,0.349l1.744-1.047l1.395-2.093h3.837l4.186-0.349l3.488-1.047h5.233l0.916-0.305l1.526,0.305l1.395,0.349l0.349-0.698
		l2.093-0.698h3.837l2.093-0.349l1.047,1.047l1.744,0.349l1.047-1.744h1.395l0.349,0.698h1.047l0.349-1.047l2.442-0.349v-0.14
		l2.791-0.558l5.749-1.065l0.181,0.018l3.488-0.698v-1.047l-5.581-0.349l-1.744,0.698l-9.07-0.324v-0.025h-0.698v-0.698
		l-1.047-1.744h-1.744l-1.047,0.698l-1.395,2.791l-0.349,0.349h-1.744v-1.047l2.093-1.395v-2.442l2.791-0.349l1.628-0.349
		l2.209-0.349l0.436-0.218l0.61-0.131h4.186l0.349,0.349l-0.698,1.395l0.349,1.047h5.581l1.454-0.349h0.291l6.977-1.744l5.581-0.349
		l3.488-0.698l6.977-1.047l5.233-0.349v-0.15l2.093-0.199l3.14-1.047v-3.488l1.047-0.698l7.674-0.698h5.233l2.442-0.698l1.395-1.047
		l0.349-1.744l-2.093-0.698h-3.14l-2.442,1.047h-11.86v-2.093l2.442-1.047h3.837l4.884-1.047l4.535,0.349l1.395-0.698l4.186-1.047
		l6.279-0.698h6.279l3.14,0.349l2.442-1.047l4.884-2.442l1.047-1.047l4.535-0.698l5.581-0.349l1.395-0.349l3.488-0.698l2.442,1.744
		h4.186l0.698-0.349l4.535-0.698h8.721v0.698l-0.698,0.349l-7.326,1.047v0.349l3.488,1.395l4.186,0.698l1.047-1.744l1.744-0.349
		v2.093h-1.047l-1.744,1.047l0.349,1.395h1.744l1.395-0.698l0.698-2.093l-0.349-1.395v-1.744l1.395-0.349l2.791,0.349l2.093-1.744
		l4.186-0.349l2.442-1.395l5.581-1.047h3.14l2.442-0.349l0.698-1.047l-1.395-0.698h2.442l0.698,0.698h1.744l0.698-1.744h2.442
		l0.349,0.349h3.837l1.047-1.047l2.093-0.349l1.047-1.047l-1.744-0.349l-4.535-0.349v-0.698h3.14l2.442-0.349h4.186v0.698
		l-1.395,0.698v0.698l2.791-0.349l2.791-1.744l3.488-0.698h1.047h2.093l2.442-1.047l-0.301-2.105l6.929-1.732h6.279l1.395,0.349
		v1.395l-6.279,1.395v1.047l1.047,1.047l1.395-0.349l7.674-1.744l3.14-1.395l2.093-1.047h3.837l0.349,1.744h1.047l0.349-1.047
		l-1.395-1.744l-4.535-0.349v-1.395l2.093-1.047l7.326-3.488l1.395-1.395l2.442-0.349l0.698,1.744h3.488v-1.047L705.03,456.823z
		 M513.108,203.875l0.349-1.744l-1.744-0.349l0.698-1.047l2.791-1.047l4.535,0.349l0.349,1.395l-1.744,0.349l-0.698,0.698
		l0.349,1.047l1.395,0.698l-0.477,0.716l-1.058,0.47l-1.256,0.209l-2.093-0.349h-6.977v-0.698L513.108,203.875z M545.612,292.521
		l0.349-1.744l-1.744-0.349l0.698-1.047l2.791-1.047l4.535,0.349l0.349,1.395l-1.744,0.349l-0.698,0.698l0.349,1.047l0.739,0.369
		l-2.545,0.636l-8.659,0.433v-0.392L545.612,292.521z M446.193,512.288l-1.395,1.047l-1.744,0.349h-0.698l-1.047,0.349l-0.747,0.748
		l-0.718,0.299h-0.628l-1.047,0.349l-4.884,0.349l-0.158,0.315l-0.54,0.034l-1.047,0.349h-6.628v-0.698l1.395-1.047l2.093-0.698
		l1.744-1.047l2.442,0.698l1.744,0.349l3.14-1.744l0.126-0.378l0.252-0.058l-0.029,0.087l4.186-0.698l3.488-0.698l1.744,0.349
		l0.349,1.395H446.193z M437.062,265.619l-1.395,0.349v-0.698l0.698-0.349L437.062,265.619z M535.495,290.079l-0.698,0.698
		l-3.419,0.526l3.358-0.916l0.171-0.343L535.495,290.079z M671.89,324.962l0.349,1.047l-0.698,0.349l-2.093-0.349v-0.698
		l1.196-0.598L671.89,324.962z M683.751,458.218l0.349,1.047l-3.488,1.744l-5.93,1.047h-4.186l-0.349-1.395l1.744-1.047l6.628-0.698
		l3.837-0.698H683.751z M656.891,399.962l0.523-0.262l1.57,0.262v0.698l-0.698,0.349l-2.093-0.349v-0.698H656.891z M656.542,409.032
		h2.093l0.698,1.047l-1.395,1.744h-1.744l-0.349-0.349l-0.349-1.744L656.542,409.032z M653.402,464.148v1.395l-1.395,1.047
		l-1.744,0.349l-0.349-1.744l1.395-1.047H653.402z M585.728,470.078l-0.349,1.395h-3.14l-0.698-0.349v-0.698l1.744-0.698
		L585.728,470.078z M517.356,493.45h1.744l-0.465,0.698h-1.628L517.356,493.45z M480.379,500.078h-0.698h-1.744l-0.349-0.349
		l-2.093-1.395v-0.698h1.395l1.395,1.047h2.093v-0.349h0.349l0.349,1.395L480.379,500.078z M397.705,521.357h-1.047v-0.698h1.047
		V521.357z M324.449,541.241l0.349-2.093h4.186v-0.523l1.744-0.174l2.442,0.349v0.698l-2.442,1.395l-3.14,0.698L324.449,541.241z
		 M309.737,198.992l-1.047,0.349h-2.093v-0.698l0.698-0.349h2.442V198.992z M367.295,194.457v0.349l-0.623,0.831l-4.26,0.913h-2.442
		l-2.093,1.047l-17.442,2.093l-11.512,0.698l-1.163-0.233l-0.233-0.116l-0.254-0.381l0.254-1.015l3.488-0.698l3.488-1.047
		l6.279-0.698l4.884-0.349l1.047-0.349h8.721l8.721-1.047H367.295z M402.178,191.666v-0.698h2.093v0.349L402.178,191.666z
		 M419.969,187.48h3.488l-0.349,1.047l0.174,0.058l-0.872,0.291h-4.535v-0.698L419.969,187.48z M444.388,193.759l-0.698,2.442
		l-2.093,1.395l-2.791,1.047h-5.581v-0.698l1.744-0.698l0.698-0.698l4.535-0.349l0.698-0.349l0.349-1.744l-1.395-0.349v-0.698
		l1.395-1.395l2.791-1.047h1.047l-0.349,0.698L444.388,193.759z M453.806,256.898l-1.744,0.349l-0.349-1.395l0.698-0.349
		l1.047,0.349L453.806,256.898z M407.411,272.509l-3.14,0.785v0.15l-0.853,0.122l-0.543-0.271v-1.047l4.535-0.349V272.509z
		 M476.891,282.404l-0.698,2.442l-2.093,1.395l-2.791,1.047h-5.581v-0.698l1.744-0.698l0.698-0.698l4.535-0.349l0.698-0.349
		l0.349-1.744l-1.395-0.349v-0.698l1.395-1.395l2.791-1.047h1.047l-0.349,0.698L476.891,282.404z M557.123,292.829h-1.395v-0.657
		h1.395V292.829z M459.798,500.427l1.047-1.047h1.395l0.698,1.395l-1.395,1.047l-1.744-0.349V500.427z M430.085,198.643v-0.698
		h0.698v0.698H430.085z M449.969,222.364l-1.395,0.349l0.349-0.698L449.969,222.364z M446.481,256.898l0.698-1.744l1.047,0.349
		v2.442l-1.744,0.349V256.898z M620.96,297.404l-1.256,0.209l-0.837-0.209v-0.332l2.093-0.051V297.404z M624.387,377.247v-0.698
		l1.395-1.395h2.093l0.349,0.349l-0.349,1.395L624.387,377.247z M388.574,207.713l-1.047,0.349h-2.791l-0.349-0.349l0.698-0.698
		h3.488V207.713z M404.62,200.038l1.395-1.395l3.14-0.349l3.488-0.698V197.3l0.349-0.052l4.535,0.349l3.488,0.698l-0.349,1.744
		h-2.093l-0.698-0.349l-1.395,0.698h-2.791v-0.698l-1.395-0.698l-1.744,1.395l-4.172,0.642l-1.758-0.293l-1.395,0.349l-2.791,0.349
		l0.274-1.094L404.62,200.038z M442.295,258.643l-1.744,0.349h-7.326l-1.395,0.349l-0.698,0.698l-3.488,0.698l-1.395-0.349
		l-0.349-1.395l-0.698,0.349l-0.349,1.744h-1.395l-1.395-2.791l1.047-1.047l7.674-0.349l0.349,1.395l1.744-0.349h6.628l3.14-0.698
		L442.295,258.643z M541.775,297.753l0.379-0.379l2.76-0.318h0.616l-0.328,0.657h-2.442l-3.14,0.349l-0.526-0.15L541.775,297.753z
		 M564.1,295.619h2.38l-0.698,0.349h3.822l-0.272,1.087l-0.263,0.657h-3.636l-0.558,0.279l-2.233-0.279l-0.01-0.042l-0.242-1.451
		l0.273-0.273l1.436-0.287V295.619z M657.937,330.893h-0.228l-0.531-0.041l-0.977-0.209l-0.07-0.14l-1.842-0.335l2.253-0.322h1.395
		V330.893z M619.914,386.358l-1.744-0.349l-0.181,0.362l-0.168-0.013l-1.744-0.349v-0.698l0.698-0.349l1.744,0.349h3.14l0.233,0.116
		l0.465,0.93H619.914z M381.597,212.596l1.047-0.698h2.093l0.349,0.349l-0.698,1.395h-2.442L381.597,212.596z M392.411,211.201
		l0.698-0.349l-0.097-0.194l0.553-0.316l0.939-0.188l3.837-0.349l1.744,0.349l1.395-0.349h2.442l-0.698,0.698l-2.965,0.349h-0.174
		l-2.791,0.349l-0.164,0.328l-0.185,0.021l-1.744,1.047l-3.14-0.349L392.411,211.201z M433.923,206.317l-1.744,0.698l-1.57,0.262
		l-0.523-0.262v-0.698l1.047-0.698h2.791V206.317z M403.574,269.805v0.349h-3.14l-0.349-0.349l0.349-1.395l3.612-0.328l1.97,0.328
		v1.047L403.574,269.805z M402.682,260.193l-1.55,1.24h-1.744l-1.395,0.698l-3.14,0.349l-2.093,0.349l-0.349-1.744l0.698-1.047
		l2.093-1.047l3.14,0.698l1.047-0.349l4.535-0.698L402.682,260.193z M387.179,260.387h2.093l0.349,1.744l-1.395,1.047l-1.395-0.349
		l-0.349-1.047L387.179,260.387z M592.356,296.707l0.349,0.349v0.509l-1.108-0.201l0.328-0.657H592.356z M567.24,382.52
		l-5.581-0.698l-1.879,0.235l-0.625-0.625l2.784-0.928l0.068,0.271l1.395-0.698l3.837-1.047l0.195-0.39h0.093l0.698,0.698
		l4.884,0.698l-0.095-0.19l0.095,0.016v0.174v0.349l3.14,0.349l0.698,0.698l1.571,0.524L567.24,382.52z M552.187,381.579
		l-1.343,0.244l-1.806,0.226v-0.267l1.744-0.698l2.092,0.299l-0.635,0.091L552.187,381.579z M576.009,295.816l-0.048,0.193h-2.791
		l-0.115-0.343l1.819,0.063L576.009,295.816z M612.876,378.991l-2.093,0.698l-11.86,1.047l-0.698,0.349l-0.286,0.041h-1.746
		l-4.535,0.349h-3.16l-0.39-0.39l0.349-2.442l1.744-1.047l3.488-0.349l0.698-0.349l7.674-0.349l3.14-0.698h6.279l1.395,0.698
		V378.991z M496.405,301.96l-1.436,0.287v-1.006h0.061l1.395,0.698L496.405,301.96z M499.853,301.242v0.308h-1.395v-0.308H499.853z
		 M508.286,300.893l-0.077,0.308h-0.333v-0.698h0.021L508.286,300.893z M447.589,293.567v0.349l-4.596-0.306v-0.432l4.186-1.047
		l2.532-0.195l0.321,1.282L447.589,293.567z M540.534,381.9l0.83-0.119h0.682l-0.272,1.087l-1.395-0.349L540.534,381.9z
		 M581.439,297.363l0.103-0.308l0.616,0.308H581.439z M620.899,376.898l-1.395,1.047l-1.744,0.349l-0.349-1.744l1.395-1.047h2.093
		V376.898z M596.829,297.056v0.308l-1.395,0.698l-0.287-0.052v-0.953H596.829z M570.728,383.567h2.791l0.113,0.034l-1.919,0.274
		l-0.163,0.326l-0.186,0.023h-1.512L570.728,383.567z M454.497,293.078l-0.84,0.06l-1.882-0.269v-0.907l0.931-0.559l2.785-0.278
		h0.47l0.349,1.047L454.497,293.078z M411.248,203.875l5.93-0.698l0.349,1.395l-2.442,0.349v0.349l-5.233-0.349l-0.349-1.047
		H411.248z M419.12,208.774l-1.592,0.683h-4.186l-0.349-1.047l1.744-0.698h5.233L419.12,208.774z M422.76,207.015l1.395,0.349
		l-0.279,1.395h-1.465l-0.349-1.395L422.76,207.015z M406.365,210.154l-0.209-0.837l0.558-0.558h3.488l0.349,0.349l-1.047,1.047
		l-2.173,0.242L406.365,210.154z M606.597,385.968h2.442l0.06,0.06l-2.584,0.144L606.597,385.968z M613.532,386.009l0.739-0.739
		l0.759-0.127v0.865H613.532z M612.588,297.404l-0.523,0.349h-2.616l-1.062-0.425l4.803-0.117l0.097,0.193H612.588z
		 M548.751,297.056l0.349,0.349l-0.677,1.354h-0.78l-0.698-1.047l1.095-0.657H548.751z M458.054,287.986l-1.395,0.349v-1.047h1.395
		V287.986z M416.132,259.689l-1.047,0.349h-6.279l-0.349-1.395l5.233-0.698l0.299-0.299l1.794,0.299l3.14-0.349l1.395,0.698v0.698
		l-1.047,0.698H416.132z M417.876,260.387h1.744v1.395h-1.744V260.387z M421.713,204.573l-2.442-0.349v-0.907l1.395-0.837h2.791
		l0.349,1.047L421.713,204.573z M400.609,205.271l0.523,0.349l-2.442,1.047h-3.14l-0.349-0.349l1.047-1.047H400.609z
		 M390.119,210.503l-0.498,1.744l-3.14,0.349v-1.395l2.442-0.698H390.119z M435.379,504.613l1.395-1.047h2.442l0.698,0.349v0.698
		l-1.395,1.047h-3.14V504.613z M624.1,386.009l0.349-0.698l2.442-0.349l2.442,0.349v0.698l-1.395,0.698L624.1,386.009z
		 M666.309,326.358h-4.535l-4.884-0.349l-3.488-0.698l0.349-0.698l2.093-0.349l2.442-0.349l6.977,0.349l1.047,0.698V326.358z
		 M649.216,326.009v-1.395h3.488l0.349,0.349l-1.395,1.047H649.216z M558.17,296.707l-1.953,1.116l-0.837,0.279h-3.14l-0.698-0.349
		v-0.698l0.038-0.016l1.296,0.324l2.483-1.354h2.113L558.17,296.707z M465.728,290.776l-2.093,0.698v0.465l-0.698,0.233h-1.047
		l-3.488-0.349v-1.047h1.395l0.245-0.041h1.438l3.021-0.503l1.227-0.153V290.776z M463.286,287.288h-0.698v-0.698h0.698V287.288z
		 M466.725,283.949l0.05-0.149l-1.744,0.349l0.349-1.047l1.744-1.047h4.535l-0.698,1.395L466.725,283.949z M439.853,216.782
		l-0.349-0.349l0.349-1.395l2.267-0.349h3.663v1.047h-1.744l-0.349,0.349l-1.047,0.698H439.853z M427.295,202.131l1.196-0.199
		l1.944-0.15l2.791-0.349v0.698l-2.093,0.698v0.465l-0.698,0.233h-1.047l-3.488-0.349v-1.047H427.295z M444.1,503.915l2.093-1.395
		h1.744v1.047l-1.744,1.047l-1.744,0.349L444.1,503.915z M486.31,495.195l4.884-0.349l2.791-1.395h2.442v0.349l2.791,1.047
		l0.349,1.395l-0.698,0.349l-4.186,0.698l-0.174,0.349h-4.012l-3.837-0.349l-0.698-0.698L486.31,495.195z M499.216,501.474
		l2.791-1.047h1.395l0.349,1.395l-0.698,0.698h-3.14l-0.698-0.349V501.474z M639.387,370.968l6.628-0.698l3.837-0.698h1.395
		l0.349,1.047l-3.488,1.744l-5.93,1.047h-4.186l-0.349-1.395L639.387,370.968z M663.518,329.497h2.442l0.698,0.349v1.047
		l-0.698,0.349h-2.093l-0.349-0.349V329.497z M610.46,293.853l-0.314-0.047v-1.286h1.395l0.349,1.047L610.46,293.853z
		 M490.763,294.224h0.02v0.01L490.763,294.224z M469.504,293.875v-0.041l1.744-0.498v0.191L469.504,293.875z M471.597,275.038
		l-0.195,0.39h-0.852v-0.41l2.155-0.287l0.523-0.349h0.523l0.657,0.657H471.597z M409.155,269.108l0.349-1.744h1.744l0.349,0.349
		l-1.047,1.744L409.155,269.108z M432.876,194.457l1.744-1.047h4.535l-0.698,1.395l-4.236,0.498l0.05-0.15l-1.744,0.349
		L432.876,194.457z M440.55,186.782h-5.581l5.233-0.698l0.523-0.349h0.523l0.698,0.698l-0.698,0.698h-0.349L440.55,186.782z
		 M425.551,199.34l-1.395,0.349v-1.047h1.395V199.34z M407.062,191.317h-2.442l0.698-1.047h1.744V191.317z M398.69,192.015
		l-7.326,1.744l-3.488-0.349l0.349-1.047l8.372-1.744h2.442l0.349,1.047L398.69,192.015z M386.481,203.875l-3.837,0.698
		l-1.395-0.349l0.698-1.047l4.186-0.698h0.349V203.875z M381.248,194.457l-1.744,0.349l-2.442-0.698v-0.698l1.395-0.349h2.791
		V194.457z M378.806,212.596v1.047l-3.837,0.349l0.349-1.047l2.442-0.349H378.806z M303.109,199.689l-3.488,0.349v-0.698
		l2.093-0.698h1.395V199.689z M336.31,534.962l7.326-0.698l1.744,0.698l-0.698,1.047l-5.93,0.698l-3.837,0.349l-0.349-1.047
		L336.31,534.962z M345.728,536.706l0.698-0.349l3.488-1.047l1.047-1.395l3.14-0.349l5.581-0.349l5.233-0.698l1.047-0.698
		l0.349-1.047l-2.442-1.047h-6.279l1.744-0.349l2.093-1.047l4.884-1.047v-0.331l0.087-0.018h3.75v2.442l-2.791,0.349l-0.349,1.047
		h3.488v1.744l-0.698,0.349l-4.535,0.349l-1.744,0.349l-3.14,1.047l-1.744,1.047l-3.488,0.349l-0.349,0.349h-2.791l-1.395,0.349
		l-0.698,0.698h-4.186V536.706z M451.426,501.474l0.698-1.395h1.047l0.349,1.744l-1.047,1.047l-1.047-0.349V501.474z
		 M469.914,497.636h1.744v1.395h-0.698v1.047l-1.047,0.349l-0.698-1.047L469.914,497.636z M483.868,496.939h0.698l1.395,1.047v1.047
		h-2.093l-0.698-0.698L483.868,496.939z M507.937,494.497v1.047l-1.744,0.349l-0.349-1.047l0.698-0.349H507.937z M566.542,473.218
		v-1.047l2.442-0.698v-0.349l4.884-0.698h5.581v1.395l-2.791,0.698l-3.14,0.349l-1.744,0.349H566.542z M594.798,469.032l2.171-1.628
		l-0.078,0.233l0.698-0.349h2.442l0.698,0.698l4.884,0.698l-0.095-0.19l0.095,0.016v0.174v0.349l3.14,0.349l0.698,0.698l2.093,0.698
		v0.698l-7.326,1.047l-0.163,0.326l-0.186,0.023h-8.023l-0.698-1.744l-2.791-0.349l-0.698-0.698L594.798,469.032z M620.96,467.288
		l1.744-1.047l3.488-0.349l0.698-0.349l7.674-0.349l3.14-0.698h6.279l1.395,0.698v2.442l-2.093,0.698l-11.86,1.047l-0.698,0.349
		l-4.884,0.698h-4.535l-0.698-0.698L620.96,467.288z M661.774,315.544v0.349v1.047h-2.093v0.027l-2.442-0.376v-0.349l2.093-0.698
		H661.774z M655.844,316.939l-6.628,0.349v-1.047h6.628V316.939z M623.053,297.404v-0.698h1.047v0.698H623.053z M518.402,290.428
		l0.349,1.744l-0.698,0.349h-3.844l-0.055-0.041l-1.744-0.349v-1.287l1.457-0.416H518.402z M477.876,286.201l-1.334,0.296v-0.604
		l1.744-0.698h1.744l0.168,1.006H477.876z M418.225,268.41l-2.442-0.349l-0.349-1.395l0.698-0.349l2.791,0.349l-0.349,1.744
		l-0.209,0.035L418.225,268.41z M419.62,267.364v-0.698l0.349-1.047l0.698-0.349l5.581-0.349l0.137-0.409l3.003-1.335h1.395
		l2.093,0.698l0.698,1.744l-1.047,1.047l-6.977,0.698l-3.488,1.047l-1.744-0.349L419.62,267.364z M439.155,262.131h2.442
		l1.744,0.698l0.349,1.744l-0.698,0.698h-3.488l-0.698-0.698l-0.349-1.744L439.155,262.131z M451.713,204.573l-0.349,1.395
		l-1.744-0.349h-3.488l0.349-1.395l1.744-0.349l1.047-0.698v-0.698l-0.233-0.233l-0.116-0.465l-0.523-0.174l-0.523-0.523h-2.791
		l-2.093,1.395l0.279,1.674l-0.192,0.767l-0.297,0.395l-2.93,0.651l-3.14,0.349v-1.047l2.442-0.698l0.698-1.395h-2.093h-0.349
		l-1.395-0.698l-0.349-1.744l1.047-1.047h1.744l1.395,0.698l2.093-0.349l3.837-1.047v-0.698h-1.744v-1.047l1.744-0.698h1.744
		l0.349,2.093l4.884,0.349l0.349,3.14l-1.395,0.698V204.573z M408.17,521.357l1.395,0.349l-1.047,0.349L408.17,521.357z
		 M410.263,519.613l-1.395,0.698h-3.837l-1.395,0.349l-3.93,0.302l-0.605-0.302l0.698-1.047l4.884-1.221l1.059-0.198l4.872-0.325
		l4.186-1.047v-0.349l4.535-0.698l3.14,0.349l0.349,0.698l-1.744,1.047l-3.14,0.349l-3.14,1.047L410.263,519.613z M463.112,511.067
		l1.57-0.523l3.488-0.349l-0.654,1.308l-1.09,0.436h-4.186L463.112,511.067z M490.147,503.218l1.744-1.047l1.047,0.349v1.047
		l-3.14,0.349L490.147,503.218z M656.891,465.195l1.395-1.395h2.093l0.349,0.349l-0.349,1.395l-3.488,0.349V465.195z
		 M663.616,335.989l-1.493,0.136v-0.698l0.05-0.004l0.935,0.312L663.616,335.989z M537.937,293.567l-0.74,0.185l-2.461,0.123
		l-1.677-0.21l2.087-0.447l0.349-0.349h2.442V293.567z M525.762,291.084h1.997l1.395-0.349l0.21,0.838l-2.241,0.249l-1.395-0.698
		L525.762,291.084z M515.961,287.637l-4.535,1.744h-2.093l0.179-1.253l6.387-0.532l2.503-0.626v1.364L515.961,287.637z
		 M497.965,293.753l-2.934,0.163l-0.698,0.349h-1.457v-0.739l2.442-0.349h2.791L497.965,293.753z M484.217,291.474v0.308h-0.41
		l-1.047,0.349h-1.047h-0.4l0.462-0.308v-0.698l-0.233-0.233l-0.116-0.465l-0.123-0.041h1.456v-0.698h-1.744v0.602l-0.113-0.038
		l-0.523-0.523h-2.791l-2.093,1.395l0.21,1.26l-1.318,0.094l-0.349-1.744l-3.837,0.349l-1.412,0.176l-0.271-0.136l-0.343-1.715
		l3.072-0.768l0.285-0.022l0.823,0.412l2.093-0.349l2.927-0.798l4.337-0.289l0.372-0.186l3.178,0.227l0.349,3.14L484.217,291.474z
		 M528.868,267.753l0.349,1.395l-1.744,0.349l-1.744,0.349v-1.395l-1.144-0.858l0.385-0.578l-3.293-0.299l0.215-0.009l5.581-0.349
		v0.349L528.868,267.753z M513.17,267.056l7.888-0.316l-0.623,0.623l0.39,0.39h-0.677l-0.96,0.107l-0.496-0.496h-3.14l-3.14,0.698
		l-0.102,0.041h-0.185L513.17,267.056z M511.077,267.753l-1.744,0.349v-0.698h1.744V267.753z M442.359,271.108l-0.064-0.257
		l-1.692,0.338l-1.156-0.165l0.058-0.173l-1.395-0.349l-0.256,0.256l-1.078-0.215l-1.047,0.698h-0.759v-0.39h-1.395l-0.195,0.39
		h-1.139l-1.395-0.698l-0.41,0.821v-0.513l-1.395-0.349l-1.395,0.698l-6.628,0.349l-0.698,0.349l-4.884,0.349l-1.395,0.698h-4.535
		l-1.047-0.698l-0.159-0.159l1.554-0.888l5.581-0.349l3.488-0.349l0.254-0.254l2.886-0.444l1.047-0.698h2.791l4.535-1.047
		l4.186-0.349l0.698-0.349l3.837,0.349l3.837-0.698h2.791l0.698,0.698l-0.337,3.036L442.359,271.108z M534.387,246.085v1.395
		l-1.395,0.349l-0.349-1.395l0.698-0.349H534.387z M458.341,210.154v-1.047h1.047v1.047H458.341z M464.271,208.41h1.395l2.791-0.698
		h1.047l0.349,0.349l-0.349,1.395h-3.837l-2.018,0.224l-1.121-0.224l-0.349-0.698L464.271,208.41z M474.736,208.41v-1.047h1.047
		v0.698L474.736,208.41z M481.364,206.666l0.698,0.698l-1.744,0.698l-0.698,0.698h-2.093l-0.349-0.349v-1.395l3.837-0.349H481.364z
		 M509.271,209.108l0.379-0.379l2.76-0.319h3.837l0.349,0.349l-0.698,1.395l-0.698,1.744l-1.047,1.047h-2.791l-0.349-0.349
		l-1.744-0.698l-1.395-1.047h-1.047l-0.698-0.349l-2.791,0.349v-1.395L509.271,209.108z M594.736,237.015h1.744v0.698l-2.093,1.047
		h-3.837l0.349-1.047L594.736,237.015z M501.248,248.526v1.395l-1.744,0.349v2.093l0.698,1.047h-0.698l-2.442,1.047h-2.791
		l-1.395-0.349v-2.093l-0.349-0.349l-4.884-0.349v1.744h0.349l-0.512,0.767l-2.279,0.977l-3.14,0.349l0.349-2.093l2.791,0.349
		l0.349-0.349v-2.791l0.698-0.349l5.233-1.395h6.628v-0.349L501.248,248.526z M490.783,213.643l0.349,0.349l0.349,1.047
		l-2.093-0.349l0.209-0.837l0.14-0.209H490.783z M543.457,211.201l-1.047-0.698l0.349-1.395l1.744,0.349l0.349,1.395
		L543.457,211.201z M549.562,205.62l0.523,0.349l0.159-0.032l0.19,0.381l-1.744,0.349l0.349-1.047H549.562z M566.48,213.294v-1.395
		h2.093v1.395l-0.698,0.349L566.48,213.294z M591.248,229.689h-10.465l-0.262-1.047h2.703l0.698,0.349l6.279-0.698l1.744,0.349
		L591.248,229.689z M568.225,220.619h0.698l0.349,1.047h-1.395L568.225,220.619z M571.015,217.131l0.349-1.744h2.442l0.698,0.349
		v1.047l-0.698,0.698L571.015,217.131z M571.713,225.503v-0.698l1.395-0.349h1.395l0.349,1.047H571.713z M567.527,229.689h0.698
		l0.698,1.395h-1.744l-0.349-0.349L567.527,229.689z M568.225,237.712l3.488-0.698h3.488l0.349,0.349l-0.698,1.395l-2.791,0.349
		l-2.442,1.395l-1.744-0.349l-0.349-1.744L568.225,237.712z M576.945,242.247h2.442l-0.349,0.698h-2.093V242.247z M578.341,237.712
		l1.395-0.698v-0.349h1.744l-0.349,1.395h-0.349L578.341,237.712z M582.876,236.666l1.744,0.349l-0.349,1.395l-1.395-0.349V236.666z
		 M511.015,228.992v0.698h-0.698v-0.698H511.015z M497.062,218.178v-1.047h1.395v0.698L497.062,218.178z M489.736,235.968
		l0.698-1.395h3.488l0.698,1.395l-2.442,0.698l-0.698-0.199v-0.15L489.736,235.968z M494.62,221.317l0.465,0.465l0.233,0.93
		l0.15,0.05l0.199,0.997l-0.93,0.698h-2.907l-0.349-2.442v-0.698H494.62z M496.364,223.061l1.047-1.047l2.442-1.047v-0.279
		l1.047-0.419h1.047l0.698,0.698l-0.349,1.047l-1.395,0.349l-2.093,1.744h-2.442l-0.349-0.698l0.294-0.367L496.364,223.061z
		 M506.132,226.201h-1.744l-0.349-0.349l0.698-1.047l1.395,0.349V226.201z M508.225,217.48l-0.698,0.698h-1.395v-1.395l0.698-0.349
		v-0.349l1.395,0.349V217.48z M503.69,216.782v1.395l-2.442-0.349v-0.698l1.047-0.349H503.69z M496.364,234.573h2.442l2.442,0.349
		l-0.209,0.837l-0.14,0.209l-5.233,0.349l-0.349-0.349L496.364,234.573z M504.039,234.224h3.488v1.047h-3.488V234.224z
		 M508.922,222.015h-2.442l-1.744,0.349l-0.349-1.047l-0.349-1.744l2.093-0.349h2.791l1.047,0.349l0.349,1.395L508.922,222.015z
		 M506.132,242.945h3.837l-0.698,1.395h-2.791l-0.698-0.349L506.132,242.945z M512.411,220.619l0.698-1.047l2.723-1.021l3.556,0.323
		v2.791l0.044-0.044l-0.03,0.272l-0.362,0.121l0.349,1.744l-0.698,0.349v-1.047l-1.395-1.744l-1.744-0.349l0.233,0.349h-0.93
		l-0.698,1.395l-1.744-0.349V220.619z M518.69,216.085h-1.047l-0.349-1.047h1.047L518.69,216.085z M558.108,242.945h3.488
		l-0.698,1.395l-3.14,0.698l-0.349-1.395L558.108,242.945z M557.759,225.852l0.698-0.698h0.698l1.047,0.698H557.759z
		 M550.783,225.503v0.698h-1.047v-0.698H550.783z M528.108,223.061v0.698h-1.047v-0.698H528.108z M520.434,216.433l0.349-1.395
		h1.395l0.698,1.395l-0.698,0.349L520.434,216.433z M558.108,213.992l-2.093-0.349l0.349-1.395l1.744,0.349V213.992z
		 M554.271,213.643h-2.442v-1.395h1.047L554.271,213.643z M535.085,220.619l-2.093,0.349l-0.349-1.395l-0.388-0.194l-0.31-1.55
		l1.047-0.698h3.14l0.698,0.698l0.349,2.442l-2.052,0.513L535.085,220.619z M541.015,217.829l0.349-0.349h0.698l0.349,2.442h-1.395
		V217.829z M533.69,222.713h1.395v0.698l-1.395,0.349V222.713z M540.318,241.55l-0.349-1.395l1.395-1.047h5.93l0.698,0.349v1.047
		l-1.047,1.047l-4.535,0.349L540.318,241.55z M545.386,220.517l-1.231-0.246l1.395-3.14l0.966-0.644l1.476,0.295l-0.698,2.442
		l1.395-0.698l0.349-1.744h2.093l0.349,0.698l-0.698,2.442l-2.442,0.349L545.386,220.517z M530.55,217.829l0.273,1.094l-2.715,0.302
		l-0.349,0.349h-3.14l-0.698,0.698l-1.395,0.349l-0.349-0.698l0.698-1.047l2.442-0.349l0.349-0.349l2.442-0.349H530.55z
		 M523.225,223.061v-1.047h1.047v0.698L523.225,223.061z M522.527,242.945l-2.093,0.349l-0.262-0.262l0.262-0.785l1.395-0.698
		l3.14-0.349h1.047l0.349,1.744l-0.365,0.033l0.017-0.033H522.527z M532.992,227.596l-1.047,0.349v-0.698L532.992,227.596z
		 M532.992,240.852l2.442,0.349l0.349,1.047l-2.442,1.395l-1.047-0.349l-0.349-1.744L532.992,240.852z M557.759,215.813l0.707-0.039
		l0.339,1.357h-1.047V215.813z M560.55,222.015h-0.698v-1.047h0.349L560.55,222.015z M562.992,217.131l-2.093,0.349l0.349-1.395
		l1.395-0.698l1.047,0.349L562.992,217.131z M555.318,210.154h-1.047v-0.698h1.047V210.154z M549.387,214.34l-0.174,0.349h-0.174
		l-2.093-0.349h-3.14l-1.047,0.349l-1.047,0.349h-3.488l-2.442,0.698h-7.674v-1.047l3.14-0.698v-0.349l1.744,0.349l5.93,0.349
		l1.744-0.698h2.093h3.14l1.047-0.349h2.791L549.387,214.34z M553.225,218.526v-1.744l1.57-0.314l1.57,0.314l-0.349,2.442
		l-2.442,0.698L553.225,218.526z M562.643,226.201l-1.395-0.349l0.349-0.698h1.744v0.349L562.643,226.201z M565.085,225.503h-1.047
		v-0.698h1.395L565.085,225.503z M563.69,214.689l-2.791-0.349l-0.349-0.349l-0.349-1.395l0.698-0.698h3.488l0.349,1.744
		L563.69,214.689z M549.039,208.41l0.698,0.349l2.093,0.698v0.698h-1.395l-1.744-0.698L549.039,208.41z M522.527,211.899
		l-2.791,0.349v-1.395h3.14L522.527,211.899z M515.201,216.433l-1.047,1.047l-3.837-0.349l-0.698-1.047l1.744-1.047h3.837V216.433z
		 M503.69,213.643h-1.047v-1.047h1.047V213.643z M495.492,214.689l-0.523-0.349v-1.047l0.698-0.698h1.395l0.349,1.395l-0.698,0.698
		H495.492z M493.574,217.829l-1.047,0.349v-1.047h1.047V217.829z M481.713,250.619l-0.698,1.047l-2.093,1.047l-0.349,1.744
		l1.047,1.395h-1.744l-0.116,0.349h-3.023l-0.349-1.744h-0.698l-2.093,0.349l-1.744,1.744l-2.093-0.698v-3.488h-2.093l-1.395,1.047
		l-1.744,3.14l-1.285,0.257l-0.808-0.606v-3.488l0.349-0.698l1.744-1.047h4.884l4.884-0.698h3.14l1.395,0.349l0.628-0.628
		l0.419-0.07h5.581v0.698H481.713z M460.085,212.945h1.047l0.698-0.349h0.698l1.395,0.698l-1.047,1.047l-2.791-0.349V212.945z
		 M469.155,213.294v-1.047h1.047l0.349,0.698L469.155,213.294z M485.55,215.387v-0.698h0.698v0.698H485.55z M465.667,212.596h2.093
		l-0.349,1.047l-0.349,0.349h-1.744l-0.349-1.047L465.667,212.596z M479.969,220.271l-1.047,0.349v0.349l-1.395-0.349l0.27-1.08
		l2.521-0.315L479.969,220.271z M467.411,216.782l0.349-1.047h0.349l0.349,1.047H467.411z M464.969,216.433l-0.698,1.395h-2.442
		l-0.349-1.047l1.047-0.698h2.093L464.969,216.433z M462.527,220.271h1.047v0.698l-1.047,0.349V220.271z M482.411,215.736v-1.395
		h1.047v1.047L482.411,215.736z M481.364,212.945l-0.349-0.349l0.349-1.395l2.791,0.349l-0.349,1.395H481.364z M476.481,215.038
		l1.047-0.698h1.047l0.698,0.698l-1.395,1.395l-1.047-0.349L476.481,215.038z M475.434,213.643h-2.093l-0.349-0.698l0.698-1.395
		h1.395l0.698,0.698L475.434,213.643z M474.388,215.038l0.349,1.047l-1.744,1.047l-3.14-0.349l-0.349-0.349l1.744-1.395H474.388z
		 M514.853,242.945l1.047-0.698h1.047v1.395h-2.093V242.945z M551.48,243.992l-1.526,1.831l-0.916,0.61l-4.535,0.698h-6.628
		l-0.698-0.698l0.279-1.395h0.07l4.535,0.349l2.093-1.395l2.093,0.349h2.791l3.14-1.047l0.698-0.349h0.698l0.349,1.395
		L551.48,243.992z M553.225,221.317l1.395,0.349l-1.047,1.047L553.225,221.317z M591.597,220.968h-2.442v-0.698l1.395-0.349v-1.047
		h0.698l0.698,1.047L591.597,220.968z M557.411,209.457l0.349-1.395h2.093l0.349,0.349v1.395l-1.744,0.349L557.411,209.457z
		 M564.387,209.457l-1.047,0.349l-0.698-0.349v-1.047h1.744V209.457z M560.201,205.968l-1.395,1.047h-6.977l-0.698-0.349
		l0.504-1.008l0.194-0.039l3.14-0.349v-0.299l4.186-0.399l1.047,0.349V205.968z M541.364,205.968h2.442l-0.349,1.395h-2.791
		l-0.349-1.047L541.364,205.968z M539.271,209.806l-0.349,1.395l-1.744,0.349l-0.872-0.872l1.221-1.221l1.744,0.291V209.806z
		 M536.829,208.41l-0.698,1.744l-1.395,1.395l-0.392-0.044l-0.305-0.305l-2.442-0.349l-3.14,0.698l-1.395-0.698l2.442-0.698
		l0.698-0.698l-0.349-2.093l1.744-0.349v-0.233l0.349-0.116h2.791l2.442,0.349L536.829,208.41z M525.667,208.061l-1.953,1.116
		l-0.837,0.279h-3.14l-0.698-0.349v-0.698l2.442-1.047h3.488L525.667,208.061z M483.457,207.015l1.047-1.047h3.14l0.349,0.349
		l0.349,1.395l-0.698,0.349h-2.442L483.457,207.015z M471.946,208.759v-1.395h0.698l0.349,1.047L471.946,208.759z M546.597,249.922
		l-0.349,0.349l-1.744,0.349l-3.488-0.698l-0.233-0.698h2.326l0.698-0.349h3.14l5.93,0.349l0.349,0.698l-0.698,0.349h-3.837
		L546.597,249.922z M577.643,205.271v-1.395h1.395l0.349,1.047L577.643,205.271z M580.434,208.061l0.349,0.698h-0.698l-0.523,0.349
		h-2.616l-1.744-0.698l0.698-1.047L580.434,208.061z M574.155,208.759l-2.093,0.698l-2.442-0.349v-1.047l3.488-0.349l1.047,0.349
		V208.759z M588.457,208.759l-1.256,0.209l-0.837-0.209v-0.872l1.047-0.523l1.047,0.349V208.759z M590.55,208.759v-0.698h1.047
		v0.698H590.55z M570.318,205.271v-0.698h0.698v0.698H570.318z M524.62,204.224l-1.395,0.349v-1.047h1.395V204.224z
		 M517.643,246.782l1.047-0.698l4.884-0.349l2.093,0.349l2.442,0.349l1.047-0.698v-0.349h1.744l0.349,0.349v2.093l-0.698,0.698
		l-3.837-0.349l-4.535,1.047h-2.442l-2.093-1.395V246.782z M529.853,249.224l2.093,0.349l3.635-0.661l2.644,0.661l-0.527,1.054
		l-8.543,0.342l-0.349-1.047L529.853,249.224z M565.783,249.224l-0.349,0.039v-0.039l-8.023,0.349l0.349-0.698l3.14-0.698
		l4.578-0.327l0.654,0.327L565.783,249.224z M639.387,236.317l0.349,1.047l-0.698,0.349l-2.093-0.349v-0.698l1.196-0.598
		L639.387,236.317z M625.434,241.201v1.047h-3.14l-0.698-0.698l2.442-0.349H625.434z M633.806,237.712h-4.535l-4.884-0.349
		l-3.488-0.698l0.349-0.698l2.093-0.349l2.442-0.349l6.977,0.349l1.047,0.698V237.712z M631.015,240.852h2.442l0.698,0.349v1.047
		l-0.698,0.349h-2.093l-0.349-0.349V240.852z M620.55,236.317l-1.395,1.047h-2.442v-1.395h3.488L620.55,236.317z M629.271,226.899
		v0.349v1.047h-2.093v0.027l-2.442-0.376v-0.349l2.093-0.698H629.271z M623.341,228.294l-6.628,0.349v-1.047h6.628V228.294z
		 M600.666,237.364v-1.395l6.628,0.349l0.698,0.349v0.698l-1.047,0.698l-3.837-0.698H600.666z M577.643,212.945l-0.698,0.698h-2.093
		l-1.395-1.047h-2.093l0.349-0.349h1.744l1.047-0.698v-0.349l3.488,0.698l0.349,1.047H577.643z M581.132,211.55v1.395l-1.395-0.349
		l0.349-1.047H581.132z M505.434,204.922l-1.395,0.349v0.698l-1.395,0.698h-5.581h-2.093v-0.698l2.791-0.349l4.884-1.047
		l0.349-0.349h2.442V204.922z M496.364,179.108l0.349,1.395l-1.744,0.349l-1.744,0.349v-1.395l-1.395-1.047h-1.744l-0.258,0.516
		l-0.091,0.008v-0.174h-2.093l-3.14,0.349h-4.884l1.047-1.047l8.721-0.349l5.581-0.349v0.349L496.364,179.108z M478.574,178.759
		v0.349l-1.744,0.349v-0.698H478.574z M693.518,436.241l0.698,0.349v1.047l-2.442,0.349h-0.698l-0.698,1.047l-1.395,0.698
		l0.349-2.791l2.442-0.698H693.518z M695.611,425.427h-4.186l-1.395,1.395h-1.744v-0.698l2.442-1.744v-0.209l0.294-0.176
		l2.497-0.312l2.093,0.698l0.698,0.349l-0.349,0.523L695.611,425.427z M661.015,347.596l0.698,0.349v1.047l-2.442,0.349h-0.698
		l-0.698,1.047l-1.395,0.698l0.349-2.791l2.442-0.698H661.015z M636.658,302.986l-0.349,2.442h-1.395l-1.744-1.047l-0.396-0.792
		l1.032-0.295l0.335-1.006h1.819L636.658,302.986z M625.104,299.846h1.787l0.223,0.223L625.104,299.846z M577.705,289.73
		l0.233,0.116l0.814,1.628l-2.791-0.349L577.705,289.73z M571.774,290.776h2.442v0.698l-2.093,0.349l-1.744,0.698l-1.395-0.349
		v-1.047l0.698-0.698L571.774,290.776z M563.054,291.125h2.791l0.698,0.349v1.006h-2.852l-3.742,0.288l0.315-0.945L563.054,291.125z
		 M555.379,287.986h0.698l0.698,0.349v1.395h-0.349l-2.093-0.349l-0.349-1.395H555.379z M537.588,288.683l1.395,0.349l2.442,0.349
		l2.093,0.349v0.349l-0.698,0.698l-0.698,0.349l-3.837,0.349l-1.395-1.047l-0.349-1.047L537.588,288.683z M521.542,289.73h2.093
		l0.492,0.369l0.493,0.985h0.205l-0.492,0.739h-3.14l-0.349-0.698L521.542,289.73z M503.341,288.643l2.503-0.209v0.947h-0.698
		h-2.442l-0.222-0.371L503.341,288.643z M497.062,289.34l1.395,0.698l0.181,0.091l-0.12,0.299l0.503,1.006h-3.355l-2.442-0.349
		l-0.193,0.011l0.254-1.016l-0.045-0.045l1.379-0.345L497.062,289.34z M483.17,276.474l-1.744-0.349v1.047l0.698,1.395l0.349,1.395
		l-2.442-0.349l-1.395-1.744l0.234-2.107l0.053-0.027l0.217-1.083l1.24-0.62h1.744l0.698,1.395l0.698,0.349L483.17,276.474z
		 M487.705,274.032h-1.744l0.349-0.698h1.395V274.032z M451.713,264.224l-0.698,0.349l-1.395-0.698h-2.093v-1.047l2.093-1.047h1.744
		l0.349,0.349V264.224z M479.271,260.387v-1.047l1.744-1.047h2.791l-0.349,1.395l-2.442,1.047L479.271,260.387z M506.481,257.596
		h-1.395v-1.047h1.395V257.596z M515.55,252.364l-0.698,0.349h-1.221l-0.523-0.349l-3.837,0.349v-1.047l1.744-0.349l0.349-1.744
		l-0.698-0.698l-1.744-0.698l-1.395,1.047l-0.349,3.488h-1.047l-0.698-1.395l-1.744-1.047l-0.349-1.744l1.395,0.349l2.093-1.047
		l4.535-0.349l0.142-0.284l3.695,0.284l1.395,1.395l1.047,1.744l5.233-0.349l4.884,0.349l-0.349,0.698l-7.326,1.047H515.55z
		 M571.364,248.875h-4.186v-1.047l1.395-0.349l10.116-0.698h1.047v1.047l-4.535,0.349L571.364,248.875z M577.294,250.619h-2.791
		l0.349-1.047l2.791,0.349L577.294,250.619z M594.387,246.085l-4.535,0.349l-0.349,0.698l-1.221,0.349h-2.616l-1.395-0.698
		l0.718-0.718l5.91-0.328l1.047-0.349h2.442V246.085z M602.411,245.038l-0.349-0.698l1.395,0.349L602.411,245.038z M601.364,213.643
		h2.093l0.698,0.698l-0.349,2.442h-1.395l-1.744-1.047l-0.698-1.395L601.364,213.643z M585.666,214.34l0.349,1.395l-0.698,0.349
		l-3.837,0.698l-2.093,0.349l-1.047-0.698l-0.349-1.395l2.093-0.349l2.442-0.349H585.666z M545.201,201.085l0.233,0.116l0.814,1.628
		l-2.791-0.349L545.201,201.085z M539.271,202.131h2.442v0.698l-2.093,0.349l-1.744,0.698l-1.395-0.349v-1.047l0.698-0.698
		L539.271,202.131z M530.55,202.48h2.791l0.698,0.349v1.047l-1.047,0.349h-1.047v-0.349l-4.535,0.349l0.349-1.047L530.55,202.48z
		 M522.876,199.34h0.698l0.698,0.349v1.395h-0.349l-2.093-0.349l-0.349-1.395H522.876z M505.085,200.038l1.395,0.349l2.442,0.349
		l2.093,0.349v0.349l-0.698,0.698l-0.698,0.349l-3.837,0.349l-1.395-1.047l-0.349-1.047L505.085,200.038z M494.969,200.387
		l0.598,0.1l1.495,0.598l5.93,0.349l-0.698,0.698l-4.535,0.698l-3.14,0.349l-1.395-0.698L494.969,200.387z M489.039,201.085h2.093
		l1.395,1.047l-0.698,1.047h-3.14l-0.349-0.698L489.039,201.085z M478.922,202.48l2.442-0.698h4.535l0.349,1.744l-0.698,0.349
		h-6.628V202.48z M450.667,187.829l-1.744-0.349v1.047l0.698,1.395l0.349,1.395l-2.442-0.349l-1.395-1.744l0.349-3.14l1.395-0.698
		h1.744l0.698,1.395l0.698,0.349L450.667,187.829z M455.202,185.387h-1.744l0.349-0.698h1.395V185.387z M132.528,231.782
		l0.349,0.698l-1.744,0.349l-3.14,0.349v-1.395l0.271-0.077l2.171-0.271v-0.349L132.528,231.782z M81.249,451.898l-0.349-1.395
		l1.047-1.047h2.442v1.395l-1.395,1.395L81.249,451.898z M113.752,540.543l-0.349-1.395l1.047-1.047h2.442v1.395l-1.395,1.395
		L113.752,540.543z M363.17,540.194l-1.047-0.349v-0.698h1.047V540.194z M412.007,528.683h1.395v1.047l-2.442,0.698l-4.186,0.349
		v-0.349l2.093-1.047L412.007,528.683z M458.751,512.985l-4.186,0.349v-1.047l3.488-0.349h1.047L458.751,512.985z M515.612,500.776
		l-0.349-1.047l1.744-1.047h1.395l1.395,0.698l-1.395,1.395H515.612z"/>
	<polygon points="382.356,555.543 382.007,555.892 381.659,557.985 380.263,557.985 378.519,556.939 376.426,556.939 
		376.077,557.287 376.077,558.334 376.077,559.38 376.775,560.078 378.967,560.565 380.612,562.869 382.007,562.52 384.1,559.38 
		384.1,556.59 383.752,555.892 	"/>
	<polygon points="546.309,267.404 545.263,269.149 542.123,269.497 542.123,270.893 546.658,270.893 553.286,270.195 
		554.681,269.497 554.681,268.8 553.635,268.102 551.542,268.102 551.5,268.228 547.705,268.451 547.705,267.753 	"/>
	<polygon points="499.565,284.846 500.263,285.195 503.402,285.195 510.03,284.846 510.379,283.8 508.984,282.056 507.589,281.707 
		506.193,282.753 503.751,283.102 503.054,282.404 501.042,283.41 500.899,283.41 500.915,283.474 499.565,284.149 	"/>
	<polygon points="566.542,489.962 564.798,490.66 563.751,490.311 558.17,490.311 557.821,491.357 560.263,493.45 562.705,492.753 
		565.844,492.404 569.333,490.66 569.333,489.962 568.635,489.613 	"/>
	<polygon points="664.216,301.59 664.914,302.288 674.681,302.288 677.123,301.939 677.123,301.242 670.495,300.195 
		664.914,300.195 664.216,300.544 	"/>
	<polygon points="637.704,514.381 637.007,512.985 635.611,512.288 634.565,514.032 632.123,514.032 631.425,515.078 
		632.123,516.474 633.867,516.474 634.565,517.869 636.309,517.869 637.356,515.776 	"/>
	<polygon points="588.867,484.032 583.635,484.729 578.751,485.078 577.705,485.427 577.356,486.474 580.844,487.171 
		582.588,486.474 587.123,485.776 587.821,485.427 591.309,485.078 592.007,484.729 592.356,483.683 589.565,483.683 	"/>
	<polygon points="446.542,536.008 445.845,534.962 443.403,534.962 440.263,535.311 439.565,535.66 439.217,537.055 
		440.263,538.101 443.054,538.45 444.798,537.753 	"/>
	<polygon points="668.402,297.753 672.588,298.451 677.472,297.753 677.472,296.707 675.03,296.009 674.332,294.963 
		672.588,294.614 670.844,296.009 668.053,297.056 	"/>
	<polygon points="530.961,274.032 530.961,275.428 532.007,276.125 532.705,277.521 534.449,278.567 536.542,276.823 
		536.542,275.079 535.147,273.684 531.658,273.684 	"/>
	<polygon points="659.332,293.567 661.425,294.265 664.216,294.963 664.914,296.009 668.402,296.009 669.1,295.66 669.1,294.265 
		667.704,293.567 659.681,292.521 	"/>
	<polygon points="360.031,559.38 356.891,559.38 351.659,559.032 343.287,560.776 333.519,561.473 330.38,562.52 330.322,562.578 
		327.489,563.218 327.24,563.218 321.31,564.613 317.124,565.311 312.589,565.311 311.543,563.218 309.798,563.218 309.101,564.264 
		309.101,566.357 306.659,566.357 305.961,566.706 299.566,567.985 296.543,567.753 296.194,568.799 295.147,569.497 
		290.612,569.846 289.217,570.543 286.775,570.543 282.938,571.939 278.054,572.287 274.566,572.985 269.682,573.334 
		270.729,571.939 273.968,570.942 274.217,570.892 278.248,570.272 279.101,570.194 281.891,568.799 285.455,568.475 
		287.473,569.148 291.659,566.706 291.667,566.68 293.403,565.659 296.543,564.962 299.333,563.915 305.961,562.52 306.31,561.822 
		303.868,561.822 295.147,562.869 285.031,565.659 285.031,565.679 282.589,566.357 279.45,566.706 273.589,568.101 
		273.519,568.101 272.124,568.45 268.287,569.846 263.752,569.846 263.403,570.543 261.659,571.241 259.915,571.939 
		254.682,572.636 249.799,573.683 242.124,574.032 238.287,575.427 237.938,577.171 238.636,577.869 244.566,577.869 
		245.612,576.822 248.403,575.427 251.543,575.078 256.078,574.032 260.612,574.032 260.961,575.078 254.333,577.171 
		251.892,577.869 251.543,577.869 247.008,579.264 240.729,579.962 238.287,581.008 238.985,582.055 245.612,581.706 
		250.147,581.706 250.147,582.752 247.705,584.148 247.705,585.194 250.147,584.845 255.729,584.148 255.714,584.119 
		258.171,583.799 258.519,583.45 259.566,581.357 265.147,581.706 265.496,579.962 264.798,579.264 265.147,577.869 
		270.031,576.473 275.264,575.776 283.984,573.683 290.264,572.985 290.961,574.729 292.357,575.078 292.008,572.985 
		300.729,573.334 309.45,573.334 315.729,571.59 321.659,569.497 323.403,568.45 326.194,568.45 330.729,568.101 333.17,567.404 
		336.31,567.404 336.659,569.148 337.356,569.497 339.449,571.241 340.496,570.892 340.496,566.357 341.194,566.357 
		344.682,564.962 358.287,563.218 363.519,562.52 366.659,561.473 366.659,560.427 362.821,560.078 	"/>
	<polygon points="424.217,553.101 422.472,552.753 421.426,553.799 421.775,556.59 421.775,559.032 423.868,562.869 425.961,562.52 
		426.659,561.125 427.007,556.59 425.263,555.194 	"/>
	<polygon points="572.821,279.963 573.519,279.265 573.17,277.172 571.774,275.777 569.333,275.428 569.333,278.218 
		568.984,278.567 569.681,279.963 	"/>
	<polygon points="608.402,266.707 608.053,266.009 602.123,266.009 599.333,266.358 596.891,267.056 596.891,267.753 
		597.937,268.102 605.263,267.753 	"/>
	<polygon points="478.635,532.869 479.333,530.776 478.635,530.427 476.891,528.683 475.496,528.334 474.798,529.032 
		475.147,532.171 476.193,533.218 477.589,533.567 	"/>
	<polygon points="418.984,577.52 418.635,578.915 421.775,581.357 423.868,580.659 424.217,579.264 422.124,577.52 	"/>
	<polygon points="492.937,532.171 491.193,533.915 491.542,535.66 494.333,536.008 495.728,534.962 496.077,533.218 495.379,532.52 
			"/>
	<polygon points="652.007,300.544 649.914,301.242 649.914,302.288 656.193,302.288 657.588,301.242 656.891,300.544 
		654.449,300.195 	"/>
	<polygon points="433.286,544.38 431.542,545.078 431.193,546.822 431.891,547.52 434.333,547.869 435.379,546.822 435.031,544.38 	
		"/>
	<polygon points="649.216,547.52 647.821,547.869 646.425,548.218 645.728,548.915 646.077,549.962 650.263,550.311 
		651.658,549.962 651.658,548.218 651.309,547.869 	"/>
	<polygon points="122.124,595.311 121.427,596.008 121.078,598.45 121.776,599.148 123.869,599.148 124.566,598.101 
		124.566,596.008 123.869,595.311 	"/>
	<polygon points="494.333,525.194 492.589,525.194 490.844,525.543 487.705,525.543 484.217,525.892 483.17,526.59 486.31,526.939 
		490.844,526.939 493.984,526.241 	"/>
	<polygon points="658.984,297.404 650.96,297.056 649.914,297.404 649.565,298.8 654.797,298.8 658.635,298.102 	"/>
	<polygon points="638.053,546.822 637.356,547.52 637.704,549.962 639.797,550.311 640.844,549.613 641.193,547.869 
		640.146,546.822 	"/>
	<polygon points="592.356,271.939 595.844,271.242 595.844,269.846 593.751,269.497 591.309,269.846 590.263,270.893 
		590.612,271.939 	"/>
	<polygon points="619.216,289.032 622.356,288.683 623.402,287.637 623.053,286.939 620.96,286.939 620.263,287.288 
		616.774,287.288 616.425,288.683 617.472,289.381 	"/>
	<polygon points="627.588,519.613 627.937,521.706 629.332,523.101 630.728,522.753 631.077,522.055 631.077,520.66 
		628.635,519.264 	"/>
	<polygon points="426.659,539.148 425.961,539.497 425.961,541.241 426.31,541.59 429.449,542.287 429.798,540.543 428.752,539.497 
			"/>
	<polygon points="626.891,282.404 626.193,282.056 622.007,282.056 621.309,283.102 623.053,284.149 626.542,283.451 	"/>
	<polygon points="444.1,578.218 443.751,578.566 443.403,579.962 445.147,581.706 446.542,581.357 446.891,579.613 445.496,578.566 
			"/>
	<polygon points="609.1,277.521 609.449,277.87 611.542,277.87 611.891,277.521 612.588,276.125 611.542,275.079 609.798,275.079 
		609.1,275.777 	"/>
	<polygon points="540.379,528.683 540.03,529.032 539.682,532.52 540.03,533.218 541.077,533.567 543.519,533.567 544.216,533.218 
		544.216,531.125 542.472,529.032 	"/>
	<polygon points="127.706,581.357 127.008,581.706 127.008,582.404 128.403,583.45 131.892,583.45 131.194,581.706 	"/>
	<polygon points="502.356,523.45 500.961,525.194 501.309,527.985 502.007,532.52 503.402,532.869 504.798,532.171 504.798,529.38 
		505.496,527.636 505.844,524.846 504.449,523.45 	"/>
	<polygon points="662.821,291.125 663.17,290.079 662.472,289.73 658.635,289.73 658.286,290.776 659.332,291.474 	"/>
	<polygon points="493.635,279.963 495.728,279.265 495.728,277.87 493.984,277.521 492.727,278.275 492.876,277.829 491.481,277.48 
		491.132,278.526 492.167,278.785 491.891,279.614 	"/>
	<polygon points="415.845,573.334 415.496,575.078 416.542,576.125 417.938,576.125 418.286,574.729 417.589,573.683 	"/>
	<polygon points="394.914,561.822 394.566,563.218 395.612,564.613 397.356,564.264 397.356,562.52 396.659,561.822 	"/>
	<polygon points="613.635,524.148 612.239,522.055 610.495,521.706 609.798,522.404 609.798,524.497 610.844,525.892 
		613.286,526.241 613.635,525.892 	"/>
	<polygon points="562.007,282.753 564.449,283.102 566.193,282.753 565.495,281.358 562.007,281.358 	"/>
	<polygon points="633.867,298.102 634.565,299.149 636.309,299.497 637.704,298.8 637.356,297.404 634.914,297.404 	"/>
	<polygon points="597.588,284.497 597.588,283.451 596.542,282.753 594.449,282.753 594.1,283.102 594.1,284.149 595.844,284.846 	
		"/>
	<polygon points="371.891,552.753 371.194,553.101 371.542,554.846 373.635,554.846 374.333,554.148 373.984,552.753 	"/>
	<polygon points="618.867,534.264 618.518,534.613 618.17,534.962 617.472,534.264 615.728,532.171 615.03,532.171 614.332,532.52 
		614.283,532.67 613.984,532.869 613.635,534.962 614.681,537.055 614.943,537.317 615.379,538.101 615.815,538.189 616.077,538.45 
		616.542,538.334 617.123,538.45 617.239,538.16 617.472,538.101 617.391,537.779 617.821,536.706 619.216,537.055 620.612,536.706 
		620.612,534.962 620.263,534.613 	"/>
	<polygon points="639.449,530.776 639.449,531.822 640.844,533.567 642.239,533.915 642.239,532.52 641.193,531.125 	"/>
	<polygon points="594.798,278.218 594.798,277.172 590.96,276.823 590.96,277.87 592.356,278.567 	"/>
	<polygon points="576.309,276.823 576.309,275.777 575.263,273.684 573.867,273.684 573.867,275.079 574.565,276.474 	"/>
	<polygon points="545.263,510.543 545.612,512.985 547.007,512.985 547.356,512.288 547.007,510.543 	"/>
	<polygon points="323.752,580.311 323.403,582.055 324.101,582.752 325.845,582.404 325.147,580.659 	"/>
	<polygon points="633.518,499.381 632.821,497.636 631.077,497.636 631.077,499.381 631.774,499.729 	"/>
	<polygon points="591.309,267.056 588.867,267.056 582.588,267.404 581.891,267.753 579.798,267.404 573.519,267.753 
		571.774,268.102 571.077,268.8 571.774,269.846 574.914,269.846 575.96,270.544 575.96,274.032 578.053,274.73 578.402,275.777 
		577.705,275.777 577.356,276.125 577.356,277.87 575.96,278.567 577.007,279.963 580.495,279.963 583.286,279.614 587.123,278.916 
		587.123,277.521 584.333,276.823 583.286,276.125 581.542,275.428 581.077,275.893 580.844,275.777 580.844,276.125 
		580.495,276.474 579.1,276.823 579.449,274.73 580.495,272.637 582.24,272.288 583.635,271.242 583.286,270.195 581.891,270.544 
		579.449,270.893 578.751,270.195 580.844,269.497 582.588,269.846 583.984,269.497 587.123,268.451 591.309,268.451 	"/>
	<polygon points="618.867,282.753 616.077,282.753 616.425,284.149 618.518,284.149 	"/>
	<polygon points="603.867,544.032 603.519,544.38 603.867,545.776 605.612,546.125 605.263,544.38 	"/>
	<polygon points="661.774,301.242 661.425,300.195 659.332,300.195 658.286,300.893 659.681,301.59 	"/>
	<polygon points="500.263,509.846 501.658,510.194 504.1,510.194 503.054,509.148 500.263,509.148 	"/>
	<polygon points="613.984,268.8 612.588,268.451 612.239,269.846 613.984,270.195 	"/>
	<polygon points="326.194,583.101 326.194,585.194 327.24,585.194 327.589,583.45 326.543,582.752 	"/>
	<polygon points="654.1,495.195 655.495,495.543 655.844,494.148 654.449,493.45 	"/>
	<polygon points="595.146,265.66 595.146,264.614 593.751,264.265 593.053,264.614 593.751,266.009 	"/>
	<polygon points="408.868,560.776 409.914,561.125 410.263,559.38 409.217,559.032 	"/>
	<polygon points="180.031,579.962 179.682,581.008 182.124,580.659 182.124,579.962 180.729,579.613 	"/>
	<polygon points="586.426,290.079 586.774,289.032 585.03,288.683 584.681,289.73 	"/>
	<polygon points="542.472,283.102 542.123,284.497 543.519,284.846 543.868,283.8 	"/>
	<polygon points="603.519,508.799 605.263,509.148 605.612,508.101 604.216,507.753 	"/>
	<polygon points="388.287,547.171 389.333,547.52 389.682,545.776 388.635,545.776 	"/>
	<polygon points="588.519,261.823 590.263,262.172 590.612,261.125 589.565,260.777 588.519,261.125 	"/>
	<polygon points="554.681,504.613 555.728,504.962 556.077,503.567 555.03,503.218 	"/>
	<polygon points="184.566,579.962 186.31,580.311 186.659,579.264 185.264,579.264 	"/>
	<polygon points="635.611,481.939 634.565,481.939 634.216,482.985 635.611,483.334 	"/>
	<polygon points="613.984,287.288 612.239,286.939 611.891,287.637 613.635,287.986 	"/>
	<polygon points="347.124,590.427 348.519,590.776 348.519,589.729 347.473,589.38 	"/>
	<polygon points="667.704,297.404 664.565,297.404 664.565,298.102 667.704,297.753 	"/>
	<polygon points="633.518,287.986 635.263,287.637 635.263,286.939 633.518,286.939 	"/>
	<polygon points="612.239,279.614 611.193,279.265 610.495,279.963 611.891,280.66 	"/>
	<polygon points="584.333,262.521 584.333,261.823 582.937,261.474 582.24,261.823 582.588,262.521 	"/>
	<rect x="428.752" y="582.055" width="1.047" height="1.395"/>
	
		<rect x="399.247" y="578.713" transform="matrix(0.3162 -0.9487 0.9487 0.3162 -276.1673 775.3665)" width="1.103" height="1.103"/>
	<polygon points="547.007,500.427 546.309,500.427 545.961,501.822 547.007,501.822 	"/>
	<polygon points="610.495,266.358 611.891,266.707 612.239,266.009 610.844,265.66 	"/>
	<polygon points="315.031,584.148 316.077,584.148 316.426,583.45 315.031,583.101 	"/>
	<polygon points="419.333,535.66 418.984,536.357 420.379,536.706 420.379,535.66 	"/>
	<polygon points="576.309,499.032 577.007,499.381 577.356,497.985 576.309,497.985 	"/>
	<polygon points="687.239,414.613 686.193,414.613 685.844,415.311 687.239,415.66 	"/>
	<polygon points="589.914,264.963 591.309,265.311 591.309,264.265 590.263,264.265 	"/>
	<polygon points="589.914,258.335 588.867,257.986 588.519,259.032 589.914,259.032 	"/>
	<polygon points="421.077,566.008 420.728,566.706 421.775,567.055 422.124,566.008 	"/>
	<polygon points="363.17,564.962 364.217,565.311 364.566,564.613 363.17,564.264 	"/>
	<polygon points="243.519,590.776 244.217,590.776 244.566,589.729 243.519,589.729 	"/>
	<polygon points="530.612,516.822 531.658,517.171 532.007,516.474 530.961,516.125 	"/>
	<polygon points="542.821,498.334 541.775,497.985 541.775,499.032 542.821,499.032 	"/>
	<rect x="661.425" y="287.637" width="1.395" height="0.698"/>
	<polygon points="302.124,581.706 302.822,582.055 303.17,581.008 302.124,581.008 	"/>
	<polygon points="640.844,283.102 639.449,282.753 639.449,283.451 	"/>
	<rect x="483.519" y="545.776" width="0.698" height="1.047"/>
	<polygon points="369.101,561.125 370.147,560.776 369.101,560.427 	"/>
	<polygon points="604.216,524.148 604.914,524.148 604.565,523.101 	"/>
	<rect x="417.24" y="585.892" width="0.698" height="0.698"/>
	<polygon points="600.379,270.544 599.333,270.195 599.333,270.544 	"/>
	<polygon points="400.845,566.706 401.542,566.706 400.845,566.008 	"/>
	<polygon points="580.844,488.567 581.542,488.567 580.844,487.869 	"/>
	<polygon points="634.216,282.404 634.565,283.102 634.914,282.404 	"/>
	<polygon points="604.914,269.846 604.216,269.846 604.565,270.544 	"/>
</g>
</svg>
